<svg id="Grupo_1071665" data-name="Grupo 1071665" xmlns="http://www.w3.org/2000/svg" xmlns:xlink="http://www.w3.org/1999/xlink" width="391.954" height="591.85" viewBox="0 0 391.954 591.85">
  <defs>
    <clipPath id="clip-path">
      <rect id="Rectángulo_377630" data-name="Rectángulo 377630" width="391.954" height="591.85" fill="none"/>
    </clipPath>
    <clipPath id="clip-path-3">
      <rect id="Rectángulo_377602" data-name="Rectángulo 377602" width="85.419" height="17.495" fill="none"/>
    </clipPath>
    <clipPath id="clip-path-5">
      <rect id="Rectángulo_377606" data-name="Rectángulo 377606" width="51.514" height="79.931" fill="none"/>
    </clipPath>
    <clipPath id="clip-path-8">
      <rect id="Rectángulo_377612" data-name="Rectángulo 377612" width="9.145" height="30.695" fill="none"/>
    </clipPath>
    <clipPath id="clip-path-9">
      <rect id="Rectángulo_377613" data-name="Rectángulo 377613" width="13.585" height="3.986" fill="none"/>
    </clipPath>
    <clipPath id="clip-path-10">
      <rect id="Rectángulo_377614" data-name="Rectángulo 377614" width="14.824" height="17.103" fill="none"/>
    </clipPath>
    <clipPath id="clip-path-11">
      <rect id="Rectángulo_377615" data-name="Rectángulo 377615" width="9.901" height="12.882" fill="none"/>
    </clipPath>
    <clipPath id="clip-path-12">
      <rect id="Rectángulo_377617" data-name="Rectángulo 377617" width="19.486" height="107.54" fill="none"/>
    </clipPath>
    <clipPath id="clip-path-13">
      <rect id="Rectángulo_377618" data-name="Rectángulo 377618" width="17.043" height="17.103" fill="none"/>
    </clipPath>
    <clipPath id="clip-path-14">
      <rect id="Rectángulo_377620" data-name="Rectángulo 377620" width="3.463" height="7.486" fill="none"/>
    </clipPath>
    <clipPath id="clip-path-16">
      <rect id="Rectángulo_377622" data-name="Rectángulo 377622" width="3.465" height="7.486" fill="none"/>
    </clipPath>
    <clipPath id="clip-path-18">
      <rect id="Rectángulo_377624" data-name="Rectángulo 377624" width="15.776" height="15.346" fill="none"/>
    </clipPath>
    <clipPath id="clip-path-19">
      <rect id="Rectángulo_377625" data-name="Rectángulo 377625" width="99.04" height="66.969" fill="none"/>
    </clipPath>
    <clipPath id="clip-path-20">
      <rect id="Rectángulo_377626" data-name="Rectángulo 377626" width="17.659" height="101.744" fill="none"/>
    </clipPath>
    <clipPath id="clip-path-21">
      <rect id="Rectángulo_377627" data-name="Rectángulo 377627" width="13.519" height="15.346" fill="none"/>
    </clipPath>
    <clipPath id="clip-path-22">
      <rect id="Rectángulo_377628" data-name="Rectángulo 377628" width="15.238" height="51.905" fill="none"/>
    </clipPath>
  </defs>
  <g id="Grupo_1071664" data-name="Grupo 1071664" clip-path="url(#clip-path)">
    <g id="Grupo_1071611" data-name="Grupo 1071611">
      <g id="Grupo_1071610" data-name="Grupo 1071610" clip-path="url(#clip-path)">
        <path id="Trazado_820003" data-name="Trazado 820003" d="M142.194,17.495C140.592,7.833,147.127,0,156.789,0H86.208c-9.663,0-16.2,7.833-14.6,17.495Z" transform="translate(53.527)" fill="#407bff"/>
        <g id="Grupo_1071600" data-name="Grupo 1071600" transform="translate(124.896)" opacity="0.3">
          <g id="Grupo_1071599" data-name="Grupo 1071599">
            <g id="Grupo_1071598" data-name="Grupo 1071598" clip-path="url(#clip-path-3)">
              <path id="Trazado_820004" data-name="Trazado 820004" d="M142.194,17.495C140.592,7.833,147.127,0,156.789,0H86.208c-9.663,0-16.2,7.833-14.6,17.495Z" transform="translate(-71.37)"/>
            </g>
          </g>
        </g>
        <path id="Trazado_820005" data-name="Trazado 820005" d="M150.43,0H79.848c9.663,0,18.795,7.833,20.4,17.495L115.711,110.8c1.6,9.663,10.733,17.5,20.394,17.5H171.7c9.663,0,16.2-7.833,14.595-17.5L170.826,17.495C169.223,7.833,160.092,0,150.43,0" transform="translate(59.885)" fill="#407bff"/>
        <path id="Trazado_820006" data-name="Trazado 820006" d="M126.591,63.317c1.6,9.662-4.933,17.5-14.595,17.5h70.581c9.663,0,16.2-7.835,14.6-17.5Z" transform="translate(83.996 47.487)" fill="#407bff"/>
        <g id="Grupo_1071603" data-name="Grupo 1071603" transform="translate(195.99 110.804)" opacity="0.3">
          <g id="Grupo_1071602" data-name="Grupo 1071602">
            <g id="Grupo_1071601" data-name="Grupo 1071601" clip-path="url(#clip-path-3)">
              <path id="Trazado_820007" data-name="Trazado 820007" d="M126.591,63.317c1.6,9.662-4.933,17.5-14.595,17.5h70.581c9.663,0,16.2-7.835,14.6-17.5Z" transform="translate(-111.994 -63.317)"/>
            </g>
          </g>
        </g>
        <path id="Trazado_820008" data-name="Trazado 820008" d="M148.955,15.489H98.562a1.288,1.288,0,0,1-1.22-1.046.867.867,0,0,1,.873-1.048h50.393a1.29,1.29,0,0,1,1.22,1.048.866.866,0,0,1-.873,1.046" transform="translate(72.995 10.045)" fill="#fff"/>
        <path id="Trazado_820009" data-name="Trazado 820009" d="M120.515,19.653H99.252a1.292,1.292,0,0,1-1.221-1.046.869.869,0,0,1,.875-1.048h21.262a1.29,1.29,0,0,1,1.22,1.048.866.866,0,0,1-.873,1.046" transform="translate(73.512 13.168)" fill="#fff"/>
        <path id="Trazado_820010" data-name="Trazado 820010" d="M128.936,19.653H114.248a1.29,1.29,0,0,1-1.22-1.046.867.867,0,0,1,.873-1.048h14.688a1.29,1.29,0,0,1,1.22,1.048.866.866,0,0,1-.873,1.046" transform="translate(84.759 13.168)" fill="#fff"/>
        <path id="Trazado_820011" data-name="Trazado 820011" d="M150.335,23.817H99.942a1.288,1.288,0,0,1-1.22-1.046.867.867,0,0,1,.873-1.048h50.393a1.29,1.29,0,0,1,1.22,1.048.866.866,0,0,1-.873,1.046" transform="translate(74.03 16.291)" fill="#fff"/>
        <path id="Trazado_820012" data-name="Trazado 820012" d="M146.049,27.981H100.632a1.288,1.288,0,0,1-1.22-1.046.867.867,0,0,1,.873-1.048H145.7a1.29,1.29,0,0,1,1.22,1.048.866.866,0,0,1-.873,1.046" transform="translate(74.547 19.414)" fill="#fff"/>
        <path id="Trazado_820013" data-name="Trazado 820013" d="M131.882,32.144h-30.56A1.286,1.286,0,0,1,100.1,31.1a.868.868,0,0,1,.873-1.048h30.56a1.292,1.292,0,0,1,1.22,1.048.865.865,0,0,1-.873,1.046" transform="translate(75.065 22.536)" fill="#fff"/>
        <path id="Trazado_820014" data-name="Trazado 820014" d="M152.4,36.308H102.012a1.288,1.288,0,0,1-1.22-1.046.867.867,0,0,1,.873-1.048h50.393a1.29,1.29,0,0,1,1.22,1.048.866.866,0,0,1-.873,1.046" transform="translate(75.582 25.659)" fill="#fff"/>
        <path id="Trazado_820015" data-name="Trazado 820015" d="M153.1,40.472H102.7a1.288,1.288,0,0,1-1.22-1.046.867.867,0,0,1,.873-1.048h50.393a1.29,1.29,0,0,1,1.22,1.048.866.866,0,0,1-.873,1.046" transform="translate(76.1 28.782)" fill="#fff"/>
        <path id="Trazado_820016" data-name="Trazado 820016" d="M133.953,44.636h-30.56a1.288,1.288,0,0,1-1.22-1.046.867.867,0,0,1,.873-1.048h30.56a1.291,1.291,0,0,1,1.22,1.048.866.866,0,0,1-.873,1.046" transform="translate(76.618 31.905)" fill="#fff"/>
        <rect id="Rectángulo_377604" data-name="Rectángulo 377604" width="91.76" height="3.705" transform="translate(239.506 96.573) rotate(-58.186)" fill="#263238"/>
        <g id="Grupo_1071606" data-name="Grupo 1071606" transform="translate(239.509 18.597)" opacity="0.3">
          <g id="Grupo_1071605" data-name="Grupo 1071605">
            <g id="Grupo_1071604" data-name="Grupo 1071604" clip-path="url(#clip-path-5)">
              <rect id="Rectángulo_377605" data-name="Rectángulo 377605" width="91.76" height="3.705" transform="translate(-0.003 77.976) rotate(-58.186)"/>
            </g>
          </g>
        </g>
        <rect id="Rectángulo_377607" data-name="Rectángulo 377607" width="91.76" height="3.705" transform="translate(233.208 92.667) rotate(-58.186)" fill="#263238"/>
        <g id="Grupo_1071609" data-name="Grupo 1071609" transform="translate(233.21 14.691)" opacity="0.3">
          <g id="Grupo_1071608" data-name="Grupo 1071608">
            <g id="Grupo_1071607" data-name="Grupo 1071607" clip-path="url(#clip-path-5)">
              <rect id="Rectángulo_377608" data-name="Rectángulo 377608" width="91.76" height="3.705" transform="translate(-0.002 77.976) rotate(-58.186)"/>
            </g>
          </g>
        </g>
        <rect id="Rectángulo_377610" data-name="Rectángulo 377610" width="91.76" height="3.705" transform="translate(236.357 94.62) rotate(-58.186)" fill="#263238"/>
        <path id="Trazado_820017" data-name="Trazado 820017" d="M133.216,60.47l2.833,1.757,6.7-3.414L133.3,52.954Z" transform="translate(99.911 39.715)" fill="#ff8b7b"/>
        <path id="Trazado_820018" data-name="Trazado 820018" d="M133.2,60.471l2.87-1.463-2.833-1.759Z" transform="translate(99.895 42.936)" fill="#263238"/>
        <path id="Trazado_820019" data-name="Trazado 820019" d="M148.45,63.141a.439.439,0,0,1-.133-.021c-2.426-.772-4.263-2.639-6.041-4.443a25.208,25.208,0,0,0-3.309-3,.974.974,0,0,0-1.276-.012.852.852,0,0,0,0,1.141c.427.619.889,1.225,1.372,1.8a1.291,1.291,0,0,1,.144,1.545,1.179,1.179,0,0,1-1.374.434,16.8,16.8,0,0,1-1.962-.751.337.337,0,0,0-.39.028.357.357,0,0,0-.035.408l.091.212a1.429,1.429,0,0,1-1.423,2.026,224.116,224.116,0,0,0-23.124.08.437.437,0,1,1-.039-.873,224.819,224.819,0,0,1,23.212-.08.6.6,0,0,0,.529-.226.613.613,0,0,0,.037-.593l-.082-.192a1.229,1.229,0,0,1,.219-1.384,1.2,1.2,0,0,1,1.368-.2,16.282,16.282,0,0,0,1.862.712.318.318,0,0,0,.385-.086.42.42,0,0,0-.089-.5c-.5-.6-.978-1.227-1.419-1.867a1.718,1.718,0,0,1,.1-2.259,1.844,1.844,0,0,1,2.392-.082,26,26,0,0,1,3.432,3.1c1.7,1.729,3.463,3.517,5.682,4.224a.437.437,0,0,1-.133.854" transform="translate(82.901 40.924)" fill="#fff"/>
        <path id="Trazado_820020" data-name="Trazado 820020" d="M132.973,104.784l11.693-20.253H121.279Z" transform="translate(90.958 63.398)" fill="#407bff"/>
      </g>
    </g>
    <g id="Grupo_1071646" data-name="Grupo 1071646">
      <g id="Grupo_1071645" data-name="Grupo 1071645" clip-path="url(#clip-path)">
        <path id="Trazado_820021" data-name="Trazado 820021" d="M228.108,70.138a25.881,25.881,0,0,0-18.084-6.485c-4.263-8.563-13.032-13.58-22.305-11.882C174.424,54.2,170.373,70.18,179.6,76.014a39.741,39.741,0,0,0,9.838,4.471c-.014.14-.033.278-.047.42-11.044,4.273-18.923,13.895-19.749,25.888-1.361,19.82,19.922,31.393,31.582,20.373a58.608,58.608,0,0,0,4.534-4.816c2.233,3.148,4.653,6.368,7.255,9.728,28.94-13.326,33.831-45.783,15.1-61.941" transform="translate(127.18 38.58)" fill="#263238"/>
        <path id="Trazado_820022" data-name="Trazado 820022" d="M199.037,106.591c-.173,2.45-.392,4.573-.695,6.816-.289,2.214-.627,4.412-.985,6.6-.737,4.384-1.722,8.72-2.791,13.041a137.5,137.5,0,0,1-8.893,25.35l-.353.77c-.14.3-.175.409-.443.926a14.207,14.207,0,0,1-1.556,2.443,15.533,15.533,0,0,1-4.007,3.587,23.283,23.283,0,0,1-8.2,2.994,51.893,51.893,0,0,1-14.4.2,117.243,117.243,0,0,1-25.945-6.258l1.918-7c4.048.613,8.267,1.176,12.386,1.552a106.984,106.984,0,0,0,12.253.614,44.981,44.981,0,0,0,11.168-1.186,10.6,10.6,0,0,0,3.689-1.657,2.349,2.349,0,0,0,.681-.751,1.14,1.14,0,0,0,.117-.289l.479-1.249c.738-1.879,1.451-3.769,2.077-5.707.693-1.9,1.253-3.871,1.867-5.81,1.1-3.932,2.193-7.878,3.073-11.895.9-4.009,1.636-8.064,2.317-12.122.688-4.009,1.221-8.248,1.631-12.038Z" transform="translate(98.074 79.148)" fill="#ffb573"/>
        <path id="Trazado_820023" data-name="Trazado 820023" d="M168.384,96.539c-5.9,1.5-10.036,25.8-10.036,25.8l16.273,11.067s15.6-24.516,11.06-31.008c-4.732-6.76-8.68-8.057-17.3-5.862" transform="translate(118.759 71.668)" fill="#263238"/>
        <g id="Grupo_1071614" data-name="Grupo 1071614" transform="translate(283.139 173.636)" opacity="0.2">
          <g id="Grupo_1071613" data-name="Grupo 1071613">
            <g id="Grupo_1071612" data-name="Grupo 1071612" clip-path="url(#clip-path-8)">
              <path id="Trazado_820024" data-name="Trazado 820024" d="M166.331,99.221,161.8,123.713l9.145,6.2Z" transform="translate(-161.795 -99.221)"/>
            </g>
          </g>
        </g>
        <path id="Trazado_820025" data-name="Trazado 820025" d="M133.123,134.818l-11.049,4.3,12.472,7.53s7.964-4.606,7.77-10.559l-1.23-.7a9.3,9.3,0,0,0-7.962-.576" transform="translate(91.554 100.636)" fill="#ffb573"/>
        <g id="Grupo_1071617" data-name="Grupo 1071617" transform="translate(215.259 235.993)" opacity="0.1">
          <g id="Grupo_1071616" data-name="Grupo 1071616">
            <g id="Grupo_1071615" data-name="Grupo 1071615" clip-path="url(#clip-path-9)">
              <path id="Trazado_820026" data-name="Trazado 820026" d="M131.606,134.854s-3.248,1.113-5.474,1.885A30.363,30.363,0,0,0,123,138s3.612,1.507,5.4.492c2.427.557,8.186-.493,8.186-.493Z" transform="translate(-123.007 -134.854)"/>
            </g>
          </g>
        </g>
        <path id="Trazado_820027" data-name="Trazado 820027" d="M118.149,145.151l9.387,7.819,9.954-8.437L125.018,137Z" transform="translate(88.61 102.751)" fill="#ffb573"/>
        <path id="Trazado_820028" data-name="Trazado 820028" d="M188.89,344.062H174.562l-.957-33.18h14.327Z" transform="translate(130.202 233.158)" fill="#ffb573"/>
        <path id="Trazado_820029" data-name="Trazado 820029" d="M185.341,328.894h16.1a1.132,1.132,0,0,1,1.143.978l1.836,12.736a2.3,2.3,0,0,1-2.3,2.546c-5.612-.1-8.316-.425-15.395-.425-4.356,0-16.863.453-22.878.453-5.882,0-6.333-5.947-3.829-6.485,11.228-2.415,19.147-5.745,22.93-8.923a3.738,3.738,0,0,1,2.394-.88" transform="translate(118.931 246.667)" fill="#263238"/>
        <g id="Grupo_1071620" data-name="Grupo 1071620" transform="translate(303.81 544.049)" opacity="0.2">
          <g id="Grupo_1071619" data-name="Grupo 1071619">
            <g id="Grupo_1071618" data-name="Grupo 1071618" clip-path="url(#clip-path-10)">
              <path id="Trazado_820030" data-name="Trazado 820030" d="M173.607,310.887l.49,17.1h14.334l-.49-17.1Z" transform="translate(-173.607 -310.887)"/>
            </g>
          </g>
        </g>
        <path id="Trazado_820031" data-name="Trazado 820031" d="M164.813,97.9s-6.825,2.4,6.848,86.474H229.85c-.976-23.683-1-38.286,10.316-86.889a171.71,171.71,0,0,0-24.71-3.257c-9.793-.471-17.815-.784-26.423,0-11.35,1.036-24.22,3.67-24.22,3.67" transform="translate(122.33 70.31)" fill="#263238"/>
        <path id="Trazado_820032" data-name="Trazado 820032" d="M192.847,120.691a25.993,25.993,0,0,1-13.491-4.268.437.437,0,1,1,.5-.716c.066.046,6.807,4.679,14.481,4.048,1.914-1.2,15.106-10.012,16.1-25.244a.449.449,0,0,1,.466-.408.437.437,0,0,1,.408.466c-1.019,15.6-14.01,24.383-16.6,25.986a.432.432,0,0,1-.191.063c-.564.051-1.122.074-1.671.074" transform="translate(134.374 70.576)" fill="#fff"/>
        <path id="Trazado_820033" data-name="Trazado 820033" d="M173.927,118a.441.441,0,0,1-.229-.065c-1.092-.675-1.81-2.081-2.135-4.175-.826-5.343,1.153-14.665,5.315-19.5a.437.437,0,1,1,.661.57c-3.888,4.52-5.906,13.652-5.112,18.795a5.145,5.145,0,0,0,1.628,3.5c2.313-.079,7.012-2.193,7.059-2.215a.438.438,0,0,1,.361.8c-.206.093-5.1,2.294-7.548,2.294" transform="translate(128.532 70.577)" fill="#fff"/>
        <path id="Trazado_820034" data-name="Trazado 820034" d="M202.741,77.02c-1.666,8.5-3.33,24.08,2.618,29.752,0,0-2.324,8.626-18.121,8.626-17.37,0-8.3-8.624-8.3-8.624,9.48-2.264,9.236-9.3,7.584-15.9Z" transform="translate(132.425 57.764)" fill="#ffb573"/>
        <path id="Trazado_820035" data-name="Trazado 820035" d="M205.733,94.234c-9.793-.481-17.81-.8-26.42,0l-1.72.166c-2.112,4-2.648,10.146,2.406,19.162,0,0,23.179-9.331,29.214-19.106-1.148-.093-2.315-.166-3.481-.222" transform="translate(132.044 70.31)" fill="#ffb573"/>
        <g id="Grupo_1071623" data-name="Grupo 1071623" transform="translate(318.953 140.435)" opacity="0.2">
          <g id="Grupo_1071622" data-name="Grupo 1071622">
            <g id="Grupo_1071621" data-name="Grupo 1071621" clip-path="url(#clip-path-11)">
              <path id="Trazado_820036" data-name="Trazado 820036" d="M191.862,80.249l-9.6,8.192a27.449,27.449,0,0,1,.817,4.69c3.621-.523,8.6-4.5,8.981-8.291a12.8,12.8,0,0,0-.2-4.59" transform="translate(-182.26 -80.249)"/>
            </g>
          </g>
        </g>
        <path id="Trazado_820037" data-name="Trazado 820037" d="M214.946,78.91c-3.241,13.846-4.317,19.775-12.607,25.753-12.469,8.993-28.766,1.984-29.727-12.551-.864-13.083,4.581-33.526,19.225-36.764A19.4,19.4,0,0,1,214.946,78.91" transform="translate(129.391 41.143)" fill="#ffb573"/>
        <path id="Trazado_820038" data-name="Trazado 820038" d="M172.459,145.534S161.158,255.9,162.1,299.6c.976,45.445,17.629,149.1,17.629,149.1H199.1s-3.066-100.994-1.353-145.627c1.865-48.658,17.321-157.53,17.321-157.53Z" transform="translate(121.53 109.149)" fill="#a3bfe4"/>
        <path id="Trazado_820040" data-name="Trazado 820040" d="M194.636,322.652H171.9l-1.668-7.25,25.457-.887Z" transform="translate(127.675 235.882)" fill="#263238"/>
        <g id="Grupo_1071629" data-name="Grupo 1071629" transform="translate(312.156 275.315)" opacity="0.2">
          <g id="Grupo_1071628" data-name="Grupo 1071628">
            <g id="Grupo_1071627" data-name="Grupo 1071627" clip-path="url(#clip-path-12)">
              <path id="Trazado_820041" data-name="Trazado 820041" d="M185.31,164.151c-14.292,28.754-2.87,81.2,2.184,100.714,2.593-29.307,6.961-65.129,10.369-91.439-2.167-14.884-5.962-22.531-12.553-9.275" transform="translate(-178.377 -157.324)"/>
            </g>
          </g>
        </g>
        <path id="Trazado_820042" data-name="Trazado 820042" d="M229,344.062H214.675l-5.264-33.18H223.74Z" transform="translate(157.056 233.158)" fill="#ffb573"/>
        <path id="Trazado_820043" data-name="Trazado 820043" d="M222.829,328.894h16.1a1.331,1.331,0,0,1,1.27.978l3.488,12.736a1.992,1.992,0,0,1-1.967,2.546c-5.624-.1-8.372-.425-15.451-.425-4.356,0-16.805.453-22.818.453-5.882,0-7.107-5.947-4.672-6.485,10.915-2.415,18.4-5.745,21.773-8.923a3.308,3.308,0,0,1,2.28-.88" transform="translate(148.194 246.667)" fill="#263238"/>
        <g id="Grupo_1071632" data-name="Grupo 1071632" transform="translate(366.472 544.049)" opacity="0.2">
          <g id="Grupo_1071631" data-name="Grupo 1071631">
            <g id="Grupo_1071630" data-name="Grupo 1071630" clip-path="url(#clip-path-13)">
              <path id="Trazado_820044" data-name="Trazado 820044" d="M209.414,310.887l2.711,17.1h14.332l-2.709-17.1Z" transform="translate(-209.414 -310.887)"/>
            </g>
          </g>
        </g>
        <path id="Trazado_820045" data-name="Trazado 820045" d="M177.194,145.534S189.229,255.9,195.837,299.6c6.876,45.445,36.981,149.1,36.981,149.1H252.19S236.018,347.7,231.937,303.064c-4.447-48.658-12.131-157.53-12.131-157.53Z" transform="translate(132.893 109.149)" fill="#a3bfe4"/>
        <path id="Trazado_820047" data-name="Trazado 820047" d="M231.92,322.652H209.188l-2.607-7.25,25.34-.887Z" transform="translate(154.933 235.882)" fill="#263238"/>
        <path id="Trazado_820048" data-name="Trazado 820048" d="M211.02,331.881a5.9,5.9,0,0,1-3.589-.882,2.134,2.134,0,0,1-.826-1.652.94.94,0,0,1,.457-.9c1.629-.961,7.721,1.955,8.41,2.291a.4.4,0,0,1,.224.348.288.288,0,0,1-.234.285,23.345,23.345,0,0,1-4.441.513m-2.936-2.964a1.259,1.259,0,0,0-.619.122.364.364,0,0,0-.177.367,1.391,1.391,0,0,0,.532,1.087c.969.782,3.344.919,6.452.392-2.088-.943-4.833-1.969-6.188-1.969" transform="translate(154.95 246.184)" fill="#407bff"/>
        <path id="Trazado_820049" data-name="Trazado 820049" d="M214.061,332.816a.368.368,0,0,1-.142-.03c-1.809-.772-5.589-3.862-5.535-5.484.014-.385.224-.863,1.152-.959a2.721,2.721,0,0,1,1.955.586c2,1.5,2.828,5.357,2.863,5.519a.3.3,0,0,1-.1.306.313.313,0,0,1-.189.061m-4.167-5.808a2,2,0,0,0-.2.01c-.611.063-.62.312-.623.392-.031.975,2.578,3.406,4.455,4.461-.313-1.124-1.092-3.437-2.4-4.421a2,2,0,0,0-1.229-.443" transform="translate(156.285 244.743)" fill="#407bff"/>
        <path id="Trazado_820050" data-name="Trazado 820050" d="M184.828,69.542c-.194,1.139-.955,1.96-1.7,1.834s-1.192-1.153-1-2.292.956-1.96,1.7-1.834,1.192,1.153,1,2.292" transform="translate(136.562 50.427)" fill="#263238"/>
        <path id="Trazado_820051" data-name="Trazado 820051" d="M177.469,68.289c-.194,1.139-.955,1.96-1.7,1.834s-1.192-1.153-1-2.292.955-1.96,1.7-1.834,1.192,1.153,1,2.293" transform="translate(131.043 49.487)" fill="#263238"/>
        <path id="Trazado_820052" data-name="Trazado 820052" d="M177.021,66.6l-2.6-1.255s1.039,2.376,2.6,1.255" transform="translate(130.812 49.006)" fill="#263238"/>
        <path id="Trazado_820053" data-name="Trazado 820053" d="M180.634,68.86s-2.768,4.576-5.3,6.58c1.265,1.659,3.93,1.454,3.93,1.454Z" transform="translate(131.499 51.644)" fill="#ed893e"/>
        <path id="Trazado_820054" data-name="Trazado 820054" d="M181.548,77.981a11.153,11.153,0,0,1-1.7-.159.339.339,0,0,1-.278-.392.35.35,0,0,1,.39-.278,9.111,9.111,0,0,0,7.959-2.275.34.34,0,0,1,.5.462,9.5,9.5,0,0,1-6.87,2.642" transform="translate(134.672 56.075)" fill="#263238"/>
        <path id="Trazado_820055" data-name="Trazado 820055" d="M219.629,65.9a14.5,14.5,0,0,0-5.483-2.345c-1.591-13.65-12.53-22.328-24.717-19.586-13.832,3.115-18.648,20.274-9.347,26.117a40.892,40.892,0,0,0,18.03,5.861c.233,11.315,7.289,21.017,12.245,21.518,14.147-5.631,17.8-25.569,9.271-31.565" transform="translate(131.462 32.596)" fill="#263238"/>
        <path id="Trazado_820056" data-name="Trazado 820056" d="M202.308,79.409A10.394,10.394,0,0,1,196,84.22c-3.53.907-5.218-2.27-4.172-5.56.941-2.963,3.911-7,7.423-6.45,3.46.546,4.73,4.272,3.061,7.2" transform="translate(143.635 54.118)" fill="#ffb573"/>
        <path id="Trazado_820057" data-name="Trazado 820057" d="M189.393,70.171a.677.677,0,0,1-.637-.478c-.927-3-4.762-4.282-4.8-4.294a.678.678,0,0,1,.42-1.29c.186.059,4.545,1.519,5.677,5.183a.68.68,0,0,1-.45.849.67.67,0,0,1-.21.03" transform="translate(137.614 48.055)" fill="#263238"/>
        <path id="Trazado_820058" data-name="Trazado 820058" d="M174.949,64.484a.678.678,0,0,1-.327-1.267A6.74,6.74,0,0,1,180.8,62.8a.679.679,0,0,1-.616,1.211,5.364,5.364,0,0,0-4.889.382.7.7,0,0,1-.348.089" transform="translate(130.708 46.684)" fill="#263238"/>
        <path id="Trazado_820059" data-name="Trazado 820059" d="M219.51,105.416c1.676,8.235,2.9,16.35,3.883,24.619a233.713,233.713,0,0,1,1.792,25.042c.019.42.007,1.29-.025,2.067-.054.716-.124,1.405-.219,2.053a36.205,36.205,0,0,1-.719,3.573c-.569,2.243-1.228,4.336-1.937,6.375-1.4,4.077-3.052,7.938-4.732,11.762a244.4,244.4,0,0,1-11.394,22.13l-6.58-3.061,3.894-11.51c1.321-3.824,2.579-7.66,3.748-11.492,1.216-3.811,2.317-7.644,3.283-11.38.474-1.869.88-3.722,1.162-5.472.14-.875.25-1.7.31-2.459.026-.368.028-.7.033-1l-.075-.994c-.313-3.917-.782-7.864-1.248-11.819l-1.64-11.893c-1.215-7.912-2.562-15.928-3.915-23.742Z" transform="translate(149.682 79.061)" fill="#ffb573"/>
        <path id="Trazado_820060" data-name="Trazado 820060" d="M214.015,96.019c5.829,1.773,12.833,21.847,12.833,21.847l-22.619,16.172s-8.248-16.758-5.8-24.293c2.551-7.847,8.932-15.748,15.585-13.725" transform="translate(148.479 71.773)" fill="#263238"/>
        <path id="Trazado_820061" data-name="Trazado 820061" d="M172.555,331.881a5.385,5.385,0,0,1-3.475-.882,1.88,1.88,0,0,1-.613-1.652,1.1,1.1,0,0,1,.576-.9c1.755-.961,7.467,1.955,8.111,2.291a.339.339,0,0,1-.089.634,24.449,24.449,0,0,1-4.51.513M170,328.916a1.357,1.357,0,0,0-.633.122.42.42,0,0,0-.224.367,1.218,1.218,0,0,0,.389,1.087c.87.782,3.227.919,6.4.392-1.965-.943-4.578-1.969-5.934-1.969" transform="translate(126.34 246.184)" fill="#407bff"/>
        <path id="Trazado_820062" data-name="Trazado 820062" d="M175.47,332.816a.347.347,0,0,1-.14-.03c-1.708-.772-5.087-3.862-4.821-5.484.061-.385.334-.863,1.274-.959a2.457,2.457,0,0,1,1.88.586c1.8,1.5,2.131,5.357,2.145,5.519a.343.343,0,0,1-.142.306.35.35,0,0,1-.2.061m-3.414-5.808q-.1,0-.2.01c-.62.063-.66.312-.674.392-.157.975,2.135,3.406,3.876,4.461-.168-1.124-.644-3.437-1.827-4.421a1.769,1.769,0,0,0-1.171-.443" transform="translate(127.868 244.743)" fill="#407bff"/>
        <path id="Trazado_820063" data-name="Trazado 820063" d="M184.38,67.85l-2.6-1.255s1.039,2.376,2.6,1.255" transform="translate(136.331 49.945)" fill="#263238"/>
        <path id="Trazado_820064" data-name="Trazado 820064" d="M227.831,143.769l1.487,5.208c.2.4-.275.817-.947.817h-59.89c-.525,0-.959-.257-.992-.588L166.965,144c-.037-.36.418-.667.992-.667h58.926a1.056,1.056,0,0,1,.948.437" transform="translate(125.22 107.497)" fill="#407bff"/>
        <path id="Trazado_820065" data-name="Trazado 820065" d="M197.8,150.555h1.578c.313,0,.553-.163.532-.361l-.74-6.767c-.021-.2-.3-.359-.611-.359h-1.578c-.313,0-.553.161-.532.359l.74,6.767c.021.2.3.361.611.361" transform="translate(147.335 107.3)" fill="#407bff"/>
        <g id="Grupo_1071638" data-name="Grupo 1071638" transform="translate(343.785 250.369)" opacity="0.3">
          <g id="Grupo_1071637" data-name="Grupo 1071637">
            <g id="Grupo_1071636" data-name="Grupo 1071636" clip-path="url(#clip-path-14)">
              <path id="Trazado_820066" data-name="Trazado 820066" d="M197.8,150.555h1.578c.313,0,.553-.163.532-.361l-.74-6.767c-.021-.2-.3-.359-.611-.359h-1.578c-.313,0-.553.161-.532.359l.74,6.767c.021.2.3.361.611.361" transform="translate(-196.45 -143.069)" fill="#fff"/>
            </g>
          </g>
        </g>
        <path id="Trazado_820067" data-name="Trazado 820067" d="M170.945,150.555h1.578c.313,0,.553-.163.532-.361l-.74-6.767c-.021-.2-.3-.359-.611-.359h-1.578c-.313,0-.553.161-.532.359l.74,6.767c.021.2.3.361.611.361" transform="translate(127.192 107.3)" fill="#407bff"/>
        <g id="Grupo_1071641" data-name="Grupo 1071641" transform="translate(296.786 250.369)" opacity="0.3">
          <g id="Grupo_1071640" data-name="Grupo 1071640">
            <g id="Grupo_1071639" data-name="Grupo 1071639" clip-path="url(#clip-path-14)">
              <path id="Trazado_820068" data-name="Trazado 820068" d="M170.945,150.555h1.578c.313,0,.553-.163.532-.361l-.74-6.767c-.021-.2-.3-.359-.611-.359h-1.578c-.313,0-.553.161-.532.359l.74,6.767c.021.2.3.361.611.361" transform="translate(-169.594 -143.069)" fill="#fff"/>
            </g>
          </g>
        </g>
        <path id="Trazado_820069" data-name="Trazado 820069" d="M184.374,150.555h1.578c.313,0,.553-.163.532-.361l-.74-6.767c-.021-.2-.3-.359-.611-.359h-1.578c-.315,0-.553.161-.532.359l.74,6.767c.021.2.3.361.611.361" transform="translate(137.264 107.3)" fill="#407bff"/>
        <g id="Grupo_1071644" data-name="Grupo 1071644" transform="translate(320.285 250.369)" opacity="0.3">
          <g id="Grupo_1071643" data-name="Grupo 1071643">
            <g id="Grupo_1071642" data-name="Grupo 1071642" clip-path="url(#clip-path-16)">
              <path id="Trazado_820070" data-name="Trazado 820070" d="M184.374,150.555h1.578c.313,0,.553-.163.532-.361l-.74-6.767c-.021-.2-.3-.359-.611-.359h-1.578c-.315,0-.553.161-.532.359l.74,6.767c.021.2.3.361.611.361" transform="translate(-183.021 -143.069)" fill="#fff"/>
            </g>
          </g>
        </g>
        <path id="Trazado_820071" data-name="Trazado 820071" d="M204.471,158.935l-11.107,10.783,14.5,1.454s5.218-7.577,2.49-12.871Z" transform="translate(145.021 118.724)" fill="#ffb573"/>
        <path id="Trazado_820072" data-name="Trazado 820072" d="M192.429,176.759l12.2.56,3.93-11.041-14.5-1.454Z" transform="translate(144.32 123.616)" fill="#ffb573"/>
      </g>
    </g>
    <g id="Grupo_1071663" data-name="Grupo 1071663">
      <g id="Grupo_1071662" data-name="Grupo 1071662" clip-path="url(#clip-path)">
        <path id="Trazado_820073" data-name="Trazado 820073" d="M32.3,332.406c1.647,0,3.274-.228,3.916-.97a1.187,1.187,0,0,0,.171-1.33,1.242,1.242,0,0,0-.861-.712c-2.053-.583-6.921,1.978-7.129,2.088a.355.355,0,0,0-.194.313.25.25,0,0,0,.2.248,21.543,21.543,0,0,0,3.894.362m2.4-2.494a2.108,2.108,0,0,1,.577.07.748.748,0,0,1,.532.425c.161.378.054.565-.038.674-.721.831-3.974.849-6.314.513,1.283-.612,3.738-1.682,5.243-1.682" transform="translate(21.156 246.977)" fill="#407bff"/>
        <path id="Trazado_820074" data-name="Trazado 820074" d="M28.472,333.369a.335.335,0,0,0,.128-.026c1.654-.7,5.136-3.477,5.115-4.93-.005-.341-.184-.766-1.008-.852a2.51,2.51,0,0,0-1.766.523c-1.832,1.342-2.688,4.805-2.725,4.953a.259.259,0,0,0,.256.332m3.9-5.211c.059,0,.121,0,.182.009.539.056.542.273.544.343.012.873-2.4,3.057-4.121,4.009.313-1.012,1.076-3.083,2.28-3.965a1.858,1.858,0,0,1,1.115-.4" transform="translate(21.156 245.658)" fill="#407bff"/>
        <path id="Trazado_820075" data-name="Trazado 820075" d="M20.306,343.46H33.161l5.659-29.771H25.965Z" transform="translate(15.229 235.263)" fill="#b55b52"/>
        <path id="Trazado_820076" data-name="Trazado 820076" d="M36.133,329.85H22.093a1.349,1.349,0,0,0-1.223.878l-4.219,11.427a1.608,1.608,0,0,0,1.512,2.285c5.078-.086,12.439-.382,18.805-.382,7.443,0,6.762.406,15.491.406,5.278,0,7.527-5.336,5.39-5.82-9.735-2.2-10.862-2.436-18.765-7.794a5.249,5.249,0,0,0-2.95-1" transform="translate(12.392 247.384)" fill="#263238"/>
        <g id="Grupo_1071649" data-name="Grupo 1071649" transform="translate(38.27 548.959)" opacity="0.2">
          <g id="Grupo_1071648" data-name="Grupo 1071648">
            <g id="Grupo_1071647" data-name="Grupo 1071647" clip-path="url(#clip-path-18)">
              <path id="Trazado_820077" data-name="Trazado 820077" d="M37.645,313.693l-2.914,15.346H21.869l2.915-15.346Z" transform="translate(-21.869 -313.693)"/>
            </g>
          </g>
        </g>
        <path id="Trazado_820078" data-name="Trazado 820078" d="M34.753,147.416l8.414,8.843-13.575,4.736s-4.94-7.213-1.141-12.145Z" transform="translate(20.261 110.56)" fill="#b55b52"/>
        <path id="Trazado_820079" data-name="Trazado 820079" d="M44.591,164.822l-13.445,1.957L28.488,157.2l13.575-4.735Z" transform="translate(21.366 114.35)" fill="#b55b52"/>
        <path id="Trazado_820080" data-name="Trazado 820080" d="M4.567,211.221,70.155,214.1a6.683,6.683,0,0,0,6.618-5.26l7.849-40.073a4.656,4.656,0,0,0-4.462-5.749l-65.588-2.88a6.681,6.681,0,0,0-6.618,5.26L.1,205.474a4.655,4.655,0,0,0,4.462,5.747" transform="translate(0 120.099)" fill="#263238"/>
        <path id="Trazado_820081" data-name="Trazado 820081" d="M7.87,223.537,88.883,227.1a7.21,7.21,0,0,0,7.432-6.531l4.289-49.735A6.514,6.514,0,0,0,94.35,163.7l-81.012-3.56a7.21,7.21,0,0,0-7.432,6.531L1.616,216.406a6.513,6.513,0,0,0,6.254,7.131" transform="translate(1.193 120.098)" fill="#407bff"/>
        <g id="Grupo_1071652" data-name="Grupo 1071652" transform="translate(2.782 280.231)" opacity="0.2">
          <g id="Grupo_1071651" data-name="Grupo 1071651">
            <g id="Grupo_1071650" data-name="Grupo 1071650" clip-path="url(#clip-path-19)">
              <path id="Trazado_820082" data-name="Trazado 820082" d="M7.87,223.537,88.883,227.1a7.21,7.21,0,0,0,7.432-6.531l4.289-49.735A6.514,6.514,0,0,0,94.35,163.7l-81.012-3.56a7.21,7.21,0,0,0-7.432,6.531L1.616,216.406a6.513,6.513,0,0,0,6.254,7.131" transform="translate(-1.589 -160.133)"/>
            </g>
          </g>
        </g>
        <path id="Trazado_820083" data-name="Trazado 820083" d="M51.173,180.187c-.068,0-.135,0-.2-.005l-23.53-1.034a4.522,4.522,0,0,1-4.317-4.917l.924-10.724a8.687,8.687,0,0,1,8.944-7.852l15.736.691a8.4,8.4,0,0,1,8.029,9.147l-.9,10.4a4.751,4.751,0,0,1-4.688,4.3M28.42,173.936l22.255.978.852-9.873A3.146,3.146,0,0,0,48.5,161.59L32.762,160.9a3.416,3.416,0,0,0-3.481,3.057Z" transform="translate(17.33 116.733)" fill="#407bff"/>
        <path id="Trazado_820084" data-name="Trazado 820084" d="M94.615,227.442,13.6,223.883a7.425,7.425,0,0,1-6.995-7.164L5.515,166.749a6.335,6.335,0,0,1,6.694-6.564l81.012,3.559a7.424,7.424,0,0,1,6.993,7.164l1.1,49.971a6.334,6.334,0,0,1-6.694,6.562" transform="translate(4.135 120.132)" fill="#fff198"/>
        <path id="Trazado_820085" data-name="Trazado 820085" d="M59.586,96.3c-.859,1.682-1.865,3.738-2.782,5.658-.934,1.949-1.837,3.929-2.718,5.91-1.767,3.967-3.461,7.959-5,11.977s-2.9,8.046-4.149,12.054c-.583,2-1.162,4.006-1.613,5.987q-.4,1.5-.654,2.961l-.29,1.47a12.544,12.544,0,0,0-.231,1.348,24.329,24.329,0,0,0-.248,2.5c-.044.954-.135,1.886-.135,2.952-.074,2.037-.037,4.2-.016,6.354.1,4.357.35,8.8.614,13.267.52,8.934,1.267,18.016,1.967,26.973l-16.04,2.6c-2.154-9.112-3.874-18.156-5.416-27.4-.731-4.623-1.358-9.287-1.893-14.054-.234-2.413-.481-4.812-.616-7.35-.1-1.218-.119-2.576-.128-3.906-.049-1.257.056-2.837.152-4.342.039-.805.126-1.414.206-2.051l.243-1.916q.223-1.937.574-3.787c.4-2.513.929-4.945,1.466-7.378,1.123-4.825,2.434-9.553,3.974-14.147s3.166-9.126,4.973-13.58q1.37-3.334,2.833-6.632c.985-2.242,1.955-4.308,3.16-6.709Z" transform="translate(15.167 63.793)" fill="#fff198"/>
        <path id="Trazado_820086" data-name="Trazado 820086" d="M95,143.834s-12.367,96.122-19.53,135.327c-7.453,40.778-33.931,174.3-33.931,174.3H19.76S30.844,322.321,35.765,282.272C41.131,238.613,49.8,143.834,49.8,143.834Z" transform="translate(14.82 107.874)" fill="#263238"/>
        <path id="Trazado_820087" data-name="Trazado 820087" d="M47.779,315.807c.1,0-2.558,9.042-2.558,9.042H18.729l.469-8.069Z" transform="translate(14.047 236.852)" fill="#407bff"/>
        <path id="Trazado_820088" data-name="Trazado 820088" d="M68.778,53.46c0,1.088.577,1.97,1.288,1.97s1.29-.882,1.29-1.97-.578-1.97-1.29-1.97-1.288.882-1.288,1.97" transform="translate(51.583 38.617)" fill="#263238"/>
        <path id="Trazado_820089" data-name="Trazado 820089" d="M69.05,53.742s2.476,6.281,5.2,9.312c-1.927,1.8-5.2.976-5.2.976Z" transform="translate(51.787 40.306)" fill="#a02724"/>
        <path id="Trazado_820090" data-name="Trazado 820090" d="M66.847,50.216a.627.627,0,0,0,.373-.121,5.1,5.1,0,0,1,4.543-.835.639.639,0,1,0,.462-1.192,6.337,6.337,0,0,0-5.752.989.64.64,0,0,0,.374,1.158" transform="translate(49.654 35.827)" fill="#263238"/>
        <path id="Trazado_820091" data-name="Trazado 820091" d="M50.323,59.489c1.844,9.4,3.684,26.638-2.9,32.914,0,0,2.571,9.541,20.046,9.541,19.217,0,9.184-9.541,9.184-9.541C66.169,89.9,66.441,82.118,68.268,74.81Z" transform="translate(35.57 44.616)" fill="#b55b52"/>
        <path id="Trazado_820092" data-name="Trazado 820092" d="M46.675,84.016c-1.377-3.02-2.894-6.477.243-7.558,3.451-1.192,22.342-2.406,28.857-.171a6.718,6.718,0,0,1,4.665,8.361Z" transform="translate(33.803 56.277)" fill="#263238"/>
        <path id="Trazado_820093" data-name="Trazado 820093" d="M40.785,81.069c-11.258,5.106-18.261,43.849-18.261,43.849l22.066,7A234.925,234.925,0,0,0,55.382,100.4c4.006-16.156-3.085-24.549-14.6-19.329" transform="translate(16.893 59.642)" fill="#fff198"/>
        <path id="Trazado_820094" data-name="Trazado 820094" d="M113.04,135.228l13.564.028L124.231,151.5s-10.638-.392-15.461-8.417Z" transform="translate(81.576 101.419)" fill="#b55b52"/>
        <path id="Trazado_820095" data-name="Trazado 820095" d="M132.835,140.861l-6.828,12.547-8.4-1.916,2.375-16.249Z" transform="translate(88.202 101.431)" fill="#b55b52"/>
        <path id="Trazado_820096" data-name="Trazado 820096" d="M48.043,59.714c.821,13.372.623,21.24,7.376,28.1,10.157,10.325,26.663,4.2,29.853-9.145,2.872-12.014,1.046-31.862-12.042-37.184A18.271,18.271,0,0,0,48.043,59.714" transform="translate(36.004 30.056)" fill="#b55b52"/>
        <path id="Trazado_820097" data-name="Trazado 820097" d="M51.377,80.459s-12.122-18.17-9.494-30.011c2.408-10.846,26.852-14.707,37-13.613,10.769,1.16,14.98,5.8,9.056,15.144a49.757,49.757,0,0,1-10.937,3.7s6.015,7.371,6.058,12.2c-1.683.921-7.147,3.087-7.147,3.087s-7.674,18.9-7.9,18.875c-2.961-.357-9.8-.458-12.236.465a64.58,64.58,0,0,1-4.4-9.856" transform="translate(31.132 27.492)" fill="#263238"/>
        <path id="Trazado_820098" data-name="Trazado 820098" d="M58.234,57.85a15.275,15.275,0,0,0,5.432,8.027c3.5,2.63,6.106.135,5.85-3.789-.231-3.535-2.327-9.158-6.184-10.264-3.8-1.087-6.106,2.18-5.1,6.025" transform="translate(43.498 38.709)" fill="#b55b52"/>
        <g id="Grupo_1071655" data-name="Grupo 1071655" transform="translate(87.255 287.583)" opacity="0.3">
          <g id="Grupo_1071654" data-name="Grupo 1071654">
            <g id="Grupo_1071653" data-name="Grupo 1071653" clip-path="url(#clip-path-20)">
              <path id="Trazado_820099" data-name="Trazado 820099" d="M63.162,164.387c-17.22,3.99-13.965,66.22-10.692,101.692.14-.8.28-1.557.42-2.292,4.27-23.345,10.377-66.85,14.63-98.244-1.417-.647-3.272-1.417-4.357-1.155" transform="translate(-49.86 -164.334)"/>
            </g>
          </g>
        </g>
        <path id="Trazado_820100" data-name="Trazado 820100" d="M68.762,332.406c1.65,0,3.243-.228,3.776-.97a1.15,1.15,0,0,0-.024-1.33,1.516,1.516,0,0,0-.966-.712c-2.137-.583-6.631,1.978-6.821,2.088a.3.3,0,0,0,.091.562,22.457,22.457,0,0,0,3.944.362m2.039-2.494a2.2,2.2,0,0,1,.588.07.917.917,0,0,1,.6.425c.215.378.138.565.06.674-.6.831-3.848.849-6.239.513a13.742,13.742,0,0,1,4.994-1.682" transform="translate(48.429 246.977)" fill="#407bff"/>
        <path id="Trazado_820101" data-name="Trazado 820101" d="M64.879,333.369a.311.311,0,0,0,.124-.026c1.55-.7,4.625-3.477,4.391-4.93-.056-.341-.3-.766-1.134-.852a2.235,2.235,0,0,0-1.689.523c-1.636,1.342-1.983,4.805-2,4.953a.308.308,0,0,0,.126.275.3.3,0,0,0,.178.058m3.136-5.211c.059,0,.121,0,.184.009.546.056.581.273.593.343.142.873-1.948,3.057-3.531,4.009.166-1.012.625-3.083,1.7-3.965a1.624,1.624,0,0,1,1.057-.4" transform="translate(48.429 245.658)" fill="#407bff"/>
        <path id="Trazado_820102" data-name="Trazado 820102" d="M56.669,343.46H69.525l1.281-29.771H57.95Z" transform="translate(42.501 235.263)" fill="#b55b52"/>
        <path id="Trazado_820103" data-name="Trazado 820103" d="M71.561,329.85H57.521a1.121,1.121,0,0,0-1.094.878l-2.539,11.427a1.869,1.869,0,0,0,1.85,2.285c5.064-.086,12.381-.382,18.748-.382,7.443,0,13.87.406,22.6.406,5.278,0,6.743-5.336,4.532-5.82-10.057-2.2-18.268-2.436-26.959-7.794a5.967,5.967,0,0,0-3.1-1" transform="translate(40.381 247.384)" fill="#263238"/>
        <g id="Grupo_1071658" data-name="Grupo 1071658" transform="translate(99.785 548.959)" opacity="0.2">
          <g id="Grupo_1071657" data-name="Grupo 1071657">
            <g id="Grupo_1071656" data-name="Grupo 1071656" clip-path="url(#clip-path-21)">
              <path id="Trazado_820104" data-name="Trazado 820104" d="M70.54,313.693l-.658,15.346H57.021l.658-15.346Z" transform="translate(-57.02 -313.693)"/>
            </g>
          </g>
        </g>
        <path id="Trazado_820105" data-name="Trazado 820105" d="M95.236,143.834s1.771,96.122.373,135.327c-1.454,40.778-15.7,174.3-15.7,174.3H58.131s-.8-131.139-1.767-171.187c-1.057-43.659-6.328-138.438-6.328-138.438Z" transform="translate(37.526 107.874)" fill="#263238"/>
        <path id="Trazado_820106" data-name="Trazado 820106" d="M81.689,315.807c.1,0-1.228,9.042-1.228,9.042H53.968l-.716-8.069Z" transform="translate(39.938 236.852)" fill="#407bff"/>
        <path id="Trazado_820107" data-name="Trazado 820107" d="M106.3,82.049s15.424,23.52,2.5,119.185H36.166c-.472-10.556,8.288-70.112-1.893-119.848a179.625,179.625,0,0,1,23.019-2.907c8.787-.422,21.506-.7,29.23,0A129.043,129.043,0,0,1,106.3,82.049" transform="translate(25.704 58.538)" fill="#fff198"/>
        <g id="Grupo_1071661" data-name="Grupo 1071661" transform="translate(124.428 164.296)" opacity="0.2">
          <g id="Grupo_1071660" data-name="Grupo 1071660">
            <g id="Grupo_1071659" data-name="Grupo 1071659" clip-path="url(#clip-path-22)">
              <path id="Trazado_820108" data-name="Trazado 820108" d="M86.327,119.119,71.1,93.884s5.722,35.77,14.49,51.9c.595-10.1.8-18.952.735-26.67" transform="translate(-71.103 -93.884)"/>
            </g>
          </g>
        </g>
        <path id="Trazado_820109" data-name="Trazado 820109" d="M93.5,90.858c2.506,7.987,5.274,16.184,8.064,24.188,2.84,8.017,5.759,15.986,8.981,23.628l1.225,2.84c.275.647.243.516.269.649.026.1.182.311.245.478A19.7,19.7,0,0,0,115,145.827a68.776,68.776,0,0,0,8.858,7.023c3.3,2.275,6.781,4.483,10.367,6.575,3.549,2.084,7.3,4.214,10.841,6.041l-6.816,15.9A179.62,179.62,0,0,1,113.24,169.95a89.239,89.239,0,0,1-12.259-8.2,39.117,39.117,0,0,1-6.221-6.275c-.525-.742-1.031-1.4-1.538-2.245-.488-.822-1.075-1.89-1.234-2.24l-1.54-3.061c-4-8.16-7.595-16.313-10.9-24.549-3.356-8.248-6.394-16.434-9.35-24.941Z" transform="translate(52.651 68.142)" fill="#fff198"/>
        <path id="Trazado_820110" data-name="Trazado 820110" d="M65.839,86.494c-4.489,11.443,22.86,57.52,22.86,57.52L106.49,127s-3.888-14.486-9.07-31.906c-5.1-17.138-27.289-19.539-31.58-8.6" transform="translate(49.005 59.895)" fill="#fff198"/>
      </g>
    </g>
  </g>
</svg>
