<svg xmlns="http://www.w3.org/2000/svg" xmlns:xlink="http://www.w3.org/1999/xlink" width="400" height="409" viewBox="0 0 400 409">
  <defs>
    <clipPath id="clip-path">
      <rect id="Rectángulo_377669" data-name="Rectángulo 377669" width="400" height="409" transform="translate(180 4109)" fill="#fff" stroke="#707070" stroke-width="1"/>
    </clipPath>
    <clipPath id="clip-path-2">
      <rect id="Rectángulo_377660" data-name="Rectángulo 377660" width="432.786" height="435.49" fill="none"/>
    </clipPath>
    <clipPath id="clip-path-3">
      <rect id="Rectángulo_377632" data-name="Rectángulo 377632" width="432.786" height="435.491" fill="none"/>
    </clipPath>
    <clipPath id="clip-path-4">
      <path id="Trazado_820115" data-name="Trazado 820115" d="M655.365,348.079c-42.25,2.811-42.062,49.352-42.062,49.352v222.4H778.228v-222.4s.781-46.7,41.856-49.352Z" transform="translate(-613.303 -348.079)" fill="#a3bfe4"/>
    </clipPath>
    <clipPath id="clip-path-6">
      <rect id="Rectángulo_377653" data-name="Rectángulo 377653" width="137.326" height="159.246" fill="none"/>
    </clipPath>
    <clipPath id="clip-path-7">
      <rect id="Rectángulo_377656" data-name="Rectángulo 377656" width="136.97" height="67.487" fill="none"/>
    </clipPath>
  </defs>
  <g id="Enmascarar_grupo_981409" data-name="Enmascarar grupo 981409" transform="translate(-180 -4109)" clip-path="url(#clip-path)">
    <g id="Grupo_1071679" data-name="Grupo 1071679" transform="translate(147.214 4108.579)">
      <g id="Grupo_1071678" data-name="Grupo 1071678" clip-path="url(#clip-path-2)">
        <g id="Grupo_1071667" data-name="Grupo 1071667" transform="translate(0 0)">
          <g id="Grupo_1071666" data-name="Grupo 1071666" clip-path="url(#clip-path-3)">
            <path id="Trazado_820111" data-name="Trazado 820111" d="M847.772,360.774H683.053c-42.249,2.811-42.062,49.353-42.062,49.353v222.4H805.916v-222.4s.781-46.7,41.856-49.353" transform="translate(-488.534 -274.965)" fill="#e8913a"/>
            <rect id="Rectángulo_377631" data-name="Rectángulo 377631" width="1.903" height="171.172" transform="translate(140.963 137.972)" fill="#ffc155"/>
            <path id="Trazado_820112" data-name="Trazado 820112" d="M1069.75,72.467H969.142V16.735H1069.75Zm-98.706-1.9h96.8V18.638h-96.8Z" transform="translate(-738.636 -12.754)" fill="#ffc155"/>
            <path id="Trazado_820113" data-name="Trazado 820113" d="M278.278,270.813H177.67v-70.1H278.278Zm-98.705-1.9h96.8v-66.3h-96.8Z" transform="translate(-135.412 -152.973)" fill="#ffc155"/>
            <path id="Trazado_820114" data-name="Trazado 820114" d="M1476.867,786.124H1376.259v-55.94h100.608Zm-98.706-1.9h96.8V732.087h-96.8Z" transform="translate(-1048.922 -556.513)" fill="#ffc155"/>
          </g>
        </g>
        <g id="Grupo_1071669" data-name="Grupo 1071669" transform="translate(145.871 82.789)">
          <g id="Grupo_1071668" data-name="Grupo 1071668" clip-path="url(#clip-path-4)">
            <rect id="Rectángulo_377633" data-name="Rectángulo 377633" width="296.813" height="331.075" transform="matrix(0.92, -0.391, 0.391, 0.92, -98.058, 41.623)" fill="#a3bfe4"/>
          </g>
        </g>
        <g id="Grupo_1071677" data-name="Grupo 1071677" transform="translate(0 0)">
          <g id="Grupo_1071676" data-name="Grupo 1071676" clip-path="url(#clip-path-3)">
            <rect id="Rectángulo_377634" data-name="Rectángulo 377634" width="113.282" height="9.995" transform="translate(167.528 140.888)" fill="#ffdc94"/>
            <rect id="Rectángulo_377635" data-name="Rectángulo 377635" width="96.727" height="7.08" transform="translate(167.528 164.002)" fill="#ffdc94"/>
            <rect id="Rectángulo_377636" data-name="Rectángulo 377636" width="48.624" height="10.516" transform="translate(167.528 182.692)" fill="#ffdc94"/>
            <rect id="Rectángulo_377637" data-name="Rectángulo 377637" width="50.29" height="10.516" transform="translate(230.52 182.692)" fill="#ffdc94"/>
            <rect id="Rectángulo_377638" data-name="Rectángulo 377638" width="77.465" height="7.497" transform="translate(167.528 202.943)" fill="#ffdc94"/>
            <rect id="Rectángulo_377639" data-name="Rectángulo 377639" width="87.278" height="4.165" transform="translate(167.528 221.685)" fill="#ffdc94"/>
            <rect id="Rectángulo_377640" data-name="Rectángulo 377640" width="104.952" height="4.165" transform="translate(167.528 240.426)" fill="#ffdc94"/>
            <path id="Trazado_820116" data-name="Trazado 820116" d="M752.194,1111.766H702.857v-23.62h49.337Zm-48.624-.714h47.91V1088.86H703.57Z" transform="translate(-535.686 -829.335)" fill="#ffdc94"/>
            <rect id="Rectángulo_377641" data-name="Rectángulo 377641" width="44.147" height="5.414" transform="translate(228.334 259.168)" fill="#ffdc94"/>
            <rect id="Rectángulo_377642" data-name="Rectángulo 377642" width="31.29" height="5.414" transform="translate(228.334 270.621)" fill="#ffdc94"/>
            <rect id="Rectángulo_377643" data-name="Rectángulo 377643" width="94.384" height="4.165" transform="translate(167.528 296.651)" fill="#ffdc94"/>
            <rect id="Rectángulo_377644" data-name="Rectángulo 377644" width="49.717" height="4.165" transform="translate(167.528 315.392)" fill="#ffdc94"/>
            <path id="Trazado_820117" data-name="Trazado 820117" d="M1469.076,842.913l-4.864-7.963a1.385,1.385,0,1,1,2.365-1.444l3.44,5.631,9.144-5.412a1.385,1.385,0,1,1,1.411,2.384Z" transform="translate(-1115.801 -634.754)" fill="#ffca55"/>
            <path id="Trazado_820118" data-name="Trazado 820118" d="M1442.992,814.695a17.492,17.492,0,1,1,17.492-17.492,17.512,17.512,0,0,1-17.492,17.492m0-32.485a14.993,14.993,0,1,0,14.993,14.993,15.01,15.01,0,0,0-14.993-14.993" transform="translate(-1086.451 -594.26)" fill="#ffca55"/>
            <path id="Trazado_820119" data-name="Trazado 820119" d="M1045.52,92.983l.342,7.352,2.918-.136-.574-12.333-12.594.586.135,2.918,7.613-.354-13.42,14.731-13.964-12.722-1.967,2.16,16.124,14.689Z" transform="translate(-772.832 -66.967)" fill="#ffca55"/>
            <path id="Trazado_820120" data-name="Trazado 820120" d="M257.986,267.38a6.609,6.609,0,0,0-1.258-1.027A14.534,14.534,0,0,0,254.8,265.3a15.794,15.794,0,0,0-2.4-.865,13.852,13.852,0,0,0-2.688-.461l-.032,9.854.9.193a42.028,42.028,0,0,1,4.637,1.4,13.214,13.214,0,0,1,3.493,1.868,7.563,7.563,0,0,1,2.2,2.7,8.718,8.718,0,0,1,.773,3.882,9.45,9.45,0,0,1-.919,4.3,8.4,8.4,0,0,1-2.509,2.967,11.211,11.211,0,0,1-3.719,1.773,18.088,18.088,0,0,1-4.548.628l-.016,5-2.476-.008.017-5.093a23.988,23.988,0,0,1-6.517-1.378,20.524,20.524,0,0,1-5.654-3.136l2.442-4.562a8.426,8.426,0,0,0,1.519,1.243,17.383,17.383,0,0,0,2.328,1.293,21.493,21.493,0,0,0,2.924,1.1,18.725,18.725,0,0,0,3.306.677l.032-9.854q-.285-.1-.595-.168c-.206-.048-.4-.1-.594-.169a40.181,40.181,0,0,1-4.4-1.419,11,11,0,0,1-3.112-1.8,7,7,0,0,1-1.872-2.457,8.142,8.142,0,0,1-.632-3.406,10.043,10.043,0,0,1,.823-4.139,9.069,9.069,0,0,1,2.295-3.11,10.88,10.88,0,0,1,3.458-2.036,16.075,16.075,0,0,1,4.359-.914l.016-4.808,2.475.008-.016,4.808a18.337,18.337,0,0,1,5.708,1.256,20.671,20.671,0,0,1,4.609,2.538Zm-15.713,1.186a3.439,3.439,0,0,0,1.395,3,13.553,13.553,0,0,0,4.255,1.775l.03-9.378a6.9,6.9,0,0,0-4.289,1.342,4.124,4.124,0,0,0-1.391,3.256m13.706,15.849a3.523,3.523,0,0,0-1.656-3.171,17.888,17.888,0,0,0-4.659-1.943l-.031,9.425a8.675,8.675,0,0,0,4.692-1.127,3.593,3.593,0,0,0,1.653-3.184" transform="translate(-179.375 -193.89)" fill="#ffca55"/>
            <rect id="Rectángulo_377645" data-name="Rectángulo 377645" width="39.513" height="5.622" transform="translate(93.708 67.695)" fill="#ded4ce"/>
            <rect id="Rectángulo_377646" data-name="Rectángulo 377646" width="31.057" height="5.622" transform="translate(93.708 79.978)" fill="#ded4ce"/>
            <rect id="Rectángulo_377647" data-name="Rectángulo 377647" width="34.848" height="5.622" transform="translate(93.707 92.261)" fill="#ded4ce"/>
            <rect id="Rectángulo_377648" data-name="Rectángulo 377648" width="28.233" height="5.622" transform="translate(381.285 192.689)" fill="#ded4ce"/>
            <rect id="Rectángulo_377649" data-name="Rectángulo 377649" width="31.68" height="5.622" transform="translate(381.285 204.972)" fill="#ded4ce"/>
            <rect id="Rectángulo_377650" data-name="Rectángulo 377650" width="35.921" height="5.622" transform="translate(284.454 16.752)" fill="#ded4ce"/>
            <rect id="Rectángulo_377651" data-name="Rectángulo 377651" width="28.233" height="5.622" transform="translate(284.454 29.036)" fill="#ded4ce"/>
            <rect id="Rectángulo_377652" data-name="Rectángulo 377652" width="31.68" height="5.622" transform="translate(284.454 41.319)" fill="#ded4ce"/>
            <path id="Trazado_820121" data-name="Trazado 820121" d="M1388.892,1006.51h-30.521v-1.9h28.619V970.575h1.9Z" transform="translate(-1035.289 -739.728)" fill="#ded4ce"/>
            <path id="Trazado_820122" data-name="Trazado 820122" d="M865.106,280.018h-1.9v-9.9h66.22v-6.964h1.9v8.867h-66.22Z" transform="translate(-657.895 -200.563)" fill="#ded4ce"/>
            <path id="Trazado_820123" data-name="Trazado 820123" d="M448.8,584.981H414.061V510.049h1.9v73.029H448.8Z" transform="translate(-315.578 -388.736)" fill="#ded4ce"/>
            <path id="Trazado_820124" data-name="Trazado 820124" d="M1352.228,463.976h-1.9V441.33c-.027-.376-2.441-43.815,34.212-50.134l.323,1.875c-34.985,6.032-32.662,47.776-32.635,48.2Z" transform="translate(-1029.125 -298.152)" fill="#ffc155"/>
            <path id="Trazado_820125" data-name="Trazado 820125" d="M1681.44,751.006h-1.9V712.6H1638.32v-1.9h43.12Z" transform="translate(-1248.653 -541.661)" fill="#ffc155"/>
            <path id="Trazado_820126" data-name="Trazado 820126" d="M194.262,401.321H155.127V364.448h1.9v34.97h37.233Z" transform="translate(-118.23 -277.766)" fill="#ffc155"/>
            <path id="Trazado_820127" data-name="Trazado 820127" d="M951.933,29.034h-1.9V0H998.6V1.9H951.933Z" transform="translate(-724.07 0.001)" fill="#ffc155"/>
            <path id="Trazado_820128" data-name="Trazado 820128" d="M1248.22,1351.643H1212.6v-1.9h33.72v-54.024h1.9Z" transform="translate(-924.186 -987.536)" fill="#ffc155"/>
            <path id="Trazado_820129" data-name="Trazado 820129" d="M1148.314,1272.789H1117.3V1241.77h31.019Zm-28.165-2.854h25.311v-25.311h-25.311Z" transform="translate(-851.552 -946.42)" fill="#ffdc94"/>
            <path id="Trazado_820130" data-name="Trazado 820130" d="M1149.654,1268.671l-10.894-10.27,3.263-3.462,7.847,7.4,17.124-14.069,3.02,3.675Z" transform="translate(-867.911 -951.373)" fill="#ffdc94"/>
            <g id="Grupo_1071672" data-name="Grupo 1071672" transform="translate(145.871 195.295)" opacity="0.24" style="mix-blend-mode: hard-light;isolation: isolate">
              <g id="Grupo_1071671" data-name="Grupo 1071671">
                <g id="Grupo_1071670" data-name="Grupo 1071670" clip-path="url(#clip-path-6)">
                  <path id="Trazado_820131" data-name="Trazado 820131" d="M739.264,862.884A83.977,83.977,0,0,0,613.3,840.275v19.248A70.163,70.163,0,0,1,736.8,902.366c.031.868.05,1.73.05,2.6A70.153,70.153,0,0,1,613.3,950.519v19.266a83,83,0,0,0,16.386,10.558h74.023q2.6-1.274,5.129-2.748a83.916,83.916,0,0,0,30.424-114.711" transform="translate(-613.302 -821.097)" fill="#3f444f"/>
                </g>
              </g>
            </g>
            <rect id="Rectángulo_377654" data-name="Rectángulo 377654" width="74.541" height="23.057" transform="matrix(0.768, -0.64, 0.64, 0.768, 46.921, 378.675)" fill="#a3bfe4"/>
            <rect id="Rectángulo_377655" data-name="Rectángulo 377655" width="7.244" height="17.501" transform="translate(105.961 333.086) rotate(-39.808)" fill="#e66947"/>
            <path id="Trazado_820132" data-name="Trazado 820132" d="M404.981,947.166a83.917,83.917,0,1,0,30.426-114.71,83.917,83.917,0,0,0-30.426,114.71m11.917-6.921A70.137,70.137,0,1,1,547.65,902.362h0A70.146,70.146,0,0,1,416.9,940.245" transform="translate(-299.998 -625.8)" fill="#494f5c"/>
            <g id="Grupo_1071675" data-name="Grupo 1071675" transform="translate(110.682 209.076)" opacity="0.3">
              <g id="Grupo_1071674" data-name="Grupo 1071674">
                <g id="Grupo_1071673" data-name="Grupo 1071673" clip-path="url(#clip-path-7)">
                  <path id="Trazado_820133" data-name="Trazado 820133" d="M465.352,928.029s73.045-55.464,136.969,18.5h0a70.145,70.145,0,0,0-136.97-18.5" transform="translate(-465.352 -879.04)" fill="#c2c2c2"/>
                </g>
              </g>
            </g>
            <path id="Trazado_820134" data-name="Trazado 820134" d="M1236.662,1313.064a13.354,13.354,0,0,1-2.793.72,6.94,6.94,0,0,0-3.423,1.94c-.449.551-4.122,4.5-4.186,5s.939.336,1.276-.063,3.542-3.575,3.542-3.575-3.6,4-3.572,4.472.564.871,1.228.456a.829.829,0,0,0,1.465.145l1.871-1.869s-.792,1.14.247.813c.553-.174,2.405-2.532,2.924-2.88a27.941,27.941,0,0,0,2.5-3.368Z" transform="translate(-934.597 -1000.757)" fill="#eea886"/>
            <path id="Trazado_820135" data-name="Trazado 820135" d="M1283.363,1639.095s-1.368,2.735-2.2,3.274-5.47,5.056-6.424,5.47-4.02.995-3.978,2.445,7.915.995,9.448.456,4.1-4.02,5.138-3.978.663,4.269.663,4.269h1.119s1.409-4.476,1.367-6.05a56.774,56.774,0,0,0-.911-5.885Z" transform="translate(-968.519 -1249.243)" fill="#162d40"/>
            <path id="Trazado_820136" data-name="Trazado 820136" d="M1369.992,1631.952s-.6,2.708-1.59,3.653-4.7,4.943-5.636,5.373-2.745.73-3.3,1.418-.226,2.708,3.3,2.493,4.68-.183,5.518-.892,3.546-3.159,4.352-3.224v3.9h.967s1.708-5.126,1.1-7.285a21.611,21.611,0,0,1-.58-5.094Z" transform="translate(-1035.955 -1243.799)" fill="#162d40"/>
            <path id="Trazado_820137" data-name="Trazado 820137" d="M1398.535,1135.133s1.61,4.145.357,7.348c0,0,5.9-.374,6.125-1.044s-.237-6.88.574-8.716-7.057,2.412-7.057,2.412" transform="translate(-1065.9 -862.957)" fill="#eea886"/>
            <path id="Trazado_820138" data-name="Trazado 820138" d="M1440.346,1373.366a4.534,4.534,0,0,0-.29,1.572,7.44,7.44,0,0,1-.365,1.861,17.373,17.373,0,0,0-.31,3.037,13.145,13.145,0,0,1,.705,1.837c.007.429-.084,1.3.29,1.277s.673-.787.673-.787a.535.535,0,0,0,.365.469.921.921,0,0,0,.924-.164s.293.372.581.369a1.175,1.175,0,0,0,.892-.323,1.079,1.079,0,0,0,.732.077.985.985,0,0,0,.686-.655s.711-.006.854-.376a3.314,3.314,0,0,0,.081-1.025,11.385,11.385,0,0,0-1.708-4.709,5.068,5.068,0,0,1-.606-3.912Z" transform="translate(-1097.023 -1045.609)" fill="#eea886"/>
            <path id="Trazado_820139" data-name="Trazado 820139" d="M1433.283,1413.864l-.732-5.046a1.491,1.491,0,0,1,1.26-1.687l8-1.161a1.491,1.491,0,0,1,1.687,1.26l.732,5.046a1.491,1.491,0,0,1-1.26,1.687l-8,1.16a1.491,1.491,0,0,1-1.688-1.26m.672-5.744a.49.49,0,0,0-.415.555l.732,5.045a.49.49,0,0,0,.555.414l8-1.16a.491.491,0,0,0,.415-.555l-.732-5.046a.49.49,0,0,0-.555-.414Z" transform="translate(-1091.814 -1071.555)" fill="#0e1e2b"/>
            <rect id="Rectángulo_377657" data-name="Rectángulo 377657" width="29.846" height="21.733" transform="translate(332.261 342.554) rotate(-8.252)" fill="#eddad3"/>
            <path id="Trazado_820140" data-name="Trazado 820140" d="M1445.222,1401.326s-.471-2.386.06-3.031.75.206.75.206-.23-.838.426-1.1.859.749.859.749a.7.7,0,0,1,.731-.7c.733-.017.708.861.708.861s.537-.973,1.113-.274a3.647,3.647,0,0,1,.527,2.916s-.147.408-.854.376a.974.974,0,0,1-1.419.577s-.936.805-1.473-.046a.848.848,0,0,1-1.428-.535" transform="translate(-1101.335 -1065.003)" fill="#db9c7c"/>
            <path id="Trazado_820141" data-name="Trazado 820141" d="M1365.107,1167.758s-3.487,1.207-5.063,1.543-4.873,1.855-4.605,7.578a116.559,116.559,0,0,0,1.61,13.144,50.46,50.46,0,0,1-.447,11.759,45.382,45.382,0,0,0,18.2,0s-1.744-5.186-1.7-6.528,5.812-12.385,6.08-14.128,1.431-9.434-1.207-11.133-4.784-1.475-5.9-2.235-5.333-.545-6.964,0" transform="translate(-1033.042 -889.637)" fill="#eb4747"/>
            <path id="Trazado_820142" data-name="Trazado 820142" d="M1291.932,1175.233s-3.849-.105-6.576,5.931-3.4,9.568-4.024,10.417-2.817,4.158-4.963,5.768-11.081,10.676-11.081,10.676l2.452,3.139s12.876-9.12,14.218-10.685,9.487-13.413,9.975-15.2,4.251-8.195,0-10.044" transform="translate(-964.344 -895.708)" fill="#eb4747"/>
            <path id="Trazado_820143" data-name="Trazado 820143" d="M1446.155,1209.5c.024,2.414-2.483,18.89-2.483,18.89l-4.737.2s1.52-16.341,2.056-20.1a19.007,19.007,0,0,0-.243-4.707h0c-.169-1.192-.393-2.447-.63-3.646-.653-3.31-1.407-6.2-1.407-6.2s-4.269-14.066,2.291-13.035a15.966,15.966,0,0,1,3.007,6.932,82.033,82.033,0,0,1,1.341,13.01c-.134,2.482.788,6.876.8,8.651" transform="translate(-1095.479 -899.99)" fill="#eb4747"/>
            <path id="Trazado_820144" data-name="Trazado 820144" d="M1331.149,1303.137a40.151,40.151,0,0,0-1.654,4.5c-.134.908-4.9,12.772-5.231,16.243-.335,3.509-1.341,12.876-1.7,14.218s.8,7.332.984,8.674.089,23.249-1.52,34.069c0,0,3.755,1.609,6.617,0,0,0,4.739-16.9,4.471-26.647s-1.5-13.86.008-17.794,10.365-15.738,11.259-16.99,6.5-8.17,1.191-15.665-14.425-.61-14.425-.61" transform="translate(-1007.59 -990.992)" fill="#1d3b54"/>
            <path id="Trazado_820145" data-name="Trazado 820145" d="M1387.548,1333.588c-.471,3.131.024,7.243,1.007,18.69s-1.721,25.3-1.721,25.3a13.735,13.735,0,0,1-7.31,0c.09-.8,0-27.9,0-30.313s-.693-5.155-.872-7.926a56.5,56.5,0,0,0-1.989-8.925c-.3-1.065-.6-2.135-.9-3.172h0c-.168-.581-.332-1.152-.491-1.7-1.392-4.829-3.265-23.474-3.265-23.474s10.378-8.359,15.43-.49,2.459,13.592,2.28,14.575-1.7,14.308-2.17,17.437" transform="translate(-1045.682 -989.43)" fill="#1d3b54"/>
            <path id="Trazado_820146" data-name="Trazado 820146" d="M1348.463,1204.179s.7,14.08-2.655,22.195a48.689,48.689,0,0,0,25.35,0s-3.062-10.093-2.817-11.635,5.591-19.336,3.947-23.522-22.177-.245-23.826,12.963" transform="translate(-1025.714 -906.672)" fill="#eb4747"/>
            <path id="Trazado_820147" data-name="Trazado 820147" d="M1385.282,1075.554c-2.491-.282-8.942.224-8.45,9.926s4.024,9.121,7.556,8.092,7.735-8.54,7.735-10.552.268-6.661-6.841-7.466" transform="translate(-1049.338 -819.697)" fill="#eea886"/>
            <path id="Trazado_820148" data-name="Trazado 820148" d="M1378.42,1078.092s2.807,3.579,5.629,4.436c0,0,2.173,3.884,5.962,4.874,0,0,8.082-7.729,1.286-13.541s-12.921,1.265-12.876,4.232" transform="translate(-1050.569 -816.752)" fill="#fccca2"/>
            <path id="Trazado_820149" data-name="Trazado 820149" d="M1399.483,1108.765a1.219,1.219,0,0,1,2.178-.4c.907,1.207-.747,4.024-1.373,4.024s-1.162-1.609-.8-3.621" transform="translate(-1066.535 -844.324)" fill="#eea886"/>
            <path id="Trazado_820150" data-name="Trazado 820150" d="M1425.718,1085.365c.2-.307,6.328-3.067,7.6,2.7s-4.933,12.474-6.021,15.358,0,9.724,0,9.724a22.73,22.73,0,0,1-4.374-7.115c-1.241-3.95-1.657-13.911,2.793-20.667" transform="translate(-1083.852 -826.508)" fill="#fccca2"/>
            <path id="Trazado_820151" data-name="Trazado 820151" d="M1395.28,1376.279c-.08.178-5.251,11.656-6.582,13.646-.3-1.065-.6-2.135-.9-3.172h0s7.308-10.22,7.482-10.473" transform="translate(-1057.717 -1048.937)" fill="#162d40"/>
            <path id="Trazado_820152" data-name="Trazado 820152" d="M1450.713,1228.009a83.407,83.407,0,0,1-1.081,11.718c-.169-1.192-.393-2.447-.63-3.646.037-.165,1.533-6.93,1.711-8.072" transform="translate(-1104.363 -935.932)" fill="#ab3434"/>
            <path id="Trazado_820153" data-name="Trazado 820153" d="M673.329,1385a4.125,4.125,0,0,1,.856,1.175,6.773,6.773,0,0,0,1.031,1.384,15.8,15.8,0,0,1,1.448,2.371,12.014,12.014,0,0,0,.143,1.784c.162.354.581,1.034.264,1.161s-.861-.382-.861-.382a.486.486,0,0,1-.115.528.706.706,0,0,1-.85.115s-.067.534-.3.644a.814.814,0,0,1-.852-.027.947.947,0,0,1-.577.464.835.835,0,0,1-.806-.342s-.581.251-.844,0a2.7,2.7,0,0,1-.488-.712,10.358,10.358,0,0,1-.45-4.535,4.105,4.105,0,0,0-1.167-3.328Z" transform="translate(-510.458 -1055.587)" fill="#eea886"/>
            <path id="Trazado_820154" data-name="Trazado 820154" d="M675.687,1420.2h-8.212a1.514,1.514,0,0,1-1.513-1.512v-5.178a1.514,1.514,0,0,1,1.513-1.512h8.212a1.514,1.514,0,0,1,1.512,1.512v5.178a1.514,1.514,0,0,1-1.512,1.512m-8.212-7.188a.5.5,0,0,0-.5.5v5.178a.5.5,0,0,0,.5.5h8.212a.5.5,0,0,0,.5-.5v-5.178a.5.5,0,0,0-.5-.5Z" transform="translate(-507.567 -1076.158)" fill="#0e1e2b"/>
            <rect id="Rectángulo_377658" data-name="Rectángulo 377658" width="30.809" height="22.073" transform="translate(148.61 341.817)" fill="#ffcc63"/>
            <path id="Trazado_820155" data-name="Trazado 820155" d="M626.728,1188.8s-1.578.023-2.251,4.741.6,6.691.754,8.654,2.456,14.646,2.518,15.207.372,7.31,1.27,9.1,7.5,11.942,7.589,12.449,3.206-1.768,3.206-1.768-5.187-10.858-5.488-12.1-2.389-7.565-2.059-9.5-.924-12.584-.8-13.77-1.712-12.3-4.736-13.021" transform="translate(-475.799 -906.049)" fill="#eea886"/>
            <path id="Trazado_820156" data-name="Trazado 820156" d="M626.387,1188.8s-1.578.023-2.251,4.741a19.3,19.3,0,0,0,.342,8.463c.384,1.931,1.693,13.748,1.756,14.308s1.629,7.684,2.444,10.19c.619,1.905,6.507,11.882,6.6,12.389s4.577-2.331,4.577-2.331-5.756-11.231-6.057-12.47a49.357,49.357,0,0,1-1.307-7.487c-.037-2.3-1.484-13.6-1.363-14.783s-.333-11.408-4.736-13.021" transform="translate(-475.459 -906.049)" fill="#285173"/>
            <path id="Trazado_820157" data-name="Trazado 820157" d="M565.743,1651.18a46.021,46.021,0,0,0,3.856,5.066s2.549.892,2.707,2.625c.1,1.133,0,2.953-2.908,3.036s-4.781-.935-5.314-2.7a5.327,5.327,0,0,0-1.54-2.552v3.692h-.656s-.164-3.568-.2-4.224-.471-3.18.913-4.3a3.842,3.842,0,0,1,3.148-.646" transform="translate(-428.016 -1258.379)" fill="#eddad3"/>
            <path id="Trazado_820158" data-name="Trazado 820158" d="M641.744,1634.808a11.781,11.781,0,0,0,1.374,2.3c.659.859,2.707,4.388,3.609,4.635s3.692.738,3.938,2.3.369,2.666-2.379,2.789-4.553.287-5.865-1.641a14.294,14.294,0,0,0-3.4-3.322v5.03H637.95a45.622,45.622,0,0,0-.779-5.6c-.287-.369-1.025-4.389,1.517-6.48s3.056,0,3.056,0" transform="translate(-485.376 -1245.268)" fill="#eddad3"/>
            <path id="Trazado_820159" data-name="Trazado 820159" d="M552.163,1315.636a25.753,25.753,0,0,0-4.411,9.865c-.941,5.353.556,23.318.515,25.963s-2.5,9.229-2.01,14.213,4.6,29.378,4.6,29.378l3.148-.646s-.307-25.287,0-27.379.925-9.717,1.048-10.578,7.812-23.479,7.812-27.338-2.338-19.774-10.706-13.478" transform="translate(-416.282 -1001.607)" fill="#eea886"/>
            <path id="Trazado_820160" data-name="Trazado 820160" d="M606.356,1324.1s5.7,21.759,6.378,24.774,1.657,5.5,1.657,6.781a44.815,44.815,0,0,1-1.1,7.739l-3.876,34.454h-3.056s-1.928-20.119-2.235-24.179,2.215-10.336,1.6-12.059-9.905-21.6-9.905-21.6-7.034-22.231,10.541-15.914" transform="translate(-453.044 -1008.307)" fill="#eea886"/>
            <path id="Trazado_820161" data-name="Trazado 820161" d="M573.3,1656.771a4.55,4.55,0,0,1-4.568-.394,8.882,8.882,0,0,1-2.908-4.235l3.148-.646Z" transform="translate(-431.245 -1258.695)" fill="#eea886"/>
            <path id="Trazado_820162" data-name="Trazado 820162" d="M650.777,1642.948s-2.461.615-3.4,0-4.151-6.036-5.213-6.361c0,0,1.029-2.088,3.634-.571,0,0,4.286,6.029,4.984,6.932" transform="translate(-489.424 -1246.475)" fill="#eea886"/>
            <path id="Trazado_820163" data-name="Trazado 820163" d="M578.1,1361.04s-10.475,6.166-30.109,6.166c0,0-1.112-22.772,1.742-29.179s21.8-2.423,21.8-2.423,5.888,20.725,6.562,25.436" transform="translate(-417.493 -1017.003)" fill="#1d3b54"/>
            <path id="Trazado_820164" data-name="Trazado 820164" d="M566.634,1181.142a31.873,31.873,0,0,0,4.1,1.65c1.057.211,5.159,5.54,5.878,7.485s0,4.864-1.48,8.289-.085,4.567-.761,7.992a79.691,79.691,0,0,0-1.142,12.581c.127,1.9-17.1,2.262-21.037-1.205,0,0,3.953-5.92,4.46-6.766s.085-5.455-.38-6.639-3.561-11.253-3.561-11.253-2.533-7.733-.245-9.51c1.988-1.544,7.4-2.094,8.377-2.432a16.616,16.616,0,0,1,5.79-.19" transform="translate(-420.336 -900.091)" fill="#eddad3"/>
            <path id="Trazado_820165" data-name="Trazado 820165" d="M618.9,1184.969l1.85-2.167-1.606-5.7a37.651,37.651,0,0,0-.244,7.87" transform="translate(-471.632 -897.131)" fill="#d6c5be"/>
            <path id="Trazado_820166" data-name="Trazado 820166" d="M583.98,1089.071c1.809-.637,8.458-2.2,10.022,6.3s-3.129,14.547-7.443,12.94-6.978-7.485-7.231-11.968,2.368-6.47,4.652-7.273" transform="translate(-441.525 -829.63)" fill="#eea886"/>
            <path id="Trazado_820167" data-name="Trazado 820167" d="M591.124,1093.144s.326-7.273-6.906-7.527-9.177,5.7-8.584,10.039a10.623,10.623,0,0,0,3.585,6.628s-.26-3.511,1.143-4.422,7.028-2.73,9.48-6.959a6.488,6.488,0,0,1,1.281,2.241" transform="translate(-438.646 -827.402)" fill="#252e3b"/>
            <path id="Trazado_820168" data-name="Trazado 820168" d="M572.781,1091.726c-.953,2.9-3.777,4.57-6.31,3.737s-3.812-3.856-2.86-6.753,3.777-4.569,6.31-3.737,3.812,3.856,2.86,6.752" transform="translate(-429.319 -826.755)" fill="#252e3b"/>
            <path id="Trazado_820169" data-name="Trazado 820169" d="M598,1153.525a72.649,72.649,0,0,0-.481,7.4s-3.164,3.17-6.762-3.7a9.433,9.433,0,0,0,.375-6.691c-1.14-3.859,6.868,2.988,6.868,2.988" transform="translate(-450.247 -875.988)" fill="#eea886"/>
            <path id="Trazado_820170" data-name="Trazado 820170" d="M607.519,1198.009v2.9l-3.641-2.721Z" transform="translate(-460.248 -913.068)" fill="#eea886"/>
            <path id="Trazado_820171" data-name="Trazado 820171" d="M592.745,1187.929l-1.512-1.871-5.092-5.075-1.647,1.586Z" transform="translate(-445.474 -900.091)" fill="#d6c5be"/>
            <path id="Trazado_820172" data-name="Trazado 820172" d="M555.274,1183.024s4.273,6.486,4.478,9.34-1.588,24.207-3.023,31.07-11.807-.774-11.807-.774,6.969-11.28,4.294-20.313-3.647-12.643-3.647-12.643.92-5.03,4.182-5.737c2.86-.621,5.523-.942,5.523-.942" transform="translate(-415.315 -901.647)" fill="#285173"/>
            <path id="Trazado_820173" data-name="Trazado 820173" d="M632.6,1194.861s.771,2.728-2.232,8.756c0,0,.048,7.716.132,10.126s.655,11.524.655,11.524l-2.969,1.739a.838.838,0,0,1-1.256-.823c.841-6.937,3.577-33.249-2.333-40.321l2.372.7a19.2,19.2,0,0,1,5.631,8.3" transform="translate(-476.038 -903.81)" fill="#285173"/>
            <path id="Trazado_820174" data-name="Trazado 820174" d="M592.009,1128.518a1.114,1.114,0,0,0-1.649-.474c-.508.38-.8,1.522,0,3s3.637,2.512,1.649-2.529" transform="translate(-449.566 -859.595)" fill="#eea886"/>
            <path id="Trazado_820175" data-name="Trazado 820175" d="M621.817,1182.8l2.331.644-3.937-6.348Z" transform="translate(-472.697 -897.132)" fill="#fae6de"/>
            <path id="Trazado_820176" data-name="Trazado 820176" d="M592,1186.058l-2.129,2.791-4.372-7.287,1.409-.579Z" transform="translate(-446.237 -900.091)" fill="#fae6de"/>
            <path id="Trazado_820177" data-name="Trazado 820177" d="M601.744,1164.284l-.1,1.12s-2.515.47-5.805-3.543a7.143,7.143,0,0,0,5.91,2.423" transform="translate(-454.118 -885.517)" fill="#a77860"/>
            <path id="Trazado_820178" data-name="Trazado 820178" d="M671.072,1314.382s1.479.953,2.329.42a5.636,5.636,0,0,1,2.374-.536c.52-.027,2.084-.7,2.125-.049s-2.526,1.24-3.039,1.47,1.748,1.334,2,1.861-1.787,4.169-3.251,3.232-2.41-2.905-2.7-3.019a10.68,10.68,0,0,1-1.092-.64Z" transform="translate(-510.506 -1001.42)" fill="#eea886"/>
            <path id="Trazado_820179" data-name="Trazado 820179" d="M551.125,1191.063a4.145,4.145,0,0,1,3.829,1.393c1.776,1.9,2.664,5.032,3.129,6.047s6.343,10.4,6.682,10.614,6.311,5.032,9.018,7.611a47.634,47.634,0,0,0,7.982,5.456l-1.988,2.791s-16.027-8.542-18.057-11.671-10.134-11.8-10.134-11.8-4.838-7.29-.461-10.443" transform="translate(-418.646 -907.727)" fill="#eea886"/>
            <path id="Trazado_820180" data-name="Trazado 820180" d="M688.955,1327.876s4.292,3.168,4.4,3.618-.076.673-.49.393-4.236-2.94-4.236-2.94,4.45,4.6,4.621,4.952c.1.205-.234.657-.469.527s-4.907-4.439-4.907-4.439,4.148,4.3,4.2,4.64a.412.412,0,0,1-.691.333c-.329-.3-4.4-4.076-4.4-4.076s2.822,3.323,2.7,3.634c-.073.19-.343.594-1.045-.286s-2.574-2.783-2.574-2.783Z" transform="translate(-522.888 -1012.046)" fill="#eea886"/>
            <path id="Trazado_820181" data-name="Trazado 820181" d="M649.562,1254.154s.142,9.632-.446,14.277l-.261-12.765Z" transform="translate(-494.528 -955.859)" fill="#1d3b54"/>
            <path id="Trazado_820182" data-name="Trazado 820182" d="M550.125,1188.292s1.169.2,2.945,2.1,2.664,5.032,3.129,6.047,6.343,10.4,6.682,10.614a74.984,74.984,0,0,1,7.94,6.152,58.027,58.027,0,0,0,7.744,5.661l-2.585,3.838s-14.134-7.829-16.376-10.809c-2.395-3.185-10.932-12.534-10.932-12.534s-5.534-8.516,1.453-11.07" transform="translate(-416.588 -905.662)" fill="#285173"/>
            <path id="Trazado_820183" data-name="Trazado 820183" d="M680.418,1406.721s-.551-2.144-1.24-2.463-.534.464-.534.464-.14-.778-.782-.735-.41.952-.41.952a.64.64,0,0,0-.876-.288c-.609.274-.243.985-.243.985s-.823-.587-1.021.213a3.316,3.316,0,0,0,.714,2.6s.281.277.848-.027a.886.886,0,0,0,1.391-.084s1.084.292,1.19-.616c0,0,1.173.245.962-1" transform="translate(-514.643 -1070.054)" fill="#db9c7c"/>
            <path id="Trazado_820184" data-name="Trazado 820184" d="M586.479,1271.993l-4.839-7.807s4.126,4.871,4.556,5.394.466.561.466.561-.126,1.586-.183,1.852" transform="translate(-443.3 -963.505)" fill="#1d3b54"/>
            <path id="Trazado_820185" data-name="Trazado 820185" d="M802.359,1376.142a24.786,24.786,0,0,0,.92,3.057,43.685,43.685,0,0,1,.4,6.329c-.024.536-.38.219-.561-.134-.1-.2-.428-1.909-.744-2.817-.265-.762-.494-1.047-.629-.8a16.679,16.679,0,0,0-.087,4.776c.291,1.356-.012,4.479-.726,4.028s-2.384-6.1-2.243-8.229a27.893,27.893,0,0,1,.9-4.8Z" transform="translate(-608.718 -1048.833)" fill="#eea886"/>
            <path id="Trazado_820186" data-name="Trazado 820186" d="M799.308,1243.15s2.329-15.484,2.947-18.427c.28-1.333,1.049-4.649,1.537-7.372.161-.9.3-1.821.411-2.725a.008.008,0,0,0,0,0c.457-3.611.574-6.906.574-6.906s2.02-9.253-3.819-9.823c0,0-1.565.488-1.656,1.131-.353,2.473-1.159,7.819-1.193,9.087-.028,1.029-1.538,11.411-1.56,11.778-.043.713-.393,5.522-.535,7.633-.333,4.93-.459,15.956-.459,15.956Z" transform="translate(-606.336 -912.98)" fill="#2c5396"/>
            <path id="Trazado_820187" data-name="Trazado 820187" d="M776.435,1664.23s-2.254,2.516-4.542,3.044-3.889,1.2-3.906,2.644,6.585,2.4,9.2.94c3.908-2.172,4.305-1.518,4.739-2.6s-.52-3.99-.492-4.336c.035-.427-5,.312-5,.312" transform="translate(-585.325 -1268.061)" fill="#202338"/>
            <path id="Trazado_820188" data-name="Trazado 820188" d="M875.874,1667.849s-1.658,2.452-3.876,3.017c-2.187.557-3.6,1.618-3.711,3.022s5.155,3.241,8.854.776c2.43-1.62,3.336-1.528,3.825-2.557s-.256-3.914-.207-4.248c.061-.413-4.885-.01-4.885-.01" transform="translate(-661.768 -1271.024)" fill="#202338"/>
            <path id="Trazado_820189" data-name="Trazado 820189" d="M803.747,1658.321a10.36,10.36,0,0,0-.253,1.2c.044.025,5.156.634,5-.312-.125-.767-.3-1.6-.3-1.6Z" transform="translate(-612.383 -1263.356)" fill="#81807e"/>
            <path id="Trazado_820190" data-name="Trazado 820190" d="M900.228,1661.9a11.474,11.474,0,0,0-.068,1.212c.041.027,4.914.944,4.885.01a7.621,7.621,0,0,0-.309-1.664Z" transform="translate(-686.054 -1266.287)" fill="#81807e"/>
            <path id="Trazado_820191" data-name="Trazado 820191" d="M806.765,1346.5s-1.859,18.055-2.826,24.236c-1.13,7.227-1.514,13.2-1.829,16.938-.4,4.7-.473,27.847-.751,29.223s6.158.38,6.158.38,3.166-30.239,4.347-35.249c1.1-4.665,5.182-24.751,6.185-23.477s2.248,23.44,2.991,27.119,3,32.486,3,32.486,5.122,1.02,6.485-.133c0,0,.62-24.825.146-31.724-.18-2.629,3.08-31.522-1.1-43.154-2.21-6.147-22.809,3.355-22.809,3.355" transform="translate(-610.753 -1022.103)" fill="#292c47"/>
            <path id="Trazado_820192" data-name="Trazado 820192" d="M850.973,1221.784s-3.135.952-4.447.711-.649-16.349-.7-19.7a85.477,85.477,0,0,0-1.527-9.9.055.055,0,0,1,0,.012s0,.006,0,.008,0,.008,0,.012c-.147.538-2.155,7.986-2.225,11.566-.074,3.714.484,17.923.484,17.923l-4.989,2.35-17.252.5-2.514.037s.4-8.422.544-11.308c.092-1.834.448-5.118.357-8.317a29.457,29.457,0,0,0-.277-4.824c-.036-6.409-.424-12.757-.424-12.757q-.323-4.358-.45-8.157c.7-.371,1.544-.8,2.219-1.125,2.087-.994,5-2.332,6.861-3.189,1.093-.5,2.163-.868,2.163-.868s7.459-.715,8.064-.677a18.941,18.941,0,0,1,2.346.8,85.64,85.64,0,0,1,8.556,3.63c1.191.853,3.708,21.111,3.822,22.53.205,2.555-.6,20.743-.6,20.743" transform="translate(-623.096 -894.828)" fill="#d8d5e0"/>
            <path id="Trazado_820193" data-name="Trazado 820193" d="M871.744,1150.253c-.548,5.027-6.13,5.027-6.13,5.027s-2.31-2.021-2.237-3.517c0-.032,0-.066.008-.1.034-.275.346-.618.378-1.169,0-.075.007-.152.008-.228s0-.15,0-.224c0-.382-.024-.759-.046-1.022-.008-.092-.016-.171-.022-.232-.009-.093-.015-.146-.015-.146s.9-.948,2.043-2.078c2-1.975,4.746-4.506,4.75-3.5a.954.954,0,0,1-.024.191c-.483,2.266,1.284,7,1.284,7" transform="translate(-658.026 -871.018)" fill="#eea886"/>
            <path id="Trazado_820194" data-name="Trazado 820194" d="M896.366,1348.185s.452,2.85.491,3.593l.958-.191s-.264-3.015-.419-3.52Z" transform="translate(-683.169 -1027.434)" fill="#5d676c"/>
            <path id="Trazado_820195" data-name="Trazado 820195" d="M955.9,1403.062s-.293-4-1.361-4.6-.437.623-.437.623.639,2.893.788,4.067a5.99,5.99,0,0,0,1.011-.09" transform="translate(-727.032 -1065.717)" fill="#7f827f"/>
            <path id="Trazado_820196" data-name="Trazado 820196" d="M917.874,1416.66l14.08-4.224.221,17.415-13.945,8.645Z" transform="translate(-699.562 -1076.494)" fill="#7f827f"/>
            <path id="Trazado_820197" data-name="Trazado 820197" d="M919.368,1438.5l1.776.3,13.559-8.718-.435-17.58-1.176-.063Z" transform="translate(-700.701 -1076.495)" fill="#7f827f"/>
            <path id="Trazado_820198" data-name="Trazado 820198" d="M875.109,1186.456l-2.323,2.068s2.682-.178,3.183-.625Z" transform="translate(-665.198 -904.263)" fill="#b4b1ba"/>
            <path id="Trazado_820199" data-name="Trazado 820199" d="M819.079,1378.06a132.156,132.156,0,0,0,20.475,0v3.137s-14.357,2.073-20.954-.6Z" transform="translate(-623.9 -1050.295)" fill="#292c47"/>
            <path id="Trazado_820200" data-name="Trazado 820200" d="M817.324,1179.258c-.6.277-1.317.6-2.073.954-1.587.733-3.376,1.563-4.788,2.235-.749.356-1.676.776-2.393,1.078.083,2.577.209,5.342.428,8.3,0,0,.206,7.228.623,14.084a13.641,13.641,0,0,1,.133,3.013c-.1,1.34-.249,2.8-.424,4.332,0,.02,0,.04-.006.058-.042.362-.086.727-.129,1.1,0,.005,0,.01,0,.016a160.254,160.254,0,0,1-3.32,19.052c-.173.554.424,1.065.851,1.46l2.985,1.882s1.231-11.33,1.639-15.176c.394-3.712,1.635-8.69,2.179-13.539v0c.689-6.152,1.638-12.18,2.149-15.761,1.332-9.323,3.108-13.494,3.108-13.494Z" transform="translate(-613.794 -898.463)" fill="#2c5396"/>
            <path id="Trazado_820201" data-name="Trazado 820201" d="M893.792,1205.52c.231,3.111-1.085,20.323.228,20.565s6.139-.819,6.139-.819.605-18.562.411-20.507c-.141-1.416-2.4-22.659-3.586-23.512-.687-.494-5.782-2.3-8.282-3.285-.457-.181-.9-.352-1.309-.508-.53.59-6.154,10.995-6.594,19.449-.134,2.574.47,8.008.928,12.448.49,4.736,1.032,8.433,1.429,12.394.783,7.8,1.33,14.013,1.33,14.013l7.767-3.458c1.257-.629,3-3.209,2.525-4.532-1.8-5.029-4.056-13.621-4.059-18.034,0,0,.866-10.806,1.553-13.181a66.583,66.583,0,0,1,1.519,8.966" transform="translate(-671.292 -897.402)" fill="#2c5396"/>
            <path id="Trazado_820202" data-name="Trazado 820202" d="M936,1372.06s-.384,1.735-.9,3.471-1.009,2.3-.776,3.282c.176.745,1.03,1.293,1.24,1.05s.269-3.151,1.474-3.155-.306,3.6.407,3.33,3.449-1.827,3.254-3.289-1.316-2.5-1.277-4.693a4.709,4.709,0,0,0-.6-2.806Z" transform="translate(-712.056 -1043.58)" fill="#eea886"/>
            <path id="Trazado_820203" data-name="Trazado 820203" d="M940.823,1400.04s-1.6.434-1.42,5.857l1.811-.33a18.682,18.682,0,0,1,.439-4.639s-.108-1.06-.83-.887" transform="translate(-715.959 -1067.032)" fill="#7f827f"/>
            <path id="Trazado_820204" data-name="Trazado 820204" d="M934.625,1309.219l.08,13.679a23.8,23.8,0,0,0,6.493-1.511l.261-19.29Z" transform="translate(-712.329 -992.4)" fill="#2c5396"/>
            <path id="Trazado_820205" data-name="Trazado 820205" d="M862.1,1186.821s-.2,2.855,2.216,2.921,4.332-2.252,4.332-2.252l-4.008,1.034-2.44-2.068Z" transform="translate(-657.048 -904.263)" fill="#d8d5e0"/>
            <path id="Trazado_820206" data-name="Trazado 820206" d="M886.039,1170.062a34.792,34.792,0,0,1-3.484,3.9l1.958,3.286,3.379-5.746Z" transform="translate(-672.643 -891.768)" fill="#eae6f2"/>
            <path id="Trazado_820207" data-name="Trazado 820207" d="M864.1,1178.292l2.066,1.528s-1.815-3.31-1.851-4.784Z" transform="translate(-658.577 -895.559)" fill="#b4b1ba"/>
            <path id="Trazado_820208" data-name="Trazado 820208" d="M856.017,1175.036l-1.326.937-1.478,4.41,2.589-2.091Z" transform="translate(-650.28 -895.559)" fill="#eae6f2"/>
            <path id="Trazado_820209" data-name="Trazado 820209" d="M815.894,1270.891a62.5,62.5,0,0,1,.277,9.734c-.31,4.644-1.579,12.07-1.579,12.07s-.012-16.3,1.3-21.8" transform="translate(-620.845 -968.615)" fill="#1f3b6b"/>
            <path id="Trazado_820210" data-name="Trazado 820210" d="M833.695,1097.429s-1.457,3.546-.505,3.974c.787.353-.477,3.816-.631,4.376s1.44.788,1.807,1.1,1.792,4.47,3.085,4.464,6.847-2.617,8.245-4.414,1.911-9.3.536-12.3-9.958-3.394-12.537,2.8" transform="translate(-634.53 -832.667)" fill="#eea886"/>
            <path id="Trazado_820211" data-name="Trazado 820211" d="M833.669,1092.035a5.184,5.184,0,0,1,.845-6.472c3.073-3.041,9.758,1.027,10.475,1.133s4.916,1,3.519,7.393c-1.243,5.689-1.362,5.838-1.362,5.838s-1.668-3.008-2.449-3.458c-1.22-.7-3.684-.245-3.684-.245s.853-3.268-1.044-3.519-4.5-1.562-6.3-.67" transform="translate(-634.79 -826.509)" fill="#323657"/>
            <path id="Trazado_820212" data-name="Trazado 820212" d="M873.69,1120.161c.118-.448.451-2.357,2.155-1.436s-.509,4.685-.782,4.759-2.365.449-1.374-3.323" transform="translate(-665.685 -852.453)" fill="#eea886"/>
            <path id="Trazado_820213" data-name="Trazado 820213" d="M870.028,1154.181a9.451,9.451,0,0,1-5.2,4.732c0-.074,0-.15,0-.224,0-.382-.024-.759-.046-1.021-.008-.092-.015-.171-.022-.232,0,0,4.181-1.965,5.265-3.254" transform="translate(-659.083 -879.664)" fill="#a77860"/>
          </g>
        </g>
      </g>
    </g>
  </g>
</svg>
