<svg id="Grupo_1016986" data-name="Grupo 1016986" xmlns="http://www.w3.org/2000/svg" xmlns:xlink="http://www.w3.org/1999/xlink" width="61.283" height="69.613" viewBox="0 0 61.283 69.613">
  <defs>
    <clipPath id="clip-path">
      <rect id="Rectángulo_375661" data-name="Rectángulo 375661" width="61.283" height="69.613" fill="none"/>
    </clipPath>
  </defs>
  <g id="Grupo_1016985" data-name="Grupo 1016985" clip-path="url(#clip-path)">
    <path id="Trazado_608345" data-name="Trazado 608345" d="M27.866,68.316a1.521,1.521,0,0,1-1.717,1.294c-5.4-.014-10.807.024-16.21-.019a7.591,7.591,0,0,1-7.411-7.78c-.015-9.32-.069-18.641.032-27.96a25.078,25.078,0,0,0-1.328-8.821C.9,24.082.64,23.1.365,22.134c-1.315-4.651.989-8.612,5.771-9.99Q26.542,6.268,46.94.371c4.546-1.314,8.563.922,9.916,5.554.687,2.351,1.352,4.708,2.03,7.061.392,1.361.1,1.934-1.274,2.334q-6.484,1.889-12.975,3.753C34.508,22,24.38,24.934,14.256,28.045h44.82c1.851,0,2.206.358,2.206,2.219q0,15.666,0,31.333c0,4.815-3.206,8-8.035,8.006-5.149,0-10.3-.008-15.448.008-.955,0-1.624-.29-1.8-1.307.118-1.246.968-1.456,2.007-1.454,5.038.009,10.078-.069,15.114.03a5.054,5.054,0,0,0,5.444-5.35c-.046-5.691-.027-11.382,0-17.073,0-.764-.217-.963-.972-.962q-25.663.031-51.326,0c-.785,0-.942.236-.939.972.03,5.8.014,11.6.022,17.4a4.835,4.835,0,0,0,.162,1.5,4.78,4.78,0,0,0,5.016,3.484q7.666.028,15.333,0c1.052,0,1.871.248,2.007,1.467M40.855,4.967c.052.123.062.2.109.25,3.079,2.968,6.173,5.921,9.229,8.913a.909.909,0,0,0,1.057.172c1.352-.377,2.692-.8,4.052-1.143.642-.162.657-.522.51-1.02-.6-2.037-1.15-4.09-1.81-6.107a4.767,4.767,0,0,0-5.675-3.213c-2.512.62-4.978,1.423-7.472,2.148M16.849,24.256C13.6,21.133,10.462,18.125,7.338,15.1a.71.71,0,0,0-.83-.184,4.9,4.9,0,0,0-3.539,6.316c.531,1.944,1.174,3.857,1.678,5.807.161.621.426.659.908.518l11.294-3.305m29.74,16.558c3.913,0,7.6-.011,11.293.011.629,0,.7-.3.7-.807-.012-2.793-.019-5.585.005-8.377.005-.589-.132-.837-.78-.82-1.594.043-3.191.016-4.787.013-.368,0-.68,0-.911.406-1.787,3.133-3.6,6.251-5.521,9.575m-29.4-9.977c-3.876,0-7.591.009-11.307-.01-.55,0-.547.3-.546.686.007,2.862.018,5.724-.008,8.585-.005.586.2.736.754.725,1.521-.031,3.044-.045,4.564.005a1.242,1.242,0,0,0,1.263-.768c1.386-2.449,2.812-4.875,4.218-7.312.337-.583.655-1.178,1.062-1.913m9.9-9.541c-2.7-2.6-5.376-4.942-7.765-7.545-1.467-1.6-2.815-2.093-4.823-1.206a38.141,38.141,0,0,1-4.479,1.37c3.258,3.131,6.363,6.11,9.46,9.1a.825.825,0,0,0,.878.241c2.166-.632,4.332-1.261,6.729-1.959m20.472-5.933c-3.292-3.166-6.4-6.152-9.5-9.141a.68.68,0,0,0-.757-.232c-2.221.66-4.451,1.29-6.724,1.944a2.475,2.475,0,0,0,.241.38q4.55,4.364,9.1,8.724c.211.2.406.426.743.328l6.891-2m-27.3-4.429c3.27,3.151,6.419,6.183,9.565,9.219.163.157.321.292.567.219l6.754-2.007c-.053-.171-.054-.259-.1-.3Q32.434,13.626,27.811,9.2a.767.767,0,0,0-.859-.235c-2.164.662-4.34,1.285-6.689,1.974m-5.638,29.88c2.421,0,4.593-.024,6.764.015a1.172,1.172,0,0,0,1.167-.735c1.6-2.821,3.238-5.623,4.851-8.438.134-.234.4-.44.263-.821-2.23,0-4.473.02-6.715-.015-.552-.008-.756.3-.977.682q-1.506,2.627-3.022,5.247c-.748,1.3-1.493,2.6-2.33,4.064m10.647,0c2.483,0,4.757-.01,7.03.008.45,0,.621-.255.809-.581,1.673-2.907,3.344-5.815,5.044-8.706.332-.563.279-.718-.393-.71-2.028.026-4.056.019-6.084,0a.944.944,0,0,0-.954.529c-1.766,3.1-3.558,6.18-5.452,9.457M49.2,30.835c-2.419,0-4.626.021-6.833-.014a1.1,1.1,0,0,0-1.082.695c-.828,1.479-1.686,2.94-2.532,4.409l-2.812,4.886c2.495,0,4.8,0,7.1,0a.722.722,0,0,0,.664-.457C45.5,37.241,47.3,34.127,49.2,30.835" transform="translate(0 0.001)" fill="#080a0c"/>
    <path id="Trazado_608346" data-name="Trazado 608346" d="M47,224.558c-.136-1.219-.955-1.47-2.007-1.467q-7.666.017-15.333,0a4.78,4.78,0,0,1-5.016-3.484,4.834,4.834,0,0,1-.161-1.5c-.008-5.8.008-11.6-.022-17.4,0-.736.153-.973.939-.972q25.663.036,51.326,0c.755,0,.976.2.972.962-.031,5.691-.05,11.382,0,17.073a5.054,5.054,0,0,1-5.444,5.35c-5.036-.1-10.076-.022-15.115-.03-1.04,0-1.889.208-2.007,1.454l-2.684,0c-.12-.835-.524-1.422-1.435-1.4-.853.025-1.239.586-1.322,1.391L47,224.558m.177-21.524c-.872.022-1.363.621-1.364,1.658q-.01,6.528,0,13.056c0,1.714.953,2.256,2.46,1.392q5.546-3.183,11.078-6.391c1.533-.889,1.556-1.967.043-2.847-3.748-2.18-7.512-4.333-11.262-6.508a2.694,2.694,0,0,0-.953-.359" transform="translate(-19.134 -156.241)" fill="#c5ced7"/>
    <path id="Trazado_608347" data-name="Trazado 608347" d="M140.307,308.671c.082-.805.469-1.366,1.322-1.391.911-.027,1.315.561,1.435,1.4-.166.748-.572,1.279-1.386,1.276a1.349,1.349,0,0,1-1.371-1.28" transform="translate(-109.754 -240.367)" fill="#080a0c"/>
    <path id="Trazado_608348" data-name="Trazado 608348" d="M187.616,14.593c2.494-.725,4.961-1.528,7.472-2.148a4.767,4.767,0,0,1,5.675,3.213c.66,2.017,1.211,4.07,1.81,6.107.147.5.132.858-.51,1.02-1.36.344-2.7.766-4.052,1.143a.909.909,0,0,1-1.057-.172c-3.056-2.992-6.15-5.945-9.229-8.913-.047-.045-.057-.127-.109-.25" transform="translate(-146.761 -9.625)" fill="#3796d4"/>
    <path id="Trazado_608349" data-name="Trazado 608349" d="M26.726,77.655,15.432,80.96c-.481.141-.747.1-.908-.518-.5-1.95-1.147-3.864-1.678-5.807a4.9,4.9,0,0,1,3.539-6.316.71.71,0,0,1,.83.184c3.124,3.021,6.261,6.03,9.511,9.153" transform="translate(-9.877 -53.398)" fill="#3796d4"/>
    <path id="Trazado_608350" data-name="Trazado 608350" d="M213.949,151.532c1.921-3.323,3.733-6.442,5.521-9.575.231-.4.544-.407.912-.406,1.6,0,3.192.031,4.786-.013.648-.017.785.231.78.82-.024,2.792-.017,5.585-.005,8.377,0,.5-.071.811-.7.807-3.69-.022-7.38-.011-11.293-.011" transform="translate(-167.36 -110.717)" fill="#3795d3"/>
    <path id="Trazado_608351" data-name="Trazado 608351" d="M36.343,141.581c-.407.735-.725,1.329-1.062,1.913-1.407,2.437-2.833,4.863-4.218,7.312a1.242,1.242,0,0,1-1.263.768c-1.52-.051-3.043-.037-4.564-.006-.554.011-.76-.139-.754-.725.026-2.862.015-5.724.008-8.585,0-.391,0-.689.546-.686,3.716.018,7.431.009,11.307.009" transform="translate(-19.151 -110.744)" fill="#3796d4"/>
    <path id="Trazado_608352" data-name="Trazado 608352" d="M63.1,64.795c-2.4.7-4.563,1.326-6.729,1.959a.825.825,0,0,1-.878-.241c-3.1-2.988-6.2-5.968-9.46-9.1a38.14,38.14,0,0,0,4.479-1.37c2.008-.888,3.356-.393,4.823,1.206,2.39,2.6,5.062,4.948,7.765,7.545" transform="translate(-36.006 -43.498)" fill="#3796d4"/>
    <path id="Trazado_608353" data-name="Trazado 608353" d="M157.422,36.754l-6.891,2c-.338.1-.532-.125-.743-.328q-4.551-4.363-9.1-8.724a2.447,2.447,0,0,1-.242-.38c2.273-.653,4.5-1.283,6.724-1.943a.68.68,0,0,1,.757.232c3.1,2.989,6.207,5.975,9.5,9.141" transform="translate(-109.86 -21.39)" fill="#3796d4"/>
    <path id="Trazado_608354" data-name="Trazado 608354" d="M93.054,42.957c2.35-.689,4.525-1.312,6.689-1.974a.767.767,0,0,1,.859.235q4.619,4.434,9.239,8.867c.044.043.045.131.1.3l-6.754,2.007c-.246.073-.4-.062-.567-.219-3.146-3.035-6.294-6.068-9.565-9.219" transform="translate(-72.791 -32.022)" fill="#3796d4"/>
    <path id="Trazado_608355" data-name="Trazado 608355" d="M67.163,151.534c.837-1.46,1.582-2.763,2.33-4.064q1.51-2.625,3.022-5.247c.221-.386.425-.691.977-.682,2.242.035,4.485.014,6.715.014.135.382-.129.587-.263.821-1.614,2.814-3.249,5.617-4.851,8.438a1.172,1.172,0,0,1-1.167.735c-2.171-.039-4.343-.015-6.764-.015" transform="translate(-52.538 -110.719)" fill="#3795d3"/>
    <path id="Trazado_608356" data-name="Trazado 608356" d="M116.057,151.551c1.894-3.277,3.686-6.36,5.452-9.457a.944.944,0,0,1,.954-.529c2.028.017,4.056.024,6.084,0,.672-.009.725.146.393.71-1.7,2.891-3.371,5.8-5.044,8.706-.188.326-.359.585-.809.581-2.273-.019-4.547-.008-7.03-.008" transform="translate(-90.785 -110.736)" fill="#3795d3"/>
    <path id="Trazado_608357" data-name="Trazado 608357" d="M178.314,141.556c-1.9,3.291-3.7,6.405-5.494,9.523a.722.722,0,0,1-.664.457c-2.3-.006-4.605,0-7.1,0l2.812-4.886c.846-1.469,1.7-2.93,2.532-4.409a1.1,1.1,0,0,1,1.082-.695c2.206.035,4.413.014,6.833.014" transform="translate(-129.114 -110.72)" fill="#3795d3"/>
    <path id="Trazado_608358" data-name="Trazado 608358" d="M123.866,214.884a2.691,2.691,0,0,1,.953.359c3.751,2.175,7.515,4.328,11.262,6.508,1.512.88,1.49,1.958-.043,2.847q-5.532,3.208-11.078,6.39c-1.507.865-2.458.322-2.46-1.392q-.008-6.528,0-13.056c0-1.037.493-1.635,1.364-1.658m9.185,8.269c-2.541-1.458-4.969-2.857-7.4-4.243-.628-.358-.457.217-.458.462-.014,2.494,0,4.988-.017,7.482-.005.669.194.746.744.425,2.324-1.358,4.66-2.7,7.135-4.125" transform="translate(-95.822 -168.092)" fill="#080a0c"/>
    <path id="Trazado_608359" data-name="Trazado 608359" d="M142.646,237.2c-2.476,1.429-4.811,2.767-7.135,4.125-.55.322-.75.244-.744-.425.02-2.494,0-4.988.017-7.482,0-.245-.17-.819.458-.462,2.435,1.386,4.863,2.785,7.4,4.243" transform="translate(-105.417 -182.144)" fill="#dd4252"/>
  </g>
</svg>
