<svg xmlns="http://www.w3.org/2000/svg" xmlns:xlink="http://www.w3.org/1999/xlink" width="124.001" height="124" viewBox="0 0 124.001 124">
  <defs>
    <clipPath id="clip-path">
      <rect id="Rect치ngulo_377516" data-name="Rect치ngulo 377516" width="75.233" height="59.379" fill="none"/>
    </clipPath>
  </defs>
  <g id="Grupo_1071716" data-name="Grupo 1071716" transform="translate(1862.07 9581.744)">
    <g id="Grupo_1071498" data-name="Grupo 1071498" transform="translate(-2599.07 -11639.744)">
      <g id="Grupo_159183" data-name="Grupo 159183" transform="translate(352.001)">
        <path id="Uni칩n_12" data-name="Uni칩n 12" d="M8464.769,11817.939a62.055,62.055,0,1,1,20.7-16.051l8.516,22.111Z" transform="translate(-7991 -9642)" fill="#a3bfe4"/>
        <circle id="Elipse_4842" data-name="Elipse 4842" cx="48" cy="48" r="48" transform="translate(399 2072)" fill="#fffbe5"/>
      </g>
    </g>
    <g id="Grupo_1071509" data-name="Grupo 1071509" transform="translate(-1837.687 -9549.434)">
      <g id="Grupo_1071508" data-name="Grupo 1071508" transform="translate(0 0)" clip-path="url(#clip-path)">
        <path id="Trazado_819736" data-name="Trazado 819736" d="M58.762,33.627c0-3.913-.014-7.826.013-11.739,0-.7-.222-.981-.926-.919a12.528,12.528,0,0,1-1.468,0,4.494,4.494,0,0,1-4.7-4.73q-.069-5.726,0-11.453A4.517,4.517,0,0,1,56.5.025q5.727-.036,11.454,0a4.491,4.491,0,0,1,4.735,4.691c.054,3.817.045,7.636,0,11.453-.032,3-1.884,4.716-4.921,4.825-.712.026-1.942-.579-2.072.539-.155,1.338,1.156.388,1.762.661a3.774,3.774,0,0,1,2.256,1.941c.26.681.52.876,1.249.8a2.916,2.916,0,0,1,2.888,1.393c.384.608.736.645,1.4.561a3.249,3.249,0,0,1,3.679,3.132q.082,7.854-.029,15.71c-.025,1.79-1.058,3.331-1.655,5.058,1.714.134,2.173,1.2,2.088,2.735-.069,1.268-.011,2.544-.017,3.817a1.782,1.782,0,0,1-1.958,2.034q-9.692.013-19.384,0a1.754,1.754,0,0,1-1.939-1.909c-.033-1.517-.013-3.035-.009-4.552,0-1.221.6-2,1.832-2.007.874,0,.905-.407.908-1.068a7.486,7.486,0,0,0-1.1-3.892C55.7,42.573,53.727,39.2,51.819,35.787a3.343,3.343,0,0,1,1.144-4.609,3.389,3.389,0,0,1,4.721,1.193c.281.434.528.889.791,1.335l.285-.079m2.354-4.377c0,2.693.028,5.387-.017,8.08-.014.861.43,2.028-.825,2.386s-1.494-.825-1.951-1.579c-.761-1.254-1.469-2.54-2.218-3.8-.411-.691-.744-1.728-1.828-1.13-1.2.662-.371,1.521.036,2.236,1.693,2.975,3.4,5.945,5.145,8.889A9.681,9.681,0,0,1,61.1,49.867c-.042.745.182,1.031.978,1.024,3.918-.034,7.836-.014,11.754-.018.38,0,.809.082.985-.419.627-1.789,1.763-3.429,1.779-5.4.04-4.8.013-9.6.027-14.4,0-.781-.207-1.441-1.083-1.416s-1.036.71-1.029,1.479c.02,2.2,0,4.407.01,6.611,0,.88-.027,1.8-1.195,1.787s-1.158-.951-1.156-1.815c.006-2.791,0-5.583,0-8.373,0-.765,0-1.593-1.014-1.629-1.168-.041-1.079.883-1.082,1.675,0,.637,0,1.273,0,1.91q0,1.91,0,3.82c0,.891.087,1.95-1.15,1.994-1.28.045-1.2-1.017-1.2-1.912q0-1.175,0-2.351c0-2.155,0-4.309,0-6.464,0-.763-.206-1.45-1.077-1.448-.89,0-1.055.708-1.037,1.465.013.588,0,1.175,0,1.763q0,2.938,0,5.876c0,.868-.027,1.824-1.147,1.868-1.151.045-1.221-.894-1.206-1.776.005-.294,0-.588,0-.882,0-4.064.006-8.129,0-12.193,0-.814.165-1.87-1.038-1.9s-1.1,1.009-1.1,1.838c-.008,2.889,0,5.779,0,8.667M62.28,2.367c-1.858,0-3.715-.014-5.572,0-1.886.018-2.66.777-2.673,2.685-.023,3.616,0,7.233-.01,10.849a2.4,2.4,0,0,0,1.487,2.6,4.053,4.053,0,0,0,3.953-.793c1.323-1.68,3.9-2,5.078-.315.946,1.351,2.038,1.243,3.277,1.217,1.669-.035,2.5-.754,2.516-2.378q.07-5.716,0-11.436a2.193,2.193,0,0,0-2.486-2.422C66,2.345,64.138,2.368,62.28,2.367m5.335,50.858H60.729c-2.351,0-2.279,0-2.369,2.4-.045,1.183.334,1.444,1.459,1.43,4.884-.061,9.769-.026,14.653-.026,2.536,0,2.482,0,2.522-2.54.017-1.043-.309-1.315-1.319-1.29-2.685.067-5.372.023-8.059.023" transform="translate(-24.575 -0.003)" fill="#060605"/>
        <path id="Trazado_819737" data-name="Trazado 819737" d="M.01,10.513C.01,8.557-.014,6.6.015,4.646A4.459,4.459,0,0,1,4.644.026q5.868-.052,11.737,0a4.371,4.371,0,0,1,4.563,4.512q.088,5.94,0,11.882a4.33,4.33,0,0,1-4.536,4.529q-5.94.081-11.883,0a4.4,4.4,0,0,1-4.511-4.57C-.015,14.426.01,12.47.01,10.513m18.585.087c0-1.909.02-3.817-.006-5.725-.023-1.725-.787-2.491-2.531-2.5q-5.58-.034-11.159,0c-1.728.01-2.523.8-2.534,2.514q-.034,5.579,0,11.157c.009,1.752.766,2.541,2.479,2.551q5.652.036,11.305,0c1.687-.011,2.41-.74,2.438-2.416.031-1.859.007-3.719.008-5.578" transform="translate(0 0)" fill="#070404"/>
        <path id="Trazado_819738" data-name="Trazado 819738" d="M104.086,10.309c0-1.809-.019-3.619,0-5.428.04-3.043,1.818-4.84,4.829-4.856q5.648-.031,11.3,0A4.5,4.5,0,0,1,125.038,4.9q.023,5.648,0,11.3a4.454,4.454,0,0,1-4.764,4.771q-5.722.056-11.444,0c-2.958-.03-4.694-1.81-4.737-4.789-.029-1.956-.006-3.912-.006-5.868m10.437,8.3c1.958,0,3.916.031,5.873-.01a2.1,2.1,0,0,0,2.283-2.3q.05-5.8,0-11.6A2.1,2.1,0,0,0,120.4,2.385q-5.8-.057-11.6,0a2.113,2.113,0,0,0-2.337,2.391q-.04,5.725,0,11.451c.013,1.659.759,2.352,2.475,2.376,1.86.026,3.72.006,5.579,0" transform="translate(-49.818 -0.004)" fill="#060404"/>
        <path id="Trazado_819739" data-name="Trazado 819739" d="M63.238,46.455c0-2.889-.005-5.778,0-8.667,0-.829-.107-1.869,1.1-1.838s1.036,1.088,1.038,1.9q.015,6.1,0,12.193c0,.294,0,.588,0,.881-.015.883.054,1.822,1.205,1.776,1.12-.044,1.149-1,1.147-1.868q-.005-2.938,0-5.876c0-.588.012-1.176,0-1.763-.017-.756.148-1.463,1.037-1.465.871,0,1.079.686,1.077,1.448-.005,2.155,0,4.309,0,6.464q0,1.175,0,2.35c0,.9-.082,1.957,1.2,1.912,1.237-.043,1.149-1.1,1.15-1.994q0-1.91,0-3.819c0-.637,0-1.273,0-1.91,0-.793-.086-1.716,1.082-1.675,1.017.035,1.016.864,1.015,1.629,0,2.791,0,5.582,0,8.374,0,.864-.026,1.806,1.156,1.815s1.2-.908,1.195-1.787c-.009-2.2.011-4.407-.009-6.611-.007-.769.158-1.453,1.029-1.479s1.085.634,1.082,1.416c-.015,4.8.014,9.6-.027,14.4-.016,1.968-1.152,3.609-1.779,5.4-.176.5-.605.419-.984.419-3.918,0-7.836-.016-11.754.019-.795.007-1.019-.279-.978-1.024a9.679,9.679,0,0,0-1.642-5.538c-1.746-2.944-3.451-5.914-5.144-8.888-.407-.715-1.238-1.574-.036-2.237,1.084-.6,1.418.439,1.828,1.131.75,1.261,1.458,2.547,2.218,3.8.458.754.706,1.934,1.952,1.579s.811-1.525.825-2.386c.045-2.692.017-5.386.017-8.079" transform="translate(-26.697 -17.208)" fill="#e5b77f"/>
        <path id="Trazado_819740" data-name="Trazado 819740" d="M64.744,4.528c1.858,0,3.716-.022,5.572.007A2.192,2.192,0,0,1,72.8,6.957q.063,5.717,0,11.436c-.02,1.623-.847,2.343-2.515,2.378-1.239.026-2.331.134-3.277-1.217-1.177-1.682-3.755-1.364-5.078.315a4.054,4.054,0,0,1-3.953.793,2.4,2.4,0,0,1-1.487-2.6c.01-3.617-.013-7.233.01-10.849.013-1.909.787-2.668,2.673-2.685,1.857-.017,3.715,0,5.572,0M59.673,10.2a1.224,1.224,0,0,0-1.035.671,1.077,1.077,0,0,0,.252,1.34c1.34,1.36,2.685,2.716,4.049,4.052a1.186,1.186,0,0,0,1.824.022q2.828-2.78,5.615-5.6a1.09,1.09,0,0,0,.069-1.689,1.093,1.093,0,0,0-1.688.035c-.781.742-1.525,1.522-2.3,2.272-.84.816-1.663,2.218-2.555,2.269-1.053.06-1.764-1.5-2.675-2.3-.471-.414-.826-.988-1.559-1.069" transform="translate(-27.039 -2.164)" fill="#93d44e"/>
        <path id="Trazado_819741" data-name="Trazado 819741" d="M74.056,102.066c2.686,0,5.374.044,8.059-.023,1.01-.025,1.336.247,1.319,1.29-.041,2.539.014,2.54-2.522,2.54-4.884,0-9.769-.035-14.653.026-1.125.014-1.5-.247-1.459-1.43.091-2.4.019-2.4,2.369-2.4h6.887" transform="translate(-31.015 -48.843)" fill="#5290f6"/>
        <path id="Trazado_819742" data-name="Trazado 819742" d="M20.751,12.764c0,1.86.023,3.719-.007,5.578-.028,1.677-.751,2.405-2.438,2.416q-5.652.038-11.305,0c-1.713-.01-2.471-.8-2.479-2.551q-.027-5.578,0-11.157c.01-1.717.805-2.5,2.534-2.514q5.579-.033,11.159,0c1.744.01,2.507.777,2.531,2.5.026,1.908.006,3.817.005,5.725M9.937,8.641A1.164,1.164,0,0,0,8.73,9.3,1.043,1.043,0,0,0,8.9,10.522c.624.684,1.68,1.3,1.786,2.046.129.913-1.175,1.4-1.748,2.16a1.126,1.126,0,0,0,0,1.59,1.016,1.016,0,0,0,1.569.066c1.468-1.949,2.8-2.118,4.284-.017a1,1,0,0,0,1.563-.042.974.974,0,0,0,.066-1.453c-2.081-1.5-2.056-2.875-.017-4.4a1,1,0,0,0-.127-1.559,1.113,1.113,0,0,0-1.588.076,8.693,8.693,0,0,0-1.143,1.132c-.644.835-1.156.753-1.833-.009-.529-.6-.993-1.36-1.768-1.469" transform="translate(-2.157 -2.163)" fill="#da4747"/>
        <path id="Trazado_819743" data-name="Trazado 819743" d="M116.7,20.763c-1.86,0-3.72.021-5.579,0-1.717-.023-2.463-.717-2.475-2.376q-.043-5.725,0-11.451A2.113,2.113,0,0,1,110.98,4.54q5.8-.051,11.6,0a2.1,2.1,0,0,1,2.276,2.317q.05,5.8,0,11.6a2.1,2.1,0,0,1-2.283,2.295c-1.957.041-3.915.01-5.873.011m4.064-11a1.088,1.088,0,0,0-.688-1.033,1.151,1.151,0,0,0-1.34.288c-.637.6-1.238,1.614-1.934,1.687-.851.089-1.343-1.12-2.053-1.7a1.151,1.151,0,0,0-1.7-.036,1.03,1.03,0,0,0-.018,1.577c2.075,1.483,1.983,2.809-.021,4.273a1,1,0,0,0,.091,1.559.978.978,0,0,0,1.457.02c1.527-2.193,2.893-1.9,4.4.032a1.008,1.008,0,0,0,1.555-.182,1.107,1.107,0,0,0-.024-1.478c-.088-.116-.2-.217-.293-.326-1.626-1.825-1.628-1.827-.034-3.563.3-.325.633-.622.606-1.12" transform="translate(-51.994 -2.161)" fill="#da4747"/>
        <path id="Trazado_819744" data-name="Trazado 819744" d="M61.523,13.95c.732.081,1.088.655,1.559,1.069.911.8,1.622,2.362,2.675,2.3.893-.051,1.715-1.452,2.555-2.269.773-.75,1.517-1.53,2.3-2.272a1.159,1.159,0,1,1,1.619,1.654q-2.789,2.818-5.615,5.6a1.186,1.186,0,0,1-1.824-.022c-1.364-1.336-2.709-2.692-4.049-4.052a1.077,1.077,0,0,1-.252-1.34,1.224,1.224,0,0,1,1.035-.671" transform="translate(-28.888 -5.918)" fill="#040502"/>
        <path id="Trazado_819745" data-name="Trazado 819745" d="M13.7,12.4c.775.109,1.239.873,1.768,1.469.677.762,1.189.844,1.833.009a8.693,8.693,0,0,1,1.143-1.132,1.113,1.113,0,0,1,1.588-.076,1,1,0,0,1,.127,1.559c-2.038,1.526-2.064,2.9.017,4.4a.974.974,0,0,1-.066,1.453,1,1,0,0,1-1.563.042c-1.485-2.1-2.816-1.932-4.284.017a1.016,1.016,0,0,1-1.569-.066,1.126,1.126,0,0,1,0-1.59c.573-.765,1.877-1.247,1.748-2.16-.106-.751-1.162-1.362-1.786-2.046a1.043,1.043,0,0,1-.165-1.227A1.164,1.164,0,0,1,13.7,12.4" transform="translate(-5.918 -5.921)" fill="#050202"/>
        <path id="Trazado_819746" data-name="Trazado 819746" d="M124.479,13.53c.029.5-.306.8-.6,1.12-1.593,1.736-1.591,1.738.034,3.563.1.109.205.21.293.326a1.107,1.107,0,0,1,.024,1.478,1.008,1.008,0,0,1-1.555.182c-1.505-1.937-2.871-2.225-4.4-.032a.978.978,0,0,1-1.457-.02,1,1,0,0,1-.091-1.559c2-1.463,2.1-2.79.021-4.273a1.03,1.03,0,0,1,.018-1.577,1.151,1.151,0,0,1,1.7.036c.71.577,1.2,1.785,2.053,1.7.7-.072,1.3-1.085,1.934-1.687a1.151,1.151,0,0,1,1.34-.288,1.085,1.085,0,0,1,.687,1.033" transform="translate(-55.71 -5.925)" fill="#050202"/>
      </g>
    </g>
  </g>
</svg>
