<svg xmlns="http://www.w3.org/2000/svg" xmlns:xlink="http://www.w3.org/1999/xlink" width="124.001" height="124" viewBox="0 0 124.001 124">
  <defs>
    <clipPath id="clip-path">
      <rect id="Rect치ngulo_377515" data-name="Rect치ngulo 377515" width="64.783" height="66.719" fill="none"/>
    </clipPath>
  </defs>
  <g id="Grupo_1071715" data-name="Grupo 1071715" transform="translate(2214.07 9581.744)">
    <g id="Grupo_1071496" data-name="Grupo 1071496" transform="translate(-2599.07 -11639.744)">
      <g id="Grupo_159182" data-name="Grupo 159182" transform="translate(0.001)">
        <path id="Uni칩n_12" data-name="Uni칩n 12" d="M8464.769,11817.939a62.055,62.055,0,1,1,20.7-16.051l8.516,22.111Z" transform="translate(-7991 -9642)" fill="#a3bfe4"/>
        <circle id="Elipse_4842" data-name="Elipse 4842" cx="48" cy="48" r="48" transform="translate(399 2072)" fill="#e3ecf7"/>
      </g>
    </g>
    <g id="Grupo_1071507" data-name="Grupo 1071507" transform="translate(-2184.461 -9549.104)">
      <g id="Grupo_1071506" data-name="Grupo 1071506" transform="translate(0 0)" clip-path="url(#clip-path)">
        <path id="Trazado_819710" data-name="Trazado 819710" d="M41.42,52.057c1.192,1.037,1.8,2.227,3.337,2.006.549-.078,1,.451,1.408.851,1.894,1.85,3.8,3.685,5.688,5.544,1.234,1.216,1.25,2.252.087,3.486-.655.694-1.308,1.393-2,2.048a1.968,1.968,0,0,1-3.006.059c-2.116-1.994-4.18-4.043-6.27-6.065a1.6,1.6,0,0,1-.648-1.23c.227-1.6-1.177-2.077-1.949-2.971-.428-.495-.773.111-1.092.3A12.567,12.567,0,0,1,22,54.712a4.689,4.689,0,0,1-1.077-1.121c-.743-1.365-1.865-1.6-3.322-1.568-4.382.092-8.767.038-13.15.031C1.427,52.05,0,50.622,0,47.576Q0,26.025,0,4.474C0,1.412,1.4,0,4.431,0Q32.362,0,60.292,0c3.074,0,4.486,1.38,4.487,4.415q.009,21.615,0,43.232c0,2.955-1.445,4.4-4.385,4.407q-8.658.012-17.318,0ZM61.053,9.672c1.286.271,1.767-.187,1.641-1.541s-.006-2.749-.037-4.123c-.03-1.348-.47-1.754-1.892-1.861-.52-.019-1.039-.052-1.559-.052q-21.089,0-42.176,0-6.313,0-12.627,0c-1.811,0-2.288.491-2.3,2.329C2.1,5.681,2.2,6.948,2.077,8.2c-.124,1.289.337,1.561,1.575,1.559q28.052-.063,56.1-.031c.433,0,.866-.034,1.3-.051m-.045,2.223c-.216-.021-.43-.061-.644-.061q-28.568,0-57.135-.028c-1.089,0-1.148.438-1.146,1.294q.031,16.334.008,32.669c0,3.983-.3,4.274,4.233,4.211,4.061-.056,8.122-.012,12.317-.012a11.243,11.243,0,0,1-.8-4.048c.058-1-.265-1.3-1.221-1.176-.794.1-1.6-.093-1.591-1.065.009-1,.854-1.108,1.622-1,1.111.159,1.7-.258,1.826-1.367.044-.374.359-.693.246-1.152-.864,0-1.731,0-2.6,0a.987.987,0,0,1-1.107-1.015,1.016,1.016,0,0,1,1.09-1.053,15.034,15.034,0,0,1,2.341,0,2.815,2.815,0,0,0,2.643-1.154,12.492,12.492,0,0,1,17.633-1.016c.269.239.532.486.954.87V34.616c0-.694.028-1.389-.006-2.082-.061-1.221.671-1.411,1.668-1.423,3.116-.035,3.463.049,3.477,1.314.043,3.687.02,7.376.013,11.063,0,.731-.268,1.314-1.1,1.307-.562,0-.731.173-.745.739a11.384,11.384,0,0,1-.63,3.7c-.211.572-.014.747.585.744q8.914-.052,17.826-.067c1.6-.132,1.939-.533,1.94-2.38q.005-17.111,0-34.223c0-1.577,0-1.577-1.693-1.413M30.386,55.839a10.487,10.487,0,1,0-10.5-10.493,10.5,10.5,0,0,0,10.5,10.493m18,8.7c.318-.3.634-.569.926-.866,1.4-1.424,1.4-1.428.013-2.777-1.122-1.087-2.248-2.169-3.369-3.259-1.65-1.6-1.627-1.584-3.263.118-.5.517-.557.815,0,1.333,1.715,1.6,3.376,3.251,5.061,4.88.185.18.385.346.635.57M42.751,42.15c0-2.794,0-5.471,0-8.147,0-.4.02-.81-.562-.8-.561.008-.43.435-.437.75-.016.734-.021,1.468,0,2.2.048,2-.346,4.063,1,6M39.9,53.7c-.221.107-.509.284-.279.549a14.583,14.583,0,0,0,1.65,1.637c.249.21.475-.086.532-.345A5.214,5.214,0,0,0,39.9,53.7" transform="translate(0 0)" fill="#070707"/>
        <path id="Trazado_819711" data-name="Trazado 819711" d="M60.474,48.292c-5.941.02-11.884.031-17.825.067-.6,0-.8-.172-.585-.744a11.415,11.415,0,0,0,.63-3.7c.014-.567.182-.743.745-.739.836.007,1.1-.576,1.1-1.307.007-3.687.03-7.376-.013-11.063-.015-1.265-.362-1.349-3.477-1.314-1,.012-1.729.2-1.669,1.423.035.693.006,1.388.006,2.082v2.176c-.421-.385-.684-.632-.953-.87A12.492,12.492,0,0,0,20.805,35.32a2.817,2.817,0,0,1-2.644,1.154,15.019,15.019,0,0,0-2.34,0,1.017,1.017,0,0,0-1.092,1.053.987.987,0,0,0,1.107,1.015c.867,0,1.734,0,2.6,0,.114.459-.2.778-.247,1.152-.131,1.109-.714,1.526-1.825,1.367-.768-.109-1.613,0-1.622,1-.009.972.8,1.166,1.59,1.065.957-.122,1.281.178,1.223,1.176a11.243,11.243,0,0,0,.8,4.048c-4.195,0-8.258-.044-12.317.012C1.5,48.424,1.8,48.133,1.805,44.15Q1.828,27.816,1.8,11.481c0-.856.057-1.3,1.146-1.294q28.567.056,57.135.028c.214,0,.429.041.643.061.02.216.054.431.054.647q0,17.932.01,35.863a4.443,4.443,0,0,1-.313,1.506M17.288,13.168a9.9,9.9,0,1,0-.023,19.8,9.9,9.9,0,0,0,.023-19.8M57.633,33.118q0-3.445,0-6.889c0-3.408.375-3.32-3.312-3.288-1.595.013-1.843.265-1.844,1.92,0,4.983.01,9.965,0,14.948-.01,3.845-.161,3.372,3.467,3.384,1.51.006,1.688-.189,1.691-1.757q.009-4.16,0-8.318m-11.7,1.61c0,1.688.006,3.377,0,5.065-.014,3.8-.254,3.4,3.434,3.4,1.508,0,1.724-.218,1.727-1.731.007-3.9,0-7.791,0-11.687.006-4.013.311-3.489-3.7-3.543-1.057-.014-1.486.448-1.474,1.482.024,2.337.007,4.675.007,7.012m-1.617-18.15h9.873c.725,0,1.337-.207,1.35-1.048.012-.855-.6-1.044-1.329-1.044q-9.873.005-19.745,0c-.686,0-1.25.209-1.29.961-.043.822.521,1.116,1.269,1.129.26,0,.519,0,.78,0h9.092M39.4,18.889q-2.474,0-4.948,0c-.684,0-1.25.212-1.279.977-.032.836.554,1.116,1.289,1.118q4.818.01,9.636,0c.737,0,1.318-.29,1.278-1.126-.035-.769-.607-.97-1.287-.968-1.562,0-3.124,0-4.687,0M10.064,38.541c.563,0,1.126.013,1.69,0a.984.984,0,0,0,1.044-.947.936.936,0,0,0-.89-1.085A32.494,32.494,0,0,0,8.274,36.5a.939.939,0,0,0-.911,1.067.955.955,0,0,0,1.013.966c.562.025,1.125.006,1.688.007m-.045,4.594c.563,0,1.129.031,1.688-.008.633-.045,1.1-.38,1.088-1.053a.983.983,0,0,0-1.1-1.019c-1.084-.01-2.166-.015-3.248,0a.96.96,0,0,0-1.08,1.027c0,.691.464,1,1.093,1.044.517.038,1.038.008,1.559.007" transform="translate(0.285 1.618)" fill="#e9ebed"/>
        <path id="Trazado_819712" data-name="Trazado 819712" d="M60.771,9.384c-.432.019-.864.052-1.3.052q-28.052,0-56.1.031c-1.239,0-1.7-.27-1.576-1.559.121-1.247.02-2.515.028-3.772.012-1.838.488-2.326,2.3-2.329q6.313-.009,12.627,0,21.087,0,42.176,0c.519,0,1.038.034,1.559.052a5.376,5.376,0,0,1,.293,1.881c-.022,1.881-.006,3.763,0,5.644M12.7,5.6a1.607,1.607,0,0,0,1.527,1.615,1.584,1.584,0,0,0,1.654-1.6A1.488,1.488,0,0,0,14.3,4.086,1.524,1.524,0,0,0,12.7,5.6m-2.946,0A1.487,1.487,0,0,0,8.194,4.074,1.473,1.473,0,0,0,6.6,5.581,1.579,1.579,0,1,0,9.751,5.6m12.235-.064A1.47,1.47,0,0,0,20.357,4.1a1.426,1.426,0,0,0-1.5,1.6A1.449,1.449,0,0,0,20.466,7.2a1.511,1.511,0,0,0,1.52-1.658" transform="translate(0.282 0.286)" fill="#a199a4"/>
        <path id="Trazado_819713" data-name="Trazado 819713" d="M27.66,51.061A10.488,10.488,0,1,1,38.18,40.572,10.48,10.48,0,0,1,27.66,51.061m9.316-10.438a9.317,9.317,0,1,0-9.4,9.279,9.358,9.358,0,0,0,9.4-9.279" transform="translate(2.726 4.778)" fill="#95bdee"/>
        <path id="Trazado_819714" data-name="Trazado 819714" d="M52.432,48.29a4.414,4.414,0,0,0,.312-1.506q-.016-17.932-.009-35.863c0-.216-.036-.431-.054-.647,1.692-.166,1.694-.166,1.694,1.413q0,17.111,0,34.223c0,1.847-.338,2.248-1.94,2.38" transform="translate(8.328 1.62)" fill="#bfc0c4"/>
        <path id="Trazado_819715" data-name="Trazado 819715" d="M42.593,56.8c-.25-.224-.45-.391-.636-.57-1.684-1.629-3.344-3.283-5.059-4.88-.555-.518-.5-.816,0-1.333,1.637-1.7,1.614-1.722,3.264-.118,1.121,1.089,2.247,2.172,3.369,3.259,1.391,1.35,1.392,1.352-.013,2.777-.292.3-.608.57-.926.866" transform="translate(5.798 7.738)" fill="#dcb482"/>
        <path id="Trazado_819716" data-name="Trazado 819716" d="M52.725,9.377c0-1.881-.017-3.763,0-5.644a5.361,5.361,0,0,0-.294-1.882c1.423.108,1.863.515,1.894,1.862.031,1.374-.09,2.759.037,4.122s-.355,1.814-1.641,1.541" transform="translate(8.329 0.294)" fill="#7f7682"/>
        <path id="Trazado_819717" data-name="Trazado 819717" d="M37.031,37.6c-1.347-1.934-.953-4-1-6-.019-.734-.014-1.468,0-2.2.007-.315-.124-.742.437-.75.582-.008.562.4.562.8,0,2.676,0,5.353,0,8.147" transform="translate(5.72 4.551)" fill="#dcb482"/>
        <path id="Trazado_819718" data-name="Trazado 819718" d="M34.484,46.342a5.214,5.214,0,0,1,1.9,1.841c-.057.26-.283.555-.532.345a14.582,14.582,0,0,1-1.65-1.637c-.229-.265.058-.443.279-.549" transform="translate(5.42 7.361)" fill="#a199a4"/>
        <path id="Trazado_819719" data-name="Trazado 819719" d="M16.527,12.76A9.9,9.9,0,1,1,6.59,22.5a9.876,9.876,0,0,1,9.937-9.74M15.447,19.6c0-1.649-.024-2.778.009-3.905.019-.619-.094-.814-.794-.662A7.818,7.818,0,0,0,17.19,30.425c2.482-.3,2.456-.285,1.262-2.391-1.581-2.785-3.946-5.318-3-8.433m2.081-4.617c0,1.956.022,3.9-.013,5.849-.01.642.231.81.834.8,1.647-.032,3.3-.052,4.941.006.87.03.9-.351.747-1.021a7.681,7.681,0,0,0-6.51-5.632m3.759,13.762a7.59,7.59,0,0,0,2.757-4.178c.158-.582.02-.885-.666-.869-1.382.034-2.766.027-4.149,0-.808-.014-.731.322-.415.849.82,1.367,1.621,2.746,2.473,4.193" transform="translate(1.047 2.027)" fill="#060606"/>
        <path id="Trazado_819720" data-name="Trazado 819720" d="M50.688,31.371q0,4.16,0,8.319c0,1.568-.181,1.761-1.691,1.757-3.628-.013-3.478.46-3.466-3.385.014-4.982,0-9.965,0-14.947,0-1.656.248-1.907,1.843-1.921,3.687-.032,3.312-.119,3.312,3.289q0,3.443,0,6.888m-2.08.039c0-2.381.012-4.764-.012-7.145,0-.363.264-.965-.466-.977-.708-.01-.517.569-.518.956q-.016,7.08,0,14.161c0,.372-.233.948.5.962.765.015.481-.588.484-.941.024-2.339.013-4.677.013-7.016" transform="translate(7.231 3.365)" fill="#060606"/>
        <path id="Trazado_819721" data-name="Trazado 819721" d="M39.884,32.529c0-2.337.016-4.675-.008-7.012-.01-1.035.417-1.5,1.475-1.482,4.006.053,3.7-.47,3.7,3.541-.006,3.9,0,7.792,0,11.688,0,1.512-.219,1.732-1.727,1.73-3.687,0-3.448.4-3.434-3.4.006-1.688,0-3.376,0-5.064m2.071-.074c0,1.822-.016,3.645.014,5.466.006.356-.293.951.444.991s.531-.542.533-.925q.017-5.467,0-10.934c0-.382.2-.963-.532-.925s-.438.634-.444.99c-.03,1.779-.014,3.558-.014,5.336" transform="translate(6.334 3.817)" fill="#060606"/>
        <path id="Trazado_819722" data-name="Trazado 819722" d="M40.015,15.99H30.922c-.26,0-.519,0-.779,0-.747-.013-1.312-.308-1.269-1.13.038-.751.6-.961,1.289-.961q9.873.007,19.745,0c.73,0,1.342.188,1.329,1.043-.012.84-.625,1.048-1.35,1.048q-4.935,0-9.872,0" transform="translate(4.586 2.207)" fill="#070707"/>
        <path id="Trazado_819723" data-name="Trazado 819723" d="M35.1,17.7c1.562,0,3.125,0,4.688,0,.68,0,1.253.2,1.287.968.038.838-.542,1.124-1.278,1.126q-4.818.014-9.636,0c-.735,0-1.321-.283-1.289-1.117.029-.765.6-.98,1.279-.978q2.474.005,4.948,0" transform="translate(4.586 2.81)" fill="#0a0a0b"/>
        <path id="Trazado_819724" data-name="Trazado 819724" d="M9.3,34.941c-.563,0-1.128.02-1.688-.007A.955.955,0,0,1,6.6,33.968.938.938,0,0,1,7.512,32.9a32.774,32.774,0,0,1,3.634.007.934.934,0,0,1,.889,1.085.982.982,0,0,1-1.044.947c-.563.015-1.126,0-1.688,0" transform="translate(1.048 5.218)" fill="#0a0a0b"/>
        <path id="Trazado_819725" data-name="Trazado 819725" d="M9.255,38.906c-.52,0-1.042.031-1.559-.007-.629-.046-1.089-.355-1.093-1.044a.96.96,0,0,1,1.08-1.028c1.082-.017,2.165-.012,3.248,0a.982.982,0,0,1,1.1,1.019c.009.673-.455,1.008-1.088,1.052-.56.041-1.125.008-1.688.009" transform="translate(1.049 5.848)" fill="#0a0a0b"/>
        <path id="Trazado_819726" data-name="Trazado 819726" d="M11.2,5.288a1.524,1.524,0,0,1,1.6-1.515A1.487,1.487,0,0,1,14.38,5.3a1.582,1.582,0,0,1-1.653,1.6A1.606,1.606,0,0,1,11.2,5.288" transform="translate(1.779 0.599)" fill="#070707"/>
        <path id="Trazado_819727" data-name="Trazado 819727" d="M9.091,5.294A1.579,1.579,0,1,1,5.936,5.27a1.474,1.474,0,0,1,1.6-1.506A1.487,1.487,0,0,1,9.091,5.294" transform="translate(0.942 0.597)" fill="#060606"/>
        <path id="Trazado_819728" data-name="Trazado 819728" d="M19.646,5.227a1.511,1.511,0,0,1-1.52,1.658,1.449,1.449,0,0,1-1.612-1.506,1.426,1.426,0,0,1,1.5-1.6,1.47,1.47,0,0,1,1.629,1.446" transform="translate(2.623 0.6)" fill="#060606"/>
        <path id="Trazado_819729" data-name="Trazado 819729" d="M36.813,40.467a9.316,9.316,0,1,1-9.293-9.4,9.328,9.328,0,0,1,9.293,9.4m-2.084-.02a7.221,7.221,0,1,0-7.193,7.218,7.258,7.258,0,0,0,7.193-7.218" transform="translate(2.888 4.935)" fill="#070809"/>
        <path id="Trazado_819730" data-name="Trazado 819730" d="M15.164,19.3c-.942,3.114,1.423,5.647,3,8.433,1.195,2.106,1.22,2.091-1.261,2.391A7.818,7.818,0,0,1,14.38,14.731c.7-.153.811.042.793.661-.034,1.128-.008,2.256-.008,3.906" transform="translate(1.329 2.332)" fill="#9bc5f8"/>
        <path id="Trazado_819731" data-name="Trazado 819731" d="M16.031,14.681a7.68,7.68,0,0,1,6.51,5.632c.153.669.123,1.05-.747,1.02-1.646-.057-3.295-.037-4.941-.006-.6.012-.845-.155-.834-.8.035-1.947.013-3.894.013-5.849" transform="translate(2.544 2.332)" fill="#f0da79"/>
        <path id="Trazado_819732" data-name="Trazado 819732" d="M19.643,27.248c-.852-1.446-1.653-2.825-2.473-4.193-.316-.527-.393-.863.415-.849,1.382.022,2.766.029,4.149,0,.686-.016.824.287.666.869a7.59,7.59,0,0,1-2.757,4.178" transform="translate(2.692 3.526)" fill="#da626b"/>
        <path id="Trazado_819733" data-name="Trazado 819733" d="M48.326,31.122c0,2.339.012,4.677-.013,7.016,0,.353.28.956-.484.941-.729-.014-.495-.59-.5-.962q-.021-7.08,0-14.161c0-.387-.19-.966.518-.956.73.012.462.614.466.977.023,2.381.012,4.764.012,7.145" transform="translate(7.513 3.653)" fill="#89b2e6"/>
        <path id="Trazado_819734" data-name="Trazado 819734" d="M41.676,32.168c0-1.779-.016-3.558.014-5.336.006-.356-.293-.951.444-.99s.531.542.532.925q.019,5.467,0,10.934c0,.382.2.963-.533.925s-.438-.635-.444-.991c-.03-1.822-.014-3.645-.014-5.466" transform="translate(6.613 4.104)" fill="#8cdda9"/>
        <path id="Trazado_819735" data-name="Trazado 819735" d="M34.441,40.161a7.221,7.221,0,1,1-7.257-7.29,7.255,7.255,0,0,1,7.257,7.29" transform="translate(3.176 5.221)" fill="#e9ebed"/>
      </g>
    </g>
  </g>
</svg>
