<svg id="Grupo_1071690" data-name="Grupo 1071690" xmlns="http://www.w3.org/2000/svg" xmlns:xlink="http://www.w3.org/1999/xlink" width="214" height="157.605" viewBox="0 0 214 157.605">
  <defs>
    <clipPath id="clip-path">
      <rect id="Rectángulo_377677" data-name="Rectángulo 377677" width="214" height="157.605" fill="none"/>
    </clipPath>
  </defs>
  <g id="Grupo_1071689" data-name="Grupo 1071689" clip-path="url(#clip-path)">
    <path id="Trazado_820391" data-name="Trazado 820391" d="M201.769,68.6H186.453a3.511,3.511,0,0,1-3.512-3.511V53.6a3.51,3.51,0,0,1,3.512-3.509h15.316a3.509,3.509,0,0,1,3.509,3.509V65.091a3.51,3.51,0,0,1-3.509,3.511" transform="translate(8.48 2.322)" fill="#fff"/>
    <path id="Trazado_820392" data-name="Trazado 820392" d="M163.438,66.6s-5.077-.722-6.034.235c0,0-1,4.412-1.458,4.918,0,0,.253.451-.741,0s-4.5.187-4.5.187l-.958,5.424-3.633,5.319s2.875,1.394,5.01,1.069c0,0,.732-.166.476.712s-1.533,5.984-1.533,5.984,2.233,4.468,2.552,4.468a11.568,11.568,0,0,1,2.234.956,8.836,8.836,0,0,0,2.872.319c.638,0,3.19,0,3.19-.638s1.277-2.233.957-2.871-1.595-4.468-1.595-4.468l-.27-.7.56-2.573s-.1-.635.922-.115,4.748,1.309,6.059-1.488c.705-1.5-1.528-4.376-1.528-4.376l.72-2.519,1.832-6.1-.319-4.148a34.788,34.788,0,0,0-3.509-1.915c-.319,0-2.292.487-1.3,2.318" transform="translate(6.773 2.98)" fill="#fff"/>
    <path id="Trazado_820393" data-name="Trazado 820393" d="M9.879,125.066l-4.313,7.315-.356.883.172.428,2.162,1.335.831.439.51.112,1-1.257,3.967-6.727.59-.744.414-.449s1.078.227.97.338a21.088,21.088,0,0,0,2.649,1.563l.812.31.565-.319.159-.621.475-9.7-6.363-.7Z" transform="translate(0.241 5.436)" fill="#fff"/>
    <rect id="Rectángulo_377674" data-name="Rectángulo 377674" width="66.372" height="47.865" transform="translate(10.99 81.351)" fill="#fff"/>
    <path id="Trazado_820394" data-name="Trazado 820394" d="M10.425,81.8H74.759l.971-6.175L73.315,71.5H16.872s-5.111.272-6.3,5.152Z" transform="translate(0.483 3.314)" fill="#1a1a1a"/>
    <path id="Trazado_820395" data-name="Trazado 820395" d="M47.075,67.452s.248,9.172,3.214,14.342,5.671,8.918,11.8,9.164,9.984-3.672,15.334-3.308l8.63-.019a29.527,29.527,0,0,1,8.257,2c4.649,1.809,8.555,1.479,10.338.8a10.921,10.921,0,0,0,6.594-4.928,29.612,29.612,0,0,0,4.127-9.265,53.427,53.427,0,0,0,1.1-8.436,20.7,20.7,0,0,0,8.6,1.488c4.938-.193,6.568-.157,7.9-1.4,0,0-1.086,9.932-2.76,14.681s-4.512,12.533-8.6,16.633-7.906,7.934-14.771,10.28A33.884,33.884,0,0,1,94.131,111.3s-.341,7.164.293,10.421a57.185,57.185,0,0,0,1.721,6.459l5.371,16.708H62.955S61.2,131.8,60.94,124.271s-.107-14.144-.107-14.144a24.493,24.493,0,0,1-13.176-5.647A39.508,39.508,0,0,1,36.037,89.425a56.3,56.3,0,0,1-4.248-13.594c-.516-2.995-1.083-7.564-1.083-7.564a24.355,24.355,0,0,0,7.493.963c4.4-.081,8.5-.761,8.876-1.778" transform="translate(1.423 3.127)" fill="#fff198"/>
    <path id="Trazado_820396" data-name="Trazado 820396" d="M67.7,33.714a18.453,18.453,0,0,1-6.863.7l-.354-15.438L44.9,18.733a15.618,15.618,0,0,0,.385,7.439,5.456,5.456,0,0,1-10.912,0,17.721,17.721,0,0,0,.648-7.22c-.264-.219-15.9-.114-15.9-.114l-.019,41.589,30.506.171h1.94l9.119-.2.167-15.391a18.044,18.044,0,0,1,6.785.682A5.988,5.988,0,1,0,67.7,33.714" transform="translate(0.886 0.868)" fill="#33ece0"/>
    <path id="Trazado_820397" data-name="Trazado 820397" d="M147.553,22.985l-15.616-.269a15.61,15.61,0,0,0,.384,7.44,5.456,5.456,0,0,1-10.912,0,17.751,17.751,0,0,0,.65-7.221c-.265-.219-15.934-.033-15.934-.033l-.268,15.719a16.03,16.03,0,0,0,7.44-.428,5.456,5.456,0,0,1,0,10.912,17.715,17.715,0,0,0-7.221-.65c-.219.309-.029,15.857-.029,15.857l16.514.269h25.162V48.773a15.132,15.132,0,0,0-7.44.332,5.456,5.456,0,0,1,0-10.912,17.689,17.689,0,0,0,7.22.647c.22-.415.051-15.854.051-15.854" transform="translate(4.907 1.053)" fill="#1a1a1a"/>
    <path id="Trazado_820398" data-name="Trazado 820398" d="M127.487,69.113s2.522-5.089,2.874-8.516H118.971s3.281-2.56,1.389-4.434-6.543,3.012-6.857,3.406a3.907,3.907,0,0,0-.309,3.852c.895,1.619,3.9,5.989,3.9,5.989s9.038.894,10.394-.3" transform="translate(5.229 2.583)" fill="#fff"/>
    <path id="Trazado_820399" data-name="Trazado 820399" d="M42.8,69.46s3.559-5.156,3.774-5.679,1.278-2.614-.031-4.069-3.1-3.457-4.242-3.829-2.27-.457-3.047.587-.09,2.637,1.5,4.131h-11s1.972,6.967,3.04,8.676c0,0,7.579,1.064,10.005.182" transform="translate(1.379 2.579)" fill="#fff"/>
    <path id="Trazado_820400" data-name="Trazado 820400" d="M83.863,87.676l.787-7.785s3.308-.176,3.308-2.863-2.761-2.894-3.524-2.811c0,0-.751-3.235-1.909-4.286S79.577,69,78.417,68.744A18.992,18.992,0,0,1,73.651,66.9a15.345,15.345,0,0,0-3.066,5.692c-.606,2.957,1.165,3.013,1.086,3.705-.311,2.722-.662,6.554,1.514,7.176a24.771,24.771,0,0,0,2.582.668l-.4,3.393s-2.43,7.3.561,7.326,5.611-2.8,6.591-4.45a15.778,15.778,0,0,0,1.338-2.735" transform="translate(3.266 3.101)" fill="#fff"/>
    <path id="Trazado_820401" data-name="Trazado 820401" d="M71.58,79.555A4.526,4.526,0,0,0,68.59,83.2a5.28,5.28,0,0,0,1.481,4.8s3.5-1.082,5.447-.8l.34-3.635s-4.257.2-4.279-4" transform="translate(3.175 3.688)" fill="#1a1a1a"/>
    <path id="Trazado_820402" data-name="Trazado 820402" d="M84.1,87.977a10.641,10.641,0,0,1,5.009.743c2.715,1.083,5.186,1.8,5.186,1.8s3.335-1.828,3.08-4.959a5.917,5.917,0,0,0-4.329-5.312,13,13,0,0,0-2.924-.053s-.566-1.807,1.219-4.3,2.223-5.095,1.508-7a8.84,8.84,0,0,0-7.028-4.855l-.555-.3s-2.9-3.066-6.62-3.3-7.376,1.34-8.762,3.978.2,6.524.7,7.6c0,0,.963-1.6,1.224-2.168a6.186,6.186,0,0,1,1.406-1.156L73.7,67.2a8.313,8.313,0,0,0,4.3,1.756c2.452.178,3.866.426,4.966,1.9a8.013,8.013,0,0,1,1.219,3.777,2.229,2.229,0,0,1,2.087.187A2.861,2.861,0,0,1,87.9,77.746a3.07,3.07,0,0,1-3.39,2.37Z" transform="translate(3.214 2.8)" fill="#1a1a1a"/>
    <path id="Trazado_820403" data-name="Trazado 820403" d="M31.893,67.033l.692,1.627s-1.611-.27-1.713-.814,1.021-.813,1.021-.813" transform="translate(1.431 3.107)" fill="#1a1a1a"/>
    <path id="Trazado_820404" data-name="Trazado 820404" d="M44.019,66.269l-1.8,2.7s4.58-.558,4.328-1.611c-.2-.85-2.527-1.086-2.527-1.086" transform="translate(1.957 3.072)" fill="#1a1a1a"/>
    <path id="Trazado_820405" data-name="Trazado 820405" d="M127.631,67.154l-.87,1.688s1.7-.352,1.76-.928-.88-.874-.88-.874Z" transform="translate(5.876 3.107)" fill="#3a3a3a"/>
    <path id="Trazado_820406" data-name="Trazado 820406" d="M117.094,68.916l-1.911-2.552s-2.579.458-2.384,1.138,4.294,1.414,4.294,1.414" transform="translate(5.228 3.076)" fill="#3a3a3a"/>
    <path id="Trazado_820407" data-name="Trazado 820407" d="M130.184,60.386,118.9,60.3l-1.6,1.518a4.924,4.924,0,0,1-.673.488,5.123,5.123,0,0,0,2.3-.488h10.794Z" transform="translate(5.406 2.795)" fill="#ccc"/>
    <path id="Trazado_820408" data-name="Trazado 820408" d="M63.381,76.143a2.028,2.028,0,1,1-2.029-2.028,2.028,2.028,0,0,1,2.029,2.028" transform="translate(2.75 3.435)" fill="#fff"/>
    <path id="Trazado_820409" data-name="Trazado 820409" d="M70.121,76.143a2.028,2.028,0,1,1-2.028-2.028,2.028,2.028,0,0,1,2.028,2.028" transform="translate(3.062 3.435)" fill="#fff"/>
    <path id="Trazado_820410" data-name="Trazado 820410" d="M167.719,72.573s3.638-3.089,2.2-6.678c-1-2.506-3.842-3.577-6.688-4.443a12.361,12.361,0,0,0-7.072-.406,9.119,9.119,0,0,0-3.515,2.535s-2.327-.629-3.5.811a10.232,10.232,0,0,0-2.28,5.679c-.049,1.985.753,3.238-.394,4.626s-2.778,3.81-2.37,5.708,2.275,2.832,4.989,3.353,4.929.352,6.044-.772,1.472-2.351.343-4.112c0,0-1.758.736-2.343-1.667a3.123,3.123,0,0,1-1.7-3.656c.74-2.512,3.8-1.889,4.373-1.166A16.371,16.371,0,0,0,157.351,67a11.027,11.027,0,0,1,5.852-.19c3.022.806,5.456,2.679,4.516,5.767" transform="translate(6.676 2.814)" fill="#1a1a1a"/>
    <path id="Trazado_820411" data-name="Trazado 820411" d="M160.91,86.474l-.155.677s.631,6.777-.823,6.8-4.924-2.793-6.244-4.777a8.46,8.46,0,0,0-1.934-2.349v-.454a19.84,19.84,0,0,0-7.524.694c-3.67,1.177-6.417,3.168-10.523,11.436s-4.7,13.99-5.322,16.3-1.94,10.375-1.6,12.841,3.266,14.35,11.829,16.365h38.407l-.447-7s5.557,1.148,10.279-6.216,4.809-10.483,4.809-10.483-4.917,1.012-6.855.1-5.631-21.422-5.631-21.422-2.108-11.506-18.267-12.52" transform="translate(5.874 3.999)" fill="#fff198"/>
    <path id="Trazado_820412" data-name="Trazado 820412" d="M190.158,107.276l2.017-4.516s.16-2.726-2.2-3.212l-34.386,2.8a3.407,3.407,0,0,0-2.748,2.511l-11.4,24.023s-.95,3.67,2.511,4.108l34.1-3.056a2.528,2.528,0,0,0,2.138-1.73Z" transform="translate(6.551 4.614)" fill="#1a1a1a"/>
    <path id="Trazado_820413" data-name="Trazado 820413" d="M190.359,99.532l-1.914-1.573h-1.822l-29.758,2.7s-3.563.136-4.309.781-2.579,4.411-3.631,6.752-9.263,19.51-9.263,19.51a2.628,2.628,0,0,0,.339,2.341l1.408,1.41a4.205,4.205,0,0,1,.221-2.666c.611-1.289,12.215-25.583,12.215-25.583a10.938,10.938,0,0,1,3.7-.849c2.2-.136,31.657-2.826,31.657-2.826Z" transform="translate(6.467 4.541)" fill="#fff"/>
    <path id="Trazado_820414" data-name="Trazado 820414" d="M134.3,149.494H87.147a6.466,6.466,0,0,1-6.447-6.447V132.316a6.466,6.466,0,0,1,6.447-6.448H134.3a6.466,6.466,0,0,1,6.447,6.448v10.731a6.465,6.465,0,0,1-6.447,6.447" transform="translate(3.741 5.834)" fill="#fff"/>
    <path id="Trazado_820415" data-name="Trazado 820415" d="M166.48,115.99c-.849,1.468-.751,3.11.214,3.667s2.435-.18,3.282-1.648.751-3.11-.213-3.667-2.436.181-3.283,1.648" transform="translate(7.69 5.291)" fill="#fff"/>
    <path id="Trazado_820416" data-name="Trazado 820416" d="M155.918,76.812a1.556,1.556,0,1,1-1.556-1.554,1.556,1.556,0,0,1,1.556,1.554" transform="translate(7.083 3.488)" fill="#fff"/>
    <path id="Trazado_820417" data-name="Trazado 820417" d="M165.658,78.776s2.894,3.181.377,5.131-6.057.258-6.057.258l.319-.906s2.443.135,3.341-.821a17.152,17.152,0,0,0,2.021-3.662" transform="translate(7.415 3.651)" fill="#1a1a1a"/>
    <path id="Trazado_820418" data-name="Trazado 820418" d="M1.687,120.238l12.637-7.821a.781.781,0,0,1,1.192.7l-.727,14.843a.781.781,0,0,1-1.177.635l-3.416-2.014a.78.78,0,0,0-1.069.276l-4.967,8.424a.783.783,0,0,1-1.07.276l-2.7-1.595A.78.78,0,0,1,.109,132.9l4.966-8.425A.781.781,0,0,0,4.8,123.4l-3.1-1.826a.781.781,0,0,1-.016-1.337" transform="translate(0 5.205)" fill="#33ece0"/>
    <rect id="Rectángulo_377675" data-name="Rectángulo 377675" width="10.633" height="10.633" transform="translate(21.621 107.473)" fill="#33ece0"/>
    <rect id="Rectángulo_377676" data-name="Rectángulo 377676" width="10.633" height="10.633" transform="translate(15.819 90.01)" fill="#1a1a1a"/>
    <path id="Trazado_820419" data-name="Trazado 820419" d="M198.488,53a1.211,1.211,0,0,0-2.283,0l-4.824,8.261c-.628,1.076-.123,1.956,1.122,1.956h9.691c1.245,0,1.749-.88,1.122-1.955Z" transform="translate(8.858 2.419)" fill="#33ece0"/>
    <path id="Trazado_820420" data-name="Trazado 820420" d="M73.864,64.244a4.048,4.048,0,0,1,.888-3.412,7.79,7.79,0,0,0-4.868,3.56c-1.385,2.638.194,6.524.7,7.6,0,0,.963-1.6,1.224-2.168a6.186,6.186,0,0,1,1.406-1.156l.49-1.482a8.3,8.3,0,0,0,4.3,1.755,9.587,9.587,0,0,1,3.57.705c.225-.075-7.055-1.888-7.715-5.4" transform="translate(3.214 2.82)" fill="#fff"/>
    <path id="Trazado_820421" data-name="Trazado 820421" d="M71.792,80.991a4.753,4.753,0,0,1-.212-1.436A4.526,4.526,0,0,0,68.59,83.2a5.281,5.281,0,0,0,1.48,4.8s1.347-.315,2.1-.5a4.683,4.683,0,0,1-.382-6.505" transform="translate(3.175 3.688)" fill="#fff"/>
    <path id="Trazado_820422" data-name="Trazado 820422" d="M166.875,72.54s3.638-3.089,2.2-6.678c-1-2.506-3.842-3.577-6.688-4.443a5.2,5.2,0,0,1,2.714,2.969c.294,1.355-1.112,2.03-2.868,2.356,3.143.833,5.578,2.707,4.638,5.8" transform="translate(7.52 2.847)" fill="#fff"/>
    <path id="Trazado_820423" data-name="Trazado 820423" d="M155.354,78.072a1.653,1.653,0,0,1-1.4-.12c.29,1.223.174,5.026-7.265,4.3.267.065,1.99.654,2.277.709,2.713.52,4.928.351,6.044-.773s1.472-2.351.343-4.112" transform="translate(6.799 3.613)" fill="#fff"/>
    <path id="Trazado_820424" data-name="Trazado 820424" d="M165.6,78.776s-.248.6-.6,1.328c.307,1.172.685,4.108-3.881,4.479a5.569,5.569,0,0,0,4.86-.676c2.518-1.95-.377-5.131-.377-5.131" transform="translate(7.468 3.651)" fill="#fff"/>
    <path id="Trazado_820425" data-name="Trazado 820425" d="M132,151.67H84.846a6.466,6.466,0,0,1-6.447-6.447V134.492a6.466,6.466,0,0,1,6.447-6.448H132a6.466,6.466,0,0,1,6.447,6.448v10.731A6.465,6.465,0,0,1,132,151.67" transform="translate(3.634 5.935)" fill="#1a1a1a"/>
    <path id="Trazado_820426" data-name="Trazado 820426" d="M190.069,103.5l-1.7,3.594s-1.849.351-3.415.487-3.49-.479-4.2,1.356.412,2.544.412,2.544-2.367,2.448-.306,3.975c0,0-2.391,1.831.179,3.434s7.475.868,8.624.459,3.175-1.979,3.457-5.8.249-5.838-.393-7.094a13.6,13.6,0,0,0-2.664-2.955" transform="translate(8.337 4.797)" fill="#fff"/>
    <path id="Trazado_820427" data-name="Trazado 820427" d="M61.64,143.788A137.156,137.156,0,0,1,59.7,127.145c-.083-1.186-.166-2.4-.263-3.658-1.262-16.788.955-22.517,2.146-25.6.143-.37.273-.705.381-1.018a1.024,1.024,0,0,1,.12,1.212c-1.175,3.039-3.365,8.7-2.112,25.361.1,1.265.18,2.475.264,3.661.351,5,.681,9.725,1.666,16.373-.239.307-.252.308-.266.308" transform="translate(2.738 4.49)" fill="#1a1a1a"/>
    <path id="Trazado_820428" data-name="Trazado 820428" d="M73.055,68.581c-.2-.037-.294-.18-.262-.325.276-1.282.286-1.309.292-1.325.5.2.413.6.232,1.439a.266.266,0,0,1-.263.211" transform="translate(3.374 3.102)" fill="#1a1a1a"/>
    <path id="Trazado_820429" data-name="Trazado 820429" d="M77.2,84c-.535,0-1.059-.012-1.488-.029a6.241,6.241,0,0,1-2.33-.484,3.606,3.606,0,0,1-2-2.834,14.667,14.667,0,0,1-.01-4.807c.321,1.729.242,3.153.539,4.705A3.1,3.1,0,0,0,73.61,83a5.569,5.569,0,0,0,2.127.434c.886.038,2.189.045,3.109-.018A1.854,1.854,0,0,1,77.2,84" transform="translate(3.299 3.516)" fill="#1a1a1a"/>
    <path id="Trazado_820430" data-name="Trazado 820430" d="M84.517,79.774a3.236,3.236,0,0,1-1.75-.547,3.983,3.983,0,0,1,1.584,0,2.53,2.53,0,1,0-1.112-4.712,1.278,1.278,0,0,1,1.475-.875,3.068,3.068,0,0,1-.2,6.13" transform="translate(3.836 3.413)" fill="#1a1a1a"/>
    <path id="Trazado_820431" data-name="Trazado 820431" d="M84.932,78.4c-.191-.078-1.879-1.765-1.879-1.765.06-.426,2.326-1.691,2.326-1.691.262.469-1.693,1.561-1.693,1.561l1.437,1.436c-.053.432-.122.459-.19.459" transform="translate(3.85 3.474)" fill="#1a1a1a"/>
    <path id="Trazado_820432" data-name="Trazado 820432" d="M76.31,94.335a7.931,7.931,0,0,1-.848-.047,1.793,1.793,0,0,1-1.454-.905c-1.052-1.868.774-6.015,1-6.523l.263-3.5c.536.041.269,3.589.269,3.589-.044.136-2.032,4.462-1.068,6.169a1.267,1.267,0,0,0,1.044.636c6.185.655,7.913-6.823,7.929-6.9.509.194-1.17,7.48-7.139,7.48" transform="translate(3.415 3.864)" fill="#1a1a1a"/>
    <path id="Trazado_820433" data-name="Trazado 820433" d="M76.331,79.584a2.792,2.792,0,0,1-1.074-.241c.786-.252,1.28-.235,1.674-.438A2.013,2.013,0,0,0,77.8,77.69c.513.164.262,1.236-.625,1.692a1.812,1.812,0,0,1-.848.2" transform="translate(3.488 3.601)" fill="#1a1a1a"/>
    <path id="Trazado_820434" data-name="Trazado 820434" d="M83.272,87.371c-.267-.293.434-8.078.434-8.078.536.048-.166,7.833-.166,7.833a.27.27,0,0,1-.268.245" transform="translate(3.857 3.675)" fill="#1a1a1a"/>
    <path id="Trazado_820435" data-name="Trazado 820435" d="M62.145,91.235a12.14,12.14,0,0,1-8.866-3.474,21.154,21.154,0,0,1-4.371-6.8,37.733,37.733,0,0,1-2.816-13.5A54.175,54.175,0,0,0,49.4,80.748a20.612,20.612,0,0,0,4.254,6.635C58.264,92,65.274,91.13,70.3,88.768A15.2,15.2,0,0,1,76.551,87.4a35.089,35.089,0,0,0-6.023,1.857,20.153,20.153,0,0,1-8.383,1.981" transform="translate(2.137 3.127)" fill="#1a1a1a"/>
    <path id="Trazado_820436" data-name="Trazado 820436" d="M61.035,110.375c-5.382-.4-9.382-2.627-13.738-5.855C38.016,97.642,31.718,83.949,30.45,67.9c1.791,15.86,8.009,29.4,17.166,36.191,4.282,3.174,8.205,5.367,13.437,5.752.239.429.12.536-.019.536" transform="translate(1.411 3.147)" fill="#1a1a1a"/>
    <path id="Trazado_820437" data-name="Trazado 820437" d="M42.353,69.827c-.213-.432,1.188-2.682,2.771-4.794,1.6-2.136,1.62-4.235.822-5.124-1.191-1.365-3.72-4.251-5.554-4.123a1.846,1.846,0,0,0-1.549,2.226c.482,2.062,4.011,4.126,4.045,4.147-.422.376-4.033-1.737-4.568-4.023a2.382,2.382,0,0,1,2.036-2.885c2.238-.005,4.688,2.808,5.749,4.025,1.363,1.528,1.032,3.969-.551,6.08-1.57,2.092-2.958,4.321-2.972,4.344a.274.274,0,0,1-.229.127" transform="translate(1.773 2.561)" fill="#1a1a1a"/>
    <path id="Trazado_820438" data-name="Trazado 820438" d="M37.809,69.6A29.529,29.529,0,0,1,33.1,69.27c-1.768-.3-2.636-.73-2.653-1.326-.013-.54.367-.775,1.071-1.021-.54.759-.537.885-.534,1.007s.4.509,2.2.81a31.379,31.379,0,0,0,5.748.309c5.123-.138,7.893-1.094,7.88-1.547,0-.057-.081-.557-2.369-.879,1.962-.267,2.888.19,2.906.864.041,1.48-5.479,2.019-8.4,2.1-.387.01-.769.015-1.145.015" transform="translate(1.411 3.085)" fill="#1a1a1a"/>
    <path id="Trazado_820439" data-name="Trazado 820439" d="M39.142,66.9a23.371,23.371,0,0,0-2.649-6.284c.532-.165,2.391,2.784,2.915,5.974-.236.31-.251.311-.266.311" transform="translate(1.692 2.809)" fill="#1a1a1a"/>
    <path id="Trazado_820440" data-name="Trazado 820440" d="M98.377,91.236a20.157,20.157,0,0,1-8.383-1.981A16.985,16.985,0,0,0,83.44,87.92a11.316,11.316,0,0,1,6.781.849c5.024,2.361,12.036,3.235,16.641-1.385a20.577,20.577,0,0,0,4.254-6.635,37.187,37.187,0,0,0,2.776-13.3,28.742,28.742,0,0,1-2.281,13.515,21.105,21.105,0,0,1-4.37,6.8,12.139,12.139,0,0,1-8.866,3.474" transform="translate(3.868 3.126)" fill="#1a1a1a"/>
    <path id="Trazado_820441" data-name="Trazado 820441" d="M93.444,111.62c-.712,0-1.423-.025-2.141-.073a35.646,35.646,0,0,0,21.963-7.457c9.157-6.786,15.375-20.332,16.631-36.235-.732,16.1-7.03,29.791-16.312,36.667-6.364,4.716-13.13,7.1-20.141,7.1" transform="translate(4.232 3.145)" fill="#1a1a1a"/>
    <path id="Trazado_820442" data-name="Trazado 820442" d="M117.185,69.817c-.242-.15-1.631-2.379-3.2-4.471-1.583-2.111-1.917-4.553-.792-5.806.934-1.043,3.653-4.082,5.931-4.082a2.233,2.233,0,0,1,1.763.848,1.639,1.639,0,0,1,.364,1.322c-.294,2.167-4.15,4.86-4.314,4.974-.268-.469,3.52-3.114,3.783-5.047a1.109,1.109,0,0,0-.244-.9,1.686,1.686,0,0,0-1.316-.657c-1.387,0-3.235,1.3-5.529,3.863-.836.932-.818,3.031.785,5.166,1.583,2.113,2.984,4.362,3,4.384-.129.4-.179.41-.227.41" transform="translate(5.216 2.571)" fill="#1a1a1a"/>
    <path id="Trazado_820443" data-name="Trazado 820443" d="M122.09,69.621c-.376,0-.759,0-1.144-.015-2.924-.08-8.443-.619-8.4-2.1.018-.673.944-1.13,2.83-1.4-2.213.855-2.293,1.355-2.294,1.41-.013.453,2.757,1.409,7.879,1.548a31.323,31.323,0,0,0,5.749-.309c1.8-.3,2.2-.687,2.2-.81s.006-.248-.712-.5c.883-.261,1.264-.025,1.248.514-.016.6-.883,1.029-2.651,1.326a29.547,29.547,0,0,1-4.708.331" transform="translate(5.217 3.064)" fill="#1a1a1a"/>
    <path id="Trazado_820444" data-name="Trazado 820444" d="M72.384,76.7c-1.827-.38-2.477-2.525-1.913-4.937s2.1-4.05,3.489-3.723,2.045,2.47,1.48,4.882a4.522,4.522,0,0,1-.638,1.767,3.189,3.189,0,0,1,.06-1.645c.535-2.292.041-4.232-1.023-4.482s-2.366,1.272-2.843,3.322.015,3.989,1.079,4.237c.6.46.474.579.311.578" transform="translate(3.257 3.152)" fill="#1a1a1a"/>
    <path id="Trazado_820445" data-name="Trazado 820445" d="M78.445,77.733a2.227,2.227,0,0,1-1.852-1.782,7.04,7.04,0,0,1,1.394-5.966,1.939,1.939,0,0,1,3.6.841A7.044,7.044,0,0,1,80.2,76.792a2.436,2.436,0,0,1-1.751.941m1.294-8.15a1.932,1.932,0,0,0-1.353.762,6.505,6.505,0,0,0-1.276,5.462c.213.763.6,1.246,1.1,1.361a1.722,1.722,0,0,0,1.587-.735,6.515,6.515,0,0,0,1.275-5.462c-.214-.763-.6-1.246-1.1-1.361a1.032,1.032,0,0,0-.234-.027" transform="translate(3.542 3.2)" fill="#1a1a1a"/>
    <path id="Trazado_820446" data-name="Trazado 820446" d="M76.854,73.354c-.977-.973-1.677-.444-1.754-.382.054-.746,1.043-1.1,1.956-.065-.075.425-.138.447-.2.447" transform="translate(3.481 3.35)" fill="#1a1a1a"/>
    <path id="Trazado_820447" data-name="Trazado 820447" d="M174.93,135.791q-.29,0-.578-.016a9.756,9.756,0,0,1,2.727-.753c5.489-1.184,10.042-9.035,12.12-16.29-1.606,7.557-6.3,15.583-12.008,16.814a10.691,10.691,0,0,1-2.261.245" transform="translate(8.082 5.504)" fill="#1a1a1a"/>
    <path id="Trazado_820448" data-name="Trazado 820448" d="M140.26,139.4a10.381,10.381,0,0,1-2.227-.245c7.439,1.08,12.242-6.057,13.543-8.283-.749,2.344-4.911,8.528-11.316,8.528" transform="translate(6.398 6.066)" fill="#1a1a1a"/>
    <path id="Trazado_820449" data-name="Trazado 820449" d="M126.664,127.928a10.522,10.522,0,0,1-.07-3.877c2.261-17.45,6.321-24.658,9.9-31.018,4.241-7.532,12.781-7.2,15.3-6.915-2.495.257-10.755-.065-14.835,7.179-3.556,6.317-7.587,13.477-9.835,30.823a19.279,19.279,0,0,0-.2,3.528,3.038,3.038,0,0,1-.268.279" transform="translate(5.861 3.987)" fill="#1a1a1a"/>
    <path id="Trazado_820450" data-name="Trazado 820450" d="M177.663,99.248c-2.8-8.322-9-10.69-14.123-11.846-.022,0-2.809-.572-4.163-.675a11.716,11.716,0,0,1,4.277.15C168.921,88.065,175.3,90.5,177.919,98.9c-.2.345-.228.348-.256.348" transform="translate(7.388 4.012)" fill="#1a1a1a"/>
    <path id="Trazado_820451" data-name="Trazado 820451" d="M161.471,84.041a7.045,7.045,0,0,1-1.78-.265,31.2,31.2,0,0,1-3.022-.955,8.226,8.226,0,0,1,3.158.435,5.54,5.54,0,0,0,2.161.215,3.1,3.1,0,0,0,2.346-1.836,13.235,13.235,0,0,0,1.215-3.586c.019-.07,1.52-5.8,1.438-8.162.62,2.421-.852,8.048-.915,8.286a13.648,13.648,0,0,1-1.264,3.715A3.592,3.592,0,0,1,162.059,84a4.441,4.441,0,0,1-.588.039" transform="translate(7.262 3.239)" fill="#1a1a1a"/>
    <path id="Trazado_820452" data-name="Trazado 820452" d="M152.827,77A3.062,3.062,0,1,1,156,72.007a6.049,6.049,0,0,1-1.671-.387,2.531,2.531,0,0,0-1.416,4.853c.13.453.026.523-.087.523" transform="translate(6.984 3.292)" fill="#1a1a1a"/>
    <path id="Trazado_820453" data-name="Trazado 820453" d="M152.79,75.576c-.126-.506,1.671-1.454,1.671-1.454L152.917,72.5c.388-.371,2.177,1.508,2.177,1.508-.068.423-2.179,1.537-2.179,1.537a.274.274,0,0,1-.126.03" transform="translate(7.082 3.358)" fill="#1a1a1a"/>
    <path id="Trazado_820454" data-name="Trazado 820454" d="M144.487,117.306c-.216-.05-.3-.2-.257-.341,1.972-6.966,1.8-17.34,1.8-17.444.539.094.715,10.548-1.28,17.589a.271.271,0,0,1-.259.2" transform="translate(6.685 4.613)" fill="#1a1a1a"/>
    <path id="Trazado_820455" data-name="Trazado 820455" d="M161.6,79.639a2.03,2.03,0,0,1-1.439-.51,2.533,2.533,0,0,1-.678-1.825c.537.036.5.927,1.046,1.435a1.7,1.7,0,0,0,1.427.34c-.082.551-.223.56-.357.56" transform="translate(7.393 3.583)" fill="#1a1a1a"/>
    <path id="Trazado_820456" data-name="Trazado 820456" d="M144.149,132.466a3.176,3.176,0,0,1-2.86-4.532l5.279-11.17c.486.23-4.792,11.4-4.792,11.4a2.639,2.639,0,0,0,2.621,3.754l33.434-3a2.651,2.651,0,0,0,2.149-1.5l3.925-8.3c.486.229-3.439,8.534-3.439,8.534a3.185,3.185,0,0,1-2.588,1.806l-33.433,3c-.1.008-.2.014-.3.014" transform="translate(6.535 5.412)" fill="#1a1a1a"/>
    <path id="Trazado_820457" data-name="Trazado 820457" d="M149.226,112.046c-.243-.383,3.367-8.021,3.367-8.021a3.186,3.186,0,0,1,2.587-1.806l33.436-3a3.173,3.173,0,0,1,3.153,4.518l-1.733,3.67c-.486-.229,1.247-3.9,1.247-3.9a2.607,2.607,0,0,0-.223-2.637,2.571,2.571,0,0,0-2.4-1.116l-33.435,3a2.65,2.65,0,0,0-2.149,1.5l-3.61,7.638a.27.27,0,0,1-.243.154" transform="translate(6.916 4.599)" fill="#1a1a1a"/>
    <path id="Trazado_820458" data-name="Trazado 820458" d="M142.306,132.615c-.188-.077-2.51-2.372-2.51-2.372a3.131,3.131,0,0,1-.161-3l11.683-24.723a3.185,3.185,0,0,1,2.586-1.806l33.436-3a3.257,3.257,0,0,1,1.358.17c.078.044,2.507,1.982,2.507,1.982-.337.42-2.729-1.489-2.729-1.489a2.575,2.575,0,0,0-1.089-.127l-33.436,3a2.648,2.648,0,0,0-2.147,1.5L140.12,127.474a2.594,2.594,0,0,0,.08,2.412l2.295,2.268c-.049.433-.117.46-.188.46" transform="translate(6.458 4.529)" fill="#1a1a1a"/>
    <path id="Trazado_820459" data-name="Trazado 820459" d="M155.288,72.4a28.567,28.567,0,0,0,1.274-5.689c.28-.249,8.561-2.356,11,3.232-2.56-4.527-9.324-3.244-10.494-2.98-.119.839-.645,4.213-1.575,5.341a.269.269,0,0,1-.208.1" transform="translate(7.198 3.065)" fill="#1a1a1a"/>
    <path id="Trazado_820460" data-name="Trazado 820460" d="M151.773,84.175a13.894,13.894,0,0,1-1.906-.145c-2.288-.319-5.016-.929-5.822-2.821a3.425,3.425,0,0,1-.208-1.5,7.506,7.506,0,0,1,1.77-4.538c1.018-1.145,1.608-1.808,1.26-3.087a8.791,8.791,0,0,1,1.34-7.2,3.836,3.836,0,0,1,3.049-1.691h1.4c0,.538-1.4.538-1.4.538a3.379,3.379,0,0,0-2.622,1.48,8.338,8.338,0,0,0-1.247,6.731c.423,1.559-.317,2.393-1.176,3.358a7.154,7.154,0,0,0-1.838,4.434,2.953,2.953,0,0,0,.165,1.26c.7,1.645,3.256,2.2,5.4,2.5,2.582.364,4.319.029,5.171-.988a2.638,2.638,0,0,0,.179-3.571c1.265.563,1.587,2.3.231,3.917a4.667,4.667,0,0,1-3.749,1.319" transform="translate(6.667 2.929)" fill="#1a1a1a"/>
    <path id="Trazado_820461" data-name="Trazado 820461" d="M174.836,142.086a87.7,87.7,0,0,1-.954-13.267c.537.076.46,7.018,1.22,12.964-.246.3-.257.3-.266.3" transform="translate(8.06 5.971)" fill="#1a1a1a"/>
    <path id="Trazado_820462" data-name="Trazado 820462" d="M163.34,84.892a8.931,8.931,0,0,1-3.275-.633c1.833.195,5.457.661,6.48-1.364,1.012-2.006-.987-3.848-1.071-3.926.385-.378,2.748,1.794,1.55,4.169-.662,1.312-2.164,1.754-3.683,1.755" transform="translate(7.419 3.658)" fill="#1a1a1a"/>
    <path id="Trazado_820463" data-name="Trazado 820463" d="M185.6,120.246a19.992,19.992,0,0,1-2.24-.132c-1.647-.19-3.984-1.376-3.772-3.313a1.987,1.987,0,0,1,1.042-1.539c-.177.708-.456,1.119-.509,1.6-.179,1.631,2.061,2.576,3.3,2.719,4.144.479,6.857-.416,7.714-1.513a8.7,8.7,0,0,0,1.476-3.3,19.073,19.073,0,0,0,.433-6.659c-.267-2.286-3.089-4.377-3.116-4.4.439-.343,3.356,1.819,3.649,4.335a19.253,19.253,0,0,1-.446,6.853,9.2,9.2,0,0,1-1.572,3.5c-.924,1.181-3.158,1.849-5.959,1.849" transform="translate(8.324 4.805)" fill="#1a1a1a"/>
    <path id="Trazado_820464" data-name="Trazado 820464" d="M183.5,112.15a5.2,5.2,0,0,1-.707-.036c-.791-.106-1.7-.224-2.091-.861a2.683,2.683,0,0,1-.3-2.329,2.836,2.836,0,0,1,1.4-1.51,3.314,3.314,0,0,1,1.863-.256c5.656.149,6.62-.976,6.629-.988.338.455-.683,1.681-6.225,1.545a3.762,3.762,0,0,0-2.011.172,2.309,2.309,0,0,0-1.152,1.218,2.149,2.149,0,0,0,.251,1.865c.262.421,1.016.52,1.514.586a36.2,36.2,0,0,0,6.923-.529c-.316.7-4.245,1.124-6.094,1.124" transform="translate(8.355 4.921)" fill="#1a1a1a"/>
    <path id="Trazado_820465" data-name="Trazado 820465" d="M171.6,99.51c-.269-.268-.269-1.325-.269-1.325.537,0,.537,1.057.537,1.057a.268.268,0,0,1-.268.268" transform="translate(7.942 4.551)" fill="#1a1a1a"/>
    <path id="Trazado_820466" data-name="Trazado 820466" d="M184.489,116.056c-.713,0-1.425-.027-2.085-.094a2.623,2.623,0,0,1-2.622-2.746,3.171,3.171,0,0,1,1.392-2.2,10.892,10.892,0,0,0-.856,2.249,2.112,2.112,0,0,0,2.141,2.164,37.243,37.243,0,0,0,7.383-.286c.041.537-2.664.915-5.352.915" transform="translate(8.333 5.146)" fill="#1a1a1a"/>
    <path id="Trazado_820467" data-name="Trazado 820467" d="M166.9,118.619a1.691,1.691,0,0,1-.854-.223c-1.093-.629-1.235-2.44-.315-4.034s2.555-2.379,3.652-1.747,1.233,2.441.312,4.034a4.249,4.249,0,0,1-1.709,1.69,2.43,2.43,0,0,1-1.086.28m-.7-3.989c-.771,1.337-.719,2.819.117,3.3a1.489,1.489,0,0,0,1.43-.072,3.72,3.72,0,0,0,1.486-1.477c.759-1.314.705-2.825-.117-3.3s-2.143.212-2.916,1.55" transform="translate(7.654 5.21)" fill="#1a1a1a"/>
    <path id="Trazado_820468" data-name="Trazado 820468" d="M158.546,94.421c-2.447,0-7.507-6.5-8.1-7.274-.049-.224.866-4.237.866-4.237.524.118-.363,4.009-.363,4.009,2.3,2.984,6.4,7.435,7.8,6.935.936-.325.912-3.877.594-6.294.006-.1,1.016-4.508,1.016-4.508.523.121-.477,4.486-.477,4.486.148,1.147.705,6.246-.956,6.823a1.168,1.168,0,0,1-.376.06" transform="translate(6.973 3.843)" fill="#1a1a1a"/>
    <path id="Trazado_820469" data-name="Trazado 820469" d="M154.9,65.153c-.117-.027-2-.944-2-.944.234-.482,2.114.433,2.114.433.077.455-.019.511-.117.511" transform="translate(7.087 2.97)" fill="#1a1a1a"/>
    <path id="Trazado_820470" data-name="Trazado 820470" d="M195.352,141.734H138.087c0-.537,57.265-.537,57.265-.537.268.417.148.537,0,.537" transform="translate(6.401 6.545)" fill="#1a1a1a"/>
    <path id="Trazado_820471" data-name="Trazado 820471" d="M84.169,141.734H5.859c0-.537,78.31-.537,78.31-.537.269.417.15.537,0,.537" transform="translate(0.272 6.545)" fill="#1a1a1a"/>
    <path id="Trazado_820472" data-name="Trazado 820472" d="M165.529,72.469c-.211-.054-.363.023-.5.787-.153.851.055,1.023.249,1.035s.412-.235.461-.849.064-.9-.211-.973" transform="translate(7.647 3.358)" fill="#1a1a1a"/>
    <path id="Trazado_820473" data-name="Trazado 820473" d="M160.268,71.536c-.211-.049-.361.032-.477.8-.131.854.083,1.021.275,1.028s.406-.246.439-.86.04-.9-.238-.967" transform="translate(7.405 3.315)" fill="#1a1a1a"/>
    <path id="Trazado_820474" data-name="Trazado 820474" d="M8.553,135.947a1.04,1.04,0,0,1-.532-.144l-2.7-1.595a1.049,1.049,0,0,1-.37-1.438l4.967-8.423a.513.513,0,0,0-.182-.7l-3.1-1.827a1.05,1.05,0,0,1-.02-1.8L19.253,112.2a1.05,1.05,0,0,1,1.6.944l-.726,14.844a1.05,1.05,0,0,1-1.581.854l-3.419-2.014c-.7.181-5.668,8.606-5.668,8.606a1.05,1.05,0,0,1-.906.515M6.9,120.478a.514.514,0,0,0,.008.878l3.1,1.827a1.051,1.051,0,0,1,.371,1.438L5.41,133.044c.182.7,2.885,2.3,2.885,2.3a.517.517,0,0,0,.7-.183l4.968-8.423a1.052,1.052,0,0,1,1.437-.373l3.417,2.015a.511.511,0,0,0,.771-.417l.729-14.842a.514.514,0,0,0-.784-.46L6.9,120.478Z" transform="translate(0.223 5.193)" fill="#1a1a1a"/>
    <path id="Trazado_820475" data-name="Trazado 820475" d="M198.816,64.778h-9.692a1.451,1.451,0,0,1-1.354-2.358l4.824-8.261a1.474,1.474,0,0,1,2.747,0l4.83,8.262a1.451,1.451,0,0,1-1.354,2.358m-4.849-11.021a1.13,1.13,0,0,0-.908.672l-4.824,8.261a.929.929,0,0,0,.888,1.552h9.692a.929.929,0,0,0,.89-1.55l-4.83-8.263a1.134,1.134,0,0,0-.909-.672" transform="translate(8.689 2.467)" fill="#1a1a1a"/>
    <path id="Trazado_820476" data-name="Trazado 820476" d="M37.162,34.013a6,6,0,0,1-5.995-5.992c.023-.118,1.225-4.063.657-7.082,1.1,2.921.016,6.668-.119,7.12a5.457,5.457,0,0,0,10.913,0,17.7,17.7,0,0,1-.651-7.222,28.1,28.1,0,0,0,1.174,7.1,6,6,0,0,1-5.98,6.073" transform="translate(1.445 0.966)" fill="#1a1a1a"/>
    <path id="Trazado_820477" data-name="Trazado 820477" d="M57.41,62.493H46.452c0-.536,10.691-.536,10.691-.536V46.676a15.668,15.668,0,0,1,7.439.384,5.456,5.456,0,0,0,0-10.912,17.686,17.686,0,0,1-7.222.65c-.218-.265-.218-15.631-.218-15.631h-15.4c0-.537,15.669-.537,15.669-.537.268.269.268,15.677.268,15.677a17.909,17.909,0,0,0,6.785-.685,5.989,5.989,0,1,1,.08,11.977,18.485,18.485,0,0,0-6.864-.7V62.225a.267.267,0,0,1-.268.268" transform="translate(1.935 0.956)" fill="#1a1a1a"/>
    <path id="Trazado_820478" data-name="Trazado 820478" d="M41.246,61.34H17.232c-.269-.268-.269-15.849-.269-15.849.538,0,.538,15.313.538,15.313H41.246c.268.416.149.536,0,.536" transform="translate(0.786 2.109)" fill="#1a1a1a"/>
    <path id="Trazado_820479" data-name="Trazado 820479" d="M17.231,32.915c-.268-.269-.268-12.017-.268-12.017.268-.27,15.783-.27,15.783-.27,0,.538-15.246.538-15.246.538V32.646a.268.268,0,0,1-.269.269" transform="translate(0.786 0.956)" fill="#1a1a1a"/>
    <path id="Trazado_820480" data-name="Trazado 820480" d="M123.078,34.013a6,6,0,0,1-5.992-5.992c.024-.118,1.227-4.063.659-7.083,1.1,2.922.014,6.669-.122,7.121a5.456,5.456,0,0,0,10.911,0,17.778,17.778,0,0,1-.647-7.222,28.14,28.14,0,0,0,1.173,7.1,6,6,0,0,1-5.982,6.072" transform="translate(5.427 0.966)" fill="#1a1a1a"/>
    <path id="Trazado_820481" data-name="Trazado 820481" d="M110.126,46.892c-.12-.024-4.068-1.233-7.082-.657,2.925-1.1,6.668-.017,7.121.12a5.456,5.456,0,0,0,0-10.912,17.761,17.761,0,0,1-7.222.647,28.069,28.069,0,0,0,7.1-1.172,5.988,5.988,0,1,1,.078,11.974" transform="translate(4.772 1.619)" fill="#1a1a1a"/>
    <path id="Trazado_820482" data-name="Trazado 820482" d="M135.939,46.893a5.993,5.993,0,1,1,0-11.986c.117.024,4.066,1.231,7.083.655-2.918,1.1-6.672.017-7.123-.118a5.456,5.456,0,0,0,0,10.912,17.694,17.694,0,0,1,7.221-.65,27.91,27.91,0,0,0-7.1,1.175.263.263,0,0,1-.081.012" transform="translate(6.023 1.618)" fill="#1a1a1a"/>
    <path id="Trazado_820483" data-name="Trazado 820483" d="M103,36.8c-.269-.268-.269-15.9-.269-15.9.269-.269,15.939-.269,15.939-.269,0,.538-15.4.538-15.4.538V36.534A.267.267,0,0,1,103,36.8" transform="translate(4.762 0.956)" fill="#1a1a1a"/>
    <path id="Trazado_820484" data-name="Trazado 820484" d="M113.38,61.339H103c-.27-.268-.27-15.817-.27-15.817.537,0,.537,15.281.537,15.281H113.38c.268.416.149.536,0,.536" transform="translate(4.762 2.11)" fill="#1a1a1a"/>
    <path id="Trazado_820485" data-name="Trazado 820485" d="M136.7,60.662h-18c0-.536,18-.536,18-.536.268.416.148.536,0,.536" transform="translate(5.502 2.787)" fill="#1a1a1a"/>
    <path id="Trazado_820486" data-name="Trazado 820486" d="M142.5,57.82c-.268-.268-.268-12.289-.268-12.289.537,0,.537,12.022.537,12.022a.269.269,0,0,1-.269.268" transform="translate(6.593 2.11)" fill="#1a1a1a"/>
    <path id="Trazado_820487" data-name="Trazado 820487" d="M143.176,36.6c-.268-.268-.268-15.439-.268-15.439H127.661c0-.537,15.515-.537,15.515-.537.269.269.269,15.708.269,15.708a.268.268,0,0,1-.269.268" transform="translate(5.917 0.956)" fill="#1a1a1a"/>
    <path id="Trazado_820488" data-name="Trazado 820488" d="M32.913,69.506c-1.894-2.543-3.164-8.808-3.218-9.073.54-.043,1.829,6.317,3.438,8.653-.114.4-.168.42-.221.42" transform="translate(1.376 2.801)" fill="#1a1a1a"/>
    <path id="Trazado_820489" data-name="Trazado 820489" d="M120.516,66.917a.275.275,0,0,1-.265-.311,16.114,16.114,0,0,1,3.056-6.385c.394.367-2.023,3.409-2.526,6.472a.27.27,0,0,1-.266.224" transform="translate(5.574 2.791)" fill="#1a1a1a"/>
    <path id="Trazado_820490" data-name="Trazado 820490" d="M126.761,69.29c1.389-2.757,2.68-8.9,2.691-8.96.473.365-.8,6.419-2.469,8.844a.268.268,0,0,1-.222.116" transform="translate(5.876 2.796)" fill="#1a1a1a"/>
    <path id="Trazado_820491" data-name="Trazado 820491" d="M93.505,127.295c-4.8-9.919-1.2-27.453-1.167-27.63.49.286-3.067,17.645,1.409,27.248-.167.374-.205.382-.243.382" transform="translate(4.219 4.62)" fill="#1a1a1a"/>
    <path id="Trazado_820492" data-name="Trazado 820492" d="M134.312,149.691H87.158a6.722,6.722,0,0,1-6.715-6.715v-10.7a6.723,6.723,0,0,1,6.715-6.715h47.154a6.723,6.723,0,0,1,6.715,6.715v10.7a6.722,6.722,0,0,1-6.715,6.715m-47.154-23.6a6.185,6.185,0,0,0-6.179,6.179v10.7a6.186,6.186,0,0,0,6.179,6.179h47.154a6.186,6.186,0,0,0,6.179-6.179v-10.7a6.186,6.186,0,0,0-6.179-6.179Z" transform="translate(3.729 5.82)" fill="#1a1a1a"/>
    <path id="Trazado_820493" data-name="Trazado 820493" d="M61.574,123.746H21.553c0-.537,40.021-.537,40.021-.537.268.417.15.537,0,.537" transform="translate(0.999 5.711)" fill="#1a1a1a"/>
    <path id="Trazado_820494" data-name="Trazado 820494" d="M10.437,118.283c-.269-.267-.269-40.269-.269-40.269A6.723,6.723,0,0,1,16.883,71.3H31.864c0,.537-14.981.537-14.981.537A6.186,6.186,0,0,0,10.7,78.014v40a.266.266,0,0,1-.268.267" transform="translate(0.471 3.305)" fill="#1a1a1a"/>
    <path id="Trazado_820495" data-name="Trazado 820495" d="M71.662,71.837H46.751c0-.536,24.911-.536,24.911-.536.269.416.15.536,0,.536" transform="translate(2.167 3.305)" fill="#1a1a1a"/>
    <path id="Trazado_820496" data-name="Trazado 820496" d="M89.958,80.383a6.8,6.8,0,0,1,1.332-4.9c.979-1.647,1.993-3.349,1.509-5.8-.868-4.4-7.245-5.414-7.31-5.423a11.365,11.365,0,0,0-8.317-3.6,9.016,9.016,0,0,0-6.554,3.206c-2.084,2.439-.658,6.288.379,8.366-1.82-2.443-2.959-6.175-.786-8.715a9.547,9.547,0,0,1,6.94-3.393,11.6,11.6,0,0,1,8.508,3.622c.833.142,6.773,1.3,7.668,5.838.523,2.656-.543,4.448-1.574,6.181A7.773,7.773,0,0,0,90.226,80.1a3.357,3.357,0,0,1-.268.279" transform="translate(3.199 2.786)" fill="#1a1a1a"/>
    <path id="Trazado_820497" data-name="Trazado 820497" d="M93.169,89.925a7.371,7.371,0,0,0,3.009-4.268,5.312,5.312,0,0,0-2.428-5.3,6.625,6.625,0,0,0-6.053-.367,5.668,5.668,0,0,1,6.346-.084,5.857,5.857,0,0,1,2.663,5.845,5.63,5.63,0,0,1-3.44,4.153.3.3,0,0,1-.1.018" transform="translate(4.065 3.661)" fill="#1a1a1a"/>
    <path id="Trazado_820498" data-name="Trazado 820498" d="M70.237,88.368c-1.928-1.006-2.386-4.018-1.67-6.112a5.1,5.1,0,0,1,3-2.966c.151.517-1.831,1.209-2.491,3.139-.714,2.093-.1,4.683,1.289,5.435.061.453-.032.5-.127.5" transform="translate(3.163 3.675)" fill="#1a1a1a"/>
    <path id="Trazado_820499" data-name="Trazado 820499" d="M84.214,74.628a2.075,2.075,0,0,1-.462-.975,8.425,8.425,0,0,0-1.07-2.827,3.8,3.8,0,0,0-3.17-1.661,13.335,13.335,0,0,1-7.232-2.812c.375-.387,3.378,2.087,7.259,2.275a4.358,4.358,0,0,1,3.589,1.895,8.846,8.846,0,0,1,1.149,3.006c.068.289.13.545.194.747-.2.347-.228.352-.254.352" transform="translate(3.35 3.074)" fill="#1a1a1a"/>
    <path id="Trazado_820500" data-name="Trazado 820500" d="M73.254,77.874a2.855,2.855,0,0,1-1.067-2.146c.05-.693.532-.819,1-.941a2.764,2.764,0,0,0,1.2-.567c.936-.8.852-2.867.851-2.887.542.07.634,2.331-.5,3.3a3.289,3.289,0,0,1-1.412.677c-.487.129-.575.174-.6.461a2.771,2.771,0,0,0,.73,1.656c-.068.428-.134.45-.2.45" transform="translate(3.346 3.306)" fill="#1a1a1a"/>
    <path id="Trazado_820501" data-name="Trazado 820501" d="M69.906,81.621H49.527c0-.537,20.379-.537,20.379-.537.269.417.149.537,0,.537" transform="translate(2.296 3.758)" fill="#1a1a1a"/>
    <path id="Trazado_820502" data-name="Trazado 820502" d="M34.146,81.621H12.219c0-.537,21.927-.537,21.927-.537.269.417.15.537,0,.537" transform="translate(0.566 3.758)" fill="#1a1a1a"/>
    <path id="Trazado_820503" data-name="Trazado 820503" d="M68.108,78.592a2.358,2.358,0,1,1,2.358-2.358,2.361,2.361,0,0,1-2.358,2.358m0-4.18a1.822,1.822,0,1,0,1.821,1.822,1.824,1.824,0,0,0-1.821-1.822" transform="translate(3.048 3.424)" fill="#1a1a1a"/>
    <path id="Trazado_820504" data-name="Trazado 820504" d="M61.368,78.592a2.358,2.358,0,1,1,2.358-2.358,2.362,2.362,0,0,1-2.358,2.358m0-4.18a1.822,1.822,0,1,0,1.821,1.822,1.824,1.824,0,0,0-1.821-1.822" transform="translate(2.735 3.424)" fill="#1a1a1a"/>
    <path id="Trazado_820505" data-name="Trazado 820505" d="M113.587,20.186l-.288-.454c-.122.3-.269-.191-.622-1.021,1.144,1.316,1.085,1.356.909,1.475m-66.834-.973c-.234-.406.173-1.5,1.179-3.17-.517,1.9-.924,2.985-.926,2.995a.269.269,0,0,1-.253.176m64.782-3.108c-.736-1.007-1.3-1.87-1.905-2.7a5.238,5.238,0,0,1,2.138,2.3c-.141.391-.187.4-.232.4M49.909,13.9a7.177,7.177,0,0,1,1.811-2.805,7.916,7.916,0,0,1-1.6,2.7.263.263,0,0,1-.212.106m57.986-2.781c-.882-.841-1.613-1.568-2.37-2.249a5.25,5.25,0,0,1,2.568,1.8c-.069.425-.134.448-.2.448M54.147,9.406a6.685,6.685,0,0,1,2.274-2.4,7.754,7.754,0,0,1-2.1,2.332.263.263,0,0,1-.176.065M103.3,6.995c-.974-.646-1.837-1.207-2.724-1.723a5.285,5.285,0,0,1,2.882,1.237c.006.448-.075.487-.158.487M59.176,5.826A6.262,6.262,0,0,1,61.8,3.885a7.642,7.642,0,0,1-2.49,1.905.274.274,0,0,1-.135.036M97.97,3.889c-1.024-.443-1.979-.829-2.953-1.17a5.367,5.367,0,0,1,3.065.658c.087.454-.01.512-.112.512m-33.2-.679A6,6,0,0,1,67.63,1.732a7.444,7.444,0,0,1-2.772,1.463.284.284,0,0,1-.092.016M92.15,1.841c-1.034-.257-2.042-.474-3.065-.653a5.522,5.522,0,0,1,3.132.125c.162.449.052.528-.067.528M70.7,1.529A5.8,5.8,0,0,1,73.712.474a7.334,7.334,0,0,1-2.954,1.049.33.33,0,0,1-.054.005M86.074.771Q84.54.617,82.983.559A5.656,5.656,0,0,1,86.1.234c.226.434.11.537-.026.537M76.819.683A5.718,5.718,0,0,1,79.9,0a7.142,7.142,0,0,1-3.06.682h-.021" transform="translate(2.164)" fill="#1a1a1a"/>
    <path id="Trazado_820506" data-name="Trazado 820506" d="M27.733,98.968H17.1c-.268-.268-.268-10.9-.268-10.9.268-.268,10.9-.268,10.9-.268C28,88.067,28,98.7,28,98.7a.268.268,0,0,1-.269.268m-10.364-.537h10.1v-10.1h-10.1Z" transform="translate(0.78 4.07)" fill="#1a1a1a"/>
    <path id="Trazado_820507" data-name="Trazado 820507" d="M27.733,115.845h-6.3c0-.537,6.033-.537,6.033-.537v-10.1h-10.1v6.98c-.537,0-.537-7.248-.537-7.248.268-.268,10.9-.268,10.9-.268.268.268.268,10.9.268,10.9a.267.267,0,0,1-.268.268" transform="translate(0.78 4.852)" fill="#1a1a1a"/>
    <path id="Trazado_820508" data-name="Trazado 820508" d="M46.048,101.726h-19.3c0-.536,19.3-.536,19.3-.536.269.416.149.536,0,.536" transform="translate(1.24 4.69)" fill="#1a1a1a"/>
    <path id="Trazado_820509" data-name="Trazado 820509" d="M167.2,73.339c1.227-1.676,2.657-4.228,2.464-5.964-.326-2.962-3.333-4.984-9.187-6.179-5.548-1.136-7.947,2.255-8.047,2.4-.42-.341,2.226-4.136,8.157-2.926,6.11,1.248,9.254,3.422,9.612,6.646.213,1.929-1.288,4.64-2.824,5.958a.263.263,0,0,1-.175.065" transform="translate(7.063 2.801)" fill="#1a1a1a"/>
    <path id="Trazado_820510" data-name="Trazado 820510" d="M154.374,78.649a1.824,1.824,0,1,1,1.823-1.824,1.827,1.827,0,0,1-1.823,1.824m0-3.111a1.287,1.287,0,1,0,1.286,1.287,1.29,1.29,0,0,0-1.286-1.287" transform="translate(7.071 3.476)" fill="#1a1a1a"/>
    <path id="Trazado_820511" data-name="Trazado 820511" d="M158.478,70.809c-.175-.471,1.392-2.045,3.6-.943a3.79,3.79,0,0,0-3.4.862.271.271,0,0,1-.193.081" transform="translate(7.345 3.221)" fill="#1a1a1a"/>
    <path id="Trazado_820512" data-name="Trazado 820512" d="M166.675,72.075a1.841,1.841,0,0,0-1.6-1.025c.422-.556,1.468-.34,1.854.66-.185.36-.218.365-.25.365" transform="translate(7.651 3.279)" fill="#1a1a1a"/>
    <path id="Trazado_820513" data-name="Trazado 820513" d="M159.446,100.776a52.9,52.9,0,0,0-1.121-5.215c.555,0,1.408,3.2,1.39,4.948a.268.268,0,0,1-.269.267" transform="translate(7.339 4.429)" fill="#1a1a1a"/>
    <path id="Trazado_820514" data-name="Trazado 820514" d="M183.9,91.011a11.373,11.373,0,0,1,1.3-3.082,5.837,5.837,0,0,1-1.072,2.951.265.265,0,0,1-.23.131m2.965-5.432a12.383,12.383,0,0,1,1.06-3.18,5.752,5.752,0,0,1-.819,3.029.267.267,0,0,1-.241.151m2.492-5.662a13.574,13.574,0,0,1,.791-3.263,5.673,5.673,0,0,1-.542,3.092.266.266,0,0,1-.249.171m1.943-5.87c-.214-.048-.3-.195-.258-.339.272-.994.517-2,.724-2.989a5.606,5.606,0,0,1-.207,3.133.266.266,0,0,1-.258.2" transform="translate(8.524 3.278)" fill="#1a1a1a"/>
    <path id="Trazado_820515" data-name="Trazado 820515" d="M191.021,49.766a10.424,10.424,0,0,1-.964-1.355,1.569,1.569,0,0,1,1.2.955c-.144.389-.19.4-.234.4m-2.528-3.747c-.841-.893-1.521-1.666-2.236-2.4a5.314,5.314,0,0,1,2.446,1.965c-.093.415-.152.435-.21.435m-20.467-.229c.571-.462,1.578-.763,2.416-1.34a2.579,2.579,0,0,1-2.416,1.34M166,43.668a.278.278,0,0,1-.266-.314,5.261,5.261,0,0,1,.82-1.909,7.372,7.372,0,0,1,.7-.915,1.274,1.274,0,0,1-.244,1.2,4.752,4.752,0,0,0-.741,1.709.27.27,0,0,1-.266.224m6.5-1.114c.187-1.27.493-2.234.665-3.252a4.109,4.109,0,0,1-.424,3.1.266.266,0,0,1-.242.152m11.7-.967c-.91-.695-1.7-1.317-2.527-1.917-.179-.128-.208-.294-.121-.415a11.438,11.438,0,0,1,2.824,1.86c-.024.442-.1.472-.176.472m-14.282-2.451a4.493,4.493,0,0,1,2.874-1.5,14.413,14.413,0,0,1-2.754,1.474.263.263,0,0,1-.12.028m9.051-.736a13.507,13.507,0,0,0-3.06-.462,4.4,4.4,0,0,1,3.133-.065c.153.451.044.527-.073.527m-5.418-1.868c-.355-1.254-.567-2.247-.9-3.2a4.26,4.26,0,0,1,1.167,2.9c-.253.291-.262.291-.269.291m-2.025-5.773a26.148,26.148,0,0,0-2.168-2.439,4.456,4.456,0,0,1,2.393,2.023c-.122.4-.174.416-.225.416M167.1,26.508a19.2,19.2,0,0,0-2.864-1.377,4.56,4.56,0,0,1,3.005.88c.036.452-.051.5-.141.5M146.208,25.8A4.51,4.51,0,0,1,149,24.119a15.349,15.349,0,0,1-2.651,1.645.257.257,0,0,1-.136.038m15.135-1.454a30,30,0,0,0-3.088-.394,5.361,5.361,0,0,1,3.137-.138c.19.443.078.533-.049.533m-9.242-.279a5.28,5.28,0,0,1,3.08-.744,8.142,8.142,0,0,1-3.047.742l-.033,0" transform="translate(6.777 1.081)" fill="#1a1a1a"/>
    <path id="Trazado_820516" data-name="Trazado 820516" d="M128.755,133.153H91.676c0-.537,37.079-.537,37.079-.537.269.417.148.537,0,.537" transform="translate(4.249 6.147)" fill="#fff"/>
    <path id="Trazado_820517" data-name="Trazado 820517" d="M128.755,141.584H91.676c0-.537,37.079-.537,37.079-.537.269.417.148.537,0,.537" transform="translate(4.249 6.538)" fill="#fff"/>
    <path id="Trazado_820518" data-name="Trazado 820518" d="M201.847,68.785H186.16a3.7,3.7,0,0,1-3.695-3.695V53.621a3.7,3.7,0,0,1,3.695-3.695h15.687a3.7,3.7,0,0,1,3.7,3.695v11.47a3.7,3.7,0,0,1-3.7,3.695M186.16,50.462A3.163,3.163,0,0,0,183,53.621v11.47a3.163,3.163,0,0,0,3.159,3.158h15.687a3.163,3.163,0,0,0,3.159-3.158V53.621a3.163,3.163,0,0,0-3.159-3.159Z" transform="translate(8.458 2.314)" fill="#1a1a1a"/>
    <path id="Trazado_820519" data-name="Trazado 820519" d="M162.676,78.079a5.182,5.182,0,0,0,2.054-1.848c-.615-.427-1.441-1.087-1.441-1.541s.615-3.17.686-3.478a12.772,12.772,0,0,1-.15,3.478,4.848,4.848,0,0,0,1.408,1.235,2.64,2.64,0,0,1-2.558,2.154" transform="translate(7.54 3.301)" fill="#1a1a1a"/>
  </g>
</svg>
