<svg xmlns="http://www.w3.org/2000/svg" xmlns:xlink="http://www.w3.org/1999/xlink" width="124.001" height="124" viewBox="0 0 124.001 124">
  <defs>
    <clipPath id="clip-path">
      <rect id="Rect치ngulo_377503" data-name="Rect치ngulo 377503" width="75.704" height="75.208" transform="translate(0 0)" fill="none"/>
    </clipPath>
  </defs>
  <g id="Grupo_1071717" data-name="Grupo 1071717" transform="translate(4695.5 9316.195)">
    <g id="Grupo_1071475" data-name="Grupo 1071475" transform="translate(-5080.5 -11374.195)">
      <g id="Grupo_159182" data-name="Grupo 159182" transform="translate(0.001)">
        <path id="Uni칩n_12" data-name="Uni칩n 12" d="M8464.769,11817.939a62.055,62.055,0,1,1,20.7-16.051l8.516,22.111Z" transform="translate(-7991 -9642)" fill="#a3bfe4"/>
        <circle id="Elipse_4842" data-name="Elipse 4842" cx="48" cy="48" r="48" transform="translate(399 2072)" fill="#e3ecf7"/>
      </g>
    </g>
    <g id="Grupo_1071484" data-name="Grupo 1071484" transform="translate(-4671.352 -9291.799)">
      <g id="Grupo_1071483" data-name="Grupo 1071483" clip-path="url(#clip-path)">
        <path id="Trazado_819534" data-name="Trazado 819534" d="M56.537,39.141c2.384-2.864,4.574-5.362,6.615-7.976,3.5-4.479,7.487-3.893,11.324-.568,1.6,1.384,1.618,3.458.174,5.328q-6.937,8.98-13.893,17.948c-1.118,1.444-2.2,2.92-3.369,4.319a3.466,3.466,0,0,0-.871,2.558c.054,1.066-.277,2.221,1.546,2,.652-.08.925.683,1.008,1.371q.56,4.583,1.174,9.159c.177,1.337-.358,1.931-1.729,1.928-10.495-.018-20.99,0-31.485-.015-1.562,0-1.956-.465-1.763-2.017.368-2.95.8-5.894,1.128-8.848.127-1.142.582-1.745,1.771-1.668.437.029.827.049.8-.6-.058-1.435.2-2.88-.835-4.171-.808-1.007-1.155-2.609-2.148-3.18s-2.218.729-3.413,1.02c-7.261,1.771-13.547.054-18.328-5.7-4.823-5.809-5.55-12.448-2.105-19.155,3.415-6.649,9.195-9.707,16.665-9.516a26.075,26.075,0,0,1,5.142,1.011c0-1.4,0-2.7,0-4,.013-4.581,2.986-6.729,7.515-5.26-.065-2.067-.032-4.1,1.7-5.566a5.1,5.1,0,0,1,5.831-.64c-.09-2.156-.028-4.186,1.722-5.656A4.968,4.968,0,0,1,44.162,0c3.14.093,4.7,2.221,4.908,6.779A15.97,15.97,0,0,1,50.946,6.3c3.05-.4,5.574,1.967,5.583,5.286.023,8.25.008,16.5.008,24.75v2.8m-27.9-14.049,2.514,2.773a100.227,100.227,0,0,0,.3-10.217c-.019-1.584-.774-2.292-2.5-2.557-1.776.288-2.455,1.016-2.5,2.735a27.961,27.961,0,0,1-.032,3.265,3.316,3.316,0,0,0,2.207,4M28.4,28.478l-.351-.394a14.017,14.017,0,0,0-13.328-3.941A14.223,14.223,0,0,0,3.317,34.53a14.116,14.116,0,0,0,3.6,14.69l.4.346-.032-.021a3.392,3.392,0,0,0,1.2,1.2,15.033,15.033,0,0,0,21.792-3.686c3.873-5.937,3.027-14.239-1.895-18.606ZM43.995,2.559c-1.91.3-2.494,1-2.5,3.062q-.008,14.169,0,28.338c0,2.419,0,2.419-2.478,2.362Q39,24.1,38.983,11.885c0-2.048-.606-2.764-2.508-3.06-1.851.293-2.49,1.005-2.493,2.9-.012,6.411,0,12.821-.016,19.232a8.282,8.282,0,0,0,.406,2.6A17.192,17.192,0,0,1,29.1,52.086c-.884.743-.952,1.219-.347,2.13,1.543,2.32,3.345,4.572,2.722,7.678-.161.8.411.772.962.77q8.91-.036,17.821-.054c.937.017,1.877-.005,2.811.063.75.054,1.1-.213.95-.96-.505-2.581.835-4.4,2.333-6.29C61.783,48.554,67.1,41.6,72.462,34.676c.45-.581.976-1.139.549-1.955-.668-1.277-3.658-2.423-5.205-2.006-1.118.065-1.717.887-2.348,1.64-2.441,2.916-5.009,5.741-7.254,8.8a6.041,6.041,0,0,1-5.9,2.768c-3.314-.241-4.876,1.079-5.745,4.265-.36,1.319-1.342.579-2.01.644-.915.089-.514-.722-.455-1.13a7.679,7.679,0,0,1,6.322-6.3c1.193-.2,2.874.587,3.467-.442.565-.981.136-2.536.137-3.839,0-.259-.031-.519-.048-.778.016-8.317.046-16.634.036-24.951,0-1.6-.768-2.305-2.5-2.572-1.855.294-2.491,1-2.494,2.9q-.017,11.115,0,22.229c0,2.419,0,2.419-2.478,2.362-.011-.574-.032-1.148-.032-1.722q0-14.49-.005-28.98c0-2.048-.6-2.764-2.507-3.06M42.78,72.686c4.535,0,9.07-.03,13.6.024,1,.012,1.259-.257,1.108-1.226-.28-1.8-.494-3.613-.665-5.427-.073-.783-.467-.9-1.132-.895q-12.979.021-25.958,0c-.73,0-1,.242-1.073.962-.172,1.762-.378,3.523-.651,5.272-.156,1,.08,1.335,1.163,1.32,4.534-.062,9.069-.026,13.6-.026" fill="#040403"/>
        <path id="Trazado_819535" data-name="Trazado 819535" d="M53.975,36.348c.017.259.048.519.048.778,0,1.3.428,2.858-.137,3.839-.593,1.029-2.274.24-3.467.442A7.679,7.679,0,0,0,44.1,47.7c-.058.408-.459,1.219.456,1.13.668-.065,1.65.675,2.009-.644.869-3.186,2.431-4.506,5.745-4.265a6.042,6.042,0,0,0,5.9-2.767c2.245-3.061,4.813-5.886,7.255-8.8.63-.753,1.229-1.575,2.348-1.64,2.154,2.562,2.153,2.692-.011,5.51-.536.7-1.06,1.406-1.6,2.1-4.13,5.32-8.278,10.627-12.386,15.963-1.893,2.459-4.4,4.683-3.549,8.321q-8.91.025-17.821.054c-.551,0-1.123.03-.962-.77.624-3.106-1.179-5.358-2.721-7.678-.6-.911-.538-1.387.347-2.13a17.2,17.2,0,0,0,5.269-18.533,8.254,8.254,0,0,1-.407-2.6c.021-6.411,0-12.821.016-19.232,0-1.9.642-2.607,2.493-2.9q0,12.763.007,25.526c0,2,0,2.006,2.068,1.986.157,0,.313-.011.47-.016,2.477.057,2.477.057,2.477-2.362q0-14.169,0-28.338c0-2.062.586-2.76,2.495-3.062q0,15.9.007,31.792c0,2,0,2.006,2.068,1.986.156,0,.313-.011.469-.016,2.478.057,2.478.057,2.478-2.362q0-11.114.005-22.229c0-1.9.638-2.611,2.493-2.9,0,8.642.024,17.283-.015,25.924-.006,1.174.242,1.8,1.539,1.6a5.969,5.969,0,0,1,.936,0" fill="#f3d7aa"/>
        <path id="Trazado_819536" data-name="Trazado 819536" d="M42.78,72.686c-4.535,0-9.07-.036-13.6.026-1.083.015-1.319-.321-1.163-1.32.273-1.749.479-3.51.651-5.272.071-.72.343-.964,1.073-.962q12.979.032,25.958,0c.665,0,1.059.112,1.132.894.171,1.815.385,3.627.665,5.428.151.969-.111,1.238-1.108,1.226-4.534-.054-9.069-.024-13.6-.024" fill="#72a2fa"/>
        <path id="Trazado_819537" data-name="Trazado 819537" d="M6.917,49.221a14.118,14.118,0,0,1-3.6-14.69,14.22,14.22,0,0,1,11.4-10.387,14.017,14.017,0,0,1,13.329,3.941l.35.394-.02-.03c-.145,1.933.8,3.758.563,5.7H28.7a67.327,67.327,0,0,0-5.641-5.841c-.756-.773-1.486-.437-2.163.244-1.025,1.032-2.039,2.773-3.147,2.845-1.282.083-2.193-1.824-3.268-2.859a1.531,1.531,0,0,0-2.527.085q-2.229,2.306-4.537,4.535a1.5,1.5,0,0,0-.008,2.513c1.045,1.007,2.727,2.03,2.824,3.157.1,1.178-1.8,2.076-2.761,3.154a1.3,1.3,0,0,1-.108.114,1.413,1.413,0,0,0,0,2.387c1.2,1.161,2.366,2.356,3.546,3.536,2.343,2.344,2.343,2.344,4.718-.031,2.176-2.176,2.176-2.176,4.262.26A14.477,14.477,0,0,1,10.8,49.99a12.642,12.642,0,0,0-3.514-.444l.031.02-.4-.345" fill="#efd65d"/>
        <path id="Trazado_819538" data-name="Trazado 819538" d="M7.284,49.545a12.6,12.6,0,0,1,3.514.445,14.477,14.477,0,0,0,9.088-1.743c.2.16.41.307.592.483,1.556,1.505,1.753,1.509,3.256.016,1.029-1.022,2.047-2.056,3.078-3.075,2.65-2.619,2.3-2.276.268-4.618a14.36,14.36,0,0,0,1.865-6.906c.234-1.941-.708-3.766-.564-5.7,4.922,4.367,5.767,12.669,1.895,18.606A15.033,15.033,0,0,1,8.484,50.74a3.384,3.384,0,0,1-1.2-1.2" fill="#ecc72f"/>
        <path id="Trazado_819539" data-name="Trazado 819539" d="M50.261,62.61c-.848-3.638,1.656-5.862,3.549-8.32,4.108-5.337,8.256-10.644,12.386-15.964.54-.695,1.064-1.4,1.6-2.1,2.164-2.818,2.165-2.948.011-5.51,1.546-.417,4.536.73,5.2,2.006.428.816-.1,1.374-.549,1.955C67.1,41.6,61.783,48.554,56.355,55.423c-1.5,1.9-2.838,3.709-2.333,6.29.146.747-.2,1.014-.95.96-.934-.068-1.874-.046-2.811-.063" fill="#ecc079"/>
        <path id="Trazado_819540" data-name="Trazado 819540" d="M46.539,36.321c-.156.005-.313.014-.47.016C44,36.357,44,36.356,44,34.351q0-15.9-.008-31.792c1.9.3,2.507,1.012,2.508,3.06q.009,14.49,0,28.98c0,.574.022,1.148.033,1.722" fill="#eec27a"/>
        <path id="Trazado_819541" data-name="Trazado 819541" d="M39.019,36.321c-.156.005-.313.014-.469.016-2.066.02-2.067.019-2.068-1.986q0-12.762-.008-25.525c1.9.3,2.5,1.012,2.508,3.059q.027,12.219.037,24.436" fill="#eec27a"/>
        <path id="Trazado_819542" data-name="Trazado 819542" d="M53.975,36.348a5.969,5.969,0,0,0-.936,0c-1.3.2-1.545-.425-1.539-1.6.039-8.641.017-17.282.015-25.924,1.728.267,2.494.977,2.5,2.573.01,8.316-.02,16.633-.036,24.95" fill="#eec27a"/>
        <path id="Trazado_819543" data-name="Trazado 819543" d="M28.955,15.091c1.724.265,2.479.973,2.5,2.557a99.921,99.921,0,0,1-.3,10.216l-2.514-2.772c.476-.4.322-.954.323-1.453.01-2.849,0-5.7,0-8.548" fill="#ebbf79"/>
        <path id="Trazado_819544" data-name="Trazado 819544" d="M28.955,15.091c0,2.849.013,5.7,0,8.548,0,.5.153,1.052-.323,1.453a3.316,3.316,0,0,1-2.207-4,27.98,27.98,0,0,0,.033-3.266c.039-1.718.718-2.447,2.494-2.734" fill="#f1d5a8"/>
        <path id="Trazado_819545" data-name="Trazado 819545" d="M28.4,28.478l-.35-.394.35.394" fill="#ecc72f"/>
        <path id="Trazado_819546" data-name="Trazado 819546" d="M6.917,49.221l.4.345-.4-.345" fill="#ecc72f"/>
        <path id="Trazado_819547" data-name="Trazado 819547" d="M27.08,41.053c2.035,2.342,2.382,2-.268,4.618-1.031,1.019-2.049,2.052-3.077,3.075-1.5,1.493-1.7,1.488-3.256-.016-.183-.176-.394-.323-.592-.484-2.087-2.436-2.087-2.436-4.262-.26-2.375,2.375-2.375,2.375-4.719.031-1.18-1.18-2.346-2.375-3.545-3.536a1.413,1.413,0,0,1,0-2.387,1.143,1.143,0,0,0,.107-.113C8.43,40.9,10.329,40,10.228,38.826c-.1-1.127-1.778-2.15-2.824-3.156a1.5,1.5,0,0,1,.008-2.513q2.31-2.226,4.537-4.536a1.531,1.531,0,0,1,2.527-.085c1.075,1.035,1.987,2.942,3.268,2.859,1.108-.072,2.122-1.813,3.148-2.845.677-.681,1.407-1.017,2.163-.244A67.624,67.624,0,0,1,28.7,34.147c0,1.28-1.095,1.813-1.823,2.563-2.213,2.281-2.235,2.26.207,4.343m-13.716,5.6c.174-.152.374-.31.556-.489.668-.658,1.33-1.323,1.995-1.985,1.716-1.71,1.812-1.711,3.483-.052,2.861,2.842,2.835,2.819,5.585-.139.607-.652.472-.994-.083-1.5-.694-.63-1.333-1.32-1.994-1.986-1.56-1.57-1.563-1.741-.056-3.26.661-.666,1.279-1.384,2-1.98.784-.648.618-1.066-.032-1.725-2.672-2.706-2.648-2.729-5.362-.031l-.11.111c-1.554,1.539-1.77,1.543-3.274.052a18.53,18.53,0,0,1-1.755-1.78c-.8-1.049-1.366-.783-2.17.048-2.421,2.5-2.454,2.471-.015,4.919,1.982,1.989,1.982,1.989.047,3.929-2.491,2.5-2.5,2.5.056,5.006.321.315.557.762,1.13.86" fill="#040202"/>
        <path id="Trazado_819548" data-name="Trazado 819548" d="M27.08,41.054c-2.442-2.084-2.42-2.062-.207-4.343.728-.75,1.819-1.283,1.823-2.563h.249a14.349,14.349,0,0,1-1.865,6.906" fill="#ecd45b"/>
        <path id="Trazado_819549" data-name="Trazado 819549" d="M13.364,46.655c-.573-.1-.809-.545-1.13-.86-2.551-2.5-2.547-2.507-.056-5.006,1.935-1.94,1.935-1.94-.047-3.929-2.439-2.448-2.406-2.417.015-4.919.8-.831,1.369-1.1,2.17-.048a18.53,18.53,0,0,0,1.755,1.78c1.5,1.491,1.72,1.487,3.274-.052l.11-.111c2.714-2.7,2.69-2.675,5.362.031.65.659.816,1.077.032,1.725-.72.6-1.338,1.314-2,1.98-1.507,1.519-1.5,1.69.056,3.26.661.666,1.3,1.356,1.994,1.986.555.5.69.846.083,1.5-2.75,2.958-2.724,2.981-5.585.139-1.671-1.659-1.767-1.658-3.483.052-.665.662-1.327,1.327-1.995,1.985-.182.179-.382.337-.556.489" fill="#d7324f"/>
      </g>
    </g>
  </g>
</svg>
