<svg xmlns="http://www.w3.org/2000/svg" xmlns:xlink="http://www.w3.org/1999/xlink" width="124.001" height="124" viewBox="0 0 124.001 124">
  <defs>
    <clipPath id="clip-path">
      <rect id="Rect치ngulo_377513" data-name="Rect치ngulo 377513" width="72.96" height="72.983" fill="none"/>
    </clipPath>
  </defs>
  <g id="Grupo_1071713" data-name="Grupo 1071713" transform="translate(-736.93 -2136.256)">
    <g id="Grupo_1071491" data-name="Grupo 1071491" transform="translate(-0.07 78.256)">
      <g id="Grupo_159183" data-name="Grupo 159183" transform="translate(352.001)">
        <path id="Uni칩n_12" data-name="Uni칩n 12" d="M8464.769,11817.939a62.055,62.055,0,1,1,20.7-16.051l8.516,22.111Z" transform="translate(-7991 -9642)" fill="#a3bfe4"/>
        <circle id="Elipse_4842" data-name="Elipse 4842" cx="48" cy="48" r="48" transform="translate(399 2072)" fill="#fffbe5"/>
      </g>
    </g>
    <g id="Grupo_1071503" data-name="Grupo 1071503" transform="translate(763.52 2161.764)">
      <g id="Grupo_1071502" data-name="Grupo 1071502" transform="translate(0 0)" clip-path="url(#clip-path)">
        <path id="Trazado_819642" data-name="Trazado 819642" d="M35.325,2.94a12.977,12.977,0,0,1,20.7,6.691c.587,2.171.6,2.087,2.882,2.2,1.218.061,1.961-.312,2.257-1.46C61.9,7.525,63.7,6.639,66.543,7.046a39.413,39.413,0,0,0,5.433.054,3.4,3.4,0,0,1,.46.085c-.818,1.64-1.584,3.255-2.424,4.831A1.812,1.812,0,0,0,70,13.926c.831,1.542,1.581,3.127,2.481,4.927-3.222,0-6.269-.005-9.316.005-.545,0-.584-.464-.751-.774a30.249,30.249,0,0,1-1.363-2.759,1.658,1.658,0,0,0-1.841-1.2c-2.558.088-2.574.016-3.274,2.469a12.1,12.1,0,0,1-2.757,4.954c-.532.575-.61.94-.062,1.561a43.349,43.349,0,0,1,2.834,3.563c.544.761.99.75,1.8.362a10.556,10.556,0,1,1-4.124,15.464,10.386,10.386,0,0,1,.4-12.446,1.36,1.36,0,0,0-.058-2.163C53,26.793,52.132,25.6,51.2,24.461c-.219-.267-.359-.807-.886-.468-.382.246-.978.317-.9,1a6.656,6.656,0,0,1,0,.734c0,8.233.03,16.466-.031,24.7-.009,1.2.353,1.414,1.454,1.4q8.157-.081,16.317,0a5.829,5.829,0,0,1,5.7,4.8,5.916,5.916,0,0,1-3.5,6.461,7,7,0,0,1-2.869.486c-5.292-.009-10.585.018-15.877-.026-.927-.007-1.337.186-1.213,1.186a14.925,14.925,0,0,1,.015,2.056,5.877,5.877,0,0,1-6.18,6.184c-8.086.023-16.171.007-24.257.007-4.214,0-8.429.013-12.643,0C2.442,72.958.01,70.535.007,66.641Q-.007,37.68.007,8.718c0-3.895,2.435-6.3,6.331-6.327,2.3-.015,4.607-.026,6.91.011a1.476,1.476,0,0,0,1.526-.777,3.473,3.473,0,0,1,3.259-1.6c4.019.026,8.039.085,12.055-.02,2.4-.062,4.418.291,5.237,2.934M7.064,37.684q0,13.455,0,26.908c0,.733-.175,1.364,1.05,1.358q16.615-.085,33.23-.005c1.07,0,1-.5,1.036-1.234.045-.853-.132-1.207-1.1-1.171a17.961,17.961,0,0,1-5.261-.142,78.857,78.857,0,0,1-8.384-3.1,2.649,2.649,0,0,1-1.724-2.664,2.575,2.575,0,0,1,1.688-2.539c4.374-1.592,8.558-4.017,13.5-3.286,1.027.152,1.3-.217,1.291-1.259q-.071-11.688,0-23.379c.005-.948-.193-1.423-1.2-1.512a6.918,6.918,0,0,1-3.315-1.108c-1.244-.854-1.6.057-2.288.757-.909.928-.26,1.373.317,1.991A15.252,15.252,0,0,1,20.855,52.45c-6-1.68-9.84-5.634-11.085-11.719a14.382,14.382,0,0,1,5.859-15.283c5.1-3.795,10.659-4.063,16.325-1.19.753.383,1.251.629,1.747-.29.416-.769,1.4-1.222.279-2.37a11.605,11.605,0,0,1-3.35-8.669c.03-1.085-.409-1.148-1.26-1.141-3.773.034-7.548,0-11.322.022-1.021.005-2.163-.088-2.662-.942-.97-1.659-2.423-1.439-3.9-1.421A27.677,27.677,0,0,1,8.4,9.427c-1.1-.109-1.375.241-1.368,1.35.05,8.968.028,17.938.028,26.907m-4.705-.148q0,14.41,0,28.82c0,2.991,1.288,4.266,4.307,4.266,11.518,0,23.039-.108,34.554.05,5.435.074,6.057-1.689,5.853-6.171-.028-.633-.092-.917-.854-.969-1.172-.078-1.608.189-1.546,1.48.115,2.368-.689,3.253-2.722,3.255q-17.277.018-34.554,0c-1.817,0-2.683-.892-2.685-2.736Q4.7,37.665,4.715,9.8c0-1.819.889-2.681,2.716-2.7,1.91-.023,3.826-.081,5.732.022,1.166.063.911-.635.967-1.288.067-.766-.077-1.141-.994-1.112-2.153.071-4.312.02-6.469.023-3.02,0-4.306,1.273-4.307,4.266q0,14.262,0,28.527M51.293,11.8c3.195,0,3.195,0,2.014-2.836a10.569,10.569,0,1,0-.115,8.334c1.349-2.994,1.257-3.145-1.9-3.145a1.926,1.926,0,0,1-.293,0c-1.145-.179-1.755.171-2.245,1.379a5.635,5.635,0,0,1-6.428,3.2,5.894,5.894,0,0,1-4.662-5.518,5.829,5.829,0,0,1,4.347-5.9,5.479,5.479,0,0,1,6.574,2.822c.668,1.554,1.51,1.936,2.71,1.659m-26.6,17.728v-.081c.931,0,1.86,0,2.791,0,.406,0,.878-.013.743.572-.5,2.148.974,1.8,2.207,1.783.488-.008.983.046,1.466-.011.818-.1,1.079.186,1.066,1.033-.05,3.181-.027,6.363-.012,9.544,0,.374-.179.816.156,1.114.684.607,3.254-.12,3.613-1a12.931,12.931,0,1,0-24.443-1.29c.716,2.467.743,2.435,3.288,2.4.862-.011.931-.362.917-1.039-.032-1.615.04-3.234-.031-4.846-.04-.921.173-1.3,1.18-1.226,1.113.085,2.593.416,3.27-.143.8-.661.169-2.195.274-3.346s-.511-2.691.259-3.354c.643-.552,2.138-.112,3.255-.112M62.339,44.74a8.233,8.233,0,1,0-8.217-8.213,8.249,8.249,0,0,0,8.217,8.213M24.1,9.446V9.441c2.007,0,4.016.005,6.023,0,.46,0,.947.139,1.153-.561A17.628,17.628,0,0,1,32.725,5.84c.873-1.685.154-3.431-1.365-3.44-4.456-.026-8.913,0-13.369-.013-1.041,0-1.531.476-1.519,1.518.016,1.322.024,2.645,0,3.966-.023,1.122.5,1.6,1.607,1.582,2.007-.026,4.015-.007,6.023-.007m10.415,36.6H14.9a12.849,12.849,0,0,0,19.614,0M47.06,25.42c-.89.552-2.38-.391-2.369,1.531q.069,11.884-.005,23.766c-.005.95.3,1.114,1.156,1.113.889,0,1.253-.142,1.245-1.172-.051-6.895-.027-13.79-.027-20.685Zm2.381,28.735c-3.521,0-7.043.026-10.564-.018-.89-.011-1.294.132-1.264,1.167.027.928.225,1.23,1.21,1.225q10.565-.067,21.129-.007c.889,0,1.294-.132,1.264-1.167-.026-.928-.224-1.241-1.21-1.225-3.521.062-7.043.024-10.564.024M49.37,61.21c3.522,0,7.043-.022,10.564.016.861.008,1.332-.077,1.28-1.147-.043-.892-.169-1.251-1.189-1.244q-10.638.073-21.277,0c-.935-.005-1.13.277-1.128,1.152,0,.9.165,1.265,1.184,1.247,3.52-.069,7.042-.027,10.564-.027M63.533,57.6c0,3.834,0,3.834,3.619,3.607a3.525,3.525,0,0,0,.019-7.047c-3.638-.239-3.638-.239-3.638,3.44M46.808,11.8C45.7,9.779,44.166,9.073,42.473,9.626a3.534,3.534,0,0,0-2.451,3.737,3.588,3.588,0,0,0,3.2,3.13,3.144,3.144,0,0,0,3.409-2.338c-1.04,0-2.068-.065-3.085.018-.969.08-1.21-.262-1.229-1.214-.019-1.024.366-1.232,1.268-1.172,1.01.066,2.029.015,3.223.015M23.535,37.6c0,1.709.051,3.423-.02,5.129-.042.961.522.874,1.112.828.55-.043,1.294.325,1.276-.808q-.081-5.057,0-10.114c.015-.956-.522-.874-1.112-.827-.552.043-1.322-.328-1.275.808.067,1.659.018,3.321.018,4.983M35.2,60.65V54.709c-2.169.816-4.213,1.586-6.258,2.353-.324.123-.681.231-.65.665.023.339.316.455.6.56,2.087.78,4.174,1.562,6.312,2.364M30.59,38.917c0-1.318-.051-2.64.015-3.954.058-1.14-.733-.761-1.279-.8-.576-.04-1.137-.158-1.109.83.073,2.585.063,5.175.007,7.761-.026,1.139.734.753,1.28.8.6.054,1.163.121,1.1-.832-.077-1.265-.019-2.538-.019-3.807m-9.412,2.192c0-.487-.038-.978.009-1.46.065-.672-.259-.751-.846-.812-1.157-.12-1.731.165-1.53,1.458a8.678,8.678,0,0,1,.007,2.041c-.076.873.1,1.267,1.143,1.271,1.079.005,1.365-.357,1.226-1.332a8.209,8.209,0,0,1-.009-1.167M63.325,11.652c3.868.61,4.514.34,5.1-2.125-5.032-.121-4.036-.536-5.1,2.125m-.069,2.57c.969,2.632,1.2,2.724,5.183,2.148-1.054-2.7-.1-2.233-5.183-2.148" transform="translate(0 -0.001)" fill="#030303"/>
        <path id="Trazado_819643" data-name="Trazado 819643" d="M5.243,35.25c0-8.968.023-17.938-.028-26.908-.007-1.109.268-1.46,1.368-1.349a27.677,27.677,0,0,0,3.085.019c1.476-.019,2.929-.239,3.9,1.421.5.853,1.64.946,2.663.942,3.773-.018,7.548.012,11.321-.022.851-.007,1.29.057,1.26,1.141a11.616,11.616,0,0,0,3.35,8.669c1.122,1.148.136,1.6-.279,2.37-.5.919-.993.673-1.747.29-5.666-2.873-11.227-2.6-16.325,1.19A14.384,14.384,0,0,0,7.95,38.3c1.247,6.086,5.085,10.04,11.085,11.719A15.252,15.252,0,0,0,34.071,24.861c-.577-.618-1.226-1.064-.316-1.991.685-.7,1.044-1.611,2.287-.757a6.918,6.918,0,0,0,3.315,1.108c1.008.088,1.206.564,1.2,1.512q-.063,11.688,0,23.379c.005,1.041-.264,1.41-1.292,1.259-4.937-.731-9.122,1.694-13.494,3.286a2.573,2.573,0,0,0-1.689,2.538,2.651,2.651,0,0,0,1.724,2.666,78.966,78.966,0,0,0,8.384,3.1,17.917,17.917,0,0,0,5.261.14c.969-.035,1.145.32,1.1,1.172-.038.737.034,1.238-1.036,1.233q-16.613-.067-33.23.005c-1.225.007-1.05-.625-1.05-1.357q.006-13.453,0-26.908M19.269,14.071c2.055,0,4.111-.049,6.162.022.912.032,1.066-.34,1-1.108-.059-.652.2-1.315-.962-1.294-4.059.073-8.12.057-12.179.007-.908-.012-1.066.34-1,1.108.059.652-.2,1.349.965,1.292,2-.1,4.009-.027,6.014-.027m-.061,4.705c2.1,0,4.209-.059,6.309.024,1.056.043.909-.565.9-1.2-.008-.614.181-1.222-.892-1.206q-6.162.1-12.325,0c-1.054-.015-.909.567-.9,1.2.008.614-.183,1.252.892,1.2,2-.089,4.011-.026,6.015-.026m-4.4,35.3c-2.1,0-4.209.059-6.309-.026-1.06-.043-.905.571-.9,1.2s-.175,1.221.894,1.2q6.162-.1,12.325,0c1.056.016.9-.572.9-1.2s.179-1.251-.893-1.2c-2,.088-4.011.026-6.015.026m-.155,7.057c2.055,0,4.112-.061,6.162.024,1.056.045.911-.564.9-1.2-.009-.614.182-1.224-.892-1.206q-6.16.1-12.325,0c-1.052-.015-.909.565-.9,1.2.009.614-.183,1.252.893,1.206,2.051-.088,4.108-.026,6.161-.026M9.918,12.952c.206-.925-.073-1.311-1.1-1.265-.861.039-1.317.112-1.257,1.163.049.859.115,1.327,1.166,1.253.835-.058,1.477-.062,1.191-1.151m-.015,4.7c.2-.815.078-1.354-1.036-1.252-.772.07-1.426-.047-1.3,1.106.084.769-.042,1.435,1.109,1.3.749-.092,1.553.092,1.226-1.151" transform="translate(1.82 2.433)" fill="#e5cdb2"/>
        <path id="Trazado_819644" data-name="Trazado 819644" d="M1.748,36.314q0-14.264,0-28.527c0-2.992,1.287-4.26,4.307-4.264,2.158,0,4.316.047,6.469-.023.917-.031,1.062.345.994,1.11-.057.654.2,1.352-.967,1.29-1.906-.1-3.822-.046-5.732-.023C4.994,5.9,4.1,6.761,4.1,8.58q-.014,27.864,0,55.73c0,1.843.867,2.733,2.683,2.734q17.281.02,34.556,0c2.033,0,2.837-.886,2.722-3.255-.062-1.291.374-1.558,1.546-1.479.762.051.826.335.854.969.2,4.48-.418,6.243-5.853,6.169C29.1,69.292,17.576,69.4,6.057,69.4c-3.019,0-4.307-1.276-4.307-4.266q0-14.41,0-28.821" transform="translate(0.61 1.221)" fill="#f8e8a8"/>
        <path id="Trazado_819645" data-name="Trazado 819645" d="M42.77,11.186c-1.2.277-2.044-.107-2.712-1.661A5.476,5.476,0,0,0,33.486,6.7a5.83,5.83,0,0,0-4.348,5.9A5.9,5.9,0,0,0,33.8,18.116a5.633,5.633,0,0,0,6.428-3.2c.49-1.207,1.1-1.558,2.245-1.379a1.944,1.944,0,0,0,.294,0c3.159,0,3.251.151,1.9,3.146a10.591,10.591,0,1,1,.116-8.334c1.18,2.836,1.18,2.836-2.014,2.836" transform="translate(8.524 0.615)" fill="#e2e4e8"/>
        <path id="Trazado_819646" data-name="Trazado 819646" d="M21.646,23.127c-1.117,0-2.612-.438-3.255.113-.77.661-.154,2.2-.259,3.354s.53,2.683-.274,3.346c-.677.557-2.157.228-3.27.142-1.008-.077-1.221.3-1.18,1.228.071,1.612,0,3.23.031,4.844.013.677-.055,1.028-.917,1.04-2.546.034-2.571.065-3.288-2.4a12.925,12.925,0,1,1,24.443,1.291c-.36.881-2.929,1.608-3.613,1-.336-.3-.155-.741-.156-1.113-.015-3.182-.038-6.365.012-9.546.012-.847-.248-1.129-1.066-1.033-.483.057-.978,0-1.468.012-1.232.02-2.7.364-2.206-1.783.135-.585-.337-.575-.743-.573-.931.007-1.86,0-2.791,0v.08" transform="translate(3.047 6.4)" fill="#e3e5e9"/>
        <path id="Trazado_819647" data-name="Trazado 819647" d="M48.336,37.426a8.234,8.234,0,1,1,8.249-8.182,8.249,8.249,0,0,1-8.249,8.182M45.491,23.32a3.037,3.037,0,0,0-3,3c-.061,1.81-.046,3.626-.012,5.438.05,2.668,2.256,4.015,4.691,2.86,1.723-.818,3.417-1.694,5.122-2.547a3.121,3.121,0,0,0,0-5.763q-2.56-1.277-5.121-2.551a3.2,3.2,0,0,0-1.684-.44" transform="translate(14.003 7.314)" fill="#dfe1e5"/>
        <path id="Trazado_819648" data-name="Trazado 819648" d="M19.839,8.829c-2.007,0-4.016-.019-6.023.007-1.1.015-1.63-.46-1.607-1.581.027-1.322.018-2.645,0-3.968-.012-1.04.476-1.519,1.518-1.518,4.456.011,8.913-.012,13.37.015,1.519.008,2.237,1.754,1.364,3.44a17.534,17.534,0,0,0-1.448,3.037c-.206.7-.693.557-1.153.56-2.007.008-4.016,0-6.023,0Z" transform="translate(4.261 0.617)" fill="#bdda83"/>
        <path id="Trazado_819649" data-name="Trazado 819649" d="M30.661,34.136a12.849,12.849,0,0,1-19.614,0Z" transform="translate(3.856 11.914)" fill="#e2e4e8"/>
        <path id="Trazado_819650" data-name="Trazado 819650" d="M35.5,18.843V23.4c0,6.895-.024,13.79.027,20.685.008,1.031-.356,1.17-1.245,1.172-.861,0-1.162-.163-1.156-1.113q.065-11.882.005-23.766c-.011-1.922,1.479-.979,2.369-1.531" transform="translate(11.562 6.576)" fill="#f8e8a8"/>
        <path id="Trazado_819651" data-name="Trazado 819651" d="M39.711,40.15c3.521,0,7.043.038,10.564-.024.985-.018,1.184.3,1.21,1.225.03,1.033-.375,1.17-1.264,1.166q-10.565-.047-21.129.007c-.985.007-1.183-.3-1.21-1.224-.03-1.035.374-1.178,1.264-1.167,3.521.043,7.043.018,10.564.018" transform="translate(9.732 14.005)" fill="#bdda83"/>
        <path id="Trazado_819652" data-name="Trazado 819652" d="M39.637,45.987c-3.522,0-7.045-.042-10.566.027-1.019.019-1.182-.344-1.183-1.247,0-.876.193-1.157,1.126-1.152q10.638.063,21.277,0c1.02-.007,1.145.352,1.189,1.244.051,1.07-.42,1.155-1.28,1.145-3.521-.036-7.041-.015-10.563-.015" transform="translate(9.734 15.222)" fill="#7dbfe6"/>
        <path id="Trazado_819653" data-name="Trazado 819653" d="M47.1,43.61c0-3.679,0-3.679,3.638-3.44a3.525,3.525,0,0,1-.02,7.047c-3.618.227-3.618.227-3.618-3.607" transform="translate(16.438 13.99)" fill="#a9aeb9"/>
        <path id="Trazado_819654" data-name="Trazado 819654" d="M36.46,9.358c-1.194,0-2.212.051-3.223-.015-.9-.061-1.287.148-1.268,1.172.018.951.26,1.292,1.229,1.214,1.016-.082,2.045-.019,3.085-.019a3.145,3.145,0,0,1-3.409,2.339,3.592,3.592,0,0,1-3.2-3.131,3.536,3.536,0,0,1,2.453-3.735c1.693-.553,3.226.154,4.334,2.175" transform="translate(10.349 2.443)" fill="#df7e6c"/>
        <path id="Trazado_819655" data-name="Trazado 819655" d="M17.452,29.377c0-1.661.051-3.324-.018-4.983-.047-1.136.724-.765,1.275-.808.59-.047,1.128-.13,1.112.827q-.081,5.057,0,10.114c.018,1.133-.724.765-1.276.808-.59.046-1.152.132-1.112-.828.073-1.707.02-3.418.02-5.129" transform="translate(6.084 8.223)" fill="#f1d576"/>
        <path id="Trazado_819656" data-name="Trazado 819656" d="M27.88,46.5c-2.14-.8-4.225-1.584-6.313-2.364-.281-.105-.572-.223-.6-.56-.03-.436.328-.544.652-.665,2.045-.768,4.089-1.537,6.258-2.353Z" transform="translate(7.319 14.155)" fill="#a6abb6"/>
        <path id="Trazado_819657" data-name="Trazado 819657" d="M23.289,30.086c0,1.269-.058,2.543.019,3.807.058.954-.509.886-1.1.834-.546-.049-1.307.336-1.282-.8.058-2.586.066-5.176-.007-7.761-.028-.987.533-.87,1.11-.83.545.038,1.336-.341,1.279.8-.067,1.315-.016,2.636-.016,3.954" transform="translate(7.3 8.831)" fill="#f1d576"/>
        <path id="Trazado_819658" data-name="Trazado 819658" d="M16.321,31.067a8.208,8.208,0,0,0,.009,1.167c.139.974-.148,1.337-1.226,1.333-1.04-.005-1.218-.4-1.143-1.272a8.752,8.752,0,0,0-.007-2.041c-.2-1.294.372-1.578,1.53-1.458.587.061.911.14.846.812-.047.483-.009.973-.009,1.46" transform="translate(4.857 10.041)" fill="#f1d576"/>
        <path id="Trazado_819659" data-name="Trazado 819659" d="M46.941,9.212c1.063-2.66.067-2.246,5.1-2.125-.583,2.465-1.229,2.735-5.1,2.125" transform="translate(16.384 2.439)" fill="#bd9a75"/>
        <path id="Trazado_819660" data-name="Trazado 819660" d="M46.89,10.564c5.087-.085,4.129-.554,5.183,2.148-3.978.576-4.214.484-5.183-2.148" transform="translate(16.366 3.657)" fill="#bd9a75"/>
        <path id="Trazado_819661" data-name="Trazado 819661" d="M17.443,12.851c-2.006,0-4.015-.071-6.015.027-1.162.058-.905-.641-.963-1.292-.069-.768.088-1.12,1-1.108,4.059.051,8.121.067,12.179-.007,1.159-.02.9.643.962,1.294.07.768-.084,1.14-1,1.109-2.052-.071-4.108-.023-6.162-.023" transform="translate(3.648 3.654)"/>
        <path id="Trazado_819662" data-name="Trazado 819662" d="M17.378,16.338c-2.006,0-4.013-.063-6.015.026-1.075.047-.884-.591-.892-1.2-.009-.631-.154-1.213.9-1.2q6.162.093,12.325,0c1.072-.016.884.592.892,1.206.009.63.156,1.238-.9,1.2-2.1-.085-4.2-.026-6.308-.026" transform="translate(3.651 4.872)"/>
        <path id="Trazado_819663" data-name="Trazado 819663" d="M14.191,41.894c2.006,0,4.013.063,6.015-.026,1.072-.047.888.587.894,1.2s.158,1.215-.9,1.2q-6.162-.1-12.325,0c-1.07.016-.888-.588-.893-1.2s-.161-1.24.9-1.2c2.1.085,4.2.026,6.308.026" transform="translate(2.433 14.612)"/>
        <path id="Trazado_819664" data-name="Trazado 819664" d="M14.037,47.733c-2.055,0-4.112-.062-6.162.026-1.077.046-.882-.592-.892-1.206-.009-.63-.151-1.211.9-1.2q6.162.093,12.325,0c1.072-.016.882.592.892,1.206.009.631.154,1.24-.9,1.2-2.052-.085-4.108-.024-6.162-.024" transform="translate(2.433 15.83)"/>
        <path id="Trazado_819665" data-name="Trazado 819665" d="M9.312,11.733c.286,1.089-.356,1.093-1.191,1.151C7.07,12.958,7,12.49,6.955,11.631c-.059-1.051.4-1.124,1.257-1.163,1.027-.046,1.306.34,1.1,1.265" transform="translate(2.426 3.652)"/>
        <path id="Trazado_819666" data-name="Trazado 819666" d="M9.3,15.216c.326,1.242-.478,1.059-1.226,1.151-1.151.139-1.025-.527-1.109-1.3-.127-1.153.527-1.036,1.3-1.106,1.114-.1,1.238.437,1.036,1.252" transform="translate(2.425 4.869)"/>
        <path id="Trazado_819667" data-name="Trazado 819667" d="M44.888,22.712a3.18,3.18,0,0,1,1.685.438q2.562,1.271,5.121,2.551a3.121,3.121,0,0,1,0,5.763c-1.707.853-3.4,1.729-5.124,2.547-2.434,1.153-4.639-.192-4.691-2.86-.034-1.812-.047-3.628.012-5.439a3.035,3.035,0,0,1,3-3m-.664,5.812c0,.828-.008,1.658,0,2.486.013,1.037.491,1.3,1.411.838,1.609-.809,3.24-1.578,4.832-2.42,1.1-.581,1.075-1.1-.043-1.715-.9-.49-1.825-.923-2.739-1.381-3.648-1.829-3.506-2.076-3.464,2.192" transform="translate(14.606 7.924)" fill="#060505"/>
        <path id="Trazado_819668" data-name="Trazado 819668" d="M43.612,27.909c-.042-4.268-.182-4.021,3.464-2.192.915.459,1.841.892,2.739,1.381,1.12.611,1.143,1.133.043,1.715-1.592.842-3.222,1.611-4.831,2.42-.92.461-1.4.2-1.412-.838-.011-.828,0-1.658,0-2.486" transform="translate(15.218 8.539)" fill="#df7e6c"/>
      </g>
    </g>
  </g>
</svg>
