<svg xmlns="http://www.w3.org/2000/svg" xmlns:xlink="http://www.w3.org/1999/xlink" width="124.001" height="124" viewBox="0 0 124.001 124">
  <defs>
    <clipPath id="clip-path">
      <rect id="Rect치ngulo_377502" data-name="Rect치ngulo 377502" width="58.46" height="69.105" fill="none"/>
    </clipPath>
  </defs>
  <g id="Grupo_1071716" data-name="Grupo 1071716" transform="translate(-1089.5 -2401.805)">
    <g id="Grupo_1015241" data-name="Grupo 1015241" transform="translate(1.5 343.805)">
      <g id="Grupo_159184" data-name="Grupo 159184" transform="translate(703.001)">
        <path id="Uni칩n_12" data-name="Uni칩n 12" d="M8464.769,11817.939a62.055,62.055,0,1,1,20.7-16.051l8.516,22.111Z" transform="translate(-7991 -9642)" fill="#a3bfe4"/>
        <circle id="Elipse_4842" data-name="Elipse 4842" cx="48" cy="48" r="48" transform="translate(399 2072)" fill="#e3ecf7"/>
      </g>
    </g>
    <g id="Grupo_1071482" data-name="Grupo 1071482" transform="translate(1122.271 2424.252)">
      <g id="Grupo_1071481" data-name="Grupo 1071481" transform="translate(0 0)" clip-path="url(#clip-path)">
        <path id="Trazado_819524" data-name="Trazado 819524" d="M29.171,69.1q-13.493,0-26.986,0C.094,69.1-.08,68.924.023,66.892q1.116-22.1,2.221-44.2a2.978,2.978,0,0,1,.492-1.5c.924-1.486,1.812-3,2.7-4.5.438-.739.809-1.506,1.872-1.5.7,0,.406-.56.369-.9-.218-2.057-.437-4.113-.7-6.164C6.741,6.281,6.9,6.009,8.77,5.779Q14.323,5.1,19.884,4.484a2.562,2.562,0,0,0,1.793-.958A9.468,9.468,0,0,1,30.849.16,9.523,9.523,0,0,1,38.634,6.8,1.789,1.789,0,0,0,40.162,8.17c2.938.628,5.847,1.4,8.785,2.04,1.224.265,1.545.918,1.259,2.035-.088.347-.165.7-.247,1.048-.406,1.744-.409,1.765,1.306,1.907a1.784,1.784,0,0,1,1.472,1.011c1.026,1.739,2.077,3.465,3.128,5.188a2.589,2.589,0,0,1,.346,1.276q1.1,22.167,2.231,44.332c.094,1.867-.122,2.1-2.015,2.1q-13.627,0-27.256,0m-.082-2.37c8.543,0,17.086-.014,25.63.02,1.011,0,1.4-.17,1.316-1.315-.273-3.946-.418-7.9-.617-11.852-.481-9.519-.988-19.037-1.426-28.557-.056-1.239-.383-1.62-1.694-1.616-15.242.056-30.485.035-45.727.035-1.991,0-2.008,0-2.108,1.977-.674,13.335-1.327,26.671-2.039,40-.06,1.125.276,1.329,1.306,1.324,8.454-.037,16.907-.022,25.36-.022M13.7,21.079c2.889,0,2.89,0,2.213-2.784-.031-.131-.085-.256-.114-.387-.341-1.528-.119-1.88,1.435-2.253,3.006-.724,6-1.483,9.025-2.142.958-.21,1.222-.6,1.071-1.546-.255-1.593-.426-3.2-.571-4.809-.079-.878-.449-1.091-1.3-.985Q17.974,7.1,10.484,7.921c-.954.1-1.13.494-1.008,1.384.4,2.977.733,5.963,1.08,8.948.329,2.824.324,2.826,3.139,2.826m28.509,0c.9,0,1.795-.02,2.69.008.506.015.852-.082.98-.648.557-2.446,1.133-4.887,1.707-7.329.125-.534-.032-.824-.606-.955-4.1-.943-8.2-1.91-12.3-2.872-.269-.063-.557-.145-.65.225a6.561,6.561,0,0,0-.386,1.952c.026.346.614.069.946,0,1.688-.36,2-.162,2.42,1.56q.583,2.417,1.144,4.839c.748,3.219.745,3.219,4.054,3.219m-5.7,0c-.5-2.142-1.017-4.049-1.384-5.983-.208-1.1-.7-1.2-1.662-.954C28.847,15.3,24.217,16.384,19.6,17.517c-.568.139-1.606.011-1.167,1.091.369.907-.3,2.537,1.651,2.486,2.559-.068,5.12-.017,7.681-.017H36.5M24.68,3.87c.909-.085,1.444-.117,1.975-.188,1.7-.231,2.035.017,2.242,1.767.23,1.961.418,3.929.676,5.889.056.415-.125,1.094.5,1.177.705.093.954-.429,1.074-1.088.2-1.1.5-2.185.761-3.276.367-1.543.664-1.71,2.261-1.394a5.347,5.347,0,0,0,2.04.34C34.267,2.546,29.349,1.062,24.68,3.87M50.548,21.065c.616-.111,1.637.366,1.994-.248.306-.526-.59-1.184-.88-1.823-.091-.2-.255-.372-.335-.576-.326-.824-.975-.889-1.744-.863-.881.031-.785.731-.914,1.235-.576,2.272-.56,2.275,1.878,2.275m-43.565,0c.741-.035,1.775.272,1.4-1.039-.228-.79.21-2.113-.535-2.264-.688-.139-.938,1.218-1.434,1.877a.735.735,0,0,0-.073.113c-.174.389-.7.738-.438,1.167.205.333.742.1,1.083.147" transform="translate(0 0)" fill="#070605"/>
        <path id="Trazado_819525" data-name="Trazado 819525" d="M28.238,58.492c-8.452,0-16.906-.015-25.358.022-1.029,0-1.366-.2-1.306-1.324.711-13.333,1.363-26.67,2.037-40,.1-1.978.117-1.977,2.108-1.977,15.244,0,30.486.02,45.727-.035,1.31,0,1.639.377,1.694,1.616.438,9.52.943,19.039,1.424,28.557.2,3.951.344,7.906.62,11.852.077,1.145-.309,1.319-1.318,1.315-8.545-.034-17.088-.02-25.63-.02M35.969,27.17h-.008c0,.585.015,1.17,0,1.755a7.586,7.586,0,0,1-14.9,1.747c-.444-1.594-.174-3.221-.276-4.83a2.041,2.041,0,0,1,.986-2.1,3.4,3.4,0,0,0,.465-5.012,3.519,3.519,0,0,0-4.963-.3c-1.494,1.326-1.741,3.855-.14,4.992,1.35.958,1.323,2.045,1.289,3.335q-.025,1.079,0,2.159a9.953,9.953,0,0,0,19.727,1.625,25.3,25.3,0,0,0,.182-4.843,1.914,1.914,0,0,1,.907-1.869,3.412,3.412,0,0,0,.552-5.1,3.514,3.514,0,0,0-5.247-.011,3.42,3.42,0,0,0,.532,5.1,1.808,1.808,0,0,1,.9,1.872c-.043.491-.008.988-.008,1.483" transform="translate(0.852 8.242)" fill="#e6aa51"/>
        <path id="Trazado_819526" data-name="Trazado 819526" d="M10.372,18.915c-2.815,0-2.81,0-3.139-2.826-.347-2.983-.676-5.971-1.08-8.948-.122-.89.054-1.279,1.008-1.384q7.491-.824,14.966-1.748c.855-.106,1.225.106,1.3.985C23.576,6.6,23.747,8.209,24,9.8c.151.944-.113,1.338-1.073,1.546-3.019.659-6.017,1.418-9.023,2.142-1.554.375-1.776.725-1.435,2.253.029.131.083.256.114.387.677,2.784.676,2.784-2.213,2.784" transform="translate(3.324 2.163)" fill="#568bdf"/>
        <path id="Trazado_819527" data-name="Trazado 819527" d="M30.364,17.83c-3.309,0-3.306,0-4.054-3.219q-.562-2.421-1.142-4.839c-.415-1.722-.731-1.92-2.421-1.56-.33.069-.918.347-.944,0a6.509,6.509,0,0,1,.384-1.952c.093-.37.383-.289.65-.225,4.1.961,8.2,1.929,12.3,2.872.576.131.733.421.606.955-.573,2.441-1.15,4.883-1.705,7.329-.128.566-.475.664-.98.648-.9-.028-1.795-.008-2.691-.008" transform="translate(11.84 3.247)" fill="#9dd337"/>
        <path id="Trazado_819528" data-name="Trazado 819528" d="M30.053,16.138H21.314c-2.56,0-5.122-.051-7.681.017-1.954.051-1.282-1.579-1.651-2.486-.44-1.08.6-.952,1.167-1.091C17.766,11.445,22.4,10.359,27.007,9.2c.966-.242,1.454-.147,1.662.954.367,1.934.88,3.841,1.384,5.983" transform="translate(6.451 4.938)" fill="#cc547d"/>
        <path id="Trazado_819529" data-name="Trazado 819529" d="M33.524,14.887c-2.438,0-2.454,0-1.877-2.276.128-.5.031-1.2.914-1.233.767-.028,1.418.039,1.742.861.08.205.244.375.336.577.29.637,1.185,1.295.88,1.823-.358.613-1.38.137-2,.248" transform="translate(17.022 6.177)" fill="#7f683e"/>
        <path id="Trazado_819530" data-name="Trazado 819530" d="M4.932,14.817c-.341-.051-.878.187-1.083-.147-.265-.429.264-.778.438-1.167a.735.735,0,0,1,.073-.113c.5-.659.745-2.015,1.434-1.877.745.151.307,1.474.535,2.264.378,1.31-.656,1-1.4,1.039" transform="translate(2.051 6.249)" fill="#7e673e"/>
        <path id="Trazado_819531" data-name="Trazado 819531" d="M30.877,26.337c0-.5-.034-.992.008-1.485a1.8,1.8,0,0,0-.9-1.87,3.422,3.422,0,0,1-.535-5.1,3.517,3.517,0,0,1,5.248.012,3.413,3.413,0,0,1-.552,5.1,1.918,1.918,0,0,0-.909,1.869,25.05,25.05,0,0,1-.182,4.843,9.953,9.953,0,0,1-19.727-1.625q-.028-1.079,0-2.159c.032-1.29.06-2.377-1.29-3.335-1.6-1.137-1.352-3.667.14-4.992a3.516,3.516,0,0,1,4.963.3,3.4,3.4,0,0,1-.463,5.012,2.041,2.041,0,0,0-.988,2.1c.1,1.61-.168,3.235.276,4.83a7.587,7.587,0,0,0,14.906-1.747c.019-.585,0-1.17,0-1.755ZM14.746,20.36c.36-.048.8.535.9-.113a1.042,1.042,0,0,0-.994-1.187,1,1,0,0,0-1.247.9c.042,1.349,1.056-.211,1.341.4m18.486-.35a2.228,2.228,0,0,0-.216-.435,1.068,1.068,0,0,0-1.406-.426c-.444.205-.813.6-.691,1.045.2.738.727-.062,1.1.106a5.42,5.42,0,0,0,.77.2c.421.12.441-.145.441-.492" transform="translate(5.943 9.074)" fill="#060503"/>
        <path id="Trazado_819532" data-name="Trazado 819532" d="M13.879,19.537c-.285-.611-1.3.949-1.341-.4a1,1,0,0,1,1.245-.9,1.043,1.043,0,0,1,1,1.187c-.1.648-.54.065-.9.113" transform="translate(6.811 9.898)" fill="#725d38"/>
        <path id="Trazado_819533" data-name="Trazado 819533" d="M26.208,19.191c0,.347-.02.613-.441.492a5.42,5.42,0,0,1-.77-.2c-.375-.168-.9.631-1.1-.106-.122-.444.247-.84.691-1.045a1.068,1.068,0,0,1,1.406.426,2.228,2.228,0,0,1,.216.435" transform="translate(12.967 9.893)" fill="#705c38"/>
      </g>
    </g>
  </g>
</svg>
