<svg xmlns="http://www.w3.org/2000/svg" xmlns:xlink="http://www.w3.org/1999/xlink" width="124.001" height="124" viewBox="0 0 124.001 124">
  <defs>
    <clipPath id="clip-path">
      <rect id="Rect치ngulo_377504" data-name="Rect치ngulo 377504" width="66.126" height="73.817" fill="none"/>
    </clipPath>
  </defs>
  <g id="Grupo_1071718" data-name="Grupo 1071718" transform="translate(4343.5 9316.195)">
    <g id="Grupo_1071476" data-name="Grupo 1071476" transform="translate(-5080.5 -11374.195)">
      <g id="Grupo_159183" data-name="Grupo 159183" transform="translate(352.001)">
        <path id="Uni칩n_12" data-name="Uni칩n 12" d="M8464.769,11817.939a62.055,62.055,0,1,1,20.7-16.051l8.516,22.111Z" transform="translate(-7991 -9642)" fill="#a3bfe4"/>
        <circle id="Elipse_4842" data-name="Elipse 4842" cx="48" cy="48" r="48" transform="translate(399 2072)" fill="#fffbe5"/>
      </g>
    </g>
    <g id="Grupo_1071486" data-name="Grupo 1071486" transform="translate(-4314.563 -9290.408)">
      <g id="Grupo_1071485" data-name="Grupo 1071485" transform="translate(0 0)" clip-path="url(#clip-path)">
        <path id="Trazado_819550" data-name="Trazado 819550" d="M59.192,57.683a1.338,1.338,0,0,1-1.557,1.138C55.82,58.784,54,58.81,51.98,58.81c1.09,2.343,2.146,4.523,3.122,6.74a5.736,5.736,0,0,1-10.2,5.232,18.772,18.772,0,0,1-1.065-2.195,12.631,12.631,0,0,0-5.482-6.622,6.762,6.762,0,0,1-2.69-3.118c-.275-.588-.5-.617-1.165-.455A19.967,19.967,0,0,1,26.5,58.5c-1.7-.283-2.7-1.839-2.719-3.755-.032-2.688-.053-5.379.012-8.066.025-1.008-.273-1.326-1.284-1.288-1.966.075-3.936.02-5.906.023A8.06,8.06,0,0,1,12.326,44.4c-.274-.165-.516-.4-.914-.221-2.624,1.176-5.389.522-8.086.509A3.337,3.337,0,0,1,.135,41.357c-.1-4.943-.063-9.888-.067-14.833A1.135,1.135,0,0,1,1.055,25.3c.985.1,1.185.747,1.182,1.611-.007,3.134.019,6.269.034,9.4l-.048,4.313a1.747,1.747,0,0,0,1.9,2.013c1.679.026,3.358.019,5.036,0a1.693,1.693,0,0,0,1.867-1.762,24.681,24.681,0,0,0-.076-4.589c.026-5.716.066-11.431.067-17.146a1.7,1.7,0,0,0-1.91-1.858q-2.451,0-4.9,0a1.737,1.737,0,0,0-1.973,1.937c-.006.817-.024,1.635,0,2.451.028.854-.3,1.387-1.189,1.483-.384-.1-.82-.26-.851-.675-.145-1.944-.568-3.938.593-5.736a3.313,3.313,0,0,1,2.916-1.6c2.477.061,5-.483,7.421.422.6.223.645-.225.794-.531a8.864,8.864,0,0,1,3.513-3.712A10.127,10.127,0,0,0,19.377,6.86c.575-1.212,1.1-2.447,1.727-3.634a5.741,5.741,0,0,1,10.38,4.9c-.963,2.237-2.048,4.42-3.2,6.891h5.252c1.009,0,2.02-.033,3.028.009a4.565,4.565,0,0,1,3.986,6.8c-.354.674-.352.966.26,1.458a3.866,3.866,0,0,1,1.515,3.833c-.249,1.3.311,1.363,1.328,1.355,4.805-.037,9.61-.02,14.416-.016,4.586,0,6.553,2.942,4.721,7.1-.216.49-.046.619.248.912,2.007,1.992,2.308,3.561,1.078,6.056-.26.528-.128.7.222,1.039,2.364,2.315,2.4,4.94.026,7.111-.55.5-.414.756-.145,1.274a4.543,4.543,0,0,1-.776,5.554c-.683.67-1.349.893-2.113.16a1.443,1.443,0,0,1,.48-1.633,1.94,1.94,0,0,0,.741-2.117,2.064,2.064,0,0,0-1.949-2.08,1.75,1.75,0,0,1-1.534-1.083c.252-1.2,1.151-1.164,2.1-1.173a2.415,2.415,0,0,0,2.68-2.856A2.373,2.373,0,0,0,61.215,44.7c-.8,0-1.624.1-2.1-.774,0-.942.537-1.28,1.407-1.454,1.593-.318,2.094-1.057,2.015-2.69-.115-1.49-1.067-2.038-2.411-2.1-.761-.033-1.545.081-2.158-.531-.243-1.075.188-1.552,1.283-1.722a2.182,2.182,0,0,0,2.063-2.567c-.3-1.671-1.032-2.278-2.865-2.281q-8.769-.015-17.538,0c-.224,0-.483-.076-.663.2A2.61,2.61,0,0,0,40.885,32,4.725,4.725,0,0,1,39.3,37.4c-.51.4-.286.644-.088,1.044,1.272,2.571.7,4.747-1.673,6.325a1.169,1.169,0,0,0-.678,1.108c.049,2.963.054,5.927.075,8.891a5.982,5.982,0,0,0,3,5.665,13.673,13.673,0,0,1,5.434,6.326c.423.963.846,1.931,1.35,2.855a3.463,3.463,0,0,0,5.118,1.321c1.711-1.286,2.112-2.675,1.232-4.614-1.144-2.524-2.357-5.016-3.519-7.532-.7-1.507-.293-2.138,1.39-2.156,2.2-.024,4.407.008,6.61-.012.8-.008,1.412.212,1.636,1.061M37.6,41.3c.016-.121.031-.241.046-.362a2.242,2.242,0,0,0-2.125-2.548c-1.147-.17-1.47-.715-1.219-1.756.6-.531,1.336-.4,2.043-.446,1.366-.1,2.409-.6,2.507-2.173.026-1.61-.487-2.366-1.973-2.638-.94-.173-1.534-.515-1.431-1.569.514-.744,1.284-.678,2.055-.688,1.65-.02,2.344-.642,2.685-2.323-.2-1.8-1-2.54-2.89-2.545-.928,0-1.729-.069-1.919-1.194.265-.732.866-.9,1.56-1.049a2.073,2.073,0,0,0,1.915-2.124c.014-1.754-.737-2.628-2.416-2.65-3.017-.038-6.036,0-9.053-.017-1.831-.009-2.239-.656-1.469-2.317,1.147-2.471,2.342-4.919,3.461-7.4a3.367,3.367,0,0,0-1.372-4.676A3.439,3.439,0,0,0,23.094,4.1a15.279,15.279,0,0,0-.933,1.934,15.2,15.2,0,0,1-6.241,7.611,5.571,5.571,0,0,0-2.671,5.1q-.029,11.53-.06,23.06c.395,1.543,1.763,1.388,2.815,1.4,6.329.071,12.66.037,18.991.037a2.363,2.363,0,0,0,2.576-1.82Zm-2.845,9.218c0-1.3-.035-2.594.012-3.89.031-.817-.15-1.233-1.1-1.211-2.256.055-4.514.037-6.771.007-.732-.009-1.018.229-1.009.99.034,2.737,0,5.475.023,8.213a1.737,1.737,0,0,0,2,1.914c1.584-.017,3.17.016,4.754-.009,1.492-.025,2.051-.6,2.084-2.125.028-1.3.006-2.593.007-3.89" transform="translate(0 0.01)" fill="#070706"/>
        <path id="Trazado_819551" data-name="Trazado 819551" d="M58.267,50.2a1.938,1.938,0,0,1-.741,2.117,1.443,1.443,0,0,0-.48,1.633l-2.136.025c-.224-.85-.83-1.069-1.636-1.061-2.2.02-4.407-.011-6.61.012-1.684.018-2.087.648-1.39,2.156,1.162,2.515,2.375,5.008,3.519,7.532.88,1.939.479,3.327-1.232,4.614-2.078-.305-3.012-1.832-3.746-3.548-1.392-3.254-2.993-6.3-6.5-7.821a9.062,9.062,0,0,1-2.759-2.015c-.818-.827-.846-2.147-1.9-2.782-.021-2.963-.027-5.927-.076-8.891a1.168,1.168,0,0,1,.679-1.108c2.376-1.577,2.944-3.754,1.672-6.325-.2-.4-.422-.642.089-1.044A4.727,4.727,0,0,0,36.6,28.3c5.62,0,11.24.019,16.86-.019a6.691,6.691,0,0,1,3.574.882,2.183,2.183,0,0,1-2.064,2.567c-1.1.17-1.525.647-1.283,1.722-.623,1.238-.264,1.995,1.134,2.015a9.991,9.991,0,0,1,3.435.612c.079,1.634-.421,2.373-2.014,2.69-.871.174-1.41.511-1.409,1.454-.276.942-.6,2.081.838,2.143a22.166,22.166,0,0,1,3.889.648,2.414,2.414,0,0,1-2.68,2.856c-.949.009-1.848-.025-2.1,1.173-.916-.019-1.467.386-1.454,1.343s.751,1.229,1.47,1.211a9.113,9.113,0,0,1,3.468.609" transform="translate(4.281 3.716)" fill="#f4dacb"/>
        <path id="Trazado_819552" data-name="Trazado 819552" d="M2.149,34.315c-.014-3.135-.041-6.269-.033-9.4,0-.864-.2-1.507-1.182-1.61l-.01-2.143c.894-.1,1.219-.629,1.189-1.482-.027-.817-.009-1.634,0-2.452a1.736,1.736,0,0,1,1.973-1.936q2.452,0,4.9,0a1.7,1.7,0,0,1,1.91,1.858c0,5.716-.041,11.431-.066,17.146a14.714,14.714,0,0,1-8.68.023" transform="translate(0.121 2.009)" fill="#96ceb0"/>
        <path id="Trazado_819553" data-name="Trazado 819553" d="M22.416,66.379c-2.925-.059-4.435-2.2-3.5-4.97.321-.95.623-1.912,1.017-2.834A3.113,3.113,0,0,1,23.7,56.71a3.107,3.107,0,0,1,2.6,3.442,25.153,25.153,0,0,1-.821,4.075,2.989,2.989,0,0,1-3.054,2.152m1.624-5.77c.137-1.04-.028-1.578-.808-1.746a1.12,1.12,0,0,0-1.43.843c-.311.9-.644,1.8-.927,2.705a1.17,1.17,0,0,0,1.009,1.677c.889.2,1.5-.017,1.674-1.011.164-.938.363-1.871.481-2.468" transform="translate(2.45 7.438)" fill="#090808"/>
        <path id="Trazado_819554" data-name="Trazado 819554" d="M56.727,17.937a3,3,0,0,1-2.215,3.017,27.377,27.377,0,0,1-3.944.8,3.172,3.172,0,0,1-3.442-2.44A3.163,3.163,0,0,1,48.965,15.4c.923-.394,1.886-.7,2.84-1.019,2.778-.935,4.91.611,4.923,3.558M50.521,19.59c.937-.186,1.874-.385,2.815-.553.988-.178,1.412-.648,1.123-1.706s-.9-1.263-1.835-.944c-.86.293-1.722.582-2.576.89a1.089,1.089,0,0,0-.83,1.433,1.113,1.113,0,0,0,1.3.879" transform="translate(6.175 1.854)" fill="#080808"/>
        <path id="Trazado_819555" data-name="Trazado 819555" d="M15.666,51.471a3.457,3.457,0,0,1,3.269,1.859,2.89,2.89,0,0,1-.2,3.378,28.047,28.047,0,0,1-2.647,3.025,3.088,3.088,0,0,1-4.3.037c-1.636-1.37-2.133-3.1-1.086-4.539a13.574,13.574,0,0,1,3.969-3.472,3.152,3.152,0,0,1,1-.289M13.723,58.4a1.241,1.241,0,0,0,1.137-.506q.947-1.079,1.887-2.164a1.179,1.179,0,0,0-1.635-1.7c-.766.651-1.512,1.325-2.271,1.984a1.009,1.009,0,0,0-.35,1.278A1.9,1.9,0,0,0,13.723,58.4" transform="translate(1.334 6.764)" fill="#090808"/>
        <path id="Trazado_819556" data-name="Trazado 819556" d="M50.961,9.433c-.008,2.121-4.062,5.656-6.148,5.359A3.366,3.366,0,0,1,42.6,9.4c.672-.875,1.429-1.686,2.166-2.509A3.11,3.11,0,0,1,48.4,5.906a4.119,4.119,0,0,1,2.562,3.528M45.219,12.6c.669.02,3.555-2.462,3.572-3.107.02-.721-.525-1.112-1.027-1.461a.936.936,0,0,0-1.3.206q-1.1,1.23-2.171,2.492a.945.945,0,0,0-.113,1.2,1.231,1.231,0,0,0,1.036.673" transform="translate(5.505 0.746)" fill="#080808"/>
        <path id="Trazado_819557" data-name="Trazado 819557" d="M11.009,44.313a3.192,3.192,0,0,1,3.179,2.769,3.091,3.091,0,0,1-1.771,3.559,30.438,30.438,0,0,1-3.8,1.3A3.087,3.087,0,0,1,4.777,49.6c-.653-2.083-.016-3.713,1.73-4.426a30.214,30.214,0,0,1,4.5-.864m1.016,3.11c-.094-.636-.515-1.09-1.436-.909-.895.175-1.8.311-2.685.518-1.294.3-1.765,1.465-.824,2.354,1.291,1.219,2.463-.284,3.7-.454a1.249,1.249,0,0,0,1.24-1.51" transform="translate(0.595 5.823)" fill="#090808"/>
        <path id="Trazado_819558" data-name="Trazado 819558" d="M42.434,3.714a16.607,16.607,0,0,1-1.68,4.678,3.137,3.137,0,0,1-3.942,1.1,3.119,3.119,0,0,1-2.069-3.258A31.22,31.22,0,0,1,35.5,2.3,3.184,3.184,0,0,1,39.173.051c2.1.365,3.278,1.583,3.261,3.663M36.9,6.229a1.07,1.07,0,0,0,.819,1.257,1.045,1.045,0,0,0,1.426-.6c.385-1.032.74-2.074,1.076-3.122a1.025,1.025,0,0,0-.833-1.406c-.706-.2-1.524-.374-1.8.576-.318,1.1-.476,2.245-.689,3.295" transform="translate(4.562 0)" fill="#080808"/>
        <path id="Trazado_819559" data-name="Trazado 819559" d="M33.848,22.742c.19,1.125.991,1.191,1.919,1.194,1.891,0,2.685.74,2.89,2.545a6.3,6.3,0,0,1-3.391.9c-1.489-.052-1.872.622-1.349,2.111-.1,1.056.492,1.4,1.431,1.57,1.487.273,2,1.028,1.973,2.638a9.032,9.032,0,0,1-3.332.615c-1.447.01-1.809.713-1.219,2-.25,1.041.071,1.586,1.219,1.755a2.243,2.243,0,0,1,2.125,2.549c-.033.034-.093.069-.092.1a1.369,1.369,0,0,0,.046.259l-.031.118c-1.157-.192-2.193.434-3.363.421-7.006-.076-14.012-.037-21.019-.038l.061-23.06c.539-.062.61-.552.818-.91a7.489,7.489,0,0,1,3.24-3.159,13.5,13.5,0,0,0,6.975-7.971,5.6,5.6,0,0,1,3.723-3.877,3.369,3.369,0,0,1,1.372,4.677c-1.119,2.482-2.314,4.932-3.46,7.4-.772,1.661-.363,2.309,1.467,2.318,3.017.014,6.036-.021,9.053.016,1.679.021,2.43.9,2.416,2.651a8.121,8.121,0,0,1-3.351.612c-.723-.027-1.483.212-1.536,1.159s.475,1.4,1.412,1.4" transform="translate(1.532 0.33)" fill="#f5dbcc"/>
        <path id="Trazado_819560" data-name="Trazado 819560" d="M31.747,45.254c0,1.3.021,2.594-.007,3.89-.033,1.529-.591,2.1-2.083,2.125-1.585.025-3.17-.008-4.755.009a1.738,1.738,0,0,1-2-1.914c-.025-2.738.012-5.476-.021-8.213-.01-.761.277-1,1.009-.99,2.257.031,4.515.049,6.771-.007.945-.023,1.126.394,1.1,1.211-.048,1.3-.014,2.593-.014,3.89" transform="translate(3.007 5.277)" fill="#c95667"/>
        <path id="Trazado_819561" data-name="Trazado 819561" d="M2.012,32.108a14.714,14.714,0,0,0,8.68-.023,24.692,24.692,0,0,1,.075,4.59A1.693,1.693,0,0,1,8.9,38.436c-1.679.017-3.358.024-5.037,0a1.746,1.746,0,0,1-1.9-2.013q.022-2.155.046-4.313" transform="translate(0.258 4.217)" fill="#7aa994"/>
        <path id="Trazado_819562" data-name="Trazado 819562" d="M32.648,48.417c1.05.635,1.077,1.955,1.9,2.782A9.048,9.048,0,0,0,37.3,53.214c3.512,1.526,5.112,4.569,6.5,7.823.733,1.715,1.667,3.241,3.746,3.547a3.464,3.464,0,0,1-5.12-1.321c-.5-.923-.925-1.892-1.349-2.855a13.673,13.673,0,0,0-5.434-6.326,5.982,5.982,0,0,1-3-5.665" transform="translate(4.289 6.363)" fill="#e9c4b7"/>
        <path id="Trazado_819563" data-name="Trazado 819563" d="M26.468,2.568c-2.021.542-3.057,2.1-3.725,3.877a13.5,13.5,0,0,1-6.974,7.971,7.479,7.479,0,0,0-3.241,3.159c-.207.356-.278.846-.818.91a5.571,5.571,0,0,1,2.67-5.1,15.205,15.205,0,0,0,6.242-7.611,15.132,15.132,0,0,1,.933-1.934,3.439,3.439,0,0,1,4.913-1.276" transform="translate(1.539 0.268)" fill="#ebc7ba"/>
        <path id="Trazado_819564" data-name="Trazado 819564" d="M11.658,37.006c7.007,0,14.012-.038,21.018.038,1.17.012,2.205-.614,3.363-.421a2.363,2.363,0,0,1-2.577,1.82c-6.33,0-12.659.034-18.988-.037-1.053-.012-2.42.143-2.815-1.4" transform="translate(1.532 4.808)" fill="#eec8bb"/>
        <path id="Trazado_819565" data-name="Trazado 819565" d="M56.644,29.323a6.7,6.7,0,0,0-3.573-.882c-5.621.038-11.241.018-16.861.019a2.609,2.609,0,0,1-.631-1.213c.179-.281.439-.2.663-.2q8.769-.007,17.537,0c1.834,0,2.569.61,2.866,2.281" transform="translate(4.675 3.553)" fill="#e8c3b6"/>
        <path id="Trazado_819566" data-name="Trazado 819566" d="M31.435,20.76c-.937,0-1.465-.444-1.412-1.4s.813-1.186,1.536-1.159a8.121,8.121,0,0,0,3.351-.612A2.072,2.072,0,0,1,33,19.712c-.694.146-1.3.317-1.56,1.049" transform="translate(3.945 2.312)" fill="#e9c4b7"/>
        <path id="Trazado_819567" data-name="Trazado 819567" d="M55.857,48.023a9.113,9.113,0,0,0-3.468-.609c-.718.018-1.456-.264-1.47-1.211s.537-1.362,1.454-1.343a1.75,1.75,0,0,0,1.534,1.083,2.064,2.064,0,0,1,1.949,2.08" transform="translate(6.691 5.895)" fill="#ebc5b8"/>
        <path id="Trazado_819568" data-name="Trazado 819568" d="M30.35,32.7c-.591-1.29-.229-1.994,1.22-2a9.008,9.008,0,0,0,3.331-.617c-.1,1.574-1.142,2.076-2.507,2.173-.707.05-1.445-.085-2.043.446" transform="translate(3.953 3.953)" fill="#e8c3b6"/>
        <path id="Trazado_819569" data-name="Trazado 819569" d="M31.358,26.706c-.524-1.49-.14-2.164,1.349-2.111a6.3,6.3,0,0,0,3.391-.9c-.339,1.681-1.035,2.3-2.685,2.324-.77.009-1.541-.058-2.055.687" transform="translate(4.091 3.114)" fill="#ebc5b8"/>
        <path id="Trazado_819570" data-name="Trazado 819570" d="M55.842,35.475a9.991,9.991,0,0,0-3.435-.612c-1.4-.02-1.757-.778-1.134-2.016.613.612,1.4.5,2.158.532,1.344.059,2.3.606,2.411,2.1" transform="translate(6.699 4.317)" fill="#eec8bb"/>
        <path id="Trazado_819571" data-name="Trazado 819571" d="M57.007,41.623a22.16,22.16,0,0,0-3.89-.647c-1.438-.063-1.113-1.2-.837-2.144.473.87,1.3.77,2.1.774a2.373,2.373,0,0,1,2.631,2.017" transform="translate(6.838 5.103)" fill="#ebc5b8"/>
        <path id="Trazado_819572" data-name="Trazado 819572" d="M33.239,36.556a1.466,1.466,0,0,1-.046-.259c0-.034.059-.068.092-.1-.015.12-.031.241-.045.361" transform="translate(4.362 4.757)" fill="#eec8bb"/>
        <path id="Trazado_819573" data-name="Trazado 819573" d="M23.792,60.35c-.118.6-.317,1.53-.481,2.468-.175.994-.785,1.208-1.674,1.011a1.17,1.17,0,0,1-1.009-1.677c.283-.91.615-1.8.927-2.705a1.12,1.12,0,0,1,1.43-.843c.78.167.945.706.808,1.746" transform="translate(2.698 7.696)" fill="#c85666"/>
        <path id="Trazado_819574" data-name="Trazado 819574" d="M50.269,19.341a1.113,1.113,0,0,1-1.3-.879,1.089,1.089,0,0,1,.83-1.433c.854-.309,1.716-.6,2.576-.89.935-.319,1.55-.1,1.835.944s-.136,1.529-1.123,1.706c-.941.169-1.878.368-2.815.553" transform="translate(6.426 2.103)" fill="#91c7aa"/>
        <path id="Trazado_819575" data-name="Trazado 819575" d="M13.464,58.142a1.9,1.9,0,0,1-1.231-1.107,1.009,1.009,0,0,1,.35-1.278c.759-.66,1.5-1.334,2.271-1.984a1.179,1.179,0,0,1,1.635,1.7q-.939,1.086-1.887,2.164a1.241,1.241,0,0,1-1.137.506" transform="translate(1.593 7.019)" fill="#c85666"/>
        <path id="Trazado_819576" data-name="Trazado 819576" d="M44.973,12.347a1.228,1.228,0,0,1-1.036-.673.942.942,0,0,1,.113-1.195q1.069-1.261,2.171-2.494a.935.935,0,0,1,1.3-.2c.5.348,1.048.739,1.028,1.46-.017.646-2.9,3.127-3.572,3.107" transform="translate(5.752 1)" fill="#91c7aa"/>
        <path id="Trazado_819577" data-name="Trazado 819577" d="M11.786,47.172a1.249,1.249,0,0,1-1.24,1.51c-1.241.17-2.413,1.672-3.7.454-.941-.889-.471-2.052.824-2.354.887-.207,1.79-.343,2.685-.518.921-.181,1.342.273,1.436.909" transform="translate(0.834 6.074)" fill="#c85666"/>
        <path id="Trazado_819578" data-name="Trazado 819578" d="M36.647,5.974c.213-1.05.371-2.195.689-3.295.275-.95,1.093-.775,1.8-.576a1.025,1.025,0,0,1,.833,1.406c-.336,1.048-.691,2.09-1.076,3.122a1.045,1.045,0,0,1-1.426.6,1.07,1.07,0,0,1-.819-1.257" transform="translate(4.815 0.256)" fill="#91c7aa"/>
      </g>
    </g>
  </g>
</svg>
