<svg xmlns="http://www.w3.org/2000/svg" xmlns:xlink="http://www.w3.org/1999/xlink" width="124.001" height="124" viewBox="0 0 124.001 124">
  <defs>
    <clipPath id="clip-path">
      <rect id="Rect치ngulo_377500" data-name="Rect치ngulo 377500" width="92" height="78.815" fill="none"/>
    </clipPath>
  </defs>
  <g id="Grupo_1071714" data-name="Grupo 1071714" transform="translate(-386.5 -2401.805)">
    <g id="Grupo_1013405" data-name="Grupo 1013405" transform="translate(1.5 343.805)">
      <g id="Grupo_159182" data-name="Grupo 159182" transform="translate(0.001)">
        <path id="Uni칩n_12" data-name="Uni칩n 12" d="M8464.769,11817.939a62.055,62.055,0,1,1,20.7-16.051l8.516,22.111Z" transform="translate(-7991 -9642)" fill="#a3bfe4"/>
        <circle id="Elipse_4842" data-name="Elipse 4842" cx="48" cy="48" r="48" transform="translate(399 2072)" fill="#e3ecf7"/>
      </g>
    </g>
    <g id="Grupo_1071478" data-name="Grupo 1071478" transform="translate(402.5 2424.396)">
      <g id="Grupo_1071477" data-name="Grupo 1071477" transform="translate(0 0)" clip-path="url(#clip-path)">
        <path id="Trazado_819498" data-name="Trazado 819498" d="M68.141,63.01c-5.076,0-10.153.016-15.229-.016a5.063,5.063,0,0,0-2.694.715q-12.21,7.1-24.46,14.12c-2.836,1.632-4,1.314-5.646-1.521-2.329-4.023-4.684-8.031-6.965-12.078-.494-.875-1.007-1.386-2.065-1.237a11.637,11.637,0,0,1-1.788.014c-2.572-.036-3.949-1.175-3.658-3.733.665-5.818-1-10.815-4.29-15.551C-.841,40.583-.422,39.3,3.031,37.552A4.152,4.152,0,0,0,5.641,33c-.216-4.168-.074-8.356-.058-12.535.011-2.727,1.068-3.782,3.805-3.783q14.065-.016,28.127.009a5.423,5.423,0,0,0,2.872-.764Q53.369,8.383,66.39.9c2.617-1.51,3.924-1.177,5.424,1.406,2.513,4.328,5.047,8.645,7.491,13.013a2.329,2.329,0,0,0,2.373,1.388c5.513-.04,5.955.223,5.647,5.761a19.44,19.44,0,0,0,3.42,12.754c2.06,2.967,1.614,4.272-1.569,5.949a3.03,3.03,0,0,0-1.819,3.219c.11,4.715.041,9.433.038,14.151,0,3.676-.811,4.466-4.565,4.468H68.141m-21.77-43.45c-12.008,0-24.017.022-36.023-.031-1.422-.005-1.948.277-1.941,1.841q.1,18.457.005,36.914c-.007,1.49.4,1.894,1.889,1.893q36.2-.07,72.407-.007c1.35,0,1.848-.271,1.841-1.752q-.092-18.546,0-37.094c.005-1.409-.376-1.8-1.792-1.8-12.127.056-24.254.032-36.382.032M45.638,16.2a4.553,4.553,0,0,0,4.289-.241c3.731-2.241,7.538-4.353,11.282-6.571,1.253-.742,2.171-.891,3.176.483A3.651,3.651,0,0,0,69.162,11.1c1.454-.631,2.211-.149,2.867,1.1.69,1.317,1.5,2.572,2.225,3.875a1.355,1.355,0,0,0,1.871.536c.9-.433.02-1.008-.21-1.415-2.108-3.737-4.292-7.434-6.393-11.174C69,3.095,68.556,2.91,67.594,3.5c-2.646,1.612-5.358,3.117-8.043,4.666Q52.593,12.179,45.638,16.2M15.86,63.213c2.135,3.7,4.3,7.315,6.316,11.016.753,1.38,1.326,1.682,2.791.809,6.345-3.783,12.772-7.427,19.165-11.131.331-.192.8-.252.915-.807a6.991,6.991,0,0,0-4.918.893c-3.081,1.925-6.289,3.643-9.416,5.493-1.2.712-2.119.812-3.025-.509a3.785,3.785,0,0,0-4.105-1.548c-2.75.55-2.745.577-4.161-1.858a10.4,10.4,0,0,1-.7-1.244c-.519-1.287-1.42-1.612-2.858-1.114M54.908,16.354c.049.117.1.234.147.35,4.937,0,9.877.009,14.814-.016.386,0,1.025.325,1.127-.41.106-.766-1.355-2.153-2.135-2.042a7.07,7.07,0,0,1-5.831-1.612c-.37-.313-.67-.608-1.237-.27-2.279,1.359-4.589,2.669-6.886,4M21.528,63.088c.25,1.222.7,1.686,1.884,1.476A6.591,6.591,0,0,1,28.9,66.082c.4.331.717.746,1.375.342,1.734-1.064,3.516-2.053,5.734-3.336Zm-16-23.973c-.875,1.12-2.568.861-2.191,2.225a8.2,8.2,0,0,0,2.191,3.532Zm81.8-3.737c0,.9-.009,1.639,0,2.382.007.342-.09.829.35.888a1.807,1.807,0,0,0,.965-.381c.392-.226.365-.564.128-.906-.422-.613-.57-1.418-1.447-1.983" transform="translate(0 0)" fill="#080805"/>
        <path id="Trazado_819499" data-name="Trazado 819499" d="M42.641,10.9c12.127,0,24.256.023,36.384-.032,1.415-.005,1.8.386,1.788,1.8q-.078,18.546,0,37.094c.009,1.481-.489,1.754-1.839,1.752q-36.205-.054-72.407.007c-1.494,0-1.9-.4-1.891-1.891q.089-18.46,0-36.916c-.005-1.564.519-1.846,1.939-1.841,12.008.052,24.017.031,36.025.031m.219,1.9c-9.379,0-18.757.02-28.136-.02-1.521-.005-2.468.252-2.626,2.067A3.658,3.658,0,0,1,8.678,18.2c-1.389.169-2,.723-2,2.159.038,7.227.025,14.454.009,21.682a1.72,1.72,0,0,0,1.727,2.006c2.2.3,3.478,1.461,3.7,3.512.169,1.6.958,1.966,2.362,1.965q28.317-.027,56.632,0c1.436,0,2.187-.446,2.358-1.99A3.637,3.637,0,0,1,76.811,44.1c1.8-.169,2.092-1.086,2.081-2.617q-.07-10.3.005-20.607c.014-1.641-.365-2.534-2.205-2.716A3.422,3.422,0,0,1,73.507,15c-.191-1.81-1.021-2.247-2.691-2.236-9.318.058-18.637.027-27.956.027" transform="translate(3.729 8.662)" fill="#adc94c"/>
        <path id="Trazado_819500" data-name="Trazado 819500" d="M25.391,14.795,39.3,6.759c2.685-1.549,5.4-3.054,8.045-4.666.96-.586,1.4-.4,1.925.53,2.1,3.74,4.285,7.438,6.4,11.174.228.406,1.111.981.21,1.415a1.355,1.355,0,0,1-1.871-.536c-.723-1.3-1.537-2.558-2.227-3.875-.656-1.253-1.411-1.734-2.865-1.1a3.652,3.652,0,0,1-4.779-1.231c-1-1.375-1.921-1.226-3.176-.483-3.744,2.218-7.551,4.33-11.28,6.571a4.557,4.557,0,0,1-4.29.241" transform="translate(20.246 1.401)" fill="#a2bd48"/>
        <path id="Trazado_819501" data-name="Trazado 819501" d="M8.824,35.267c1.438-.5,2.338-.171,2.858,1.116a10.378,10.378,0,0,0,.7,1.242c1.416,2.437,1.411,2.408,4.161,1.858a3.786,3.786,0,0,1,4.105,1.549c.906,1.319,1.823,1.22,3.025.509,3.127-1.851,6.336-3.568,9.416-5.493a6.992,6.992,0,0,1,4.918-.9c-.115.555-.584.615-.915.807-6.391,3.7-12.821,7.348-19.164,11.131-1.467.875-2.04.572-2.793-.809-2.015-3.7-4.181-7.317-6.316-11.016" transform="translate(7.036 27.944)" fill="#a3be49"/>
        <path id="Trazado_819502" data-name="Trazado 819502" d="M30.549,10.94c2.3-1.33,4.607-2.64,6.888-4C38,6.6,38.3,6.9,38.671,7.21A7.07,7.07,0,0,0,44.5,8.822c.78-.111,2.241,1.276,2.135,2.042-.1.735-.741.408-1.127.41-4.937.025-9.875.016-14.814.016-.049-.117-.1-.234-.147-.35" transform="translate(24.359 5.414)" fill="#bdd95b"/>
        <path id="Trazado_819503" data-name="Trazado 819503" d="M11.978,35.1H26.461c-2.22,1.283-4,2.272-5.735,3.336-.658.4-.969-.013-1.373-.342a6.593,6.593,0,0,0-5.493-1.519c-1.184.21-1.632-.253-1.882-1.476" transform="translate(9.551 27.987)" fill="#c8e560"/>
        <path id="Trazado_819504" data-name="Trazado 819504" d="M4.071,21.762v5.755a8.189,8.189,0,0,1-2.193-3.532c-.376-1.362,1.317-1.1,2.193-2.223" transform="translate(1.455 17.352)" fill="#a0ba47"/>
        <path id="Trazado_819505" data-name="Trazado 819505" d="M48.583,19.683c.877.564,1.024,1.37,1.447,1.983.237.342.264.679-.128.906a1.807,1.807,0,0,1-.965.381c-.44-.059-.343-.546-.35-.888-.013-.742,0-1.486,0-2.382" transform="translate(38.737 15.694)" fill="#889f3e"/>
        <path id="Trazado_819506" data-name="Trazado 819506" d="M41.972,11.95c9.319,0,18.637.031,27.956-.027,1.67-.009,2.5.428,2.689,2.236A3.428,3.428,0,0,0,75.8,17.322c1.841.182,2.22,1.073,2.205,2.714q-.094,10.3-.005,20.607c.009,1.531-.28,2.45-2.083,2.617A3.636,3.636,0,0,0,72.576,46.7c-.171,1.546-.922,1.993-2.358,1.991q-28.317-.035-56.632,0c-1.4,0-2.193-.37-2.362-1.965-.217-2.051-1.494-3.216-3.7-3.514A1.719,1.719,0,0,1,5.8,41.2c.014-7.227.025-14.454-.009-21.682-.007-1.436.606-1.988,2-2.157A3.652,3.652,0,0,0,11.207,14c.162-1.814,1.109-2.072,2.63-2.065,9.379.038,18.757.018,28.136.018m.142,2.865c-8.78,0-17.562.016-26.342-.02-1.107,0-1.833.119-2.258,1.366a5.864,5.864,0,0,1-3.73,3.632,1.488,1.488,0,0,0-1.129,1.7q.049,8.87,0,17.738A1.349,1.349,0,0,0,9.7,40.794a6.27,6.27,0,0,1,3.947,3.9,1.483,1.483,0,0,0,1.695,1.129q26.521-.027,53.042,0c.861,0,1.409-.129,1.74-1.084a6.336,6.336,0,0,1,3.915-3.934,1.358,1.358,0,0,0,1.1-1.506q-.054-8.956,0-17.916a1.365,1.365,0,0,0-1.06-1.551A5.824,5.824,0,0,1,70.3,16.253c-.451-1.337-1.213-1.461-2.382-1.456-8.6.034-17.2.018-25.8.018" transform="translate(4.619 9.506)" fill="#070804"/>
        <path id="Trazado_819507" data-name="Trazado 819507" d="M40.844,13.541c8.6,0,17.2.016,25.8-.018,1.168-.005,1.93.119,2.382,1.456a5.824,5.824,0,0,0,3.778,3.579,1.365,1.365,0,0,1,1.06,1.551q-.054,8.959,0,17.918a1.358,1.358,0,0,1-1.1,1.5,6.34,6.34,0,0,0-3.915,3.934c-.331.954-.879,1.084-1.74,1.084q-26.521-.027-53.042,0a1.484,1.484,0,0,1-1.7-1.129,6.264,6.264,0,0,0-3.945-3.9A1.348,1.348,0,0,1,7.39,37.962q.035-8.87,0-17.738a1.489,1.489,0,0,1,1.129-1.7,5.868,5.868,0,0,0,3.73-3.632c.424-1.247,1.15-1.37,2.258-1.366,8.78.036,17.562.02,26.342.02m-.058,2.153A13.351,13.351,0,1,0,54.012,29.12,13.357,13.357,0,0,0,40.787,15.694M22.216,29.1a4.305,4.305,0,1,0-8.609-.124,4.305,4.305,0,0,0,8.609.124M63.3,33.326a4.351,4.351,0,0,0,4.355-4.272,4.406,4.406,0,0,0-4.315-4.339,4.278,4.278,0,0,0-4.3,4.3,4.218,4.218,0,0,0,4.263,4.31" transform="translate(5.889 10.781)" fill="#ccea62"/>
        <path id="Trazado_819508" data-name="Trazado 819508" d="M31.98,14.729A13.353,13.353,0,1,1,18.435,27.814,13.411,13.411,0,0,1,31.98,14.729m-.09,23.806A10.47,10.47,0,1,0,21.3,28.2,10.525,10.525,0,0,0,31.89,38.535" transform="translate(14.698 11.744)" fill="#060703"/>
        <path id="Trazado_819509" data-name="Trazado 819509" d="M19.455,24.136a4.3,4.3,0,0,1-8.608-.126,4.3,4.3,0,1,1,8.608.126m-2.86-.07a1.384,1.384,0,0,0-1.483-1.415,1.32,1.32,0,0,0-1.375,1.5,1.3,1.3,0,0,0,1.368,1.323,1.386,1.386,0,0,0,1.49-1.406" transform="translate(8.649 15.746)" fill="#070704"/>
        <path id="Trazado_819510" data-name="Trazado 819510" d="M40.388,28.36a4.218,4.218,0,0,1-4.263-4.31,4.279,4.279,0,0,1,4.3-4.3,4.4,4.4,0,0,1,4.315,4.339,4.349,4.349,0,0,1-4.353,4.272m1.481-4.308c-.174-.883-.647-1.477-1.548-1.406a1.325,1.325,0,0,0-1.307,1.562,1.267,1.267,0,0,0,1.4,1.271c.935-.013,1.335-.6,1.452-1.427" transform="translate(28.805 15.747)" fill="#060703"/>
        <path id="Trazado_819511" data-name="Trazado 819511" d="M30.617,37.265a10.471,10.471,0,1,1,10.441-10.5,10.488,10.488,0,0,1-10.441,10.5M35.96,29.98c-.029-1.965-1.287-3.512-3.514-4.229-.962-.309-1.963-.489-2.935-.764a1.292,1.292,0,0,1-1.08-1.26,1.478,1.478,0,0,1,1.158-1.42,2.543,2.543,0,0,1,3.323,1.278,1.337,1.337,0,0,0,1.957.643c.917-.516.9-1.335.458-2.166a4.813,4.813,0,0,0-2.256-2.214c-.608-.279-1.141-.516-1.237-1.328A1.206,1.206,0,0,0,30.541,17.5a1.319,1.319,0,0,0-1.33,1c-.158.5-.255.942-.868,1.213a4.123,4.123,0,0,0-2.77,4.511c.282,2.3,1.975,3.251,3.992,3.8.859.232,1.734.419,2.57.715a1.285,1.285,0,0,1,.9,1.4c-.059.611-.527.89-1.046,1.1a3.05,3.05,0,0,1-4.06-1.461c-.489-.911-1.136-1.251-2.026-.823-.823.4-.924,1.12-.6,1.979a4.748,4.748,0,0,0,2.277,2.644,3.033,3.033,0,0,1,1.8,1.756,1.255,1.255,0,0,0,2.349-.022c.311-.972.918-1.238,1.691-1.578A3.923,3.923,0,0,0,35.96,29.98" transform="translate(15.971 13.016)" fill="#b1ce4e"/>
        <path id="Trazado_819512" data-name="Trazado 819512" d="M15.314,22.778a1.386,1.386,0,0,1-1.49,1.406,1.3,1.3,0,0,1-1.368-1.323,1.32,1.32,0,0,1,1.375-1.5,1.384,1.384,0,0,1,1.483,1.415" transform="translate(9.93 17.033)" fill="#adc94c"/>
        <path id="Trazado_819513" data-name="Trazado 819513" d="M40.591,22.769c-.117.827-.518,1.415-1.452,1.427a1.267,1.267,0,0,1-1.4-1.271,1.325,1.325,0,0,1,1.307-1.562c.9-.072,1.373.523,1.548,1.406" transform="translate(30.084 17.029)" fill="#aac64b"/>
        <path id="Trazado_819514" data-name="Trazado 819514" d="M33.7,29.455a3.923,3.923,0,0,1-2.545,3.76c-.775.34-1.38.606-1.691,1.578a1.256,1.256,0,0,1-2.351.022,3.024,3.024,0,0,0-1.8-1.756,4.76,4.76,0,0,1-2.277-2.646c-.32-.857-.219-1.582.6-1.977.888-.43,1.535-.088,2.024.823a3.051,3.051,0,0,0,4.062,1.461c.518-.212.985-.492,1.048-1.1a1.291,1.291,0,0,0-.9-1.4c-.836-.3-1.711-.483-2.57-.715-2.018-.546-3.71-1.5-3.992-3.8a4.123,4.123,0,0,1,2.768-4.513c.617-.27.712-.71.868-1.211a1.32,1.32,0,0,1,1.332-1A1.2,1.2,0,0,1,29.573,18c.1.812.631,1.05,1.237,1.328a4.828,4.828,0,0,1,2.259,2.214c.437.83.455,1.65-.46,2.166a1.34,1.34,0,0,1-1.959-.643,2.542,2.542,0,0,0-3.323-1.278,1.478,1.478,0,0,0-1.158,1.42,1.292,1.292,0,0,0,1.082,1.26c.971.275,1.974.455,2.935.764,2.227.715,3.483,2.265,3.512,4.227" transform="translate(18.232 13.539)" fill="#070803"/>
      </g>
    </g>
  </g>
</svg>
