<svg xmlns="http://www.w3.org/2000/svg" xmlns:xlink="http://www.w3.org/1999/xlink" width="124.001" height="124" viewBox="0 0 124.001 124">
  <defs>
    <clipPath id="clip-path">
      <rect id="Rect치ngulo_377514" data-name="Rect치ngulo 377514" width="64.144" height="64.276" fill="none"/>
    </clipPath>
  </defs>
  <g id="Grupo_1071714" data-name="Grupo 1071714" transform="translate(-1087.93 -2136.256)">
    <g id="Grupo_1071492" data-name="Grupo 1071492" transform="translate(-0.07 78.256)">
      <g id="Grupo_159184" data-name="Grupo 159184" transform="translate(703.001)">
        <path id="Uni칩n_12" data-name="Uni칩n 12" d="M8464.769,11817.939a62.055,62.055,0,1,1,20.7-16.051l8.516,22.111Z" transform="translate(-7991 -9642)" fill="#a3bfe4"/>
        <circle id="Elipse_4842" data-name="Elipse 4842" cx="48" cy="48" r="48" transform="translate(399 2072)" fill="#e3ecf7"/>
      </g>
    </g>
    <g id="Grupo_1071505" data-name="Grupo 1071505" transform="translate(1117.858 2166.118)">
      <g id="Grupo_1071504" data-name="Grupo 1071504" transform="translate(0 0)" clip-path="url(#clip-path)">
        <path id="Trazado_819669" data-name="Trazado 819669" d="M0,33.212Q0,25,0,16.783c0-2.639,1.191-3.821,3.835-3.824,5.521-.005,11.042-.02,16.563.018.886.007,1.2-.091,1.054-1.116a9.474,9.474,0,0,1,1.088-5.809c.318-.6.254-.905-.3-1.283-.955-.648-1.869-1.363-2.769-2.087a2.157,2.157,0,0,0-1.488-.419c-2.137.016-4.276-.038-6.411.028-.848.026-.949-.334-.89-1.015.051-.587-.194-1.211.87-1.173,2.4.085,4.808.038,7.212.019a2.08,2.08,0,0,1,1.471.486c.336.29.708.539,1.065.8.893.662,1.709,1.659,2.7,1.889.976.225,1.618-1.088,2.5-1.613A10.606,10.606,0,0,1,39.132,2.848c.67.606,1.1.713,1.7.076A9.272,9.272,0,0,1,49.277.11a16.606,16.606,0,0,0,3.069.005c.806-.047,1.142.108,1.149,1.049.008.988-.319,1.187-1.211,1.124-1.108-.078-2.249.13-3.333-.049-2.866-.471-5.041.732-7.072,2.537-.5.448-.563.721-.264,1.3a9.476,9.476,0,0,1,1.069,5.812c-.161,1.087.256,1.093,1.084,1.088,5.344-.03,10.686-.015,16.03-.015,3.364,0,4.345.991,4.345,4.386q0,16.1,0,32.192c0,2.916-1.122,4.045-4.018,4.046-6.456,0-12.913.027-19.368-.026-1.007-.008-1.391.245-1.2,1.235a.868.868,0,0,1,0,.133c.022.93-.3,2.118.158,2.714.493.645,1.742.181,2.658.2a1.7,1.7,0,0,1,1.47.732c.92,1.256,1.859,2.5,2.794,3.743.3.406.555.821.277,1.341a1.232,1.232,0,0,1-1.23.621q-13.626-.01-27.249,0a1.209,1.209,0,0,1-1.216-.645c-.261-.522,0-.932.31-1.337A29.317,29.317,0,0,0,19.5,59.609,3.069,3.069,0,0,1,23,57.86c1.386.277,1.671-.332,1.618-1.628-.107-2.647-.032-2.649-2.729-2.649q-9.016,0-18.034,0c-2.648,0-3.851-1.188-3.855-3.8q-.01-8.281,0-16.564M26.772,55.723a5.973,5.973,0,0,1-.047.663c-.223,1.221.28,1.551,1.484,1.5,2.394-.1,4.8-.03,7.193-.03,2.081,0,2.081,0,1.97-2.134a5.971,5.971,0,0,1,.046-.662c.218-1.214-.269-1.559-1.484-1.509-2.438.1-4.884.03-7.326.03-1.926,0-1.927,0-1.874,1.878a2.191,2.191,0,0,0,.038.263m31.76-40.581c-5.047-.015-10.095.018-15.141-.077-1.269-.024-1.995.337-2.261,1.567-.226.268-.46.529-.678.8a10.687,10.687,0,0,1-16.687.112c-.24-.292-.333-.74-.789-.831-.474-.56-.179-1.662-1.49-1.648-5.953.065-11.908.037-17.862.022-.984,0-1.493.368-1.49,1.4q.037,12.662.049,25.324a11,11,0,0,1-.055,1.6c-.237,1.368.317,1.648,1.64,1.644q28.325-.071,56.651,0c1.23,0,1.632-.2,1.62-1.549-.073-8.373-.031-16.747-.039-25.12,0-3.275.53-3.437-3.468-3.246M32.15,47.168c-9.616,0-19.231.012-28.845-.022-.909,0-1.333.183-1.172,1.15a5.652,5.652,0,0,1,.008.934c0,2.177.037,2.212,2.276,2.212h54.62c2.976,0,2.928,0,2.992-2.992.023-1.038-.246-1.314-1.3-1.309-9.526.043-19.053.026-28.579.026M31,2.444A6.847,6.847,0,0,0,27.678,3.5c-1.961,1.185-1.99,1.239-.168,2.533.742.526.842.854.295,1.637-.639.919-1.078.544-1.64.046-.165-.147-.383-.242-.532-.4-.892-.95-1.239-.4-1.575.5A8.539,8.539,0,0,0,28.725,18.7c5.8,2.441,11.036-1.93,11.478-5.74-2.5,0-4.989-.039-7.479.016-1.263.028-1.76-.449-1.737-1.724C31.04,8.318,31,5.384,31,2.444M43.686,62.113c-.754-1.419-1.494-2.211-3.2-2.169C34.793,60.083,29.1,60,23.4,60c-1.683,0-2.221.411-2.748,2.116ZM33.14,2.391V9.6c0,.222.012.444,0,.666-.031.629.417.559.811.559q2.4,0,4.8,0c2.143,0,2.143,0,1.6-2.129-.011-.043-.018-.088-.028-.13-.572-2.106-.64-2.134-2.376-.817-.537.407-.919.869-1.564-.009-.612-.832-.537-1.271.321-1.724.31-.165.558-.441.857-.629.575-.363.555-.681.028-1.095a8.207,8.207,0,0,0-4.451-1.9" transform="translate(0 0.001)" fill="#020201"/>
        <path id="Trazado_819670" data-name="Trazado 819670" d="M8.465,5.4c-1.514,0-3.031-.062-4.54.023-.916.051-.789-.49-.747-1.005.041-.484-.345-1.188.709-1.172,3.072.047,6.145.057,9.216-.008.912-.019.788.493.744,1.008-.041.483.348,1.211-.709,1.17C11.583,5.356,10.024,5.4,8.465,5.4" transform="translate(1.11 1.144)"/>
        <path id="Trazado_819671" data-name="Trazado 819671" d="M41.729,3.263c1.47,0,2.94.05,4.407-.019.813-.039.988.279.911.991-.061.574.225,1.216-.848,1.191q-4.474-.108-8.948,0c-1.005.027-.873-.494-.919-1.131-.055-.774.107-1.108.992-1.057,1.464.084,2.936.023,4.406.023" transform="translate(12.827 1.143)"/>
        <path id="Trazado_819672" data-name="Trazado 819672" d="M12.078,8.56c-.98,0-1.961-.035-2.939.011-.786.038-1.29.032-1.271-1.06.018-1,.364-1.133,1.229-1.108,2.18.06,4.365.069,6.543,0,.94-.031.852.479.827,1.072-.023.54.211,1.176-.785,1.108-1.195-.08-2.4-.019-3.6-.019" transform="translate(2.779 2.26)"/>
        <path id="Trazado_819673" data-name="Trazado 819673" d="M37.411,8.559c-1.157,0-2.318-.057-3.471.019-.888.057-.794-.479-.744-1.007.046-.486-.338-1.191.716-1.166,2.357.054,4.718.057,7.077,0,.884-.023.793.48.743,1.008-.046.486.34,1.221-.716,1.165-1.2-.064-2.4-.015-3.6-.015" transform="translate(11.712 2.261)"/>
        <path id="Trazado_819674" data-name="Trazado 819674" d="M5.236,2.244a5.654,5.654,0,0,0-.934.008c-.95.158-1.142-.235-1.17-1.152C3.1.076,3.581.056,4.318.1a11.106,11.106,0,0,0,2-.007C7.272-.028,7.5.326,7.486,1.25c-.009.84-.24,1.118-1.05,1a8.657,8.657,0,0,0-1.2-.009" transform="translate(1.105 0.025)"/>
        <path id="Trazado_819675" data-name="Trazado 819675" d="M43.211,2.241a6.929,6.929,0,0,0-.934.007c-.859.118-1.216-.084-1.23-1.1C41.034.059,41.534.038,42.32.095,42.9.138,43.477.1,44.055.1c1.273,0,1.652.537,1.325,1.762-.1.365-.3.373-.567.373-.535,0-1.068,0-1.6,0" transform="translate(14.496 0.028)"/>
        <path id="Trazado_819676" data-name="Trazado 819676" d="M5.26,8.564a5.968,5.968,0,0,0-.934.008c-.912.145-1.188-.168-1.195-1.129s.387-1.085,1.164-1.027a10.617,10.617,0,0,0,2-.005c.916-.107,1.23.168,1.189,1.137-.032.789-.169,1.161-1.024,1.027a7.887,7.887,0,0,0-1.2-.011" transform="translate(1.106 2.257)"/>
        <path id="Trazado_819677" data-name="Trazado 819677" d="M43.183,8.564a5.968,5.968,0,0,0-.934.008c-.908.143-1.195-.16-1.2-1.126s.38-1.091,1.162-1.031a10.4,10.4,0,0,0,2,0c.912-.106,1.235.161,1.192,1.134-.035.783-.161,1.165-1.022,1.03a7.717,7.717,0,0,0-1.2-.011" transform="translate(14.497 2.257)"/>
        <path id="Trazado_819678" data-name="Trazado 819678" d="M14.771,4.19c.091.748.138,1.373-.943,1.238-.668-.085-1.344.11-1.2-.986.088-.668-.108-1.355.986-1.193.648.095,1.453-.164,1.154.942" transform="translate(4.453 1.139)"/>
        <path id="Trazado_819679" data-name="Trazado 819679" d="M34.148,5.382c-1.076.291-.892-.453-.978-1.133-.134-1.057.48-.928,1.179-1.008,1.06-.12.934.483,1.008,1.183.111,1.042-.436,1.084-1.208.958" transform="translate(11.708 1.14)"/>
        <path id="Trazado_819680" data-name="Trazado 819680" d="M40.573,12.7c.267-1.23.992-1.591,2.262-1.567,5.045.095,10.093.062,15.141.077.418.64.221,1.359.26,2.047-2.364-.218-4.4.123-5.779,2.456a9.9,9.9,0,0,1-3.287,3.778c-1.438.771-3.394.226-5.12.2-1.027-.016-1.789.254-2.053,1.262C41.3,23.593,39.6,24.489,37.01,24c-.8-.152-1.268,0-1.267,1.062s.451,1.168,1.267,1.077a3.111,3.111,0,0,1,.931,0c2.886.57,4.767-.483,5.551-3.373a1.187,1.187,0,0,1,1.357-.938c1.77.009,3.728.551,5.261-.21,1.576-.782,2.411-2.668,3.629-4.02a1.753,1.753,0,0,0,.253-.309c.922-1.765,2.436-2.13,4.244-1.805q0,3.164,0,6.329l-3.589.041c-1.541.018-1.746.219-1.752,1.794q-.026,5.919-.043,11.836a5.258,5.258,0,0,1-2.054,1.07q-.02-5.336-.042-10.674c-.008-1.727-.169-1.882-1.938-1.889-.8,0-1.6,0-2.4,0-1.958,0-2.068.111-2.073,2.019q-.018,5.939-.041,11.877H42.246q-.02-3.869-.041-7.735c-.009-1.723-.169-1.878-1.94-1.885q-1.267,0-2.534,0c-1.773.007-1.93.16-1.939,1.885l-.041,7.735H31.56c.088-.839-.246-1.1-1.116-1.088q-6.412.073-12.823,0c-.87-.009-1.206.249-1.116,1.088h-2.05c.009-.666-.027-1.123-.982-1.1q-4.4.124-8.812,0c-.955-.027-.992.43-.984,1.1H1.628q-.022-12.662-.049-25.324c0-1.034.5-1.406,1.49-1.4,5.954.015,11.908.043,17.86-.022,1.311-.014,1.016,1.088,1.49,1.65a7.427,7.427,0,0,0,1.681,3.4,11.045,11.045,0,0,0,5.806,3.487c-2.039.015-4.081.08-6.118.022-.94-.027-.834.5-.829,1.084s-.135,1.13.816,1.1c1.9-.069,3.813-.02,5.721-.02,2.058,0,2.058,0,1.992-2.124a8.039,8.039,0,0,0,3.728-.788c2.725-1.249,4.77-3.135,5.357-6.243M10.161,26.124A6.465,6.465,0,0,0,16.5,20.553c.189-1.436-.184-1.886-1.606-1.9-.98-.012-1.959-.03-2.938.008-.572.022-.792-.154-.766-.75.043-.977.02-1.958.009-2.938-.018-1.433-.456-1.805-1.889-1.624a6.415,6.415,0,0,0,.846,12.778M21.5,28.27c-3.112,0-6.225.039-9.334-.023-.905-.019-.995.344-.984,1.084.009.71.037,1.108.966,1.1q9.2-.071,18.4,0c.9.007.995-.344.984-1.084-.009-.71-.034-1.122-.966-1.1-3.022.066-6.045.024-9.068.024m-9.371,6.414c2.578,0,5.156-.045,7.731.024.907.023.993-.346.984-1.085-.009-.709-.035-1.11-.966-1.1q-7.6.075-15.2,0c-.9-.008-.993.345-.982,1.084.009.71.032,1.129.966,1.1,2.486-.073,4.976-.024,7.464-.024M25.1,23.994c-1.865,0-3.732.05-5.594-.02-.946-.035-.819.514-.821,1.092s-.11,1.1.827,1.087q5.594-.077,11.188,0c.943.014.819-.514.821-1.092s.111-1.122-.827-1.087c-1.862.07-3.729.02-5.594.02m2.031,10.69c1.2,0,2.4-.057,3.591.018.973.061.774-.558.8-1.11.026-.609.068-1.093-.844-1.066q-3.323.1-6.651,0c-.9-.027-1.072.275-1.095,1.114-.026.928.323,1.11,1.141,1.061,1.016-.062,2.039-.015,3.059-.015M6.3,30.408a13.076,13.076,0,0,1,1.724.014c.934.124,1.07-.309,1.07-1.12,0-.777-.146-1.12-1.012-1.05a26.714,26.714,0,0,1-3.053.011c-.806-.026-1.383-.068-1.359,1.116.023,1.106.544,1.084,1.3,1.035.441-.03.885-.005,1.327-.005m14.5-9.651c.241-.95-.273-1.034-1.066-1.069-.915-.042-1.051.309-1.077,1.123-.028.912.309,1.06,1.126,1.074.892.018,1.218-.263,1.018-1.129" transform="translate(0.558 3.932)" fill="#72a2fa"/>
        <path id="Trazado_819681" data-name="Trazado 819681" d="M31.6,34.865c9.526,0,19.052.019,28.579-.026,1.054-.005,1.323.271,1.3,1.309-.064,2.99-.016,2.992-2.992,2.992H3.868c-2.238,0-2.273-.035-2.275-2.212a5.8,5.8,0,0,0-.008-.934c-.161-.968.263-1.153,1.17-1.15,9.616.035,19.231.022,28.847.022" transform="translate(0.548 12.304)" fill="#c3c3c7"/>
        <path id="Trazado_819682" data-name="Trazado 819682" d="M58.252,13.251c-.041-.689.157-1.407-.261-2.047,4-.191,3.465-.028,3.468,3.246.008,8.373-.034,16.747.039,25.119.012,1.346-.39,1.553-1.62,1.551q-28.327-.063-56.651,0c-1.323,0-1.877-.276-1.64-1.644a11,11,0,0,0,.055-1.6h2.05c-.005.66.023,1.129.982,1.1q4.4-.124,8.813,0c.959.027.988-.44.982-1.1h2.05c-.085.831.238,1.1,1.115,1.095q6.412-.075,12.824,0c.877.009,1.2-.263,1.115-1.095h4.192c.265,1.222,1.256,1.23,2.106,1.039,1.464-.329,3.356,1.07,4.388-1.039h2.058a1.326,1.326,0,0,0,1.575,1.08c.8-.034,1.6-.008,2.4-.008,2.406,0,2.406,0,2.525-2.4a5.27,5.27,0,0,0,2.053-1.07c.015.62.065,1.241.035,1.859-.055,1.107.386,1.664,1.547,1.622,1.107-.038,2.218-.032,3.325,0,1.045.03,1.562-.387,1.557-1.479q-.026-7.118,0-14.235a1.29,1.29,0,0,0-1.078-1.438q0-3.164,0-6.329c.832.087,1.111-.237,1.111-1.114s-.279-1.2-1.111-1.115" transform="translate(0.542 3.939)" fill="#5286fa"/>
        <path id="Trazado_819683" data-name="Trazado 819683" d="M24.867,1.806c0,2.94.037,5.874-.018,8.806-.023,1.275.475,1.754,1.737,1.725,2.49-.057,4.982-.018,7.479-.018-.441,3.812-5.678,8.181-11.478,5.741A8.541,8.541,0,0,1,17.921,7.182c.336-.905.683-1.453,1.575-.5.149.16.367.253.532.4.562.5,1,.873,1.64-.045.547-.785.447-1.112-.295-1.639C19.55,4.1,19.58,4.051,21.541,2.864a6.847,6.847,0,0,1,3.326-1.058" transform="translate(6.137 0.638)" fill="#f2da5f"/>
        <path id="Trazado_819684" data-name="Trazado 819684" d="M38.3,46.469H15.263c.526-1.7,1.064-2.116,2.747-2.116,5.7,0,11.394.087,17.085-.053,1.708-.042,2.448.75,3.2,2.169" transform="translate(5.39 15.645)" fill="#c3c3c7"/>
        <path id="Trazado_819685" data-name="Trazado 819685" d="M24.491,1.767a8.207,8.207,0,0,1,4.451,1.9c.526.414.547.732-.028,1.095-.3.188-.547.464-.857.629-.858.453-.932.892-.321,1.724.645.878,1.027.417,1.564.009,1.736-1.317,1.8-1.288,2.376.817.011.042.018.087.028.13.539,2.129.539,2.129-1.6,2.129q-2.4,0-4.8,0c-.394,0-.842.07-.811-.559.011-.222,0-.444,0-.666v-7.2" transform="translate(8.649 0.625)" fill="#de7656"/>
        <path id="Trazado_819686" data-name="Trazado 819686" d="M35.134,12.29c-.587,3.108-2.632,4.995-5.357,6.243a8.029,8.029,0,0,1-3.728.788l-1.582-.057a11.04,11.04,0,0,1-5.806-3.487,7.427,7.427,0,0,1-1.681-3.4c.457.089.549.539.789.829A10.687,10.687,0,0,0,34.456,13.1c.218-.275.452-.537.678-.805" transform="translate(5.997 4.341)" fill="#5185f6"/>
        <path id="Trazado_819687" data-name="Trazado 819687" d="M19.8,41.748a2.523,2.523,0,0,1-.037-.264c-.053-1.877-.053-1.877,1.873-1.877,2.442,0,4.888.07,7.326-.031,1.215-.05,1.7.3,1.486,1.509a6.019,6.019,0,0,0-.047.663H19.8" transform="translate(6.974 13.976)" fill="#5286fa"/>
        <path id="Trazado_819688" data-name="Trazado 819688" d="M19.811,41.18h10.6c.111,2.134.111,2.134-1.97,2.134-2.4,0-4.8-.07-7.192.028-1.206.05-1.709-.28-1.486-1.5a5.949,5.949,0,0,0,.047-.662" transform="translate(6.961 14.544)" fill="#72a2fa"/>
        <path id="Trazado_819689" data-name="Trazado 819689" d="M44.856,19.027a1.286,1.286,0,0,1,1.077,1.438q-.02,7.118,0,14.234c0,1.093-.513,1.51-1.557,1.479-1.107-.032-2.218-.038-3.325,0-1.161.041-1.6-.516-1.548-1.622.031-.618-.019-1.239-.034-1.859q.022-5.919.043-11.836c.008-1.575.211-1.778,1.754-1.8l3.589-.039m-1.123,3.248c.226-.893-.185-1.078-1.012-1.078s-1.239.185-1.014,1.078c-.019,3.641-.009,7.283-.074,10.924-.016.922.49.84,1.088.84s1.1.081,1.087-.842c-.065-3.64-.055-7.281-.074-10.923" transform="translate(13.939 6.72)" fill="#000101"/>
        <path id="Trazado_819690" data-name="Trazado 819690" d="M9.6,25.557a6.416,6.416,0,0,1-.846-12.779c1.434-.18,1.873.192,1.89,1.625.011.978.034,1.959-.009,2.936-.026.6.194.771.766.75.978-.038,1.958-.02,2.936-.008,1.424.018,1.8.468,1.606,1.905A6.467,6.467,0,0,1,9.6,25.557m-.037-2.137A4.341,4.341,0,0,0,13.428,21c.25-.559.218-.812-.476-.792-1.023.031-2.047,0-3.072.009A1.2,1.2,0,0,1,8.5,18.831c.014-.98-.032-1.961.014-2.939.041-.87-.277-.857-.926-.526a4.272,4.272,0,0,0,1.972,8.055" transform="translate(1.118 4.499)" fill="#030404"/>
        <path id="Trazado_819691" data-name="Trazado 819691" d="M39.649,33.2c-.118,2.4-.118,2.4-2.524,2.4-.8,0-1.6-.026-2.4.007a1.324,1.324,0,0,1-1.575-1.078l.041-11.875c.005-1.908.115-2.016,2.073-2.019.8,0,1.6,0,2.4,0,1.77.005,1.931.162,1.939,1.888q.022,5.338.042,10.675m-4.262-9.356c-.019,2.935,0,5.871-.078,8.805-.027.963.522.819,1.092.819s1.119.145,1.092-.819c-.08-2.934-.06-5.87-.078-8.805.217-.885-.175-1.08-1.014-1.08s-1.23.195-1.014,1.08" transform="translate(11.708 7.288)" fill="#000101"/>
        <path id="Trazado_819692" data-name="Trazado 819692" d="M49.32,12.718c.832-.085,1.111.237,1.111,1.115s-.279,1.2-1.111,1.114c-1.809-.325-3.322.039-4.245,1.805a1.591,1.591,0,0,1-.253.307c-1.216,1.353-2.051,3.238-3.628,4.02-1.533.762-3.493.221-5.262.211a1.185,1.185,0,0,0-1.356.938c-.785,2.89-2.664,3.943-5.551,3.373a3.12,3.12,0,0,0-.932,0c-.816.091-1.265-.019-1.267-1.077s.465-1.214,1.267-1.062c2.594.49,4.292-.406,4.986-3.047.265-1.008,1.027-1.277,2.054-1.261,1.725.027,3.681.572,5.12-.2a9.907,9.907,0,0,0,3.287-3.778c1.382-2.333,3.415-2.674,5.779-2.456" transform="translate(9.474 4.472)" fill="#020304"/>
        <path id="Trazado_819693" data-name="Trazado 819693" d="M33.327,33.416c-1.032,2.11-2.924.71-4.39,1.039-.85.189-1.839.183-2.106-1.039l.041-7.735c.009-1.725.166-1.878,1.939-1.884q1.267,0,2.534,0c1.771.005,1.931.162,1.94,1.884q.02,3.869.041,7.735m-4.276-6.394c-.014,1.5.024,3.012-.058,4.514-.053.946.511.816,1.087.816s1.139.13,1.087-.817c-.083-1.5-.045-3.008-.058-4.513.221-.9-.168-1.115-1.028-1.115s-1.249.219-1.028,1.115" transform="translate(9.476 8.404)" fill="#000101"/>
        <path id="Trazado_819694" data-name="Trazado 819694" d="M19,23.8c3.023,0,6.046.042,9.068-.024.932-.02.957.391.966,1.1.011.74-.08,1.089-.984,1.084q-9.2-.067-18.4,0c-.93.007-.957-.391-.966-1.1-.011-.742.078-1.1.984-1.085,3.111.062,6.223.024,9.334.024" transform="translate(3.064 8.398)"/>
        <path id="Trazado_819695" data-name="Trazado 819695" d="M11.577,29.1c-2.488,0-4.978-.047-7.464.024-.934.027-.957-.391-.966-1.1-.011-.739.077-1.092.982-1.084q7.6.073,15.2,0c.93-.009.955.391.966,1.1.009.739-.077,1.11-.984,1.085-2.575-.069-5.153-.024-7.731-.024" transform="translate(1.111 9.515)"/>
        <path id="Trazado_819696" data-name="Trazado 819696" d="M27.667,31.188c.085.832-.238,1.106-1.115,1.095q-6.412-.075-12.824,0c-.877.011-1.2-.263-1.115-1.095-.089-.838.246-1.1,1.116-1.088q6.41.075,12.821,0c.87-.009,1.206.25,1.116,1.088" transform="translate(4.449 10.631)"/>
        <path id="Trazado_819697" data-name="Trazado 819697" d="M20.636,20.643c1.865,0,3.732.049,5.594-.02.938-.035.831.5.827,1.085s.123,1.106-.82,1.093q-5.594-.077-11.189,0c-.936.012-.829-.5-.827-1.087s-.124-1.127.821-1.092c1.862.069,3.729.02,5.594.02" transform="translate(5.02 7.283)"/>
        <path id="Trazado_819698" data-name="Trazado 819698" d="M13.907,31.19c.005.662-.023,1.129-.982,1.1q-4.4-.122-8.813,0c-.959.027-.988-.44-.982-1.1s.027-1.122.982-1.095q4.4.124,8.813,0c.955-.027.991.43.982,1.095" transform="translate(1.105 10.629)"/>
        <path id="Trazado_819699" data-name="Trazado 819699" d="M24.327,17.445l1.582.055c.068,2.124.068,2.124-1.992,2.124-1.908,0-3.817-.047-5.721.02-.951.035-.811-.524-.815-1.095s-.112-1.112.828-1.085c2.037.06,4.078-.005,6.118-.02" transform="translate(6.136 6.162)"/>
        <path id="Trazado_819700" data-name="Trazado 819700" d="M21.558,29.1c-1.02,0-2.043-.047-3.059.015-.817.05-1.166-.133-1.141-1.061.023-.838.195-1.141,1.095-1.114q3.323.1,6.651,0c.912-.027.87.457.844,1.066-.024.552.175,1.17-.8,1.11-1.193-.074-2.394-.018-3.591-.018" transform="translate(6.129 9.514)"/>
        <path id="Trazado_819701" data-name="Trazado 819701" d="M5.753,25.941c-.442,0-.886-.023-1.327.005-.758.05-1.279.07-1.3-1.035-.024-1.184.552-1.142,1.359-1.115a27.025,27.025,0,0,0,3.053-.012c.866-.069,1.011.273,1.012,1.05,0,.812-.137,1.245-1.07,1.12a13.074,13.074,0,0,0-1.724-.014" transform="translate(1.103 8.397)"/>
        <path id="Trazado_819702" data-name="Trazado 819702" d="M16.342,18.525c.2.866-.126,1.146-1.018,1.129-.817-.015-1.154-.162-1.126-1.074.026-.815.162-1.165,1.077-1.123.793.035,1.307.119,1.066,1.069" transform="translate(5.014 6.164)"/>
        <path id="Trazado_819703" data-name="Trazado 819703" d="M43.168,21.427c.019,3.641.009,7.283.074,10.923.016.923-.49.842-1.087.842s-1.1.081-1.088-.84c.065-3.641.055-7.283.074-10.924h2.026" transform="translate(14.504 7.568)" fill="#e17858"/>
        <path id="Trazado_819704" data-name="Trazado 819704" d="M43.165,21.708H41.139c-.226-.893.185-1.078,1.014-1.078s1.238.185,1.012,1.078" transform="translate(14.507 7.286)" fill="#de7656"/>
        <path id="Trazado_819705" data-name="Trazado 819705" d="M9.006,22.789a4.272,4.272,0,0,1-1.972-8.055c.648-.33.966-.344.926.526-.046.978,0,1.959-.014,2.939a1.2,1.2,0,0,0,1.376,1.39c1.024-.011,2.049.022,3.072-.009.694-.02.727.233.476.792a4.341,4.341,0,0,1-3.865,2.418" transform="translate(1.675 5.13)" fill="#efd75e"/>
        <path id="Trazado_819706" data-name="Trazado 819706" d="M36.851,23.007c.019,2.935,0,5.871.078,8.805.027.963-.522.819-1.092.819s-1.119.145-1.092-.819c.08-2.934.06-5.87.078-8.805h2.027" transform="translate(12.27 8.126)" fill="#f2da5f"/>
        <path id="Trazado_819707" data-name="Trazado 819707" d="M36.845,23.289H34.818c-.217-.885.175-1.08,1.014-1.08s1.23.195,1.014,1.08" transform="translate(12.276 7.844)" fill="#efd75e"/>
        <path id="Trazado_819708" data-name="Trazado 819708" d="M30.545,26.18c.014,1.5-.024,3.012.058,4.514.053.946-.511.816-1.087.816s-1.139.13-1.087-.816c.083-1.5.045-3.009.058-4.514h2.057" transform="translate(10.039 9.246)" fill="#79d5dd"/>
        <path id="Trazado_819709" data-name="Trazado 819709" d="M30.545,26.471H28.488c-.221-.9.168-1.115,1.028-1.115s1.249.219,1.028,1.115" transform="translate(10.039 8.955)" fill="#549496"/>
      </g>
    </g>
  </g>
</svg>
