<svg xmlns="http://www.w3.org/2000/svg" xmlns:xlink="http://www.w3.org/1999/xlink" width="400" height="284" viewBox="0 0 400 284">
  <defs>
    <clipPath id="clip-path">
      <rect id="Rectángulo_377670" data-name="Rectángulo 377670" width="400" height="284" transform="translate(1020 2803)" fill="#fff" stroke="#707070" stroke-width="1"/>
    </clipPath>
    <clipPath id="clip-path-2">
      <rect id="Rectángulo_377597" data-name="Rectángulo 377597" width="465.002" height="280" fill="none"/>
    </clipPath>
    <clipPath id="clip-path-3">
      <rect id="Rectángulo_377534" data-name="Rectángulo 377534" width="13.61" height="16.573" fill="none"/>
    </clipPath>
    <clipPath id="clip-path-4">
      <rect id="Rectángulo_377535" data-name="Rectángulo 377535" width="13.662" height="16.489" fill="#fff198"/>
    </clipPath>
    <clipPath id="clip-path-5">
      <rect id="Rectángulo_377548" data-name="Rectángulo 377548" width="3.154" height="23.261" fill="none"/>
    </clipPath>
    <clipPath id="clip-path-6">
      <rect id="Rectángulo_377550" data-name="Rectángulo 377550" width="3.154" height="33.864" fill="none"/>
    </clipPath>
    <clipPath id="clip-path-7">
      <rect id="Rectángulo_377552" data-name="Rectángulo 377552" width="3.155" height="18.123" fill="none"/>
    </clipPath>
    <clipPath id="clip-path-8">
      <rect id="Rectángulo_377554" data-name="Rectángulo 377554" width="3.154" height="25.91" fill="none"/>
    </clipPath>
    <clipPath id="clip-path-9">
      <rect id="Rectángulo_377556" data-name="Rectángulo 377556" width="3.154" height="20.755" fill="none"/>
    </clipPath>
    <clipPath id="clip-path-10">
      <rect id="Rectángulo_377582" data-name="Rectángulo 377582" width="3.268" height="2.313" fill="none"/>
    </clipPath>
    <clipPath id="clip-path-11">
      <rect id="Rectángulo_377583" data-name="Rectángulo 377583" width="14.905" height="1.574" fill="none"/>
    </clipPath>
    <clipPath id="clip-path-12">
      <rect id="Rectángulo_377584" data-name="Rectángulo 377584" width="10.896" height="1.389" fill="none"/>
    </clipPath>
    <clipPath id="clip-path-13">
      <rect id="Rectángulo_377585" data-name="Rectángulo 377585" width="12.737" height="61.034" fill="none"/>
    </clipPath>
    <clipPath id="clip-path-14">
      <rect id="Rectángulo_377587" data-name="Rectángulo 377587" width="13.654" height="10.805" fill="none"/>
    </clipPath>
    <clipPath id="clip-path-15">
      <rect id="Rectángulo_377588" data-name="Rectángulo 377588" width="8.872" height="6.763" fill="none"/>
    </clipPath>
    <clipPath id="clip-path-16">
      <rect id="Rectángulo_377589" data-name="Rectángulo 377589" width="17.242" height="1.744" fill="none"/>
    </clipPath>
    <clipPath id="clip-path-17">
      <rect id="Rectángulo_377590" data-name="Rectángulo 377590" width="10.311" height="1.299" fill="none"/>
    </clipPath>
    <clipPath id="clip-path-18">
      <rect id="Rectángulo_377591" data-name="Rectángulo 377591" width="23.689" height="26.443" fill="none"/>
    </clipPath>
    <clipPath id="clip-path-19">
      <rect id="Rectángulo_377592" data-name="Rectángulo 377592" width="3.289" height="14.673" fill="#fff198"/>
    </clipPath>
    <clipPath id="clip-path-20">
      <rect id="Rectángulo_377593" data-name="Rectángulo 377593" width="3.686" height="14.529" fill="#fff198"/>
    </clipPath>
    <clipPath id="clip-path-21">
      <rect id="Rectángulo_377594" data-name="Rectángulo 377594" width="7.068" height="13.072" fill="#fff198"/>
    </clipPath>
    <clipPath id="clip-path-22">
      <rect id="Rectángulo_377595" data-name="Rectángulo 377595" width="11.947" height="8.818" fill="#fff198"/>
    </clipPath>
  </defs>
  <g id="Enmascarar_grupo_981410" data-name="Enmascarar grupo 981410" transform="translate(-1020 -2803)" clip-path="url(#clip-path)">
    <g id="Grupo_1071573" data-name="Grupo 1071573" transform="translate(990.32 2806.561)">
      <g id="Grupo_1071572" data-name="Grupo 1071572" clip-path="url(#clip-path-2)">
        <rect id="Rectángulo_377520" data-name="Rectángulo 377520" width="28.864" height="3.856" transform="translate(295.6 172.858)" fill="#e0e0e0"/>
        <g id="Grupo_1071571" data-name="Grupo 1071571" transform="translate(5.499 18.474)">
          <g id="Grupo_1071574" data-name="Grupo 1071574">
            <path id="Trazado_819747" data-name="Trazado 819747" d="M436.229,252.026a9.094,9.094,0,0,1,0,3.613,9.061,9.061,0,0,1,0-3.613" transform="translate(-142.196 -97.482)" fill="#fafafa"/>
            <path id="Trazado_819748" data-name="Trazado 819748" d="M435.313,251.912a9.094,9.094,0,0,1,0,3.613,9.061,9.061,0,0,1,0-3.613" transform="translate(-141.909 -97.446)" fill="#fafafa"/>
            <path id="Trazado_819749" data-name="Trazado 819749" d="M469.3,252.026a9.09,9.09,0,0,1,0,3.613,9.1,9.1,0,0,1,0-3.613" transform="translate(-152.562 -97.482)" fill="#fafafa"/>
            <path id="Trazado_819750" data-name="Trazado 819750" d="M468.379,251.912a9.1,9.1,0,0,1,0,3.613,9.1,9.1,0,0,1,0-3.613" transform="translate(-152.275 -97.446)" fill="#fafafa"/>
            <path id="Trazado_819751" data-name="Trazado 819751" d="M456.227,254.689c0,.1-3.306.181-7.383.181s-7.383-.081-7.383-.181,3.3-.181,7.383-.181,7.383.081,7.383.181" transform="translate(-143.893 -98.26)" fill="#fafafa"/>
            <rect id="Rectángulo_377521" data-name="Rectángulo 377521" width="28.864" height="7.712" transform="translate(289.976 171.746)" fill="#e0e0e0"/>
            <path id="Trazado_819752" data-name="Trazado 819752" d="M459.669,282.923a.649.649,0,0,1-.157.09c-.106.055-.267.129-.481.22a8.359,8.359,0,0,1-1.956.56,5.1,5.1,0,0,1-3.176-.451,4.219,4.219,0,0,1-1.508-1.367,3.176,3.176,0,0,1-.525-2.222,2.343,2.343,0,0,1,.531-1.149,1.518,1.518,0,0,1,1.217-.553,1.746,1.746,0,0,1,1.223.66,2.384,2.384,0,0,1,.559,1.315,3.5,3.5,0,0,1-1,2.733,4.391,4.391,0,0,1-2.773,1.356,7.362,7.362,0,0,1-3.22-.4,5.938,5.938,0,0,1-2.813-1.891,3.1,3.1,0,0,1-.656-1.665,2.161,2.161,0,0,1,.614-1.733,1.4,1.4,0,0,1,.9-.4,1.65,1.65,0,0,1,.943.266,2.5,2.5,0,0,1,1.062,1.556,3.633,3.633,0,0,1-1.138,3.4,5.678,5.678,0,0,1-3.25,1.323,8,8,0,0,1-3.369-.332,4.654,4.654,0,0,1-2.563-1.992,3.413,3.413,0,0,1-.321-3.064,1.609,1.609,0,0,1,1.177-1,1.858,1.858,0,0,1,1.454.351,2.408,2.408,0,0,1,.688,2.6,4.5,4.5,0,0,1-1.455,2.049,6.553,6.553,0,0,1-3.958,1.538,6.338,6.338,0,0,1-3.136-.713,6.269,6.269,0,0,1-1.635-1.212,4.629,4.629,0,0,1-.345-.4.648.648,0,0,1-.1-.15,7.344,7.344,0,0,0,2.146,1.637,6.284,6.284,0,0,0,3.064.636,6.373,6.373,0,0,0,3.8-1.53,4.247,4.247,0,0,0,1.353-1.934,2.126,2.126,0,0,0-.6-2.279,1.557,1.557,0,0,0-1.214-.286,1.29,1.29,0,0,0-.944.819,3.1,3.1,0,0,0,.315,2.764,4.323,4.323,0,0,0,2.388,1.836,7.688,7.688,0,0,0,3.218.306,5.338,5.338,0,0,0,3.045-1.236,3.28,3.28,0,0,0,1.027-3.049,2.146,2.146,0,0,0-.9-1.33,1.105,1.105,0,0,0-1.407.086,1.806,1.806,0,0,0-.5,1.445,2.736,2.736,0,0,0,.582,1.475,5.613,5.613,0,0,0,2.641,1.777,7.047,7.047,0,0,0,3.069.4,4.069,4.069,0,0,0,2.58-1.241,3.2,3.2,0,0,0,.93-2.483,1.843,1.843,0,0,0-1.5-1.728,1.243,1.243,0,0,0-1,.452,2.08,2.08,0,0,0-.479,1.013,2.944,2.944,0,0,0,.465,2.053A4.029,4.029,0,0,0,454,283.164a5.007,5.007,0,0,0,3.059.489,9.16,9.16,0,0,0,1.95-.488c.434-.159.658-.255.664-.242" transform="translate(-140.459 -105.634)" fill="#fafafa"/>
            <rect id="Rectángulo_377522" data-name="Rectángulo 377522" width="26.286" height="13.381" transform="translate(292.554 158.352)" fill="#ebebeb"/>
            <path id="Trazado_819753" data-name="Trazado 819753" d="M440.436,258.242a58,58,0,0,1,.181,6.476,57.992,57.992,0,0,1-.181,6.477,57.951,57.951,0,0,1-.181-6.477,57.954,57.954,0,0,1,.181-6.476" transform="translate(-143.515 -99.431)" fill="#e0e0e0"/>
            <path id="Trazado_819754" data-name="Trazado 819754" d="M443.338,258a56.393,56.393,0,0,1,.182,6.393,56.39,56.39,0,0,1-.182,6.393,56.5,56.5,0,0,1-.181-6.393,56.5,56.5,0,0,1,.181-6.393" transform="translate(-144.425 -99.355)" fill="#e0e0e0"/>
            <path id="Trazado_819755" data-name="Trazado 819755" d="M468.035,257.374a62.633,62.633,0,0,1,.181,6.733,62.632,62.632,0,0,1-.181,6.733,62.651,62.651,0,0,1-.181-6.733,62.652,62.652,0,0,1,.181-6.733" transform="translate(-152.167 -99.158)" fill="#e0e0e0"/>
            <path id="Trazado_819756" data-name="Trazado 819756" d="M464.624,257.637a59.472,59.472,0,0,1,.181,6.559,59.461,59.461,0,0,1-.181,6.559,59.461,59.461,0,0,1-.181-6.559,59.472,59.472,0,0,1,.181-6.559" transform="translate(-151.098 -99.241)" fill="#e0e0e0"/>
            <rect id="Rectángulo_377523" data-name="Rectángulo 377523" width="177.213" height="117.548" transform="translate(136.046 6.01)" fill="#e0e0e0"/>
            <path id="Trazado_819760" data-name="Trazado 819760" d="M208.484,393.037a4.239,4.239,0,0,1-1.166-5.2,4.63,4.63,0,0,1,2.456-1.73,9.982,9.982,0,0,0,2.692-1.395c1.46-1.243,1.863-3.306,2.833-4.963a6.2,6.2,0,0,1,5.383-3.228c2.513.114,4.608,2.167,5.558,4.506a20.145,20.145,0,0,1,1,7.464c.01,1.4-.051,2.972-1.077,3.916-.946.87-2.37.881-3.652.841l-13.731-.422" transform="translate(-70.339 -136.509)" fill="#f5f5f5"/>
            <path id="Trazado_819761" data-name="Trazado 819761" d="M231,345.582h-36.11l6.5,38.785a4.332,4.332,0,0,0,3.083,3.453c.041.013.084.023.126.034.108.027.211.064.321.083a4.47,4.47,0,0,0,.735.084l.006.037.176-.027H221.94a4.526,4.526,0,0,0,.884-.089,4.347,4.347,0,0,0,3.653-3.79l3.136-26.724.141-1.063h-.017l1.242-10.583Zm-6.812,24.74h-3.706l.374-11.257h4.293Zm1.322-11.257h3.548l-1.321,11.257h-3.189ZM214.926,382.8l-.225-9.779h5.336l-.325,9.779Zm-5.769-9.779h5.185l.225,9.779h-4.65Zm.4,9.779h-4.347c-.413-2.64-.951-6.072-1.533-9.779h5.12Zm-.61-12.478-.875-11.257h5.949l.259,11.257Zm5.691,0-.259-11.257H220.5l-.373,11.257Zm-.321-13.956-.24-10.425h6.86l-.346,10.425Zm-.358,0h-6.1l-.81-10.425h6.666Zm-6.455,0h-6.45c-.228-1.44-.445-2.8-.641-4.028-.673-4.215-.925-5.8-1.065-6.4h7.346Zm.209,2.7.875,11.257h-5.333c-.18-1.142-.361-2.3-.543-3.454-.418-2.657-.837-5.314-1.23-7.8Zm-4.822,11.257h-3.484l-1.888-11.257h3.6c.55,3.479,1.16,7.35,1.773,11.257m.424,2.7c.531,3.384,1.054,6.72,1.532,9.779H201.5l-1.64-9.779Zm16.756,9.779.325-9.779h3.564l-.835,9.779Zm.878-26.434.346-10.425h4.979l-.89,10.425Zm-21.944-10.425c.143.754.8,4.856,1.685,10.425h-3.624l-1.749-10.425Zm27.27,36.859h-2.791l.835-9.779h3.1Zm3.1-26.434h-3.634l.89-10.425H230.6Z" transform="translate(-66.596 -126.811)" fill="#e0e0e0"/>
            <path id="Trazado_819765" data-name="Trazado 819765" d="M202.793,249.307H131.4a2.217,2.217,0,0,1-2.217-2.217V230.166a2.217,2.217,0,0,1,2.217-2.217h71.392a2.218,2.218,0,0,1,2.218,2.217V247.09a2.218,2.218,0,0,1-2.218,2.217" transform="translate(-45.997 -89.934)" fill="#e0e0e0"/>
            <path id="Trazado_819766" data-name="Trazado 819766" d="M148.709,245.247a4.606,4.606,0,0,1-6.5.717,4.656,4.656,0,0,1-.714-6.525,4.606,4.606,0,0,1,6.5-.717,4.657,4.657,0,0,1,.714,6.525" transform="translate(-49.539 -92.991)" fill="#f5f5f5"/>
            <path id="Trazado_819767" data-name="Trazado 819767" d="M148.624,242.166a18.737,18.737,0,0,1-2.484,2.684l-.61.592-.126.122-.119-.123a13.076,13.076,0,0,1-1.854-2.109,13,13,0,0,1,2.1,1.863h-.245l.6-.6a18.854,18.854,0,0,1,2.734-2.43" transform="translate(-50.462 -94.39)" fill="#e0e0e0"/>
            <path id="Trazado_819768" data-name="Trazado 819768" d="M208,241.042c0,.1-10.178.178-22.73.178s-22.731-.08-22.731-.178,10.175-.178,22.731-.178,22.73.08,22.73.178" transform="translate(-56.455 -93.983)" fill="#fafafa"/>
            <path id="Trazado_819769" data-name="Trazado 819769" d="M208.3,246.676c0,.1-10.177.178-22.73.178s-22.731-.08-22.731-.178,10.175-.178,22.731-.178,22.73.08,22.73.178" transform="translate(-56.546 -95.749)" fill="#fafafa"/>
            <path id="Trazado_819779" data-name="Trazado 819779" d="M462.171,406.418c0,.1-101.675.178-227.07.178-125.438,0-227.092-.08-227.092-.178s101.654-.178,227.092-.178c125.394,0,227.07.08,227.07.178" transform="translate(-8.01 -145.827)" fill="#263238"/>
            <rect id="Rectángulo_377533" data-name="Rectángulo 377533" width="183.524" height="120.377" transform="translate(125.422 8.96)" fill="#fafafa"/>
            <path id="Trazado_819780" data-name="Trazado 819780" d="M374.147,160.256c0-1.159-.056-46.957-.142-120.376l.142.142-183.509.036h-.014l.178-.178c-.005,42.809-.01,83.548-.014,120.376l-.164-.164,183.524.164-183.524.164h-.164v-.164c0-36.828-.01-77.567-.015-120.376V39.7h.194l183.509.036h.142v.143c-.087,73.419-.141,119.218-.142,120.376" transform="translate(-65.201 -30.92)" fill="#263238"/>
            <path id="Trazado_819781" data-name="Trazado 819781" d="M272.357,136.792l18.051.249a17.972,17.972,0,0,1-18.051,17.46h-.106Z" transform="translate(-90.847 -61.357)" fill="#455a64"/>
            <path id="Trazado_819782" data-name="Trazado 819782" d="M305.109,166.115a1.775,1.775,0,0,1-.386.031l-1.1.029-4.033.047h-.051l-.033-.041-5.955-7.5-4.8-6.122.093.045-5.312-.049-1.486-.033a2.816,2.816,0,0,1-.525-.036,2.875,2.875,0,0,1,.525-.036l1.486-.033,5.312-.049h.057l.036.046,4.831,6.1,5.905,7.542-.084-.041,4.033.047,1.1.029a1.774,1.774,0,0,1,.386.031" transform="translate(-93.752 -66.239)" fill="#263238"/>
            <path id="Trazado_819783" data-name="Trazado 819783" d="M319.98,175.362c0,.076-2.615.138-5.84.138s-5.841-.062-5.841-.138,2.615-.138,5.841-.138,5.84.062,5.84.138" transform="translate(-102.148 -73.405)" fill="#263238"/>
            <path id="Trazado_819784" data-name="Trazado 819784" d="M319.98,178.513c0,.076-2.615.138-5.84.138s-5.841-.062-5.841-.138,2.615-.138,5.841-.138,5.84.062,5.84.138" transform="translate(-102.148 -74.393)" fill="#263238"/>
            <path id="Trazado_819785" data-name="Trazado 819785" d="M260,124.963l-.253,17.707a17.714,17.714,0,1,1,18.306-17.707Z" transform="translate(-81.348 -52.097)" fill="#a3bfe4"/>
            <path id="Trazado_819786" data-name="Trazado 819786" d="M250.536,119.57a1.175,1.175,0,0,1-.314.073l-.9.143-3.243.455-.054.008-.04-.039L241.663,116c-2.078-2.038-3.948-3.895-5.292-5.248l-1.582-1.613a4.806,4.806,0,0,1-.553-.619,4.7,4.7,0,0,1,.629.542l1.643,1.55c1.379,1.317,3.271,3.151,5.349,5.189l4.29,4.243-.093-.032,3.255-.358.905-.082a1.167,1.167,0,0,1,.322-.006" transform="translate(-78.93 -52.495)" fill="#263238"/>
            <path id="Trazado_819787" data-name="Trazado 819787" d="M222.243,107.326c0,.076-2.615.138-5.84.138s-5.841-.062-5.841-.138,2.615-.139,5.841-.139,5.84.062,5.84.139" transform="translate(-71.508 -52.076)" fill="#263238"/>
            <path id="Trazado_819788" data-name="Trazado 819788" d="M222.243,110.476c0,.076-2.615.139-5.84.139s-5.841-.062-5.841-.139,2.615-.138,5.841-.138,5.84.062,5.84.138" transform="translate(-71.508 -53.064)" fill="#263238"/>
            <path id="Trazado_819789" data-name="Trazado 819789" d="M354.023,77.065l-.071-11a14.041,14.041,0,0,0-9.078,3.54A13.018,13.018,0,0,0,340.5,81a15.458,15.458,0,0,0,.257,1.6c0,.012,0,.025.007.038h0l13.259-2.984Z" transform="translate(-112.215 -39.183)" fill="#e8505b"/>
            <g id="Grupo_1071512" data-name="Grupo 1071512" transform="translate(228.198 26.878)" opacity="0.3">
              <g id="Grupo_1071511" data-name="Grupo 1071511">
                <g id="Grupo_1071510" data-name="Grupo 1071510" clip-path="url(#clip-path-3)">
                  <path id="Trazado_819790" data-name="Trazado 819790" d="M354.023,77.065l-.071-11a14.041,14.041,0,0,0-9.078,3.54A13.018,13.018,0,0,0,340.5,81a15.458,15.458,0,0,0,.257,1.6c0,.012,0,.025.007.038h0l13.259-2.984Z" transform="translate(-340.413 -66.062)" fill="#fff"/>
                </g>
              </g>
            </g>
            <path id="Trazado_819791" data-name="Trazado 819791" d="M374.545,73.7a13.053,13.053,0,0,0-10.7-7.492c-.139-.014-.279-.027-.42-.036-.089-.007-.177-.016-.267-.021q-.393-.022-.8-.023h-.071v0l.071,11,.017,2.586,13.263,2.894.017,0a13.108,13.108,0,0,0,.294-2.853,14.275,14.275,0,0,0-1.4-6.062" transform="translate(-119.072 -39.203)" fill="#e8505b"/>
            <g id="Grupo_1071515" data-name="Grupo 1071515" transform="translate(243.214 26.92)" opacity="0.3">
              <g id="Grupo_1071514" data-name="Grupo 1071514">
                <g id="Grupo_1071513" data-name="Grupo 1071513" clip-path="url(#clip-path-4)">
                  <path id="Trazado_819792" data-name="Trazado 819792" d="M374.545,73.7a13.053,13.053,0,0,0-10.7-7.492c-.139-.014-.279-.027-.42-.036-.089-.007-.177-.016-.267-.021q-.393-.022-.8-.023h-.071v0l.071,11,.017,2.586,13.263,2.894.017,0a13.108,13.108,0,0,0,.294-2.853,14.275,14.275,0,0,0-1.4-6.062" transform="translate(-362.286 -66.123)" fill="#fff198"/>
                </g>
              </g>
            </g>
            <path id="Trazado_819793" data-name="Trazado 819793" d="M355.218,87.858l-13.259,2.984a13.591,13.591,0,0,0,26.539-.089l-13.263-2.894" transform="translate(-112.7 -46.017)" fill="#a3bfe4"/>
            <path id="Trazado_819794" data-name="Trazado 819794" d="M422.469,84.89c0,.1-6.855.178-15.31.178s-15.311-.08-15.311-.178,6.854-.178,15.311-.178,15.31.08,15.31.178" transform="translate(-128.34 -45.03)" fill="#263238"/>
            <path id="Trazado_819795" data-name="Trazado 819795" d="M422.469,79.806c0,.1-6.855.178-15.31.178s-15.311-.08-15.311-.178,6.854-.178,15.311-.178,15.31.08,15.31.178" transform="translate(-128.34 -43.437)" fill="#263238"/>
            <path id="Trazado_819796" data-name="Trazado 819796" d="M422.469,74.722c0,.1-6.855.179-15.31.179s-15.311-.08-15.311-.179,6.854-.178,15.311-.178,15.31.08,15.31.178" transform="translate(-128.34 -41.843)" fill="#263238"/>
            <path id="Trazado_819797" data-name="Trazado 819797" d="M422.469,89.62c0,.1-6.855.178-15.31.178s-15.311-.08-15.311-.178,6.854-.178,15.311-.178,15.31.08,15.31.178" transform="translate(-128.34 -46.513)" fill="#263238"/>
            <path id="Trazado_819798" data-name="Trazado 819798" d="M413.037,94.768c0,.1-4.709.178-10.515.178s-10.516-.08-10.516-.178,4.707-.178,10.516-.178,10.515.08,10.515.178" transform="translate(-128.389 -48.127)" fill="#263238"/>
            <rect id="Rectángulo_377536" data-name="Rectángulo 377536" width="3.154" height="35.224" transform="translate(231.397 71.906)" fill="#fff198"/>
            <rect id="Rectángulo_377537" data-name="Rectángulo 377537" width="3.154" height="23.26" transform="translate(237.485 83.87)" fill="#e8505b"/>
            <rect id="Rectángulo_377538" data-name="Rectángulo 377538" width="3.154" height="31.025" transform="translate(243.575 76.285)" fill="#fff198"/>
            <rect id="Rectángulo_377539" data-name="Rectángulo 377539" width="3.154" height="33.863" transform="translate(249.663 73.267)" fill="#e8505b"/>
            <rect id="Rectángulo_377540" data-name="Rectángulo 377540" width="3.154" height="22.544" transform="translate(255.753 84.586)" fill="#fff198"/>
            <rect id="Rectángulo_377541" data-name="Rectángulo 377541" width="3.154" height="18.123" transform="translate(261.842 89.007)" fill="#e8505b"/>
            <rect id="Rectángulo_377542" data-name="Rectángulo 377542" width="3.154" height="31.608" transform="translate(267.931 75.522)" fill="#fff198"/>
            <rect id="Rectángulo_377543" data-name="Rectángulo 377543" width="3.154" height="25.91" transform="translate(274.02 81.221)" fill="#e8505b"/>
            <rect id="Rectángulo_377544" data-name="Rectángulo 377544" width="3.154" height="30.464" transform="translate(280.109 76.667)" fill="#fff198"/>
            <rect id="Rectángulo_377545" data-name="Rectángulo 377545" width="3.154" height="20.755" transform="translate(286.198 86.376)" fill="#e8505b"/>
            <rect id="Rectángulo_377546" data-name="Rectángulo 377546" width="3.154" height="24.703" transform="translate(292.287 82.427)" fill="#fff198"/>
            <path id="Trazado_819799" data-name="Trazado 819799" d="M409.722,186.475c0,.071-14.96.13-33.411.13s-33.414-.058-33.414-.13,14.958-.13,33.414-.13,33.411.058,33.411.13" transform="translate(-112.994 -76.891)" fill="#263238"/>
            <path id="Trazado_819800" data-name="Trazado 819800" d="M349.487,190.514a21.178,21.178,0,0,1-4.681,0,21.178,21.178,0,0,1,4.681,0" transform="translate(-113.593 -78.158)" fill="#263238"/>
            <path id="Trazado_819801" data-name="Trazado 819801" d="M360.38,190.72a30.217,30.217,0,0,1-5.594,0,30.217,30.217,0,0,1,5.594,0" transform="translate(-116.721 -78.222)" fill="#263238"/>
            <path id="Trazado_819802" data-name="Trazado 819802" d="M370.026,190.72a30.217,30.217,0,0,1-5.594,0,30.217,30.217,0,0,1,5.594,0" transform="translate(-119.745 -78.222)" fill="#263238"/>
            <path id="Trazado_819803" data-name="Trazado 819803" d="M379.672,190.72a30.217,30.217,0,0,1-5.594,0,30.217,30.217,0,0,1,5.594,0" transform="translate(-122.769 -78.222)" fill="#263238"/>
            <path id="Trazado_819804" data-name="Trazado 819804" d="M389.318,190.72a30.217,30.217,0,0,1-5.594,0,30.217,30.217,0,0,1,5.594,0" transform="translate(-125.793 -78.222)" fill="#263238"/>
            <path id="Trazado_819805" data-name="Trazado 819805" d="M398.964,190.72a30.217,30.217,0,0,1-5.594,0,30.217,30.217,0,0,1,5.594,0" transform="translate(-128.817 -78.222)" fill="#263238"/>
            <path id="Trazado_819806" data-name="Trazado 819806" d="M408.61,190.72a30.217,30.217,0,0,1-5.594,0,30.217,30.217,0,0,1,5.594,0" transform="translate(-131.841 -78.222)" fill="#263238"/>
            <path id="Trazado_819807" data-name="Trazado 819807" d="M418.257,190.72a30.217,30.217,0,0,1-5.594,0,30.217,30.217,0,0,1,5.594,0" transform="translate(-134.865 -78.222)" fill="#263238"/>
            <path id="Trazado_819808" data-name="Trazado 819808" d="M427.9,190.72a30.218,30.218,0,0,1-5.594,0,30.218,30.218,0,0,1,5.594,0" transform="translate(-137.889 -78.222)" fill="#263238"/>
            <path id="Trazado_819809" data-name="Trazado 819809" d="M437.549,190.72a30.217,30.217,0,0,1-5.594,0,30.217,30.217,0,0,1,5.594,0" transform="translate(-140.913 -78.222)" fill="#263238"/>
            <g id="Grupo_1071518" data-name="Grupo 1071518" transform="translate(237.485 83.869)" opacity="0.3">
              <g id="Grupo_1071517" data-name="Grupo 1071517">
                <g id="Grupo_1071516" data-name="Grupo 1071516" clip-path="url(#clip-path-5)">
                  <rect id="Rectángulo_377547" data-name="Rectángulo 377547" width="3.154" height="23.26" transform="translate(0 0.001)" fill="#fff"/>
                </g>
              </g>
            </g>
            <g id="Grupo_1071521" data-name="Grupo 1071521" transform="translate(249.663 73.266)" opacity="0.3">
              <g id="Grupo_1071520" data-name="Grupo 1071520">
                <g id="Grupo_1071519" data-name="Grupo 1071519" clip-path="url(#clip-path-6)">
                  <rect id="Rectángulo_377549" data-name="Rectángulo 377549" width="3.154" height="33.863" transform="translate(0 0.001)" fill="#fff"/>
                </g>
              </g>
            </g>
            <g id="Grupo_1071524" data-name="Grupo 1071524" transform="translate(261.841 89.007)" opacity="0.3">
              <g id="Grupo_1071523" data-name="Grupo 1071523">
                <g id="Grupo_1071522" data-name="Grupo 1071522" clip-path="url(#clip-path-7)">
                  <rect id="Rectángulo_377551" data-name="Rectángulo 377551" width="3.154" height="18.123" transform="translate(0.001)" fill="#fff"/>
                </g>
              </g>
            </g>
            <g id="Grupo_1071527" data-name="Grupo 1071527" transform="translate(274.02 81.22)" opacity="0.3">
              <g id="Grupo_1071526" data-name="Grupo 1071526">
                <g id="Grupo_1071525" data-name="Grupo 1071525" clip-path="url(#clip-path-8)">
                  <rect id="Rectángulo_377553" data-name="Rectángulo 377553" width="3.154" height="25.91" transform="translate(0 0.001)" fill="#fff"/>
                </g>
              </g>
            </g>
            <g id="Grupo_1071530" data-name="Grupo 1071530" transform="translate(286.198 86.376)" opacity="0.3">
              <g id="Grupo_1071529" data-name="Grupo 1071529">
                <g id="Grupo_1071528" data-name="Grupo 1071528" clip-path="url(#clip-path-9)">
                  <rect id="Rectángulo_377555" data-name="Rectángulo 377555" width="3.154" height="20.755" transform="translate(0 0)" fill="#fff"/>
                </g>
              </g>
            </g>
            <path id="Trazado_819810" data-name="Trazado 819810" d="M220.411,71.533a3.036,3.036,0,1,1-3.036-3.036,3.036,3.036,0,0,1,3.036,3.036" transform="translate(-72.693 -39.947)" fill="#fff198"/>
            <path id="Trazado_819811" data-name="Trazado 819811" d="M278.334,69.349c0,.1-10.237.178-22.861.178s-22.862-.08-22.862-.178,10.234-.178,22.862-.178,22.861.08,22.861.178" transform="translate(-78.42 -40.158)" fill="#e8505b"/>
            <path id="Trazado_819812" data-name="Trazado 819812" d="M251.119,74.7a2.735,2.735,0,0,1-.708.069c-.456.022-1.116.041-1.931.057-1.63.032-3.883.052-6.371.052s-4.742-.02-6.373-.052c-.815-.016-1.475-.035-1.931-.057a2.732,2.732,0,0,1-.708-.069,2.732,2.732,0,0,1,.708-.069c.457-.021,1.116-.041,1.931-.057,1.631-.032,3.884-.052,6.373-.052s4.74.02,6.371.052c.816.016,1.475.036,1.931.057a2.735,2.735,0,0,1,.708.069" transform="translate(-78.573 -41.835)" fill="#e8505b"/>
            <rect id="Rectángulo_377557" data-name="Rectángulo 377557" width="96.051" height="109.62" transform="translate(25.634 19.857)" fill="#fafafa"/>
            <path id="Trazado_819813" data-name="Trazado 819813" d="M141.318,165.373s-.006-.178-.009-.521,0-.855-.009-1.523c0-1.346-.011-3.331-.019-5.916-.01-5.176-.024-12.749-.042-22.366-.019-19.22-.047-46.605-.08-79.293l.158.158-96.041.021h-.01l.178-.178c-.01,40.415-.02,78.1-.027,109.62l-.151-.151,69.667.078,19.479.039,5.134.018c1.163.005,1.771.016,1.771.016s-.586.011-1.738.017l-5.106.017-19.444.039-69.763.078h-.151v-.151c-.008-31.517-.018-69.2-.028-109.62v-.178h.189l96.041.021h.158v.158c-.033,32.73-.06,60.151-.08,79.395-.018,9.6-.032,17.163-.042,22.331-.008,2.572-.014,4.547-.019,5.885q-.005.991-.009,1.506c0,.336-.009.5-.009.5" transform="translate(-19.634 -35.896)" fill="#263238"/>
            <path id="Trazado_819814" data-name="Trazado 819814" d="M138.524,136.238c-.032.065-1.064-.533-3.089-1.174a19.858,19.858,0,0,0-8.857-.657,19.349,19.349,0,0,0-5.843,1.878,27.468,27.468,0,0,0-5.743,4.131c-1.884,1.663-3.754,3.55-5.911,5.294a20.374,20.374,0,0,1-7.543,4.083,11.408,11.408,0,0,1-4.4.266,14.285,14.285,0,0,1-4.081-1.26,71.226,71.226,0,0,1-6.836-4.065,21.319,21.319,0,0,0-6.429-2.883,19.094,19.094,0,0,0-6.117-.469,19.7,19.7,0,0,0-8.443,2.749c-1.811,1.107-2.666,1.94-2.714,1.882a4.2,4.2,0,0,1,.614-.6,14.63,14.63,0,0,1,1.965-1.5,19.266,19.266,0,0,1,14.822-2.592,21.664,21.664,0,0,1,6.618,2.9,72.967,72.967,0,0,0,6.791,4,11.628,11.628,0,0,0,8.055.943,19.915,19.915,0,0,0,7.3-3.947c2.123-1.706,4-3.582,5.912-5.247a27.7,27.7,0,0,1,5.9-4.163,19.569,19.569,0,0,1,15.026-.977,15.8,15.8,0,0,1,2.268.976,4.3,4.3,0,0,1,.74.44" transform="translate(-25.096 -60.408)" fill="#e8505b"/>
            <rect id="Rectángulo_377558" data-name="Rectángulo 377558" width="8.166" height="22.085" transform="translate(52.071 90.553)" fill="#a3bfe4"/>
            <rect id="Rectángulo_377559" data-name="Rectángulo 377559" width="8.166" height="22.085" transform="translate(86.722 90.553)" fill="#a3bfe4"/>
            <rect id="Rectángulo_377560" data-name="Rectángulo 377560" width="8.166" height="35.055" transform="translate(98.272 77.583)" fill="#a3bfe4"/>
            <rect id="Rectángulo_377561" data-name="Rectángulo 377561" width="8.166" height="7.433" transform="translate(41.504 105.685)" fill="#a3bfe4"/>
            <rect id="Rectángulo_377562" data-name="Rectángulo 377562" width="8.166" height="12.112" transform="translate(63.621 100.525)" fill="#a3bfe4"/>
            <rect id="Rectángulo_377563" data-name="Rectángulo 377563" width="8.166" height="14.892" transform="translate(75.171 97.745)" fill="#a3bfe4"/>
            <path id="Trazado_819815" data-name="Trazado 819815" d="M92.2,194.625c0,.181-1.975.328-4.412.328s-4.412-.147-4.412-.328,1.975-.328,4.412-.328,4.412.147,4.412.328" transform="translate(-31.638 -79.384)" fill="#263238"/>
            <path id="Trazado_819816" data-name="Trazado 819816" d="M77.4,194.625c0,.181-1.976.328-4.412.328s-4.413-.147-4.413-.328,1.975-.328,4.413-.328,4.412.147,4.412.328" transform="translate(-26.998 -79.384)" fill="#263238"/>
            <path id="Trazado_819817" data-name="Trazado 819817" d="M160.841,194.625c0,.181-2.233.328-4.987.328s-4.987-.147-4.987-.328,2.232-.328,4.987-.328,4.987.147,4.987.328" transform="translate(-52.794 -79.384)" fill="#263238"/>
            <path id="Trazado_819818" data-name="Trazado 819818" d="M143.171,194.625c0,.181-2.233.328-4.987.328s-4.987-.147-4.987-.328,2.233-.328,4.987-.328,4.987.147,4.987.328" transform="translate(-47.255 -79.384)" fill="#263238"/>
            <path id="Trazado_819819" data-name="Trazado 819819" d="M125.374,194.625c0,.181-1.976.329-4.412.329s-4.412-.148-4.412-.329,1.975-.328,4.412-.328,4.412.147,4.412.328" transform="translate(-42.036 -79.384)" fill="#263238"/>
            <path id="Trazado_819820" data-name="Trazado 819820" d="M107.991,194.625c0,.181-1.976.329-4.411.329s-4.412-.148-4.412-.329,1.975-.328,4.412-.328,4.411.147,4.411.328" transform="translate(-36.587 -79.384)" fill="#263238"/>
            <rect id="Rectángulo_377564" data-name="Rectángulo 377564" width="66.736" height="27.714" transform="translate(41.311 35.838)" fill="#e0e0e0"/>
            <path id="Trazado_819821" data-name="Trazado 819821" d="M85.541,90.451a3.111,3.111,0,1,1-3.111-3.111,3.111,3.111,0,0,1,3.111,3.111" transform="translate(-30.364 -45.854)" fill="#263238"/>
            <rect id="Rectángulo_377565" data-name="Rectángulo 377565" width="21.677" height="1.203" transform="translate(58.287 42.448)" fill="#263238"/>
            <rect id="Rectángulo_377566" data-name="Rectángulo 377566" width="42.169" height="1.203" transform="translate(58.287 45.183)" fill="#fff"/>
            <path id="Trazado_819822" data-name="Trazado 819822" d="M85.541,104.383a3.111,3.111,0,1,1-3.111-3.111,3.111,3.111,0,0,1,3.111,3.111" transform="translate(-30.364 -50.222)" fill="#fff198"/>
            <rect id="Rectángulo_377567" data-name="Rectángulo 377567" width="11.07" height="1.203" transform="translate(58.287 52.013)" fill="#fff198"/>
            <rect id="Rectángulo_377568" data-name="Rectángulo 377568" width="42.169" height="1.203" transform="translate(58.287 54.748)" fill="#fff"/>
            <rect id="Rectángulo_377569" data-name="Rectángulo 377569" width="105.476" height="120.377" transform="translate(317.95 0.179)" fill="#fafafa"/>
            <path id="Trazado_819823" data-name="Trazado 819823" d="M576.544,147.465s-.006-.2-.009-.572-.005-.938-.009-1.672c0-1.476-.011-3.656-.019-6.5-.01-5.682-.024-14-.042-24.558-.019-21.106-.047-51.181-.08-87.079l.158.158-105.465.021h-.011l.179-.179c-.01,44.381-.02,85.767-.027,120.377l-.152-.151,76.508.078,21.388.039,5.636.017c1.277.006,1.943.017,1.943.017s-.645.011-1.911.016l-5.607.018-21.355.039-76.6.078h-.151v-.151c-.008-34.61-.017-76-.027-120.377V26.91h.189l105.465.021h.158v.158c-.033,35.94-.06,66.05-.08,87.18-.018,10.545-.032,18.849-.042,24.523-.008,2.826-.014,5-.018,6.464,0,.726-.007,1.279-.009,1.654s-.009.554-.009.554" transform="translate(-153.119 -26.91)" fill="#263238"/>
            <rect id="Rectángulo_377570" data-name="Rectángulo 377570" width="85.446" height="68.544" transform="translate(326.388 9.803)" fill="#e0e0e0"/>
            <rect id="Rectángulo_377571" data-name="Rectángulo 377571" width="2.804" height="0.808" transform="translate(332.36 66.161)" fill="#263238"/>
            <rect id="Rectángulo_377572" data-name="Rectángulo 377572" width="3.586" height="0.808" transform="translate(338.704 70.482)" fill="#263238"/>
            <rect id="Rectángulo_377573" data-name="Rectángulo 377573" width="3.586" height="0.808" transform="translate(351.188 70.482)" fill="#263238"/>
            <rect id="Rectángulo_377574" data-name="Rectángulo 377574" width="3.586" height="0.808" transform="translate(363.673 70.482)" fill="#263238"/>
            <rect id="Rectángulo_377575" data-name="Rectángulo 377575" width="3.586" height="0.808" transform="translate(376.157 70.482)" fill="#263238"/>
            <rect id="Rectángulo_377576" data-name="Rectángulo 377576" width="3.586" height="0.808" transform="translate(388.641 70.482)" fill="#263238"/>
            <rect id="Rectángulo_377577" data-name="Rectángulo 377577" width="3.586" height="0.808" transform="translate(401.125 70.482)" fill="#263238"/>
            <rect id="Rectángulo_377578" data-name="Rectángulo 377578" width="2.804" height="0.808" transform="translate(332.36 55.368)" fill="#263238"/>
            <rect id="Rectángulo_377579" data-name="Rectángulo 377579" width="2.804" height="0.808" transform="translate(332.36 35.055)" fill="#263238"/>
            <rect id="Rectángulo_377580" data-name="Rectángulo 377580" width="2.804" height="0.808" transform="translate(332.36 24.847)" fill="#263238"/>
            <rect id="Rectángulo_377581" data-name="Rectángulo 377581" width="2.804" height="0.808" transform="translate(332.502 45.211)" fill="#263238"/>
            <path id="Trazado_819824" data-name="Trazado 819824" d="M566.26,102.324a1.868,1.868,0,0,1-.3.019l-.882.018-3.393.033-12.479.058-41.172.051-9.757,0H498.1v-.176c.024-13.762.045-25.875.06-34.567.023-4.324.041-7.8.053-10.208.013-1.182.023-2.1.031-2.747.007-.3.012-.535.016-.711a.122.122,0,1,1,.033,0c0,.175.009.41.016.711.007.644.017,1.565.03,2.747.013,2.411.031,5.884.054,10.208.015,8.691.036,20.8.06,34.567l-.176-.176h9.757l41.172.051,12.479.057,3.393.034.882.017a2.059,2.059,0,0,1,.3.018" transform="translate(-161.649 -35.355)" fill="#263238"/>
            <path id="Trazado_819825" data-name="Trazado 819825" d="M568.369,93.274c0,.1-14.789.178-33.029.178s-33.033-.08-33.033-.178,14.787-.178,33.033-.178,33.029.08,33.029.178" transform="translate(-162.968 -47.659)" fill="#263238"/>
            <path id="Trazado_819826" data-name="Trazado 819826" d="M568.369,78.479c0,.1-14.789.179-33.029.179s-33.033-.08-33.033-.179,14.787-.178,33.033-.178,33.029.08,33.029.178" transform="translate(-162.968 -43.021)" fill="#263238"/>
            <path id="Trazado_819827" data-name="Trazado 819827" d="M568.369,63.61c0,.1-14.789.178-33.029.178s-33.033-.08-33.033-.178,14.787-.179,33.033-.179,33.029.08,33.029.179" transform="translate(-162.968 -38.359)" fill="#263238"/>
            <path id="Trazado_819828" data-name="Trazado 819828" d="M568.369,108.069c0,.1-14.789.178-33.029.178s-33.033-.08-33.033-.178,14.787-.178,33.033-.178,33.029.08,33.029.178" transform="translate(-162.968 -52.297)" fill="#263238"/>
            <path id="Trazado_819829" data-name="Trazado 819829" d="M503.3,100.481V91.47l5.616-8.719,3.811,2.924,7.823-12.152,4.613,3.249,6.419-11.21L536.8,69.81l7.824-14.871,8.425,16.621,6.82-8.316,8.024-2.3v39.533Z" transform="translate(-163.279 -35.697)" fill="#455a64"/>
            <path id="Trazado_819830" data-name="Trazado 819830" d="M568.68,58.986a.569.569,0,0,1-.141.014l-.418.013-1.628.026-6.157.047.078-.039-6.588,8.631-.042.055h-.071l-16.519.031.148-.084L530.4,79.242l-6.82,11.332-.135.223-.152-.21L514.35,78.279l.24-.008L506.414,90.98l-2.285,3.51-.608.915c-.139.205-.221.3-.221.3s.056-.116.183-.329l.573-.938,2.218-3.553,8.071-12.776.114-.181.127.173,8.984,12.277-.286.012,6.809-11.338L537.047,67.5l.05-.083h.1l16.519.03-.112.056,6.656-8.579.03-.039h.049l6.157.047,1.628.026.418.013a.569.569,0,0,1,.141.014" transform="translate(-163.279 -36.934)" fill="#e8505b"/>
            <path id="Trazado_819831" data-name="Trazado 819831" d="M522.932,90.937a.634.634,0,1,1-.634-.61.622.622,0,0,1,.634.61" transform="translate(-169.036 -46.791)" fill="#e8505b"/>
            <path id="Trazado_819832" data-name="Trazado 819832" d="M550.686,75.162a.634.634,0,1,1-.634-.61.622.622,0,0,1,.634.61" transform="translate(-177.737 -41.845)" fill="#e8505b"/>
            <path id="Trazado_819833" data-name="Trazado 819833" d="M572.262,71.286a.634.634,0,1,1-.634-.61.622.622,0,0,1,.634.61" transform="translate(-184.501 -40.63)" fill="#e8505b"/>
            <path id="Trazado_819834" data-name="Trazado 819834" d="M565.52,155.8c0,.1-18.031.178-40.266.178s-40.27-.08-40.27-.178,18.026-.178,40.27-.178,40.266.08,40.266.178" transform="translate(-157.537 -67.259)" fill="#263238"/>
            <path id="Trazado_819835" data-name="Trazado 819835" d="M565.52,162.139c0,.1-18.031.178-40.266.178s-40.27-.08-40.27-.178,18.026-.178,40.27-.178,40.266.08,40.266.178" transform="translate(-157.537 -69.247)" fill="#263238"/>
            <path id="Trazado_819836" data-name="Trazado 819836" d="M565.52,168.481c0,.1-18.031.178-40.266.178s-40.27-.08-40.27-.178,18.026-.178,40.27-.178,40.266.08,40.266.178" transform="translate(-157.537 -71.235)" fill="#263238"/>
            <path id="Trazado_819837" data-name="Trazado 819837" d="M565.52,174.824c0,.1-18.031.178-40.266.178s-40.27-.08-40.27-.178,18.026-.178,40.27-.178,40.266.08,40.266.178" transform="translate(-157.537 -73.224)" fill="#263238"/>
            <path id="Trazado_819838" data-name="Trazado 819838" d="M553.053,161.314c2.2-3.7,2.846-8.632,3.413-12.9.266-2.009.734-4.868-.676-6.129-1.51-1.351-1.65-3.427-3.386-4.471a5.344,5.344,0,0,0-5.739.047" transform="translate(-176.874 -61.423)" fill="#263238"/>
            <path id="Trazado_819839" data-name="Trazado 819839" d="M541.531,175.347h0a5.945,5.945,0,0,1-6.4-5.7c-.124-3.236-.233-6.508-.233-6.508s-4.9-.459-5.26-5.312-.194-16.058-.194-16.058a16.912,16.912,0,0,1,17.092,1.1l-.3,17.081v9.19c-.033,3.082-1.635,5.973-4.708,6.209" transform="translate(-171.465 -62.35)" fill="#ffbe9d"/>
            <path id="Trazado_819840" data-name="Trazado 819840" d="M532.62,150.042a2.488,2.488,0,0,1,3.317-.724,2.821,2.821,0,0,1,.94,3.527,3.718,3.718,0,0,1-2.381,1.8,1.863,1.863,0,0,0-1.459,2.007c.139,1.218,2.166,1.676,3.081,2.684,1.422,1.569,4.545,2.233,6.647,2.481,2.067.244,1.817.264,3.02-1.435a6.517,6.517,0,0,0,1.181-3.94q.111-5.368.222-10.736a15.343,15.343,0,0,0-.245-3.852,5.17,5.17,0,0,0-2.031-3.185c-1.181-.777-2.676-.843-4.021-1.278a33.237,33.237,0,0,1-4.681-2.463c-1.573-.8-3.5-1.285-5.08-.493-1.133.569-1.893,1.7-3,2.327-1.569.892-3.705.69-4.467,3a3.912,3.912,0,0,0,.026,2.468,5.7,5.7,0,0,0,7.753,3.049,7.693,7.693,0,0,0,.092,3.4c.179.537.242,1.356,1.081,1.371" transform="translate(-169.605 -60.491)" fill="#263238"/>
            <path id="Trazado_819841" data-name="Trazado 819841" d="M538.051,160.69c.037-.031.2.257.606.231a1.129,1.129,0,0,0,.908-1.108,1.213,1.213,0,0,0-.833-1.208c-.4-.148-.686-.072-.7-.128-.021-.033.266-.219.768-.115a1.454,1.454,0,0,1,.762.437,1.407,1.407,0,0,1,.358,1.031,1.34,1.34,0,0,1-1.263,1.343.728.728,0,0,1-.543-.273c-.086-.119-.086-.2-.065-.211" transform="translate(-174.167 -68.109)" fill="#eb996e"/>
            <path id="Trazado_819842" data-name="Trazado 819842" d="M545.417,139.985c-.012-.01.1-.186.406-.411A3.255,3.255,0,0,1,547.3,139a4.249,4.249,0,0,1,2.323.354,5.322,5.322,0,0,1,2.141,1.915,10.865,10.865,0,0,1,1.508,4.914,12.684,12.684,0,0,1,.128,2.119,12.28,12.28,0,0,1-.379-2.087,11.734,11.734,0,0,0-1.554-4.749,5.183,5.183,0,0,0-1.985-1.814,3.9,3.9,0,0,0-4.063.333" transform="translate(-176.482 -62.038)" fill="#455a64"/>
            <path id="Trazado_819843" data-name="Trazado 819843" d="M524.858,144.481c0,.01-.066.013-.184-.014a1.4,1.4,0,0,1-.484-.218,1.765,1.765,0,0,1-.563-.633,1.614,1.614,0,0,1-.152-1.124,1.84,1.84,0,0,1,.787-1.133,2.638,2.638,0,0,1,1.535-.3,2.117,2.117,0,0,0,1.465-.371,10.572,10.572,0,0,0,1.186-1.279,6.052,6.052,0,0,1,3.022-1.744,6.421,6.421,0,0,1,2.848-.063,5.5,5.5,0,0,1,1.789.687,2.081,2.081,0,0,1,.555.428,8.362,8.362,0,0,0-2.39-.867,6.468,6.468,0,0,0-2.721.134,5.876,5.876,0,0,0-2.839,1.667,10.171,10.171,0,0,1-1.24,1.318,2,2,0,0,1-.835.375,3.971,3.971,0,0,1-.844.045,2.391,2.391,0,0,0-1.373.222,1.6,1.6,0,0,0-.7.942,1.563,1.563,0,0,0,.553,1.586,3.835,3.835,0,0,0,.584.343" transform="translate(-169.591 -61.57)" fill="#455a64"/>
            <path id="Trazado_819844" data-name="Trazado 819844" d="M542.414,160.417c-.012-.03.244-.12.641-.387a4.009,4.009,0,0,0,1.324-1.475,3.739,3.739,0,0,0-.659-4.3,7.008,7.008,0,0,0-1.516-1.109c-.567-.33-1.145-.636-1.672-.995a5.656,5.656,0,0,1-1.344-1.266,5.865,5.865,0,0,1-1.135-2.873,5.319,5.319,0,0,1,.159-2.074,3.11,3.11,0,0,1,.193-.531c.054-.117.088-.176.1-.172a7.2,7.2,0,0,0-.2,2.743,5.808,5.808,0,0,0,1.146,2.7,5.427,5.427,0,0,0,1.279,1.177c.508.341,1.077.641,1.654.976a7.15,7.15,0,0,1,1.588,1.173,3.942,3.942,0,0,1,.945,1.6,3.867,3.867,0,0,1-1.788,4.538,1.724,1.724,0,0,1-.714.268" transform="translate(-174.161 -64.003)" fill="#455a64"/>
            <path id="Trazado_819845" data-name="Trazado 819845" d="M551.438,153.1a2.181,2.181,0,0,1-.625.139,9.052,9.052,0,0,1-1.744.053,10.808,10.808,0,0,1-5.414-1.861,8.572,8.572,0,0,1-3.551-4.469,3.692,3.692,0,0,1-.073-1.759,1.406,1.406,0,0,1,.241-.6,4.29,4.29,0,0,0,.074,2.285,8.806,8.806,0,0,0,3.51,4.244,11.371,11.371,0,0,0,5.234,1.905c1.44.157,2.342-.014,2.349.06" transform="translate(-174.77 -63.807)" fill="#455a64"/>
            <path id="Trazado_819846" data-name="Trazado 819846" d="M557.469,150.746a8.572,8.572,0,0,1,6.691-3.031,6.162,6.162,0,0,1,5.613,4.346c.466,1.849-.1,3.778-.342,5.669s-.008,4.1,1.536,5.224a8.932,8.932,0,0,0,3.25,1.07,3.556,3.556,0,0,1,2.695,1.914,2.733,2.733,0,0,1-1.672,3.179,6.152,6.152,0,0,1-3.883.054,3.253,3.253,0,0,1-1.44,3.89,4.3,4.3,0,0,1-4.311-.181,6.435,6.435,0,0,1-2.633-3.569,3.2,3.2,0,0,1-4.414.839,4.63,4.63,0,0,1-1.786-4.438,8.659,8.659,0,0,1,2.237-4.436,10.965,10.965,0,0,0,1.563-1.99,2.534,2.534,0,0,0,.1-2.425,1.468,1.468,0,0,0-2.16-.434" transform="translate(-180.029 -64.778)" fill="#263238"/>
            <path id="Trazado_819847" data-name="Trazado 819847" d="M560.406,156.455a1.672,1.672,0,0,1-1.459-.017,3.511,3.511,0,0,1-2.117-2.763,3.615,3.615,0,0,1,.231-1.97,3.754,3.754,0,0,1,.93-1.317,2.383,2.383,0,0,1,1.276-.711,11.356,11.356,0,0,0-1.1.891,3.6,3.6,0,0,0-.985,3.052,3.1,3.1,0,0,0,3.222,2.835" transform="translate(-180.046 -65.395)" fill="#e8505b"/>
            <path id="Trazado_819848" data-name="Trazado 819848" d="M534.753,171.475a2.294,2.294,0,0,1-1.108-.109,5.977,5.977,0,0,1-3.933-3.471,2.283,2.283,0,0,1-.246-1.086,7.011,7.011,0,0,1,.476.981,6.855,6.855,0,0,0,3.779,3.334,7.061,7.061,0,0,1,1.033.351" transform="translate(-171.478 -70.767)" fill="#eb996e"/>
            <path id="Trazado_819849" data-name="Trazado 819849" d="M562.277,171.592c0,.012-.084,0-.238-.035a2.377,2.377,0,0,1-.632-.281,3.45,3.45,0,0,1-1.378-2.1,4.3,4.3,0,0,1-.06-1.764,7.092,7.092,0,0,1,.641-1.91c.612-1.28,1.577-2.5,2.29-3.908a6.928,6.928,0,0,0,.718-2.16,4.179,4.179,0,0,0-2.7-4.5,4.47,4.47,0,0,0-2.4-.15c-.569.119-.859.28-.874.248-.006-.011.063-.056.2-.133a3.429,3.429,0,0,1,.64-.25,4.3,4.3,0,0,1,5.205,2.6,4.437,4.437,0,0,1,.274,2.23,7.167,7.167,0,0,1-.746,2.276c-.74,1.46-1.709,2.66-2.314,3.893a5.191,5.191,0,0,0-.63,3.472,3.436,3.436,0,0,0,1.212,2.04,6.364,6.364,0,0,0,.79.43" transform="translate(-180.316 -66.905)" fill="#455a64"/>
            <path id="Trazado_819850" data-name="Trazado 819850" d="M569.61,174.839a.994.994,0,0,1-.306.018,3.422,3.422,0,0,1-.866-.155,4.87,4.87,0,0,1-2.527-1.97,7.488,7.488,0,0,1-1.092-4.625,47.3,47.3,0,0,1,.936-5.747,13.462,13.462,0,0,0,.2-2.955,7.634,7.634,0,0,0-.621-2.653,4.839,4.839,0,0,0-3.407-2.844,7.087,7.087,0,0,0-3.125.011c-.731.163-1.119.325-1.131.295a.982.982,0,0,1,.27-.141,5.994,5.994,0,0,1,.827-.288,6.834,6.834,0,0,1,3.214-.122,5.143,5.143,0,0,1,2.053.922,5.23,5.23,0,0,1,1.6,2.031,7.84,7.84,0,0,1,.671,2.767,13.452,13.452,0,0,1-.2,3.036,51.264,51.264,0,0,0-.959,5.7,7.348,7.348,0,0,0,.973,4.47,4.885,4.885,0,0,0,2.361,1.978,7.282,7.282,0,0,0,1.128.269" transform="translate(-180.325 -66.602)" fill="#455a64"/>
            <path id="Trazado_819851" data-name="Trazado 819851" d="M572.467,216.772l-10.337,8.064,4.338,7.122,12.449-9.171Z" transform="translate(-181.722 -86.43)" fill="#ffbe9d"/>
            <path id="Trazado_819852" data-name="Trazado 819852" d="M525.492,174.092s.05-.862-2.2-.986a23.365,23.365,0,0,0-2.506-.084,5.754,5.754,0,0,1-1.078-2.09,6.269,6.269,0,0,1,.483-2.124l2.281-.21-.619-1.549-1.609.112-4.541.545-1.807,7.95L501.5,198.792a5.973,5.973,0,0,0,2.366,8.7c3.2,1.548,7.5-1.739,8.685-5.094l6.859-25.734,2.413-1.885,3.457-.634" transform="translate(-162.398 -70.842)" fill="#ffbe9d"/>
            <path id="Trazado_819853" data-name="Trazado 819853" d="M495.752,350.217l16.876-97.083-.024-.006c.036-.143.071-.279.106-.421l0-.018h0c2.872-11.387,7.3-15.037,7.3-15.037l25.825,1.62c2.2,3.947,2.474,13.417,2.474,13.417.3,1.161-5.456,95.23-5.456,95.23l-8.637-.238-4.684-89-25.132,91.9Z" transform="translate(-160.913 -92.976)" fill="#ffbe9d"/>
            <path id="Trazado_819854" data-name="Trazado 819854" d="M492.7,402.489l.033-.877,8.884.257-.077,2.892-.549.018c-2.445.06-12.433.148-14.051-.356-1.8-.562,5.76-1.933,5.76-1.933" transform="translate(-158.063 -144.376)" fill="#e8505b"/>
            <g id="Grupo_1071533" data-name="Grupo 1071533" transform="translate(340.273 257.954)" opacity="0.6">
              <g id="Grupo_1071532" data-name="Grupo 1071532">
                <g id="Grupo_1071531" data-name="Grupo 1071531" clip-path="url(#clip-path-10)">
                  <path id="Trazado_819855" data-name="Trazado 819855" d="M503.667,404.938a2.842,2.842,0,0,1,1.183-1.723,3.145,3.145,0,0,1,2.086-.542l-.069,2.3Z" transform="translate(-503.667 -402.658)" fill="#fff"/>
                </g>
              </g>
            </g>
            <g id="Grupo_1071536" data-name="Grupo 1071536" transform="translate(328.572 258.905)" opacity="0.6">
              <g id="Grupo_1071535" data-name="Grupo 1071535">
                <g id="Grupo_1071534" data-name="Grupo 1071534" clip-path="url(#clip-path-11)">
                  <path id="Trazado_819856" data-name="Trazado 819856" d="M488.989,404.043s-2.655.636-2.34,1.048,10.414.678,14.879.432l-.009-.184-11.781-.217s-.236-1.046-.75-1.079" transform="translate(-486.623 -404.043)" fill="#fff"/>
                </g>
              </g>
            </g>
            <path id="Trazado_819857" data-name="Trazado 819857" d="M501.671,405.752a.821.821,0,0,1-.152.011l-.437.013-1.61.023c-1.359.01-3.237,0-5.309-.053s-3.949-.14-5.306-.219l-1.606-.1-.436-.036a.9.9,0,0,1-.152-.019.849.849,0,0,1,.153,0l.437.017,1.607.073c1.357.06,3.232.136,5.3.189s3.948.073,5.307.082l1.609.01.438.006a.911.911,0,0,1,.152.009" transform="translate(-158.063 -145.552)" fill="#263238"/>
            <path id="Trazado_819858" data-name="Trazado 819858" d="M490.789,405.2a3.221,3.221,0,0,0-.279-.721,3.5,3.5,0,0,0-.53-.586,1.172,1.172,0,0,1,.623.537,1.04,1.04,0,0,1,.185.771" transform="translate(-159.103 -145.091)" fill="#263238"/>
            <path id="Trazado_819859" data-name="Trazado 819859" d="M494.809,403.79c-.025.014-.146-.13-.269-.323s-.2-.36-.177-.374.146.13.269.323.2.36.177.374" transform="translate(-160.476 -144.84)" fill="#263238"/>
            <path id="Trazado_819860" data-name="Trazado 819860" d="M495.827,403.4c-.021.02-.157-.07-.306-.2s-.252-.253-.232-.274.158.071.306.2.253.254.232.274" transform="translate(-160.767 -144.788)" fill="#263238"/>
            <path id="Trazado_819861" data-name="Trazado 819861" d="M496.345,402.484a2.169,2.169,0,1,1-.461-.057,1.116,1.116,0,0,1,.461.057" transform="translate(-160.809 -144.631)" fill="#263238"/>
            <path id="Trazado_819862" data-name="Trazado 819862" d="M496.539,401.715a.948.948,0,0,1-.519.126.961.961,0,0,1-.53-.08,3.1,3.1,0,0,1,.524-.02,3.06,3.06,0,0,1,.524-.026" transform="translate(-160.831 -144.405)" fill="#263238"/>
            <path id="Trazado_819863" data-name="Trazado 819863" d="M493.855,402.7a1.768,1.768,0,0,1-.568-.019,3.562,3.562,0,0,1-.6-.139,1.761,1.761,0,0,1-.342-.142.289.289,0,0,1-.136-.168.2.2,0,0,1,.093-.209,1.089,1.089,0,0,1,1.28.317.911.911,0,0,1,.174.358c.02.091.017.142.01.143a1.432,1.432,0,0,0-.245-.457,1.029,1.029,0,0,0-.476-.306.942.942,0,0,0-.679.025c-.092.06-.06.159.039.218a1.8,1.8,0,0,0,.316.135,4.151,4.151,0,0,0,.581.156c.338.065.555.071.555.088" transform="translate(-159.8 -144.476)" fill="#263238"/>
            <path id="Trazado_819864" data-name="Trazado 819864" d="M494.365,402.625a.491.491,0,0,1-.054-.369.827.827,0,0,1,.167-.382.578.578,0,0,1,.481-.257.209.209,0,0,1,.167.249.55.55,0,0,1-.1.233,1.629,1.629,0,0,1-.278.312.827.827,0,0,1-.332.205c-.01-.013.116-.092.278-.255a1.846,1.846,0,0,0,.247-.311c.082-.11.141-.309,0-.336a.515.515,0,0,0-.381.214.841.841,0,0,0-.171.339,1.819,1.819,0,0,0-.021.356" transform="translate(-160.459 -144.377)" fill="#263238"/>
            <path id="Trazado_819865" data-name="Trazado 819865" d="M506.895,402.614c0,.019-.253-.029-.654,0a2.993,2.993,0,0,0-1.442.509,2.682,2.682,0,0,0-.927,1.147c-.146.349-.166.586-.185.583a.424.424,0,0,1,0-.166,2,2,0,0,1,.11-.441,2.553,2.553,0,0,1,.933-1.2,2.871,2.871,0,0,1,1.5-.5,2.468,2.468,0,0,1,.486.024.546.546,0,0,1,.173.042" transform="translate(-163.399 -144.668)" fill="#263238"/>
            <path id="Trazado_819866" data-name="Trazado 819866" d="M500.9,404.744a7.808,7.808,0,0,1-2.585-.045c0-.029.58.019,1.293.031s1.29-.014,1.293.014" transform="translate(-161.716 -145.341)" fill="#263238"/>
            <path id="Trazado_819867" data-name="Trazado 819867" d="M504.485,404.83c.021.021-.051.113-.113.234s-.1.23-.129.227-.041-.131.032-.271.192-.211.21-.191" transform="translate(-163.568 -145.384)" fill="#263238"/>
            <path id="Trazado_819868" data-name="Trazado 819868" d="M505.433,403.754c.021.02-.039.1-.133.187s-.187.136-.208.116.039-.1.134-.187.187-.136.207-.116" transform="translate(-163.84 -145.046)" fill="#263238"/>
            <path id="Trazado_819869" data-name="Trazado 819869" d="M506.735,403.266c-.007.027-.125.023-.255.063s-.227.1-.25.081.055-.13.218-.176.3.007.287.032" transform="translate(-164.196 -144.878)" fill="#263238"/>
            <path id="Trazado_819870" data-name="Trazado 819870" d="M507.822,403.068c.01.026-.042.067-.117.091s-.142.023-.152,0,.042-.067.117-.091.143-.023.152,0" transform="translate(-164.612 -144.826)" fill="#263238"/>
            <path id="Trazado_819871" data-name="Trazado 819871" d="M558.656,181.286a17.015,17.015,0,0,1,6.836,2.692c8.166,5.293,21.821,16.487,20.689,21.67-.965,4.413-11.616,9.771-11.616,9.771l-6.917-8.32,4.241-2.425-10.425-6.934Z" transform="translate(-180.633 -75.305)" fill="#263238"/>
            <path id="Trazado_819872" data-name="Trazado 819872" d="M544.944,197.914l-.339,1.241-1.2,5.737-.3,8.408c6.194,7.975,6.286,14.69,6.286,14.69l-31.285,3.654c.005-6.179,2.26-13.962,2.26-13.962,1.81-3.071,1.723-12.256,1.385-12.591-1.955-1.937-2.428-3.357-.868-5.838,0,0-9.7,10.188-10.7,11.1-3.426,3.141-6.722,2.265-8.253.9-4.284-3.822.114-8.753.114-8.753l16.336-18.723a8.136,8.136,0,0,1,4.245-2.588c1.741-.411,3.5-.62,3.5-.62l10.908.093a18.343,18.343,0,0,1,3.249.4,7.8,7.8,0,0,1,4.764,5.9c.977,4.688-.107,10.948-.107,10.948" transform="translate(-162.264 -75.082)" fill="#263238"/>
            <path id="Trazado_819873" data-name="Trazado 819873" d="M564.926,194.909a4.376,4.376,0,0,1,.067.906c.014.584,0,1.431-.059,2.475a65.7,65.7,0,0,1-1.076,8.088c-.205,1.068-.42,2.1-.645,3.049l0-.034c-.1,2.43-.193,4.532-.275,6.025-.045.695-.082,1.276-.113,1.749a2.561,2.561,0,0,1-.08.628,2.588,2.588,0,0,1-.036-.632c0-.474.007-1.057.012-1.753.022-1.5.073-3.6.148-6.03v-.016l0-.018c.215-.945.425-1.974.629-3.036.6-3.119.991-5.969,1.176-8.04.094-1.035.143-1.876.172-2.457a4.421,4.421,0,0,1,.072-.9" transform="translate(-181.904 -79.576)" fill="#455a64"/>
            <path id="Trazado_819874" data-name="Trazado 819874" d="M566.091,207.159a130.291,130.291,0,0,1,11.22,7.764,65.244,65.244,0,0,1-5.712-3.735,65.278,65.278,0,0,1-5.508-4.028" transform="translate(-182.963 -83.415)" fill="#455a64"/>
            <path id="Trazado_819875" data-name="Trazado 819875" d="M533.247,189.3c.008-.009.062.033.16.121a3.221,3.221,0,0,1,.389.425,4.708,4.708,0,0,1,.846,1.939,6.4,6.4,0,0,1-.177,3.135,12.783,12.783,0,0,1-1.755,3.411,12.279,12.279,0,0,1-1.291,1.517c-.454.462-.94.842-1.366,1.231-.865.775-1.611,1.511-2.228,2.138s-1.1,1.149-1.44,1.51a3.384,3.384,0,0,1-.547.541,2.989,2.989,0,0,1,.441-.632c.306-.389.764-.939,1.361-1.593s1.33-1.413,2.19-2.208c.43-.4.907-.787,1.339-1.234a12.3,12.3,0,0,0,1.249-1.479,13.092,13.092,0,0,0,1.731-3.3,6.364,6.364,0,0,0,.243-2.989,5.628,5.628,0,0,0-1.146-2.53" transform="translate(-170.344 -77.818)" fill="#455a64"/>
            <path id="Trazado_819876" data-name="Trazado 819876" d="M531.326,227.666l.362-4.2h21.337l-.115,3.284Z" transform="translate(-172.065 -88.528)" fill="#455a64"/>
            <path id="Trazado_819877" data-name="Trazado 819877" d="M503.54,211.312c.039.054-.539.4-1.183,1.236a5.687,5.687,0,0,0,.3,7.455c.709.776,1.314,1.079,1.279,1.135-.01.019-.169-.036-.436-.181a4.857,4.857,0,0,1-1.025-.779,5.641,5.641,0,0,1-.317-7.79,4.858,4.858,0,0,1,.958-.859c.254-.167.408-.235.42-.216" transform="translate(-162.481 -84.717)" fill="#455a64"/>
            <path id="Trazado_819878" data-name="Trazado 819878" d="M560.422,398.164l2.42,5.629-10.828-.128-.229-5.739Z" transform="translate(-178.479 -143.22)" fill="#e8505b"/>
            <path id="Trazado_819879" data-name="Trazado 819879" d="M552,404.79a9.909,9.909,0,0,0,1.516.078c.937.016,2.232.011,3.661-.012l3.655-.076a11.4,11.4,0,0,0,1.515-.076,9.941,9.941,0,0,0-1.517-.074c-.937-.015-2.233-.01-3.662.013l-3.654.074a11.435,11.435,0,0,0-1.514.073" transform="translate(-178.547 -145.319)" fill="#263238"/>
            <path id="Trazado_819880" data-name="Trazado 819880" d="M558.537,398.094a15.207,15.207,0,0,0,.252,4.549,15.207,15.207,0,0,0-.252-4.549" transform="translate(-180.568 -143.273)" fill="#263238"/>
            <g id="Grupo_1071539" data-name="Grupo 1071539" transform="translate(373.455 259.302)" opacity="0.6">
              <g id="Grupo_1071538" data-name="Grupo 1071538">
                <g id="Grupo_1071537" data-name="Grupo 1071537" clip-path="url(#clip-path-12)">
                  <path id="Trazado_819881" data-name="Trazado 819881" d="M562.893,406.01l-10.823-.362L552,404.62l10.348.089.548,1.179" transform="translate(-552.001 -404.62)" fill="#fff"/>
                </g>
              </g>
            </g>
            <path id="Trazado_819882" data-name="Trazado 819882" d="M545.391,237.515c8.146,25.71-2.356,56.918.163,86.876.247,2.943,1.442,6.464-1.311,8.139a4.5,4.5,0,0,1-2.483.607c-2.2-.072-4.037-1.213-6-2a17.829,17.829,0,0,0-11.807-.457c-2.6.811-5.177,2.242-7.869,1.835-3.575-.54-5.892-4.074-9.182-5.572-3.081-1.4-6.639-.879-10.023-.963l-.1,0a7.593,7.593,0,0,1-7.012-9.615c4.917-18.011,21.227-76.518,28.446-87.2l21.583-.919c1.989,2.4,4.545,5.993,5.6,9.269" transform="translate(-158.951 -90.027)" fill="#a3bfe4"/>
            <path id="Trazado_819883" data-name="Trazado 819883" d="M555.412,259.377a9.61,9.61,0,0,1-1.174,1.476,33.785,33.785,0,0,1-3.187,3.257,21.386,21.386,0,0,1-3.76,2.586,8.261,8.261,0,0,1-1.713.793,53.329,53.329,0,0,0,5.239-3.65c1.327-1.156,2.421-2.329,3.235-3.158a10.1,10.1,0,0,1,1.36-1.3" transform="translate(-176.532 -99.786)" fill="#263238"/>
            <g id="Grupo_1071542" data-name="Grupo 1071542" transform="translate(356.613 169.293)" opacity="0.1">
              <g id="Grupo_1071541" data-name="Grupo 1071541">
                <g id="Grupo_1071540" data-name="Grupo 1071540" clip-path="url(#clip-path-13)">
                  <path id="Trazado_819884" data-name="Trazado 819884" d="M540.2,273.51a91.958,91.958,0,0,0-3.616,55.031c.387,1.571.782,3.358-.113,4.706-1.159,1.746-3.963,1.626-5.55.256s-2.219-3.526-2.617-5.583c-2.963-15.339,2.4-30.752,8.2-45.259" transform="translate(-527.468 -273.51)"/>
                </g>
              </g>
            </g>
            <rect id="Rectángulo_377586" data-name="Rectángulo 377586" width="40.906" height="1.99" transform="translate(206.024 177.958)" fill="#263238"/>
            <path id="Trazado_819885" data-name="Trazado 819885" d="M295.376,275.9,287.7,247.145h31.94l6.948,28.754Z" transform="translate(-95.691 -95.952)" fill="#263238"/>
            <path id="Trazado_819886" data-name="Trazado 819886" d="M325.5,274.329H296.965l-6.642-25.248H319Z" transform="translate(-96.513 -96.559)" fill="#f5f5f5"/>
            <path id="Trazado_819887" data-name="Trazado 819887" d="M290.8,250.9h28.686L319,249.082h-28.68Z" transform="translate(-96.513 -96.559)" fill="#ebebeb"/>
            <path id="Trazado_819888" data-name="Trazado 819888" d="M295.531,250.26a.313.313,0,1,0,.314-.313.313.313,0,0,0-.314.313" transform="translate(-98.145 -96.83)" fill="#fafafa"/>
            <path id="Trazado_819889" data-name="Trazado 819889" d="M293.958,250.26a.313.313,0,1,0,.314-.313.313.313,0,0,0-.314.313" transform="translate(-97.652 -96.83)" fill="#fafafa"/>
            <path id="Trazado_819890" data-name="Trazado 819890" d="M292.387,250.26a.313.313,0,1,0,.312-.313.312.312,0,0,0-.312.313" transform="translate(-97.16 -96.83)" fill="#fafafa"/>
            <path id="Trazado_819891" data-name="Trazado 819891" d="M320.1,265.748l3.141,3.594a4.439,4.439,0,0,0,1.929-3.614,5.1,5.1,0,0,0-10.14.04Z" transform="translate(-104.259 -100.347)" fill="#fff198"/>
            <path id="Trazado_819892" data-name="Trazado 819892" d="M319.512,268.641a7.145,7.145,0,0,1,.9.9c.561.6,1.363,1.48,2.322,2.554l.108.122-.135.1a5.438,5.438,0,0,1-5.3.52,5.188,5.188,0,0,1-2.178-1.752,4.463,4.463,0,0,1-.808-2.36l-.006-.159h.157c1.5-.008,2.748,0,3.61.012a7.708,7.708,0,0,1,1.33.065,9.318,9.318,0,0,1-1.383.106c-.866.041-2.089.085-3.553.124l.151-.16a4.226,4.226,0,0,0,.783,2.174,4.914,4.914,0,0,0,2.04,1.623,5.208,5.208,0,0,0,4.979-.439l-.027.223c-.91-1.065-1.66-1.963-2.184-2.6a8.715,8.715,0,0,1-.807-1.049" transform="translate(-104.065 -102.666)" fill="#263238"/>
            <path id="Trazado_819893" data-name="Trazado 819893" d="M318.85,263.76a.284.284,0,1,0,.284-.286.285.285,0,0,0-.284.286" transform="translate(-105.456 -101.071)" fill="#263238"/>
            <path id="Trazado_819894" data-name="Trazado 819894" d="M310.619,260.8a16.264,16.264,0,0,1,3.393-.192h.527l.051.051a13.337,13.337,0,0,1,1.963,2.2,13.422,13.422,0,0,1-2.213-1.946l.125.051-.452,0a16.239,16.239,0,0,1-3.395-.165" transform="translate(-102.875 -100.173)" fill="#263238"/>
            <path id="Trazado_819895" data-name="Trazado 819895" d="M300.743,263.726a10.616,10.616,0,0,1-.325-1.325c-.192-.872-.465-2.146-.777-3.706l-.034-.172h.177l7.1-.061c-.038-.032.335.275.177.146h0v.008l0,.011,0,.021.008.042.016.085.032.169.064.336q.063.336.126.666.124.66.242,1.3l.447,2.423.036.193h-.194c-2.132-.005-3.927-.031-5.173-.056l-1.44-.038a2.038,2.038,0,0,1-.487-.039,3.247,3.247,0,0,1,.549-.043l1.472-.05c1.254-.035,3.01-.075,5.078-.1l-.159.192c-.149-.765-.307-1.574-.471-2.419l-.249-1.3-.127-.665-.064-.336-.032-.17-.016-.085-.008-.042,0-.021,0-.011v-.008h0c-.158-.13.214.176.175.145l-7.1-.005.143-.173c.269,1.509.476,2.764.618,3.654a13.774,13.774,0,0,1,.2,1.431" transform="translate(-99.423 -99.498)" fill="#263238"/>
            <path id="Trazado_819896" data-name="Trazado 819896" d="M318.235,272.087a.284.284,0,1,0,.284-.286.285.285,0,0,0-.284.286" transform="translate(-105.263 -103.681)" fill="#263238"/>
            <path id="Trazado_819897" data-name="Trazado 819897" d="M311.136,272.159a18.717,18.717,0,0,1,5.158-.021,18.648,18.648,0,0,1-5.158.021" transform="translate(-103.037 -103.734)" fill="#263238"/>
            <path id="Trazado_819898" data-name="Trazado 819898" d="M300.784,273.7a5.863,5.863,0,0,1-.312-.948c-.187-.633-.456-1.567-.772-2.733l-.045-.164.174,0c1.933-.035,4.5-.062,7.321-.073l.174.135h0v.006l0,.008,0,.015.008.031.016.061.032.123.062.243.124.484.241.947c.156.621.308,1.222.453,1.8l.053.21h-.215c-2.171,0-4.022-.029-5.314-.055l-1.5-.04a1.975,1.975,0,0,1-.51-.044,3.349,3.349,0,0,1,.574-.047l1.529-.053c1.3-.036,3.108-.076,5.217-.1l-.161.21c-.15-.575-.308-1.175-.469-1.794q-.122-.466-.245-.947l-.125-.483-.062-.244-.032-.122-.016-.062-.008-.03,0-.016,0-.008v-.005h0c-.038-.03.33.254.174.134-2.816.011-5.388,0-7.321-.015l.13-.168c.271,1.123.479,2.046.622,2.7a8.15,8.15,0,0,1,.2,1.049" transform="translate(-99.438 -103.039)" fill="#263238"/>
            <path id="Trazado_819899" data-name="Trazado 819899" d="M302.082,260.935a16.6,16.6,0,0,1,4.856-.019,16.6,16.6,0,0,1-4.856.019" transform="translate(-100.199 -100.216)" fill="#263238"/>
            <path id="Trazado_819900" data-name="Trazado 819900" d="M302.169,262.093a16.806,16.806,0,0,1,4.886-.019,16.807,16.807,0,0,1-4.886.019" transform="translate(-100.226 -100.579)" fill="#263238"/>
            <path id="Trazado_819901" data-name="Trazado 819901" d="M302.38,263.21a15.63,15.63,0,0,1,4.715-.018,15.63,15.63,0,0,1-4.715.018" transform="translate(-100.292 -100.929)" fill="#263238"/>
            <path id="Trazado_819902" data-name="Trazado 819902" d="M302.291,272.065a15.071,15.071,0,0,1,4.63-.019,15.074,15.074,0,0,1-4.63.019" transform="translate(-100.264 -103.705)" fill="#263238"/>
            <path id="Trazado_819903" data-name="Trazado 819903" d="M302.71,273.347a10.986,10.986,0,0,1,3.948-.016,10.984,10.984,0,0,1-3.948.016" transform="translate(-100.396 -104.107)" fill="#263238"/>
            <path id="Trazado_819904" data-name="Trazado 819904" d="M237.549,288.892v3.771h2.469V369.01h5.067V292.663h26.891V369.01h5.067V292.663H393.7v76.329h5.067V292.663h2.193v-3.771Z" transform="translate(-79.968 -109.039)" fill="#263238"/>
            <path id="Trazado_819905" data-name="Trazado 819905" d="M397.586,330.268a39.4,39.4,0,0,0,6.59,0,39.222,39.222,0,0,0-6.59,0" transform="translate(-130.139 -121.966)" fill="#263238"/>
            <path id="Trazado_819906" data-name="Trazado 819906" d="M327.6,331.385c-.1,0-.178-.039-.178-.088s.08-.087.178-.087.178.039.178.087-.08.088-.178.088" transform="translate(-108.142 -122.305)" fill="#455a64"/>
            <path id="Trazado_819907" data-name="Trazado 819907" d="M361.573,219.161l-18.926-19.227-.409-2.082c-.079-.381-.158-.806-.231-1.289a5.122,5.122,0,0,1,.03-1.694,7.686,7.686,0,0,1,.583-2.015c.319-.557-.191-1.228-.719-1s-1.442,1.742-1.64,3.819-1.97-.678-2.633-1.671-2.854-3.966-3.312-4c-.67-.052-.842.675-.156,1.65s2.539,4.048,2.014,4.376l-.02,0a2.475,2.475,0,0,0-2.614,1.3c-.478.917-1.01,2.218-.574,2.818a34.069,34.069,0,0,0,3.018,3.2l.634.545s16.373,23.725,19.942,24.5c2.219.48,36.532,3.326,36.532,3.326l2.588-9.453Z" transform="translate(-109.83 -78.037)" fill="#b78876"/>
            <path id="Trazado_819908" data-name="Trazado 819908" d="M332.826,203.583l1.751,1.681a2.092,2.092,0,0,0,.66.484.629.629,0,0,0,.868-.827,2.079,2.079,0,0,0-.4-.623l-1.7-2.045" transform="translate(-109.837 -81.879)" fill="#b78876"/>
            <path id="Trazado_819909" data-name="Trazado 819909" d="M334,202.253c.038-.032.367.294.867.845l.866.98a3.249,3.249,0,0,1,.483.654.926.926,0,0,1-.048.973.858.858,0,0,1-.958.22,1.934,1.934,0,0,1-.686-.483l-.917-.933a4.141,4.141,0,0,1-.781-.925,4.113,4.113,0,0,1,.956.743l.969.877a1.7,1.7,0,0,0,.573.39.52.52,0,0,0,.564-.11.6.6,0,0,0,.012-.6,3.185,3.185,0,0,0-.419-.593l-.807-1.029a4.112,4.112,0,0,1-.673-1.006" transform="translate(-109.836 -81.878)" fill="#aa6550"/>
            <path id="Trazado_819910" data-name="Trazado 819910" d="M334.636,201.8l1.751,1.681a2.092,2.092,0,0,0,.66.484.628.628,0,0,0,.868-.827,2.074,2.074,0,0,0-.4-.622l-1.7-2.046" transform="translate(-110.404 -81.32)" fill="#b78876"/>
            <path id="Trazado_819911" data-name="Trazado 819911" d="M335.809,200.47c.038-.032.367.294.867.845l.866.98a3.249,3.249,0,0,1,.483.654.927.927,0,0,1-.048.973.858.858,0,0,1-.958.22,1.942,1.942,0,0,1-.686-.483l-.917-.934a4.142,4.142,0,0,1-.781-.925,4.113,4.113,0,0,1,.956.743l.969.877a1.7,1.7,0,0,0,.573.39.52.52,0,0,0,.564-.11.593.593,0,0,0,.012-.6,3.209,3.209,0,0,0-.419-.593l-.807-1.029a4.1,4.1,0,0,1-.673-1.006" transform="translate(-110.403 -81.319)" fill="#aa6550"/>
            <path id="Trazado_819912" data-name="Trazado 819912" d="M336.622,200.339l1.751,1.681a2.092,2.092,0,0,0,.66.484.628.628,0,0,0,.868-.827,2.079,2.079,0,0,0-.4-.623l-1.7-2.045" transform="translate(-111.027 -80.862)" fill="#b78876"/>
            <path id="Trazado_819913" data-name="Trazado 819913" d="M337.795,199.009c.038-.032.367.294.867.845l.866.98a3.246,3.246,0,0,1,.483.654.926.926,0,0,1-.048.973.858.858,0,0,1-.958.22,1.933,1.933,0,0,1-.686-.483l-.916-.933a4.14,4.14,0,0,1-.781-.925,4.114,4.114,0,0,1,.956.743l.969.877a1.7,1.7,0,0,0,.573.39.52.52,0,0,0,.564-.11.6.6,0,0,0,.012-.6,3.241,3.241,0,0,0-.419-.593l-.807-1.029a4.108,4.108,0,0,1-.673-1.006" transform="translate(-111.026 -80.861)" fill="#aa6550"/>
            <path id="Trazado_819914" data-name="Trazado 819914" d="M340.653,203.881c0-.056.434-.144,1.067.05l-.2.172a3.006,3.006,0,0,1-.045-1.2,3.067,3.067,0,0,1,.656-1.463c.27-.315.5-.439.526-.406a6.267,6.267,0,0,0-.829,1.926,3.561,3.561,0,0,0-.01,1.085l.037.275-.239-.1c-.548-.233-.964-.265-.961-.335" transform="translate(-112.291 -81.494)" fill="#aa6550"/>
            <path id="Trazado_819915" data-name="Trazado 819915" d="M403.007,189.01l.081,26.338-10.27.489-.415-6.312s-4.955.752-5.99-2.975c-.662-2.381-.5-20.782-.5-20.782Z" transform="translate(-126.475 -76.711)" fill="#b78876"/>
            <path id="Trazado_819916" data-name="Trazado 819916" d="M382.008,186.48c.761,1.573,4.385,4.453,4.385,4.453l1.637,4.388c1.422-1.114,3.332-1.05,3.693,1.449.262,1.806-1.984,2.171-1.984,2.171a32.751,32.751,0,0,0,4.1,6.139c2.06,2.289,3.214,2.521,5.448,2.558h2.463s5.04-4.212,4.044-15.306-10.97-7.856-13.35-10.629c-3.877-4.514-12.974-.479-10.434,4.775" transform="translate(-125.117 -74.825)" fill="#263238"/>
            <path id="Trazado_819917" data-name="Trazado 819917" d="M405.477,203.543a3.542,3.542,0,0,1-1.219-.056,6.342,6.342,0,0,1-2.942-1.514,16,16,0,0,1-2.975-3.934,14.173,14.173,0,0,0-3.774-4.616c-1.786-1.195-3.886-1.438-5.69-1.807a10.74,10.74,0,0,1-4.594-1.749,4.932,4.932,0,0,1-1.841-2.727,2.83,2.83,0,0,1-.05-1.218,4.192,4.192,0,0,0,.1,1.2,4.937,4.937,0,0,0,1.848,2.66,10.741,10.741,0,0,0,4.558,1.7c1.8.362,3.917.6,5.745,1.819a14.163,14.163,0,0,1,3.807,4.666,16.146,16.146,0,0,0,2.928,3.925,6.4,6.4,0,0,0,2.887,1.536,5.06,5.06,0,0,0,.893.106c.206,0,.315,0,.315,0" transform="translate(-125.363 -76.759)" fill="#455a64"/>
            <path id="Trazado_819918" data-name="Trazado 819918" d="M406.118,193.851s-.184-.054-.531-.161a8.024,8.024,0,0,0-1.546-.344,3.468,3.468,0,0,0-2.379.533,1.952,1.952,0,0,0-.827,1.249,1.737,1.737,0,0,0,.479,1.571,1.328,1.328,0,0,0,.83.33,1.753,1.753,0,0,0,.914-.25,2.81,2.81,0,0,0,1.242-1.585,3.93,3.93,0,0,0-3.314-5.155,6.888,6.888,0,0,0-2.552.335,17.936,17.936,0,0,1-2.642.635,10.749,10.749,0,0,1-2.8.007,9.263,9.263,0,0,1-2.7-.748,3.266,3.266,0,0,1-1.849-1.95,2.549,2.549,0,0,1,.628-2.488,2.194,2.194,0,0,1,2.412-.356,1.844,1.844,0,0,1,.895.842,2.021,2.021,0,0,1,.189,1.181,2.687,2.687,0,0,1-1.2,1.882,3.858,3.858,0,0,1-2.029.564,5.961,5.961,0,0,1-1.924-.3,6.884,6.884,0,0,1-2.828-1.743,7.237,7.237,0,0,1-1.444-2.06,7.319,7.319,0,0,1-.511-1.508c-.061-.36-.086-.549-.086-.549s.044.186.114.542a7.748,7.748,0,0,0,.534,1.49,7.269,7.269,0,0,0,1.45,2.027,6.836,6.836,0,0,0,2.8,1.7,5.9,5.9,0,0,0,1.891.283,3.754,3.754,0,0,0,1.967-.554,2.566,2.566,0,0,0,1.142-1.8,1.764,1.764,0,0,0-1.015-1.887,2.059,2.059,0,0,0-2.263.335,2.414,2.414,0,0,0-.588,2.351,3.131,3.131,0,0,0,1.776,1.859,9.147,9.147,0,0,0,2.658.735,10.615,10.615,0,0,0,2.765-.007,18.035,18.035,0,0,0,2.624-.628,7.007,7.007,0,0,1,2.6-.336,4.057,4.057,0,0,1,3.412,5.329,2.923,2.923,0,0,1-1.3,1.643,1.854,1.854,0,0,1-.973.26,1.428,1.428,0,0,1-.894-.36,1.828,1.828,0,0,1-.5-1.662,2.031,2.031,0,0,1,.87-1.3,3.509,3.509,0,0,1,2.431-.522,7.554,7.554,0,0,1,1.548.371c.345.117.522.188.522.188" transform="translate(-125.422 -76.09)" fill="#455a64"/>
            <path id="Trazado_819919" data-name="Trazado 819919" d="M396.04,391.368l-3.356-4.307,8.026-6.339,4.978,6.249-.472.425c-2.118,1.872-10.9,9.37-12.735,10.091-2.048.8,3.56-6.119,3.56-6.119" transform="translate(-128.397 -137.827)" fill="#e8505b"/>
            <g id="Grupo_1071545" data-name="Grupo 1071545" transform="translate(263.637 248.975)" opacity="0.4">
              <g id="Grupo_1071544" data-name="Grupo 1071544">
                <g id="Grupo_1071543" data-name="Grupo 1071543" clip-path="url(#clip-path-14)">
                  <path id="Trazado_819920" data-name="Trazado 819920" d="M393.4,397.645s-1.846,2.577-1.236,2.736,9.769-7.085,13.53-10.634l-.155-.169-10.613,8.539s-1.044-.822-1.526-.472" transform="translate(-392.035 -389.578)" fill="#fff"/>
                </g>
              </g>
            </g>
            <path id="Trazado_819921" data-name="Trazado 819921" d="M405.664,389.425a.925.925,0,0,1-.126.124l-.377.337-1.409,1.216c-1.2,1.018-2.868,2.4-4.748,3.891s-3.611,2.8-4.876,3.73l-1.506,1.093-.415.29a.911.911,0,0,1-.15.094.953.953,0,0,1,.135-.115l.4-.308,1.482-1.124c1.251-.949,2.973-2.27,4.852-3.757s3.558-2.861,4.769-3.862l1.433-1.186.393-.319a.924.924,0,0,1,.142-.105" transform="translate(-128.405 -140.555)" fill="#263238"/>
            <path id="Trazado_819922" data-name="Trazado 819922" d="M395.581,401.872a2.7,2.7,0,0,0-1.762-.646,1.652,1.652,0,0,1,1.762.646" transform="translate(-128.958 -144.235)" fill="#263238"/>
            <path id="Trazado_819923" data-name="Trazado 819923" d="M398.016,397.564a1.078,1.078,0,0,1-.5-.108c-.263-.092-.467-.192-.456-.224a1.068,1.068,0,0,1,.5.108c.262.091.466.192.455.224" transform="translate(-129.975 -142.999)" fill="#263238"/>
            <path id="Trazado_819924" data-name="Trazado 819924" d="M398.611,396.429c0,.034-.2.05-.432.035s-.426-.055-.424-.089.2-.049.432-.034.426.054.424.089" transform="translate(-130.192 -142.721)" fill="#263238"/>
            <path id="Trazado_819925" data-name="Trazado 819925" d="M398.348,394.894c.021.027-.147.2-.376.384s-.433.314-.454.288.147-.2.376-.384.433-.314.454-.288" transform="translate(-130.116 -142.269)" fill="#263238"/>
            <path id="Trazado_819926" data-name="Trazado 819926" d="M397.91,393.954a1.5,1.5,0,0,1-.893.822c-.017-.032.207-.184.45-.409s.414-.434.443-.414" transform="translate(-129.96 -141.975)" fill="#263238"/>
            <path id="Trazado_819927" data-name="Trazado 819927" d="M396.369,396.934a1.906,1.906,0,0,1-.518.4,3.815,3.815,0,0,1-.645.313,1.864,1.864,0,0,1-.416.119.353.353,0,0,1-.255-.059.257.257,0,0,1-.084-.268,1.205,1.205,0,0,1,1.387-.648,1.181,1.181,0,0,1,.441.211c.09.072.128.124.123.129a1.857,1.857,0,0,0-.582-.254,1.184,1.184,0,0,0-.667.062,1.018,1.018,0,0,0-.581.528c-.034.125.074.2.208.178a2.006,2.006,0,0,0,.388-.1,4.516,4.516,0,0,0,.64-.282c.352-.189.549-.344.562-.328" transform="translate(-129.153 -142.854)" fill="#263238"/>
            <path id="Trazado_819928" data-name="Trazado 819928" d="M396.856,396.551c0,.012-.183-.06-.343-.311a1.081,1.081,0,0,1-.157-.488.66.66,0,0,1,.222-.6.261.261,0,0,1,.347.113.71.71,0,0,1,.095.3,1.977,1.977,0,0,1,0,.5.947.947,0,0,1-.13.442c-.019-.005.03-.174.043-.45a2.309,2.309,0,0,0-.028-.48c-.016-.165-.122-.4-.27-.32s-.169.322-.167.487a1.088,1.088,0,0,0,.12.45,2.33,2.33,0,0,0,.266.354" transform="translate(-129.753 -142.341)" fill="#263238"/>
            <path id="Trazado_819929" data-name="Trazado 819929" d="M408.358,386.417c.012.019-.247.16-.576.49a3.2,3.2,0,0,0-.777,3.336c.15.441.321.681.3.693a.6.6,0,0,1-.128-.162,2.683,2.683,0,0,1-.255-.5,3.107,3.107,0,0,1,.8-3.429,2.656,2.656,0,0,1,.45-.338.6.6,0,0,1,.187-.089" transform="translate(-132.999 -139.612)" fill="#263238"/>
            <path id="Trazado_819930" data-name="Trazado 819930" d="M404.053,382.511a35.715,35.715,0,0,1,2.649,3.264,35.645,35.645,0,0,1-2.649-3.264" transform="translate(-132.166 -138.388)" fill="#263238"/>
            <path id="Trazado_819931" data-name="Trazado 819931" d="M404.178,393.1a8.423,8.423,0,0,1-2.328,1.876c-.019-.03.53-.413,1.17-.93s1.131-.971,1.157-.946" transform="translate(-131.475 -141.708)" fill="#263238"/>
            <path id="Trazado_819932" data-name="Trazado 819932" d="M407.5,391.289c.035,0,.045.145.086.307s.1.292.067.312-.141-.094-.187-.282,0-.343.034-.338" transform="translate(-133.231 -141.139)" fill="#263238"/>
            <path id="Trazado_819933" data-name="Trazado 819933" d="M407.5,389.533c.034,0,.048.128.032.278s-.057.268-.091.264-.048-.128-.032-.278.058-.268.091-.264" transform="translate(-133.215 -140.589)" fill="#263238"/>
            <path id="Trazado_819934" data-name="Trazado 819934" d="M408.225,388.061c.016.032-.091.115-.176.25s-.12.264-.156.263-.056-.165.052-.33.269-.214.281-.183" transform="translate(-133.361 -140.125)" fill="#263238"/>
            <path id="Trazado_819935" data-name="Trazado 819935" d="M409,387.136c.03.017.016.095-.03.174s-.108.128-.137.111-.016-.1.03-.174.107-.128.137-.111" transform="translate(-133.66 -139.837)" fill="#263238"/>
            <g id="Grupo_1071548" data-name="Grupo 1071548" transform="translate(266.306 246.04)" opacity="0.3">
              <g id="Grupo_1071547" data-name="Grupo 1071547">
                <g id="Grupo_1071546" data-name="Grupo 1071546" clip-path="url(#clip-path-15)">
                  <path id="Trazado_819936" data-name="Trazado 819936" d="M404.8,385.861l-8.121,6.2-.751-.976,8.534-5.787Z" transform="translate(-395.924 -385.303)"/>
                </g>
              </g>
            </g>
            <path id="Trazado_819937" data-name="Trazado 819937" d="M340.947,400.018l.015-5.461,10.228-.037.062,7.988-.634.043c-2.822.167-14.36.651-16.249.086-2.106-.631,6.577-2.62,6.577-2.62" transform="translate(-110.218 -142.152)" fill="#e8505b"/>
            <g id="Grupo_1071551" data-name="Grupo 1071551" transform="translate(223.794 258.988)" opacity="0.4">
              <g id="Grupo_1071550" data-name="Grupo 1071550">
                <g id="Grupo_1071549" data-name="Grupo 1071549" clip-path="url(#clip-path-16)">
                  <path id="Trazado_819938" data-name="Trazado 819938" d="M336.692,404.164s-3.043.89-2.661,1.39,12.06.45,17.209-.023l-.017-.228-13.621.174s-.314-1.291-.91-1.313" transform="translate(-333.998 -404.164)" fill="#fff"/>
                </g>
              </g>
            </g>
            <path id="Trazado_819939" data-name="Trazado 819939" d="M351.4,405.811a.97.97,0,0,1-.176.02l-.505.033-1.858.088c-1.57.063-3.74.122-6.137.134s-4.569-.025-6.139-.073l-1.859-.069-.505-.027a.966.966,0,0,1-.176-.018,1,1,0,0,1,.176-.007l.506,0,1.86.03c1.571.025,3.74.047,6.137.036s4.565-.057,6.135-.1l1.86-.049.505-.009a1,1,0,0,1,.177,0" transform="translate(-110.217 -145.69)" fill="#263238"/>
            <path id="Trazado_819940" data-name="Trazado 819940" d="M338.8,405.579a2.695,2.695,0,0,0-.988-1.595,1.652,1.652,0,0,1,.988,1.595" transform="translate(-111.4 -145.118)" fill="#263238"/>
            <path id="Trazado_819941" data-name="Trazado 819941" d="M343.387,403.672c-.029.019-.174-.156-.324-.391s-.249-.439-.22-.458.174.156.324.391.249.439.22.458" transform="translate(-112.976 -144.755)" fill="#263238"/>
            <path id="Trazado_819942" data-name="Trazado 819942" d="M344.548,403.155c-.023.025-.185-.082-.362-.239s-.3-.306-.279-.332.185.081.361.239.3.306.279.332" transform="translate(-113.31 -144.679)" fill="#263238"/>
            <path id="Trazado_819943" data-name="Trazado 819943" d="M345.111,401.982a2.34,2.34,0,1,1-.535-.054,1.2,1.2,0,0,1,.535.054" transform="translate(-113.353 -144.475)" fill="#263238"/>
            <path id="Trazado_819944" data-name="Trazado 819944" d="M345.3,401.01a1.5,1.5,0,0,1-1.21.1,3.37,3.37,0,0,1,.606-.044,3.28,3.28,0,0,1,.6-.052" transform="translate(-113.369 -144.184)" fill="#263238"/>
            <path id="Trazado_819945" data-name="Trazado 819945" d="M342.247,402.345a1.892,1.892,0,0,1-.658,0,3.817,3.817,0,0,1-.7-.151,1.933,1.933,0,0,1-.4-.163.353.353,0,0,1-.163-.2.257.257,0,0,1,.1-.263,1.205,1.205,0,0,1,1.492.346,1.179,1.179,0,0,1,.217.438.363.363,0,0,1,.017.177,1.842,1.842,0,0,0-.3-.559,1.18,1.18,0,0,0-.563-.362,1.019,1.019,0,0,0-.783.056c-.1.078-.063.2.054.269a1.981,1.981,0,0,0,.37.157,4.575,4.575,0,0,0,.678.173c.394.068.645.068.645.088" transform="translate(-112.185 -144.319)" fill="#263238"/>
            <path id="Trazado_819946" data-name="Trazado 819946" d="M342.842,402.229a.646.646,0,0,1-.078-.456,1.078,1.078,0,0,1,.177-.481.659.659,0,0,1,.546-.337.261.261,0,0,1,.2.3.716.716,0,0,1-.111.294,1.976,1.976,0,0,1-.308.4.942.942,0,0,1-.376.268c-.011-.016.13-.118.311-.327a2.287,2.287,0,0,0,.273-.4c.09-.139.15-.389-.014-.418s-.332.149-.432.281a1.084,1.084,0,0,0-.184.428,2.442,2.442,0,0,0-.009.443" transform="translate(-112.951 -144.17)" fill="#263238"/>
            <path id="Trazado_819947" data-name="Trazado 819947" d="M357.345,401.708c0,.023-.293-.027-.755.03a3.2,3.2,0,0,0-2.67,2.147c-.154.439-.168.734-.192.73a.623.623,0,0,1,0-.206,2.643,2.643,0,0,1,.109-.552,3.11,3.11,0,0,1,2.744-2.207,2.734,2.734,0,0,1,.563.012.578.578,0,0,1,.2.045" transform="translate(-116.388 -144.385)" fill="#263238"/>
            <path id="Trazado_819948" data-name="Trazado 819948" d="M357.414,395.545a35.753,35.753,0,0,1,.071,4.2,35.771,35.771,0,0,1-.071-4.2" transform="translate(-117.534 -142.474)" fill="#263238"/>
            <path id="Trazado_819949" data-name="Trazado 819949" d="M350.465,404.61a8.409,8.409,0,0,1-2.989.041c0-.036.671,0,1.5-.01s1.49-.067,1.494-.031" transform="translate(-114.43 -145.312)" fill="#263238"/>
            <path id="Trazado_819950" data-name="Trazado 819950" d="M354.618,404.6c.025.025-.054.142-.121.3s-.1.29-.139.288-.054-.161.026-.338.213-.269.235-.244" transform="translate(-116.577 -145.31)" fill="#263238"/>
            <path id="Trazado_819951" data-name="Trazado 819951" d="M355.667,403.222c.025.024-.041.13-.146.238s-.211.176-.236.152.041-.13.147-.238.21-.176.235-.152" transform="translate(-116.876 -144.879)" fill="#263238"/>
            <path id="Trazado_819952" data-name="Trazado 819952" d="M357.15,402.565c-.007.035-.143.034-.293.088s-.257.134-.285.111.058-.165.245-.228.343,0,.333.03" transform="translate(-117.279 -144.656)" fill="#263238"/>
            <path id="Trazado_819953" data-name="Trazado 819953" d="M358.4,402.28c.012.032-.046.084-.13.118s-.164.034-.177,0,.046-.084.13-.117.164-.034.176,0" transform="translate(-117.756 -144.578)" fill="#263238"/>
            <g id="Grupo_1071554" data-name="Grupo 1071554" transform="translate(230.725 255.623)" opacity="0.3">
              <g id="Grupo_1071553" data-name="Grupo 1071553">
                <g id="Grupo_1071552" data-name="Grupo 1071552" clip-path="url(#clip-path-17)">
                  <path id="Trazado_819954" data-name="Trazado 819954" d="M354.4,400.551l-10.311.01.011-1.232,10.263-.067Z" transform="translate(-344.094 -399.263)"/>
                </g>
              </g>
            </g>
            <path id="Trazado_819955" data-name="Trazado 819955" d="M365.167,263.181l-4.1,12.333c-1.106,3.331-4.016,3.9-7.525,3.9H330.763V274.3l20.814-2.972,4.961-12.672Z" transform="translate(-109.19 -99.562)" fill="#b78876"/>
            <path id="Trazado_819956" data-name="Trazado 819956" d="M321.916,277.857,320.109,277s-1.948-3.766-2.4-3.615-.577,1.259.205,2.989l-2.4-.686s-5.206,2.406-4.976,2.73a1.2,1.2,0,0,0,1.791.511c1.134-.58,2.62-1.26,2.62-1.26l2.806.8-3.618.459-3.4,3.1a1.665,1.665,0,0,0,2.08-.051l8.837,1.9,2.768.156v-5.111Z" transform="translate(-102.848 -104.177)" fill="#b78876"/>
            <path id="Trazado_819957" data-name="Trazado 819957" d="M313.857,285.071c.038.025.2-.237.52-.584a2.678,2.678,0,0,1,.643-.5,2.633,2.633,0,0,1,.954-.249,13.222,13.222,0,0,0,2.652-.453,13.162,13.162,0,0,0-2.686.178,2.607,2.607,0,0,0-1.048.3,2.46,2.46,0,0,0-.664.59,1.58,1.58,0,0,0-.372.711" transform="translate(-103.889 -107.273)" fill="#aa6550"/>
            <path id="Trazado_819958" data-name="Trazado 819958" d="M315.858,286.106c.034,0,.061-.183.309-.236s.655-.094,1.074-.137a8.72,8.72,0,0,0,1.554-.158,3.115,3.115,0,0,0-1.581-.117,4.736,4.736,0,0,0-1.112.228.448.448,0,0,0-.268.278c-.023.095.009.145.025.142" transform="translate(-104.507 -107.953)" fill="#aa6550"/>
            <path id="Trazado_819959" data-name="Trazado 819959" d="M377.812,249.913l-1.752,5.936-11.12-5.034c.4-1.243,2.239-6.779,5.76-15.562a15.1,15.1,0,0,1,11.526-9.291,65.923,65.923,0,0,1,10.647-1.044c6.236.069,15.416,3.967,16.649,10.079.942,4.666.034,12.9.034,22.913l-.813,19.124-31.954,1.084Z" transform="translate(-119.904 -88.983)" fill="#a3bfe4"/>
            <g id="Grupo_1071557" data-name="Grupo 1071557" transform="translate(265.928 164.145)" opacity="0.3">
              <g id="Grupo_1071556" data-name="Grupo 1071556">
                <g id="Grupo_1071555" data-name="Grupo 1071555" clip-path="url(#clip-path-18)">
                  <path id="Trazado_819960" data-name="Trazado 819960" d="M419.062,266.366c-3.888.795-7.881-.007-11.843-.242-2.4-.142-5.067-.4-6.967,1.074-1.506,1.17-2.113,3.139-2.548,5-1.657,7.081-1.959,11.829-2.331,19.092l19.235,1.166Z" transform="translate(-395.373 -266.011)"/>
                </g>
              </g>
            </g>
            <path id="Trazado_819961" data-name="Trazado 819961" d="M382.5,231.09c0,.028.32.047.85.255a4.433,4.433,0,0,1,1.841,1.49,6.207,6.207,0,0,1,1.1,3.33,20.954,20.954,0,0,1-.336,4.381,73.381,73.381,0,0,1-1.786,7.833c-.263.959-.481,1.752-.646,2.353a5.513,5.513,0,0,0-.2.873,5.654,5.654,0,0,0,.308-.842c.18-.547.433-1.342.73-2.33a60.86,60.86,0,0,0,1.871-7.843,20.247,20.247,0,0,0,.317-4.442,6.28,6.28,0,0,0-1.2-3.428,4.345,4.345,0,0,0-1.959-1.473,3.21,3.21,0,0,0-.654-.149.731.731,0,0,0-.233-.006" transform="translate(-125.408 -90.917)" fill="#263238"/>
            <path id="Trazado_819962" data-name="Trazado 819962" d="M365.446,260.433a10.749,10.749,0,0,0,1.567.9c.987.517,2.37,1.2,3.92,1.9s2.977,1.284,4.019,1.682a10.752,10.752,0,0,0,1.711.579,12.626,12.626,0,0,0-1.637-.761c-1.021-.443-2.431-1.055-3.979-1.753s-2.939-1.35-3.947-1.822a12.828,12.828,0,0,0-1.653-.723" transform="translate(-120.063 -100.116)" fill="#263238"/>
            <path id="Trazado_819963" data-name="Trazado 819963" d="M355.314,304.529a11.388,11.388,0,0,0-4.65,15.252l27.813,47.751,12.832-7.751-21.6-43.113,15.652-10.217" transform="translate(-115.025 -113.941)" fill="#263238"/>
            <path id="Trazado_819964" data-name="Trazado 819964" d="M384.9,301.079l-38.179,1.352a11.388,11.388,0,0,0-10.984,11.558l1.585,54.529,16.057-.036-.535-51.557,32.057-.843Z" transform="translate(-110.75 -112.86)" fill="#263238"/>
            <path id="Trazado_819965" data-name="Trazado 819965" d="M360.642,326.878a2.717,2.717,0,0,1,.046.5c.016.366.036.846.063,1.447.047,1.257.1,3.076.144,5.324.1,4.5.16,10.709.194,17.569.036,6.845.067,13.04.091,17.571.012,2.218.023,4.027.029,5.325,0,.6,0,1.082,0,1.448a2.644,2.644,0,0,1-.026.505,2.722,2.722,0,0,1-.046-.5c-.016-.366-.036-.846-.062-1.447-.047-1.256-.1-3.076-.144-5.324-.1-4.5-.16-10.709-.194-17.572-.035-6.842-.067-13.036-.09-17.568-.013-2.218-.023-4.027-.03-5.325,0-.6,0-1.082,0-1.449a2.711,2.711,0,0,1,.026-.505" transform="translate(-118.547 -120.947)" fill="#455a64"/>
            <path id="Trazado_819966" data-name="Trazado 819966" d="M409.123,250.672h-11.55a8.419,8.419,0,0,0-8.419,8.419v40.3H366.077a5.831,5.831,0,0,0-5.83,5.831h52.692c0-.012,0-.022,0-.034a4.809,4.809,0,0,0,4.606-4.8V259.091a8.42,8.42,0,0,0-8.419-8.419" transform="translate(-118.433 -97.057)" fill="#455a64"/>
            <path id="Trazado_819967" data-name="Trazado 819967" d="M407.164,252.609c.1,0,.179,11.843.179,26.448s-.08,26.451-.179,26.451-.178-11.84-.178-26.451.08-26.448.178-26.448" transform="translate(-133.085 -97.665)" fill="#263238"/>
            <path id="Trazado_819968" data-name="Trazado 819968" d="M396.9,372.437V330.162h-3.755v42.275c-2.293,4.519-7.683,7.578-14.248,10.081h33.478c-6.8-2.763-12.935-4.883-15.475-10.081" transform="translate(-124.279 -121.977)" fill="#455a64"/>
            <path id="Trazado_819969" data-name="Trazado 819969" d="M92.485,337.964a1.493,1.493,0,0,1,.1-.251l.336-.717a17.919,17.919,0,0,0,.988-2.871,25.346,25.346,0,0,0-.083-11.088,59.493,59.493,0,0,0-2.057-7.447c-.87-2.644-1.882-5.448-2.707-8.48a32.8,32.8,0,0,1-1.337-9.749A38.135,38.135,0,0,1,90,287.044a50.153,50.153,0,0,0,2.626-10.161,15.483,15.483,0,0,0-1.863-9.384c-1.486-2.738-3.356-5.079-4.755-7.5a26.08,26.08,0,0,1-2.858-7.216,26.868,26.868,0,0,1-.181-11.178,20.774,20.774,0,0,1,1.167-3.948,1.653,1.653,0,0,1-.069.263c-.058.187-.137.437-.235.757a28.262,28.262,0,0,0-.725,2.955,27.212,27.212,0,0,0,.289,11.095,26.016,26.016,0,0,0,2.868,7.123c1.4,2.4,3.274,4.729,4.79,7.5a15.805,15.805,0,0,1,1.922,9.574,50.176,50.176,0,0,1-2.636,10.236,38.1,38.1,0,0,0-2.259,10.22,32.649,32.649,0,0,0,1.305,9.65c.812,3.017,1.811,5.822,2.671,8.473a58.9,58.9,0,0,1,2.023,7.492,25.055,25.055,0,0,1-.029,11.171,16.563,16.563,0,0,1-1.058,2.867c-.156.3-.278.53-.369.7a1.655,1.655,0,0,1-.136.233" transform="translate(-31.351 -92.976)" fill="#263238"/>
            <path id="Trazado_819970" data-name="Trazado 819970" d="M90.03,267.057s-2.841-9.085,2.256-14.406a.315.315,0,0,1,.54.156c.273,1.5.612,6.071-2.8,14.25" transform="translate(-33.475 -97.646)" fill="#a3bfe4"/>
            <path id="Trazado_819971" data-name="Trazado 819971" d="M92.047,257.107a8.364,8.364,0,0,1-.192,1.676c-.187,1.155-.406,2.51-.648,4.007s-.453,2.853-.636,4.008a9.1,9.1,0,0,1-.3,1.659,7.053,7.053,0,0,1,.051-1.689c.094-1.038.277-2.466.535-4.034s.53-2.979.752-4a7.581,7.581,0,0,1,.439-1.63" transform="translate(-33.789 -99.075)" fill="#263238"/>
            <path id="Trazado_819972" data-name="Trazado 819972" d="M95.253,299.556s1.738-9.36,8.731-11.679a.315.315,0,0,1,.4.391c-.461,1.453-2.3,5.652-9.135,11.288" transform="translate(-35.36 -108.716)" fill="#fff198"/>
            <path id="Trazado_819973" data-name="Trazado 819973" d="M102.054,291.405a8.336,8.336,0,0,1-.953,1.393l-2.447,3.238-2.436,3.245a9.112,9.112,0,0,1-1.041,1.325,7.046,7.046,0,0,1,.835-1.469c.568-.874,1.4-2.051,2.36-3.315s1.861-2.386,2.533-3.181a7.669,7.669,0,0,1,1.151-1.236" transform="translate(-35.335 -109.826)" fill="#a3bfe4"/>
            <path id="Trazado_819974" data-name="Trazado 819974" d="M92.467,332.814s-1.056-9.461,4.963-13.711a.315.315,0,0,1,.5.256c-.019,1.525-.557,6.076-5.463,13.455" transform="translate(-34.464 -118.491)" fill="#fff198"/>
            <path id="Trazado_819975" data-name="Trazado 819975" d="M96.307,323.3a8.368,8.368,0,0,1-.507,1.609l-1.4,3.81-1.389,3.812a9.2,9.2,0,0,1-.612,1.571,7,7,0,0,1,.372-1.648c.29-1,.742-2.368,1.294-3.858s1.089-2.824,1.5-3.779a7.576,7.576,0,0,1,.742-1.517" transform="translate(-34.462 -119.827)" fill="#a3bfe4"/>
            <path id="Trazado_819976" data-name="Trazado 819976" d="M100.162,367.306s-.716-9.493,5.45-13.525a.315.315,0,0,1,.491.275c-.073,1.523-.774,6.052-5.941,13.25" transform="translate(-36.891 -129.364)" fill="#a3bfe4"/>
            <path id="Trazado_819977" data-name="Trazado 819977" d="M104.368,357.92a8.344,8.344,0,0,1-.565,1.59l-1.536,3.757-1.525,3.761a9.147,9.147,0,0,1-.667,1.547,7.032,7.032,0,0,1,.431-1.634c.325-.99.827-2.34,1.431-3.809s1.189-2.782,1.635-3.723a7.594,7.594,0,0,1,.8-1.489" transform="translate(-36.869 -130.678)" fill="#263238"/>
            <path id="Trazado_819978" data-name="Trazado 819978" d="M80.514,256.527s-8.439-4.407-8.6-11.772a.315.315,0,0,1,.492-.273c1.254.867,4.729,3.855,8.112,12.045" transform="translate(-28.042 -95.099)" fill="#a3bfe4"/>
            <path id="Trazado_819979" data-name="Trazado 819979" d="M74.46,248.59a8.384,8.384,0,0,1,1.051,1.319l2.379,3.29,2.387,3.281a9.1,9.1,0,0,1,.961,1.385,7.111,7.111,0,0,1-1.16-1.229c-.668-.8-1.55-1.939-2.478-3.229s-1.735-2.479-2.3-3.355a7.55,7.55,0,0,1-.844-1.462" transform="translate(-28.841 -96.404)" fill="#263238"/>
            <path id="Trazado_819980" data-name="Trazado 819980" d="M93.393,285.191s-8.691-3.886-9.3-11.229a.315.315,0,0,1,.474-.3c1.3.789,4.955,3.56,8.829,11.53" transform="translate(-31.86 -104.25)" fill="#a3bfe4"/>
            <path id="Trazado_819981" data-name="Trazado 819981" d="M86.861,277.644A8.345,8.345,0,0,1,87.99,278.9l2.574,3.139,2.582,3.13a9.165,9.165,0,0,1,1.044,1.324,7.009,7.009,0,0,1-1.232-1.156c-.716-.758-1.665-1.841-2.669-3.072s-1.882-2.369-2.5-3.209a7.588,7.588,0,0,1-.931-1.408" transform="translate(-32.728 -105.513)" fill="#263238"/>
            <path id="Trazado_819982" data-name="Trazado 819982" d="M88.57,315.591S82.6,308.174,85.4,301.358a.315.315,0,0,1,.56-.052c.8,1.3,2.79,5.427,2.609,14.286" transform="translate(-32.037 -112.884)" fill="#a3bfe4"/>
            <path id="Trazado_819983" data-name="Trazado 819983" d="M86.6,305.849a8.3,8.3,0,0,1,.435,1.63c.249,1.143.54,2.484.862,3.967s.622,2.821.873,3.962a9.188,9.188,0,0,1,.327,1.654,6.972,6.972,0,0,1-.57-1.591c-.292-1-.644-2.4-.978-3.95s-.6-2.967-.761-3.995a7.637,7.637,0,0,1-.187-1.678" transform="translate(-32.642 -114.355)" fill="#263238"/>
            <path id="Trazado_819984" data-name="Trazado 819984" d="M94.806,354.139s-8.624-4.032-9.113-11.383a.315.315,0,0,1,.48-.293c1.291.811,4.894,3.643,8.634,11.676" transform="translate(-32.363 -125.818)" fill="#a3bfe4"/>
            <path id="Trazado_819985" data-name="Trazado 819985" d="M88.4,346.48a8.382,8.382,0,0,1,1.109,1.272l2.521,3.182,2.529,3.173a9.125,9.125,0,0,1,1.022,1.341,7.041,7.041,0,0,1-1.212-1.177c-.7-.77-1.634-1.868-2.618-3.116s-1.842-2.4-2.443-3.251a7.562,7.562,0,0,1-.908-1.424" transform="translate(-33.212 -127.092)" fill="#263238"/>
            <path id="Trazado_819986" data-name="Trazado 819986" d="M116.47,304.971a.7.7,0,0,1,.011.209c0,.166-.009.366-.015.609-.025.572-.06,1.344-.1,2.308-.111,2.029-.266,4.859-.452,8.244v.008l0,.012a31.983,31.983,0,0,1-4.727,10.97c-1.729,2.731-3.541,5.213-5.1,7.523a53.235,53.235,0,0,0-3.827,6.325,26.8,26.8,0,0,0-1.79,4.641c-.152.569-.266,1.013-.332,1.316a2.443,2.443,0,0,1-.126.458,2.307,2.307,0,0,1,.056-.472c.043-.308.135-.759.267-1.336a24.52,24.52,0,0,1,1.7-4.717,50.545,50.545,0,0,1,3.781-6.4c1.552-2.325,3.355-4.812,5.075-7.529A32.426,32.426,0,0,0,115.61,316.3l0,.019c.238-3.381.437-6.208.579-8.235.078-.962.141-1.732.187-2.3l.06-.605a.7.7,0,0,1,.037-.207" transform="translate(-36.849 -114.08)" fill="#263238"/>
            <path id="Trazado_819987" data-name="Trazado 819987" d="M115.637,329.81s3.652-8.791-.942-14.551a.315.315,0,0,0-.552.106c-.407,1.47-1.16,5.991,1.494,14.445" transform="translate(-41.151 -117.267)" fill="#e8505b"/>
            <path id="Trazado_819988" data-name="Trazado 819988" d="M115.529,319.779a7.585,7.585,0,0,1,.29,1.663c.129,1.033.274,2.463.387,4.048s.167,3.024.167,4.066a6.991,6.991,0,0,1-.1,1.687,9.146,9.146,0,0,1-.149-1.679c-.078-1.166-.17-2.535-.271-4.048s-.2-2.883-.282-4.05a8.339,8.339,0,0,1-.039-1.687" transform="translate(-41.708 -118.722)" fill="#263238"/>
            <g id="Grupo_1071560" data-name="Grupo 1071560" transform="translate(72.574 197.87)" opacity="0.3">
              <g id="Grupo_1071559" data-name="Grupo 1071559">
                <g id="Grupo_1071558" data-name="Grupo 1071558" clip-path="url(#clip-path-19)">
                  <path id="Trazado_819989" data-name="Trazado 819989" d="M115.637,329.81s3.652-8.791-.942-14.551a.315.315,0,0,0-.552.106c-.407,1.47-1.16,5.991,1.494,14.445" transform="translate(-113.724 -315.137)" fill="#fff198"/>
                </g>
              </g>
            </g>
            <path id="Trazado_819990" data-name="Trazado 819990" d="M98.734,360.735s2.927-9.058-2.119-14.427a.315.315,0,0,0-.541.151c-.286,1.5-.671,6.065,2.66,14.276" transform="translate(-35.561 -127.007)" fill="#e8505b"/>
            <path id="Trazado_819991" data-name="Trazado 819991" d="M97.7,350.773a7.583,7.583,0,0,1,.424,1.635c.212,1.019.472,2.433.714,4s.413,3,.5,4.039a7.037,7.037,0,0,1,.035,1.689,9.137,9.137,0,0,1-.286-1.661c-.172-1.156-.374-2.513-.6-4.013l-.61-4.014a8.364,8.364,0,0,1-.176-1.678" transform="translate(-36.123 -128.438)" fill="#263238"/>
            <g id="Grupo_1071563" data-name="Grupo 1071563" transform="translate(60.332 219.2)" opacity="0.3">
              <g id="Grupo_1071562" data-name="Grupo 1071562">
                <g id="Grupo_1071561" data-name="Grupo 1071561" clip-path="url(#clip-path-20)">
                  <path id="Trazado_819992" data-name="Trazado 819992" d="M98.734,360.735s2.927-9.058-2.119-14.427a.315.315,0,0,0-.541.151c-.286,1.5-.671,6.065,2.66,14.276" transform="translate(-95.893 -346.206)" fill="#fff198"/>
                </g>
              </g>
            </g>
            <path id="Trazado_819993" data-name="Trazado 819993" d="M123.285,314.89s7.8-5.46,7.012-12.785a.315.315,0,0,0-.523-.207c-1.132,1.022-4.193,4.433-6.489,12.992" transform="translate(-44.148 -113.091)" fill="#e8505b"/>
            <g id="Grupo_1071566" data-name="Grupo 1071566" transform="translate(79.138 188.727)" opacity="0.3">
              <g id="Grupo_1071565" data-name="Grupo 1071565">
                <g id="Grupo_1071564" data-name="Grupo 1071564" clip-path="url(#clip-path-21)">
                  <path id="Trazado_819994" data-name="Trazado 819994" d="M123.285,314.89s7.8-5.46,7.012-12.785a.315.315,0,0,0-.523-.207c-1.132,1.022-4.193,4.433-6.489,12.992" transform="translate(-123.286 -301.818)" fill="#fff198"/>
                </g>
              </g>
            </g>
            <path id="Trazado_819995" data-name="Trazado 819995" d="M128.919,306.22a7.578,7.578,0,0,1-.648,1.559c-.445.941-1.091,2.226-1.845,3.623s-1.48,2.642-2.04,3.521a7.016,7.016,0,0,1-.991,1.369,9.1,9.1,0,0,1,.774-1.5l1.944-3.562,1.935-3.569a8.363,8.363,0,0,1,.872-1.444" transform="translate(-44.181 -114.471)" fill="#263238"/>
            <path id="Trazado_819996" data-name="Trazado 819996" d="M104.612,350.261s9.407-1.466,11.926-8.39a.315.315,0,0,0-.378-.415c-1.466.419-5.717,2.134-11.548,8.805" transform="translate(-38.294 -125.513)" fill="#e8505b"/>
            <g id="Grupo_1071569" data-name="Grupo 1071569" transform="translate(66.318 215.93)" opacity="0.3">
              <g id="Grupo_1071568" data-name="Grupo 1071568">
                <g id="Grupo_1071567" data-name="Grupo 1071567" clip-path="url(#clip-path-22)">
                  <path id="Trazado_819997" data-name="Trazado 819997" d="M104.612,350.261s9.407-1.466,11.926-8.39a.315.315,0,0,0-.378-.415c-1.466.419-5.717,2.134-11.548,8.805" transform="translate(-104.612 -341.443)" fill="#fff198"/>
                </g>
              </g>
            </g>
            <path id="Trazado_819998" data-name="Trazado 819998" d="M114.093,344.738a7.583,7.583,0,0,1-1.269,1.114c-.814.649-1.959,1.518-3.252,2.441s-2.493,1.72-3.383,2.263a7.03,7.03,0,0,1-1.492.792,9.092,9.092,0,0,1,1.355-1L109.366,348l3.308-2.353a8.364,8.364,0,0,1,1.419-.912" transform="translate(-38.32 -126.545)" fill="#263238"/>
            <path id="Trazado_819999" data-name="Trazado 819999" d="M90.288,379.5l-2.744,18.468h17.1L102.427,379.5Z" transform="translate(-32.943 -137.445)" fill="#455a64"/>
            <path id="Trazado_820000" data-name="Trazado 820000" d="M103.922,387.758a67.022,67.022,0,0,1-6.9.178,67.011,67.011,0,0,1-6.9-.178,67,67,0,0,1,6.9-.178,67.012,67.012,0,0,1,6.9.178" transform="translate(-33.754 -139.977)" fill="#263238"/>
            <path id="Trazado_820001" data-name="Trazado 820001" d="M104.209,389.9c0,.1-3.189.178-7.121.178s-7.122-.08-7.122-.178,3.188-.178,7.122-.178,7.121.08,7.121.178" transform="translate(-33.702 -140.648)" fill="#263238"/>
          </g>
        </g>
      </g>
    </g>
  </g>
</svg>
