<svg xmlns="http://www.w3.org/2000/svg" xmlns:xlink="http://www.w3.org/1999/xlink" width="124.001" height="124" viewBox="0 0 124.001 124">
  <defs>
    <clipPath id="clip-path">
      <rect id="Rect치ngulo_377501" data-name="Rect치ngulo 377501" width="40.514" height="69.105" transform="translate(0 0)" fill="none"/>
    </clipPath>
  </defs>
  <g id="Grupo_1071715" data-name="Grupo 1071715" transform="translate(-738.5 -2401.805)">
    <g id="Grupo_1015035" data-name="Grupo 1015035" transform="translate(1.5 343.805)">
      <g id="Grupo_159183" data-name="Grupo 159183" transform="translate(352.001)">
        <path id="Uni칩n_12" data-name="Uni칩n 12" d="M8464.769,11817.939a62.055,62.055,0,1,1,20.7-16.051l8.516,22.111Z" transform="translate(-7991 -9642)" fill="#a3bfe4"/>
        <circle id="Elipse_4842" data-name="Elipse 4842" cx="48" cy="48" r="48" transform="translate(399 2072)" fill="#fffbe5"/>
      </g>
    </g>
    <g id="Grupo_1071480" data-name="Grupo 1071480" transform="translate(779.743 2429.252)">
      <g id="Grupo_1071479" data-name="Grupo 1071479" clip-path="url(#clip-path)">
        <path id="Trazado_819515" data-name="Trazado 819515" d="M20.238,69.105q-9.038,0-18.073,0c-1.8,0-2.148-.332-2.135-2.1a11.919,11.919,0,0,1,.125-2.954,2.735,2.735,0,0,1,1.168-1.909c1.551-.731,1.4-2,1.416-3.341.03-3.138-.253-6.29.44-9.4a20.888,20.888,0,0,1,9.035-13.221c1.829-1.234,1.807-1.984-.04-3.264A20.741,20.741,0,0,1,2.731,15.389c-.041-2.2-.014-4.406,0-6.609,0-.5-.008-.9-.574-1.2a4.036,4.036,0,0,1-2.138-3.9C.007-.068-.173-.008,3.7,0,14.8.028,25.907.011,37.012.011c3.522,0,3.5,0,3.5,3.581,0,1.222-.111,2.616-1.139,3.159-1.947,1.029-1.553,2.648-1.57,4.237-.035,3.23.208,6.476-.661,9.652a21.038,21.038,0,0,1-8.831,12.3c-1.79,1.2-1.8,2.009-.074,3.189A20.756,20.756,0,0,1,37.8,53.861c.033,2.158.011,4.316,0,6.475,0,.5.008.9.575,1.2a4.035,4.035,0,0,1,2.137,3.9c.011,3.667.033,3.667-3.686,3.667H20.238m.038-61c-4.63,0-9.26.016-13.889-.016-.738-.005-1.005.16-.984.949.056,2.111-.01,4.226.025,6.338.107,6.545,2.823,11.793,8.34,15.269,3.084,1.944,3.191,5.919-.043,7.833A16.876,16.876,0,0,0,6.113,48.725c-1.122,3.882-.55,7.859-.688,11.8-.024.7.525.476.87.476,9.3.011,18.608,0,27.912.029.842,0,.927-.326.912-1.02-.04-1.842-.031-3.686-.011-5.529A18.155,18.155,0,0,0,26.4,38.151a4.395,4.395,0,0,1-1.812-2.1c-.759-1.963-.063-3.859,1.962-5.179a18.093,18.093,0,0,0,8.168-11.72c.707-3.285.263-6.633.4-9.95.037-.869-.2-1.124-1.093-1.114-4.584.048-9.169.022-13.753.022m.031-5.4c-5.435,0-10.87-.008-16.3.014-.431,0-1.1-.3-1.235.416a1.863,1.863,0,0,0,.441,1.877,2.006,2.006,0,0,0,1.516.386H35.851a2.946,2.946,0,0,0,.8-.035c1.013-.3,1.214-1.071,1.145-2.01-.075-1-.838-.629-1.324-.632-5.39-.025-10.78-.015-16.17-.015M20.116,66.4c5.435,0,10.87.007,16.305-.01.59,0,1.425.333,1.4-.851-.024-.984-.328-1.663-1.372-1.82a5.424,5.424,0,0,0-.807-.012H4.915a4.605,4.605,0,0,0-.941.026c-1.04.217-1.278.956-1.257,1.915.024,1.107.834.735,1.364.738,5.345.023,10.69.014,16.035.014" fill="#020303"/>
        <path id="Trazado_819516" data-name="Trazado 819516" d="M20.276,8.109c4.584,0,9.169.026,13.753-.022.9-.009,1.13.245,1.093,1.114-.14,3.317.3,6.665-.4,9.95a18.093,18.093,0,0,1-8.168,11.72c-2.025,1.32-2.721,3.216-1.962,5.179a4.4,4.4,0,0,0,1.812,2.1,18.152,18.152,0,0,1,8.707,16.326c-.02,1.843-.029,3.687.011,5.529.015.694-.07,1.023-.912,1.02C24.9,60.995,15.6,61.009,6.3,61c-.345,0-.894.227-.87-.476.138-3.938-.434-7.915.688-11.8a16.876,16.876,0,0,1,7.612-10.243c3.234-1.914,3.127-5.889.043-7.832-5.517-3.477-8.233-8.725-8.34-15.27-.035-2.112.031-4.227-.025-6.338-.021-.789.246-.954.984-.949,4.629.032,9.259.016,13.889.016M18.915,33.166c0,1.473,0,2.462,0,3.45,0,.894.375,1.522,1.307,1.54,1.007.02,1.4-.633,1.4-1.586a20.307,20.307,0,0,0-.025-2.962c-.436-2.736.7-4.324,3-5.877,4.994-3.377,8.277-7.937,7.825-14.406-.109-1.565-.97-2.118-2.318-1.349a19.455,19.455,0,0,1-3.9,1.786,19.011,19.011,0,0,1-15.583-1.677c-1.363-.774-2.406-.426-2.465.893a16.549,16.549,0,0,0,.136,4.164,16.513,16.513,0,0,0,7.573,10.551c2.312,1.518,3.8,3.059,3.059,5.473m1.211,25.143c3.5,0,7-.014,10.5.007,1.244.008,1.776-.547,1.791-1.791a5.155,5.155,0,0,0-3.045-5.1c-.924-.452-1.884-.83-2.815-1.269-1.9-.9-3.861-1.682-5.261-3.386a1.265,1.265,0,0,0-2.17.089,10.025,10.025,0,0,1-3.7,2.616c-1.418.665-2.865,1.268-4.274,1.95a5.042,5.042,0,0,0-3.036,4.963c.02,1.488.4,1.915,1.91,1.92,3.366.01,6.732,0,10.1,0m.152-14.725a1.281,1.281,0,0,0,1.313-1.389,1.211,1.211,0,0,0-1.282-1.26,1.224,1.224,0,0,0-1.373,1.3c-.01.847.52,1.273,1.342,1.347" fill="#cfe5f8"/>
        <path id="Trazado_819517" data-name="Trazado 819517" d="M20.306,2.713c5.39,0,10.78-.009,16.17.016.487,0,1.25-.369,1.324.631.07.939-.132,1.713-1.145,2.01a2.9,2.9,0,0,1-.8.035q-15.564,0-31.127,0A2.006,2.006,0,0,1,3.207,5.02a1.86,1.86,0,0,1-.44-1.876c.136-.72.8-.415,1.234-.417,5.435-.021,10.87-.014,16.3-.014" fill="#474e61"/>
        <path id="Trazado_819518" data-name="Trazado 819518" d="M20.116,66.4c-5.345,0-10.69.009-16.035-.014-.53,0-1.34.369-1.364-.738-.021-.959.217-1.7,1.257-1.915a4.605,4.605,0,0,1,.941-.026H35.638a5.424,5.424,0,0,1,.807.012c1.044.157,1.348.836,1.372,1.82.029,1.184-.806.849-1.4.851-5.435.017-10.87.01-16.305.01" fill="#474e61"/>
        <path id="Trazado_819519" data-name="Trazado 819519" d="M18.914,33.166c.742-2.414-.746-3.955-3.058-5.473A16.521,16.521,0,0,1,8.282,17.142a16.551,16.551,0,0,1-.136-4.164c.06-1.319,1.1-1.668,2.465-.894a19.008,19.008,0,0,0,15.583,1.678,19.488,19.488,0,0,0,3.9-1.786c1.347-.769,2.208-.217,2.317,1.349.453,6.469-2.83,11.028-7.824,14.4-2.3,1.554-3.438,3.142-3,5.878a20.018,20.018,0,0,1,.025,2.961c.008.954-.387,1.607-1.4,1.587-.931-.018-1.312-.647-1.306-1.54.006-.989,0-1.977,0-3.45M10.83,15.294a9.062,9.062,0,0,0,1.278,4.551c1.455,2.612,3.692,4.437,5.991,6.28,1.663,1.333,2.786,1.2,4.385-.046a21.088,21.088,0,0,0,5.955-6.313,8.388,8.388,0,0,0,1.23-4.46,22.237,22.237,0,0,1-18.839-.012" fill="#050504"/>
        <path id="Trazado_819520" data-name="Trazado 819520" d="M20.126,58.309c-3.366,0-6.732.007-10.1,0-1.505-.005-1.89-.432-1.91-1.92a5.04,5.04,0,0,1,3.036-4.963c1.409-.682,2.856-1.285,4.274-1.95a10.025,10.025,0,0,0,3.7-2.616,1.264,1.264,0,0,1,2.17-.089c1.4,1.7,3.361,2.49,5.261,3.386.931.439,1.891.817,2.815,1.269a5.153,5.153,0,0,1,3.044,5.1c-.014,1.243-.546,1.8-1.79,1.791-3.5-.021-7-.007-10.5-.007m.032-2.7c2.331,0,4.664.041,6.994-.023.791-.021,2.145.449,2.271-.288.176-1.029-1.145-1.434-2.029-1.84-2.314-1.063-4.741-1.909-6.75-3.546-.318-.259-.516-.2-.8.035a26.422,26.422,0,0,1-6.27,3.31,6.652,6.652,0,0,0-2.087,1.192c-.262.253-.569.564-.466.913.136.455.615.235.936.237,2.735.018,5.47.01,8.205.01" fill="#040403"/>
        <path id="Trazado_819521" data-name="Trazado 819521" d="M20.278,43.584c-.822-.074-1.352-.5-1.342-1.347a1.224,1.224,0,0,1,1.373-1.3,1.211,1.211,0,0,1,1.282,1.26,1.281,1.281,0,0,1-1.313,1.389" fill="#0b0c0d"/>
        <path id="Trazado_819522" data-name="Trazado 819522" d="M10.83,15.294a22.237,22.237,0,0,0,18.839.012,8.388,8.388,0,0,1-1.23,4.46,21.088,21.088,0,0,1-5.955,6.313c-1.6,1.242-2.722,1.379-4.385.046-2.3-1.843-4.536-3.668-5.991-6.28a9.062,9.062,0,0,1-1.278-4.551" fill="#f4e284"/>
        <path id="Trazado_819523" data-name="Trazado 819523" d="M20.158,55.608c-2.735,0-5.47.008-8.205-.01-.321,0-.8.219-.936-.237-.1-.349.2-.66.466-.913a6.652,6.652,0,0,1,2.087-1.192,26.422,26.422,0,0,0,6.27-3.31c.288-.231.486-.294.8-.035,2.009,1.637,4.436,2.483,6.75,3.546.884.406,2.205.811,2.029,1.84-.126.737-1.48.267-2.271.288-2.33.064-4.663.023-6.994.023" fill="#f5e384"/>
      </g>
    </g>
  </g>
</svg>
