<svg xmlns="http://www.w3.org/2000/svg" xmlns:xlink="http://www.w3.org/1999/xlink" width="124.001" height="124" viewBox="0 0 124.001 124">
  <defs>
    <clipPath id="clip-path">
      <rect id="Rect치ngulo_377512" data-name="Rect치ngulo 377512" width="72.943" height="72.982" fill="none"/>
    </clipPath>
  </defs>
  <g id="Grupo_1071712" data-name="Grupo 1071712" transform="translate(-384.93 -2136.256)">
    <g id="Grupo_1071490" data-name="Grupo 1071490" transform="translate(-0.07 78.256)">
      <g id="Grupo_159182" data-name="Grupo 159182" transform="translate(0.001)">
        <path id="Uni칩n_12" data-name="Uni칩n 12" d="M8464.769,11817.939a62.055,62.055,0,1,1,20.7-16.051l8.516,22.111Z" transform="translate(-7991 -9642)" fill="#a3bfe4"/>
        <circle id="Elipse_4842" data-name="Elipse 4842" cx="48" cy="48" r="48" transform="translate(399 2072)" fill="#e3ecf7"/>
      </g>
    </g>
    <g id="Grupo_1071501" data-name="Grupo 1071501" transform="translate(410.458 2161.765)">
      <g id="Grupo_1071500" data-name="Grupo 1071500" clip-path="url(#clip-path)">
        <path id="Trazado_819603" data-name="Trazado 819603" d="M0,37.646q0-12.395,0-24.79C.006,9.2,1.871,7.327,5.5,7.3c1.092-.007,2.185-.017,3.277,0a6.877,6.877,0,0,0,3.945-.781c1.35-.82,2.967-.467,4.473-.458.741,0,1-.16,1.146-.959A6,6,0,0,1,24.288,0a5.935,5.935,0,0,1,5.979,5.038c.165.842.481,1.055,1.294,1.03,1.936-.06,3.9-.218,5.6,1.084a2.029,2.029,0,0,0,1.1.145c1.567.014,3.134,0,4.7.007,3.838.011,5.7,1.849,5.7,5.656.007,5.889.025,11.778-.02,17.666-.008,1.041.125,1.307,1.3,1.163a19.981,19.981,0,0,1,14.733,3.964c.461.34,1.011,1.213,1.431.853.806-.691,2-1.218,1.99-2.584,0-.332,0-.665,0-1,0-.765.645-1.662,1.053-1.316,1.193,1.012,3.109-1.207,3.647.782a20.328,20.328,0,0,1,.009,3.162c.047.635-.767.934-1.435.814-1.24-.223-2,.425-2.825,1.221-.688.667-.726,1.051-.108,1.815a19.6,19.6,0,0,1,4.492,12.753,20.008,20.008,0,0,1-7.632,16c-.842.691-1.027,1.195-.331,2.015a3.14,3.14,0,0,1,.5.853,1.18,1.18,0,0,1-.451,1.612,1.14,1.14,0,0,1-1.616-.376c-.5-.588-.591-1.709-1.419-1.753-.669-.036-1.355.61-2.061.88a20.226,20.226,0,0,1-16.431-.537c-.912-.43-1.429-.456-1.821.533a4.025,4.025,0,0,1-.593.967,1.133,1.133,0,0,1-1.63.314,1.117,1.117,0,0,1-.422-1.5,9.526,9.526,0,0,1,.623-1.114c.652-1.109.252-1.893-1.063-2.044a8.793,8.793,0,0,0-1-.007q-15.958,0-31.915,0C1.865,68.1,0,66.249,0,62.436Q0,50.041,0,37.646M65.827,60.968c-.312.086-.564.2-.295.583l0-.032c-.636-.08-.706.528-.989.848-4.429,5.024-9.949,6.955-16.405,5.213C41.546,65.8,37.66,61.244,36.565,54.535A15.431,15.431,0,0,1,44.2,38.706c5.927-3.366,11.806-3,17.415.872.779.538,1.279.732,1.752-.229.708-.419,1-.824.127-1.436a13.236,13.236,0,0,0-4.2-2.3l0,0a.514.514,0,0,0-.588-.258.32.32,0,0,0-.2-.068.707.707,0,0,0-.646-.255,4.791,4.791,0,0,0-.655-.269c-6.908-1.748-13.046-.294-18.028,4.83-5.1,5.245-6.528,11.572-4.288,18.533,3.023,9.4,13.6,14.843,22.4,11.708a.731.731,0,0,0,.661-.237.247.247,0,0,0,.186-.062,2.195,2.195,0,0,0,.559-.063,18.351,18.351,0,0,0,8.167-28.145c-.806-1.076-1.361-.94-1.911.16-.557.254-.621.562-.249,1.085.7.987,1.328,2.027,1.985,3.045l-.014-.023.3.6-.018-.027a.906.906,0,0,0,.3.709A16.819,16.819,0,0,1,66.2,59.88l-.1.531.01-.014a.39.39,0,0,0-.294.585ZM53,53.27a1.155,1.155,0,0,1-1.723-.362c-.469-.708-.066-1.247.409-1.756a7.4,7.4,0,0,0,1.743-2.136c-1.91-.493-3.13-.18-4.014,1.03a3.471,3.471,0,0,0-.346,3.877A2.989,2.989,0,0,0,52.4,55.777a3.441,3.441,0,0,0,3.471-4c-.126-.622-.35-.887-.913-.348-.647.619-1.3,1.228-1.956,1.841m8.921,4.313-.109.26-.333.528c-.208.255-.419.508-.625.765A10.971,10.971,0,0,1,43.077,46.319a10.831,10.831,0,0,1,14.655-3.456c1.2.732,1.873.724,2.607-.38a5.079,5.079,0,0,1,.411-.471c-.312-.25-.591-.5-.9-.715A13.381,13.381,0,0,0,39.117,54.908c1.634,8.174,10.543,13.055,17.9,9.809a3.958,3.958,0,0,0,.678-.165,13.376,13.376,0,0,0,5.7-19.663c-.237-.349-.346-1.359-1.134-.789-.633.458-1.394.951-.759,2.092a11.492,11.492,0,0,1,.424,11.392M43.884,13.828c-.009,6.122-.023,12.243-.009,18.365,0,.329-.317.917.409.97a1.8,1.8,0,0,0,1.9-1.76q.01-9.469,0-18.938c-.005-1.837-.938-2.662-2.884-2.672-1.038-.029-2.079-.113-3.113-.061-.485.024-1.429-.453-1.321.645.08.81-.225,2.091,1.384,1.825a3.44,3.44,0,0,1,3.635,1.626m9.979,46.814.4-.163.441-.1c4.965-1.158,7.587-7.148,5.162-11.872-.21-.408-.287-1.387-1.028-.964-.648.37-1.663.946-1.136,1.989a6.7,6.7,0,0,1-.133,5.99c-.189.208-.386.409-.566.625a6.087,6.087,0,0,1-10.238-6.415,5.809,5.809,0,0,1,7.364-3.159c1.654.684,2.312.045,3.019-1.128a8.371,8.371,0,0,0-10.4.339,8.58,8.58,0,0,0-2.266,10.082,8.4,8.4,0,0,0,9.376,4.78M33.917,13.33c.612.015,1.225.039,1.837.041.266,0,.541.053.708-.289a3.165,3.165,0,0,0-3.114-4.5,2.667,2.667,0,0,0-.419-.048c-1.171.048-2.715-.589-2.659,1.606.014.542-.6.8-1.183.752A1.119,1.119,0,0,1,27.99,9.8c-.074-.793-.059-1.6-.082-2.393.188-3.3-1.007-4.877-3.679-4.867a3.344,3.344,0,0,0-3.5,3.306c-.08,1.271-.014,2.551-.064,3.825a1.132,1.132,0,0,1-1.124,1.221c-.653.037-1.282-.328-1.22-.913.178-1.674-.872-1.5-1.906-1.46-.472.017-.945,0-1.418,0-1.926.029-2.769.847-2.8,2.746-.01.612.039,1.224.061,1.837-.029.227.1.26.281.227l21.375,0m5.12,1.3c-2.073,1.669-4.53,1.145-6.873,1.158-6.317.034-12.633.008-18.95.014a3.808,3.808,0,0,1-3.008-.94c-.685-.681-1.761-.393-2.58-.208-.6.136-.288,1-.288,1.535-.016,14.343,0,28.686-.04,43.029,0,1.19.2,1.6,1.515,1.585,7.693-.075,15.388-.037,23.082-.037h1.48c-.1-.325-.143-.5-.2-.671Q28.4,47,38.249,37.125c.29-.291.536-.625.8-.939A3.132,3.132,0,0,0,41.4,32.768c-.166-5.4-.057-10.8-.058-16.2,0-2.064,0-2.064-2.03-1.985a1.829,1.829,0,0,0-.278.054M2.5,37.687q0,12.389,0,24.779c0,2.441.691,3.134,3.122,3.135q14.526.005,29.052,0,.427,0,.854,0c.666-.006.683-.254.367-.781a2.908,2.908,0,0,0-2.838-1.61c-8.212.085-16.424.042-24.637.041-2.829,0-3.566-.723-3.566-3.5q0-22.073,0-44.146c0-.38-.021-.761.011-1.139a2.306,2.306,0,0,1,2.3-2.248A15.95,15.95,0,0,1,8.88,12.2c.611.025.779-.254.851-.84.153-1.246-.172-1.866-1.567-1.675a18.323,18.323,0,0,1-2.418.02c-2.5.007-3.24.728-3.241,3.2Q2.5,25.3,2.5,37.687" transform="translate(0 0)" fill="#070605"/>
        <path id="Trazado_819604" data-name="Trazado 819604" d="M57.235,72.371c-.267.314-.512.649-.8.94q-9.844,9.875-5.079,22.975c.062.17.106.347.205.672h-1.48c-7.694,0-15.389-.038-23.082.036-1.318.013-1.519-.395-1.515-1.585.041-14.343.023-28.686.04-43.029,0-.532-.316-1.4.288-1.535.819-.185,1.9-.473,2.58.208a3.807,3.807,0,0,0,3.008.94c6.317-.006,12.634.02,18.95-.015,2.343-.013,4.8.512,6.873-1.158q.007,10.775.014,21.55m-10.4-4.563c-2.513,0-5.026.015-7.538-.008-.865-.008-1.585.223-1.617,1.171s.677,1.249,1.542,1.249q7.538-.006,15.077,0c.84,0,1.566-.221,1.532-1.239-.033-1-.756-1.179-1.6-1.175-2.465.012-4.931,0-7.4,0m-.054-7.331c2.465,0,4.93,0,7.4,0,.883,0,1.692-.139,1.653-1.253-.036-1.01-.795-1.141-1.626-1.14q-7.4.013-14.791,0c-.887,0-1.721.126-1.732,1.185s.811,1.222,1.705,1.215c2.465-.02,4.93-.007,7.4-.007m-3.2,17.039c-1.418,0-2.836.02-4.253-.007-.924-.018-1.682.26-1.658,1.276.021.921.759,1.206,1.614,1.2,2.835-.007,5.671,0,8.506,0,.844,0,1.58-.263,1.578-1.223,0-1.038-.762-1.273-1.676-1.255-1.37.028-2.741.007-4.111.007m-1.2,12.2c1.184,0,2.368.015,3.552,0,.81-.013,1.413-.365,1.4-1.254s-.619-1.219-1.432-1.222q-3.41-.01-6.82,0c-.832,0-1.426.418-1.415,1.252s.623,1.225,1.448,1.229c1.089.005,2.179,0,3.268,0M30.629,58.137a1.175,1.175,0,0,0-1.286.556,1.125,1.125,0,0,0,.077,1.336,11.641,11.641,0,0,0,1.188,1.225,1.228,1.228,0,0,0,2.055-.2c.583-.807,1.143-1.634,1.653-2.489.5-.832,1.653-1.764.319-2.657s-1.712.567-2.336,1.306c-.456.539-.607,1.679-1.669.922m.058,9.725a1.2,1.2,0,0,0-1.316.523,1.075,1.075,0,0,0,.027,1.331,10.273,10.273,0,0,0,1.513,1.5,1.06,1.06,0,0,0,1.621-.279c.873-1.238,1.7-2.51,2.512-3.789a1.052,1.052,0,0,0-.343-1.5,1.1,1.1,0,0,0-1.637.22c-.332.4-.592.857-.9,1.278-.386.528-.594,1.477-1.479.723m-.234,9.67a1.274,1.274,0,0,0-1.133.662,1.123,1.123,0,0,0,.133,1.33,15.8,15.8,0,0,0,1.2,1.216,1.157,1.157,0,0,0,1.941-.16c.851-1.2,1.647-2.432,2.434-3.671a1.082,1.082,0,0,0-.4-1.6,1.122,1.122,0,0,0-1.541.243c-.218.248-.37.552-.585.8-.566.659-.726,2.07-2.048,1.179m4.786,8.542c-.119-.581-.325-1-.842-1.151a1.118,1.118,0,0,0-1.292.335c-.375.487-.713,1-1.049,1.519s-.6,1.049-1.4.568c-.465-.279-.935.046-1.234.437a1.1,1.1,0,0,0,.027,1.443c.329.4.716.758,1.084,1.128.846.851,1.587.689,2.225-.253.718-1.059,1.433-2.121,2.126-3.2a5.023,5.023,0,0,0,.36-.829" transform="translate(-18.184 -36.186)" fill="#f2dbb0"/>
        <path id="Trazado_819605" data-name="Trazado 819605" d="M8.781,61.883q0-12.389,0-24.779c0-2.473.737-3.193,3.241-3.2a18.328,18.328,0,0,0,2.418-.02c1.394-.191,1.72.429,1.567,1.675-.072.587-.24.866-.851.84a15.944,15.944,0,0,0-1.708.011,2.306,2.306,0,0,0-2.3,2.248c-.033.377-.012.759-.012,1.139q0,22.073,0,44.146c0,2.779.737,3.5,3.566,3.5,8.212,0,16.425.044,24.637-.041a2.908,2.908,0,0,1,2.838,1.61c.316.528.3.775-.367.781q-.427,0-.854,0-14.526,0-29.052,0c-2.431,0-3.121-.694-3.122-3.135q-.005-12.389,0-24.779" transform="translate(-6.276 -24.196)" fill="#8d5233"/>
        <path id="Trazado_819606" data-name="Trazado 819606" d="M148.259,124.708c-.473.961-.973.767-1.752.229-5.609-3.876-11.489-4.238-17.415-.872a15.431,15.431,0,0,0-7.634,15.829c1.1,6.709,4.982,11.268,11.569,13.046,6.456,1.742,11.976-.189,16.405-5.213.282-.321.352-.928.989-.848-.351,1.588-1.525,2.645-2.486,3.837-1.369,1.7-3.3,2.752-4.9,4.179a.247.247,0,0,1-.186.062.547.547,0,0,0-.661.237c-8.8,3.135-19.377-2.312-22.4-11.708-2.24-6.961-.811-13.289,4.288-18.533,4.982-5.124,11.12-6.578,18.028-4.83a4.828,4.828,0,0,1,.655.269.544.544,0,0,0,.646.255.322.322,0,0,1,.2.068.549.549,0,0,0,.588.258l0,0a45.5,45.5,0,0,0,4.07,3.739" transform="translate(-84.894 -85.361)" fill="#cd4337"/>
        <path id="Trazado_819607" data-name="Trazado 819607" d="M154.426,162.276c-7.359,3.246-16.268-1.635-17.9-9.809a13.381,13.381,0,0,1,20.738-13.611c.305.213.584.465.9.715a5.07,5.07,0,0,0-.411.471c-.735,1.1-1.406,1.113-2.608.38a10.831,10.831,0,0,0-14.655,3.456A10.972,10.972,0,0,0,158.266,156.7c.205-.258.416-.51.625-.765.44.231.234.486.074.8a14.5,14.5,0,0,1-3.85,4.584c-.332.272-.717.453-.688.961" transform="translate(-97.407 -97.56)" fill="#eceded"/>
        <path id="Trazado_819608" data-name="Trazado 819608" d="M42.836,19.475c-.022-.612-.071-1.225-.061-1.837.032-1.9.875-2.717,2.8-2.746.472-.007.945.013,1.417,0,1.035-.037,2.084-.214,1.906,1.46-.062.585.566.95,1.22.913a1.132,1.132,0,0,0,1.124-1.221c.05-1.274-.016-2.554.064-3.825a3.343,3.343,0,0,1,3.5-3.306c.482.857,1.253,1.6,1.09,2.714-.691-.459-1.375-.649-1.97.133a1.05,1.05,0,0,0,.037,1.419c.634.741,1.307.525,1.971.023.69.9,1.681.475,2.551.578.023.8.009,1.6.083,2.393a1.118,1.118,0,0,0,1.1,1.088c.583.05,1.2-.21,1.183-.752-.056-2.195,1.488-1.558,2.658-1.606a2.663,2.663,0,0,1,.419.048c.9,1.5.494,3.154.569,4.752l-21.375,0-.281-.227" transform="translate(-30.575 -6.368)" fill="#f2d932"/>
        <path id="Trazado_819609" data-name="Trazado 819609" d="M164.3,170.145l-.442.1-.4.163a8.4,8.4,0,0,1-9.376-4.78,8.58,8.58,0,0,1,2.266-10.081,8.369,8.369,0,0,1,10.4-.338c-.707,1.172-1.365,1.811-3.02,1.126a5.809,5.809,0,0,0-7.364,3.159,6.087,6.087,0,0,0,10.238,6.415c.18-.215.377-.417.566-.625a4.366,4.366,0,0,1-.837,2.2c-.5,1.032-1.683,1.521-2.027,2.657" transform="translate(-109.594 -109.77)" fill="#cd4337"/>
        <path id="Trazado_819610" data-name="Trazado 819610" d="M203.874,171.267c1.6-1.427,3.53-2.48,4.9-4.179.96-1.192,2.135-2.249,2.486-3.837l0,.032a.522.522,0,0,0,.295-.583l-.008.013a.527.527,0,0,0,.294-.585l-.009.014c.286-.129.345-.3.1-.531a16.821,16.821,0,0,0,1.051-13.008c-.013-.272-.005-.553-.3-.708l.018.027c-.022-.237-.039-.477-.3-.6l.014.023c.094-1.659-1.192-2.739-1.736-4.13.549-1.1,1.1-1.236,1.911-.16a18.351,18.351,0,0,1-8.167,28.145,2.2,2.2,0,0,1-.559.063" transform="translate(-145.732 -101.732)" fill="#a62323"/>
        <path id="Trazado_819611" data-name="Trazado 819611" d="M151.827,34.338c1.946.01,2.878.835,2.884,2.672q.029,9.468,0,18.937a1.8,1.8,0,0,1-1.9,1.761c-.726-.053-.408-.641-.409-.97-.015-6.122,0-12.244.009-18.366a10.087,10.087,0,0,0-.585-4.034" transform="translate(-108.528 -24.545)" fill="#6a3f28"/>
        <path id="Trazado_819612" data-name="Trazado 819612" d="M136.9,72.672q-.007-10.775-.014-21.55a1.794,1.794,0,0,1,.278-.054c2.03-.079,2.03-.078,2.03,1.985,0,5.4-.108,10.806.058,16.2a3.132,3.132,0,0,1-2.351,3.417" transform="translate(-97.844 -36.487)" fill="#d5c19b"/>
        <path id="Trazado_819613" data-name="Trazado 819613" d="M199.93,174.82c-.029-.508.357-.689.688-.961a14.5,14.5,0,0,0,3.85-4.584c.161-.315.366-.569-.074-.8l.333-.528c.041-.017.114-.028.118-.052a.872.872,0,0,0-.01-.208,11.492,11.492,0,0,0-.424-11.392c-.635-1.141.125-1.635.759-2.092.788-.57.9.439,1.134.789a13.376,13.376,0,0,1-5.7,19.663,3.961,3.961,0,0,1-.678.165" transform="translate(-142.912 -110.104)" fill="#cad1d5"/>
        <path id="Trazado_819614" data-name="Trazado 819614" d="M191.829,179.269c.344-1.136,1.529-1.625,2.027-2.657a4.366,4.366,0,0,0,.837-2.2,6.7,6.7,0,0,0,.133-5.99c-.526-1.043.488-1.619,1.136-1.989.741-.423.819.556,1.028.964,2.425,4.723-.2,10.713-5.162,11.872" transform="translate(-137.122 -118.895)" fill="#a62323"/>
        <path id="Trazado_819615" data-name="Trazado 819615" d="M174.3,178.072a2.989,2.989,0,0,1-3.329-1.855,3.471,3.471,0,0,1,.346-3.877c.884-1.209,2.1-1.522,4.014-1.03a7.4,7.4,0,0,1-1.743,2.136c-.475.509-.877,1.048-.408,1.756a1.155,1.155,0,0,0,1.723.362c.742,1.062-.605,1.622-.6,2.506" transform="translate(-121.901 -122.296)" fill="#647682"/>
        <path id="Trazado_819616" data-name="Trazado 819616" d="M140.692,33.977a10.087,10.087,0,0,1,.585,4.034,3.441,3.441,0,0,0-3.635-1.626c-1.61.266-1.3-1.015-1.384-1.825-.108-1.1.836-.62,1.321-.644,1.034-.052,2.075.033,3.113.061" transform="translate(-97.393 -24.184)" fill="#8d5233"/>
        <path id="Trazado_819617" data-name="Trazado 819617" d="M117.5,34.821c-.075-1.6.331-3.253-.569-4.752a3.165,3.165,0,0,1,3.114,4.5c-.167.343-.442.29-.708.289-.612,0-1.225-.026-1.837-.041" transform="translate(-83.585 -21.491)" fill="#e8c22f"/>
        <path id="Trazado_819618" data-name="Trazado 819618" d="M86.046,11.623c.163-1.116-.608-1.857-1.09-2.714,2.672-.01,3.867,1.57,3.679,4.866-.87-.1-1.861.322-2.551-.578a1.87,1.87,0,0,0-.038-1.575" transform="translate(-60.728 -6.368)" fill="#e8c22f"/>
        <path id="Trazado_819619" data-name="Trazado 819619" d="M183.743,183.953c0-.884,1.345-1.444.6-2.506.652-.613,1.309-1.222,1.955-1.841.562-.539.787-.273.913.348a3.441,3.441,0,0,1-3.471,4" transform="translate(-131.342 -128.177)" fill="#3b464c"/>
        <path id="Trazado_819620" data-name="Trazado 819620" d="M211.987,128.6a45.491,45.491,0,0,1-4.07-3.739,13.238,13.238,0,0,1,4.2,2.3c.87.613.58,1.017-.127,1.436" transform="translate(-148.622 -89.252)" fill="#a62323"/>
        <path id="Trazado_819621" data-name="Trazado 819621" d="M226.559,145.474c.543,1.391,1.829,2.471,1.736,4.13-.657-1.018-1.284-2.058-1.985-3.045-.372-.524-.307-.832.25-1.085" transform="translate(-161.603 -103.987)" fill="#cd4337"/>
        <path id="Trazado_819622" data-name="Trazado 819622" d="M233.807,159.876c.259.119.275.359.3.6l-.3-.6" transform="translate(-167.129 -114.282)" fill="#cd4337"/>
        <path id="Trazado_819623" data-name="Trazado 819623" d="M234.788,161.871c.291.155.283.436.3.708a.9.9,0,0,1-.3-.708" transform="translate(-167.83 -115.708)" fill="#cd4337"/>
        <path id="Trazado_819624" data-name="Trazado 819624" d="M206.455,124.208a.549.549,0,0,1-.588-.258.514.514,0,0,1,.588.258" transform="translate(-147.157 -88.596)" fill="#a62323"/>
        <path id="Trazado_819625" data-name="Trazado 819625" d="M231.891,209.965c.245.23.186.4-.1.531l.1-.531" transform="translate(-165.688 -150.086)" fill="#cd4337"/>
        <path id="Trazado_819626" data-name="Trazado 819626" d="M230.971,211.778a.527.527,0,0,1-.294.585.39.39,0,0,1,.294-.585" transform="translate(-164.858 -151.382)" fill="#cd4337"/>
        <path id="Trazado_819627" data-name="Trazado 819627" d="M229.8,213.783a.523.523,0,0,1-.295.583c-.269-.38-.017-.5.295-.583" transform="translate(-163.969 -152.815)" fill="#cd4337"/>
        <path id="Trazado_819628" data-name="Trazado 819628" d="M203.552,123.089a.544.544,0,0,1-.646-.255.707.707,0,0,1,.646.255" transform="translate(-145.04 -87.803)" fill="#a62323"/>
        <path id="Trazado_819629" data-name="Trazado 819629" d="M200.9,244.215a.547.547,0,0,1,.661-.237.729.729,0,0,1-.661.237" transform="translate(-143.61 -174.382)" fill="#a62323"/>
        <path id="Trazado_819630" data-name="Trazado 819630" d="M42.982,45.958l.281.227c-.182.033-.31,0-.281-.227" transform="translate(-30.721 -32.851)" fill="#e8c22f"/>
        <path id="Trazado_819631" data-name="Trazado 819631" d="M216.865,201.914a.872.872,0,0,1,.01.208c0,.023-.077.035-.118.052l.109-.26" transform="translate(-154.94 -144.331)" fill="#eceded"/>
        <path id="Trazado_819632" data-name="Trazado 819632" d="M188.869,212.23l.4-.163-.4.163" transform="translate(-135.006 -151.589)" fill="#a62323"/>
        <path id="Trazado_819633" data-name="Trazado 819633" d="M77.509,110.858c2.465,0,4.931.008,7.4,0,.843,0,1.566.175,1.6,1.175.034,1.018-.692,1.238-1.532,1.239q-7.538,0-15.077,0c-.865,0-1.574-.291-1.542-1.249s.752-1.18,1.617-1.172c2.512.023,5.026.008,7.538.008" transform="translate(-48.86 -79.237)" fill="#020201"/>
        <path id="Trazado_819634" data-name="Trazado 819634" d="M77.459,79.175c-2.465,0-4.93-.014-7.4.007-.895.007-1.717-.156-1.705-1.215s.845-1.188,1.732-1.185q7.4.024,14.791,0c.831,0,1.59.129,1.626,1.14.039,1.114-.769,1.256-1.653,1.253-2.465-.007-4.93,0-7.4,0" transform="translate(-48.864 -54.885)" fill="#020201"/>
        <path id="Trazado_819635" data-name="Trazado 819635" d="M74.23,144.9c1.37,0,2.741.021,4.111-.007.914-.019,1.674.216,1.676,1.255,0,.96-.734,1.223-1.579,1.223-2.835,0-5.671,0-8.506,0-.855,0-1.592-.283-1.614-1.2-.024-1.017.734-1.294,1.658-1.276,1.417.027,2.835.007,4.253.007" transform="translate(-48.835 -103.572)" fill="#0e0d0b"/>
        <path id="Trazado_819636" data-name="Trazado 819636" d="M73.014,181.463c-1.089,0-2.179,0-3.268,0-.825,0-1.437-.4-1.448-1.229s.583-1.25,1.415-1.252q3.41-.008,6.82,0c.813,0,1.419.337,1.432,1.222s-.589,1.241-1.4,1.254c-1.184.019-2.368,0-3.552.005" transform="translate(-48.821 -127.936)" fill="#0e0d0b"/>
        <path id="Trazado_819637" data-name="Trazado 819637" d="M39.956,70.675c1.063.758,1.213-.382,1.669-.922.624-.738.993-2.206,2.336-1.306s.177,1.825-.319,2.657c-.51.854-1.069,1.682-1.653,2.489a1.228,1.228,0,0,1-2.055.2,11.638,11.638,0,0,1-1.188-1.225,1.126,1.126,0,0,1-.077-1.336,1.176,1.176,0,0,1,1.286-.556" transform="translate(-27.512 -48.725)" fill="#070605"/>
        <path id="Trazado_819638" data-name="Trazado 819638" d="M40,104.825c.885.754,1.092-.195,1.479-.724.307-.421.568-.878.9-1.278a1.1,1.1,0,0,1,1.637-.22,1.052,1.052,0,0,1,.343,1.5c-.813,1.279-1.64,2.551-2.512,3.789a1.06,1.06,0,0,1-1.621.279,10.255,10.255,0,0,1-1.513-1.495,1.075,1.075,0,0,1-.027-1.331A1.2,1.2,0,0,1,40,104.825" transform="translate(-27.496 -73.15)" fill="#070605"/>
        <path id="Trazado_819639" data-name="Trazado 819639" d="M39.786,138.89c1.322.891,1.482-.52,2.048-1.179.215-.25.368-.554.585-.8a1.122,1.122,0,0,1,1.541-.242,1.081,1.081,0,0,1,.4,1.6c-.787,1.24-1.583,2.476-2.434,3.671a1.157,1.157,0,0,1-1.941.16,15.644,15.644,0,0,1-1.2-1.216,1.123,1.123,0,0,1-.133-1.33,1.273,1.273,0,0,1,1.133-.662" transform="translate(-27.517 -97.545)" fill="#070605"/>
        <path id="Trazado_819640" data-name="Trazado 819640" d="M44.565,171.863a5.023,5.023,0,0,1-.36.829c-.694,1.075-1.409,2.137-2.126,3.2-.638.942-1.379,1.1-2.225.253-.368-.37-.754-.726-1.084-1.128a1.1,1.1,0,0,1-.027-1.443c.3-.391.769-.717,1.234-.437.8.481,1.065-.048,1.4-.568s.675-1.032,1.049-1.519a1.118,1.118,0,0,1,1.292-.335c.516.151.722.57.842,1.151" transform="translate(-27.51 -121.976)" fill="#070605"/>
        <path id="Trazado_819641" data-name="Trazado 819641" d="M83.194,17.425A1.87,1.87,0,0,1,83.233,19c-.664.5-1.337.718-1.971-.023a1.05,1.05,0,0,1-.037-1.419c.6-.781,1.279-.592,1.97-.133" transform="translate(-57.876 -12.17)" fill="#0e0d0b"/>
      </g>
    </g>
  </g>
</svg>
